<?xml version="1.0" encoding="utf-8"?>
<!-- Generator: Adobe Illustrator 19.0.0, SVG Export Plug-In . SVG Version: 6.00 Build 0)  -->
<svg version="1.1" id="图层_1" xmlns="http://www.w3.org/2000/svg" xmlns:xlink="http://www.w3.org/1999/xlink" x="0px" y="0px"
	 viewBox="0 0 24 24" style="enable-background:new 0 0 24 24;" xml:space="preserve">
<style type="text/css">
	.st0{display:none;}
	.st1{display:inline;}
	.st2{fill:#272728;}
	.st3{fill:none;stroke:#272728;stroke-width:2;stroke-linecap:round;stroke-linejoin:round;stroke-miterlimit:10;}
	.st4{fill:#F1BE1C;}
	.st5{display:inline;fill:#F1BE1C;}
	.st6{fill:#FFFFFF;}
	.st7{fill:#282828;}
	.st8{display:inline;fill:#FB5B46;}
	.st9{display:inline;fill:#282828;}
</style>
<g id="XMLID_137_" class="st0">
	<g id="XMLID_149_" class="st1">
		<g id="XMLID_366_">
			<path id="XMLID_6_" class="st2" d="M6,33.4H-4.4c-1.5,0-2.8-1.3-2.8-2.8V19.4c0-0.6,0.4-1,1-1s1,0.4,1,1v11.1
				c0,0.4,0.4,0.8,0.8,0.8H6c0.6,0,1,0.4,1,1S6.5,33.4,6,33.4z"/>
		</g>
		<g id="XMLID_150_">
			<path id="XMLID_5_" class="st2" d="M-6.2,8.4c-0.6,0-1-0.4-1-1V-3c0-1.5,1.3-2.8,2.8-2.8H5.9c0.6,0,1,0.4,1,1s-0.4,1-1,1H-4.4
				c-0.4,0-0.8,0.4-0.8,0.8V7.4C-5.2,8-5.6,8.4-6.2,8.4z"/>
		</g>
	</g>
	<g id="XMLID_143_" class="st1">
		<g id="XMLID_145_">
			<path id="XMLID_4_" class="st2" d="M29.2,33.4H18.8c-0.6,0-1-0.4-1-1s0.4-1,1-1h10.4c0.4,0,0.8-0.4,0.8-0.8V19.4c0-0.6,0.4-1,1-1
				s1,0.4,1,1v11.1C31.9,32.1,30.7,33.4,29.2,33.4z"/>
		</g>
		<g id="XMLID_144_">
			<path id="XMLID_3_" class="st2" d="M30.9,8.4c-0.6,0-1-0.4-1-1V-3c0-0.4-0.4-0.8-0.8-0.8H18.8c-0.6,0-1-0.4-1-1s0.4-1,1-1h10.3
				c1.5,0,2.8,1.3,2.8,2.8V7.4C31.9,8,31.5,8.4,30.9,8.4z"/>
		</g>
	</g>
	<g id="XMLID_141_" class="st1">
		<path id="XMLID_2_" class="st2" d="M33,14H-7c-0.6,0-1-0.4-1-1s0.4-1,1-1h40c0.6,0,1,0.4,1,1S33.6,14,33,14z"/>
	</g>
</g>
<g id="XMLID_385_" class="st0">
	<g id="XMLID_407_" class="st1">
		<path id="XMLID_16_" class="st2" d="M-1.3,31.1l2.6-4.3c-5.7-2.9-9.1-7.9-9.1-13.3c0-8.8,9.1-15.9,20.3-15.9
			c11.2,0,20.3,7.1,20.3,15.9s-9.1,15.9-20.3,15.9c-0.7,0-1.5,0-2.4-0.1L-1.3,31.1z M12.5-0.4C2.4-0.4-5.8,5.8-5.8,13.5
			c0,4.9,3.4,9.4,9,11.9l1,0.5l-1.5,2.5l7.4-1.2l0.1,0c0.9,0.1,1.7,0.1,2.4,0.1c10.1,0,18.3-6.2,18.3-13.9
			C30.9,5.8,22.7-0.4,12.5-0.4z"/>
	</g>
	<g id="XMLID_395_" class="st1">
		<path id="XMLID_13_" class="st2" d="M1,16.2c-1.6,0-2.8-1.3-2.8-2.8s1.3-2.8,2.8-2.8s2.8,1.3,2.8,2.8S2.6,16.2,1,16.2z M1,12.6
			c-0.4,0-0.8,0.4-0.8,0.8c0,0.4,0.4,0.8,0.8,0.8s0.8-0.4,0.8-0.8C1.8,13,1.5,12.6,1,12.6z"/>
	</g>
	<g id="XMLID_394_" class="st1">
		<path id="XMLID_10_" class="st2" d="M13,16.2c-1.6,0-2.8-1.3-2.8-2.8s1.3-2.8,2.8-2.8c1.6,0,2.8,1.3,2.8,2.8S14.6,16.2,13,16.2z
			 M13,12.6c-0.4,0-0.8,0.4-0.8,0.8c0,0.4,0.4,0.8,0.8,0.8c0.4,0,0.8-0.4,0.8-0.8C13.8,13,13.5,12.6,13,12.6z"/>
	</g>
	<g id="XMLID_386_" class="st1">
		<path id="XMLID_7_" class="st2" d="M25,16.2c-1.6,0-2.8-1.3-2.8-2.8s1.3-2.8,2.8-2.8s2.8,1.3,2.8,2.8S26.6,16.2,25,16.2z M25,12.6
			c-0.4,0-0.8,0.4-0.8,0.8c0,0.4,0.4,0.8,0.8,0.8s0.8-0.4,0.8-0.8C25.8,13,25.5,12.6,25,12.6z"/>
	</g>
</g>
<g id="XMLID_455_" class="st0">
	<g id="XMLID_458_" class="st1">
		<path id="XMLID_49_" class="st2" d="M30.5,15.2c-0.3,0-0.5-0.1-0.7-0.3L13.4-1.7L-3.1,14.9c-0.4,0.4-1,0.4-1.4,0
			c-0.4-0.4-0.4-1,0-1.4L12.7-3.8C12.9-4,13.2-4,13.4-4c0,0,0,0,0,0c0.3,0,0.5,0,0.7,0.2l17.1,17.2c0.4,0.4,0.4,1,0,1.4
			C31,15.1,30.7,15.2,30.5,15.2z"/>
	</g>
	<g id="XMLID_457_" class="st1">
		<path id="XMLID_48_" class="st2" d="M23,28.8H3.7c-1.7,0-3-1.3-3-3V13.2c0-0.6,0.4-1,1-1s1,0.4,1,1v12.7c0,0.6,0.4,1,1,1H23
			c0.6,0,1-0.4,1-1V13.2c0-0.6,0.4-1,1-1s1,0.4,1,1v12.7C26,27.5,24.7,28.8,23,28.8z"/>
	</g>
	<g id="XMLID_456_" class="st1">
		<path id="XMLID_45_" class="st2" d="M16,28.1h-5.4c-0.4,0-0.8-0.3-0.8-0.8v-6.5c0-0.4,0.3-0.8,0.8-0.8H16c0.4,0,0.8,0.3,0.8,0.8
			v6.5C16.8,27.7,16.4,28.1,16,28.1z M11.4,26.6h3.9v-5h-3.9V26.6z"/>
	</g>
</g>
<g id="XMLID_554_" class="st0">
	<g id="XMLID_467_" class="st1">
		<g id="XMLID_468_">
			<path id="XMLID_57_" class="st2" d="M16.8,28.4c-5.2,0-9.3-4.2-9.3-9.3s4.2-9.3,9.3-9.3s9.3,4.2,9.3,9.3S22,28.4,16.8,28.4z
				 M16.8,11.7c-4,0-7.3,3.3-7.3,7.3s3.3,7.3,7.3,7.3c4,0,7.3-3.3,7.3-7.3S20.9,11.7,16.8,11.7z"/>
		</g>
	</g>
	<g id="XMLID_465_" class="st1">
		<g id="XMLID_466_">
			<path id="XMLID_52_" class="st2" d="M9,30.3h-9.1c-1.8,0-3.3-1.5-3.3-3.3V5.5c0-0.6,0.4-1,1-1h29.8c0.6,0,1,0.4,1,1v6.7
				c0,0.6-0.4,1-1,1s-1-0.4-1-1V6.5H-1.4V27c0,0.7,0.6,1.3,1.3,1.3H9c0.6,0,1,0.4,1,1S9.5,30.3,9,30.3z"/>
		</g>
	</g>
	<g id="XMLID_462_" class="st1">
		<g id="XMLID_463_">
			<path id="XMLID_53_" class="st2" d="M27.5,6.6H-2.4c-0.4,0-0.8-0.2-0.9-0.6c-0.2-0.4-0.1-0.8,0.2-1.1l6.4-7.1
				C3.4-2.4,3.7-2.5,4-2.5h17.1c0.3,0,0.6,0.1,0.7,0.3l6.4,7.1c0.3,0.3,0.3,0.7,0.2,1.1C28.2,6.3,27.9,6.6,27.5,6.6z M-0.1,4.6h25.4
				l-4.6-5.1H4.4L-0.1,4.6z"/>
		</g>
	</g>
	<g id="XMLID_459_" class="st1">
		<g id="XMLID_460_">
			<path id="XMLID_51_" class="st2" d="M1,14.4c-0.1,0-0.3,0-0.4-0.1C0.2,14.1,0,13.8,0,13.4V6c0-0.6,0.4-1,1-1s1,0.4,1,1v5.2
				L3.4,10c0.4-0.3,0.9-0.3,1.3,0L6,11.2V6c0-0.6,0.4-1,1-1s1,0.4,1,1v7.3c0,0.4-0.2,0.7-0.6,0.9c-0.4,0.2-0.8,0.1-1.1-0.1l-2.3-2
				l-2.4,2C1.5,14.3,1.2,14.4,1,14.4z"/>
		</g>
	</g>
	<g id="XMLID_521_" class="st1">
		<g id="XMLID_524_">
			<path id="XMLID_185_" class="st3" d="M26.7,30"/>
		</g>
		<g id="XMLID_523_">
			<path id="XMLID_50_" class="st2" d="M26.7,30.2c-0.2,0-0.5-0.1-0.7-0.3l-3.8-3.5c-0.4-0.4-0.4-1-0.1-1.4c0.4-0.4,1-0.4,1.4-0.1
				l3.8,3.5c0.4,0.4,0.4,1,0.1,1.4C27.2,30.1,27,30.2,26.7,30.2z"/>
		</g>
		<g id="XMLID_522_">
			<path id="XMLID_181_" class="st3" d="M22.1,25.7"/>
		</g>
	</g>
</g>
<g id="XMLID_555_" class="st0">
	<g id="XMLID_518_" class="st1">
		<path id="XMLID_65_" class="st2" d="M24,14H3c-0.6,0-1-0.4-1-1s0.4-1,1-1h21c0.6,0,1,0.4,1,1S24.6,14,24,14z"/>
	</g>
	<g id="XMLID_517_" class="st1">
		<path id="XMLID_64_" class="st2" d="M24,20H3c-0.6,0-1-0.4-1-1s0.4-1,1-1h21c0.6,0,1,0.4,1,1S24.6,20,24,20z"/>
	</g>
	<g id="XMLID_516_" class="st1">
		<path id="XMLID_63_" class="st2" d="M24,26H3c-0.6,0-1-0.4-1-1s0.4-1,1-1h21c0.6,0,1,0.4,1,1S24.6,26,24,26z"/>
	</g>
	<g id="XMLID_515_" class="st1">
		<path id="XMLID_62_" class="st2" d="M27.8,6.6c-0.2,0-0.5-0.1-0.6-0.3L23.8,1c-0.2-0.3-0.1-0.8,0.2-1c0.4-0.2,0.8-0.1,1,0.2
			l3.3,5.3c0.2,0.3,0.1,0.8-0.2,1C28,6.6,27.9,6.6,27.8,6.6z"/>
	</g>
	<g id="XMLID_500_" class="st1">
		<path id="XMLID_56_" class="st2" d="M26.9,31H-0.2C-1.8,31-3,29.7-3,28V1c0-1.7,1.2-3,2.8-3H22c0.6,0,1,0.4,1,1v9h6
			c0.6,0,1,0.4,1,1v19C30,29.7,28.6,31,26.9,31z M-0.2,0C-0.9,0-1,0.7-1,1v27c0,0.3,0.1,1,0.8,1h27.2c0.6,0,1.1-0.4,1.1-1V10h-6
			c-0.6,0-1-0.4-1-1V0H-0.2z"/>
	</g>
</g>
<g id="XMLID_501_" class="st0">
	<g id="XMLID_503_" class="st1">
		<g id="XMLID_513_">
			<path id="XMLID_71_" class="st2" d="M16.4,16.6c-5,0-9.1-4.1-9.1-9.2s4.1-9.2,9.1-9.2c5,0,9.1,4.1,9.1,9.2S21.4,16.6,16.4,16.6z
				 M16.4,0.2c-3.9,0-7.1,3.2-7.1,7.2s3.2,7.2,7.1,7.2c3.9,0,7.1-3.2,7.1-7.2S20.3,0.2,16.4,0.2z"/>
		</g>
		<g id="XMLID_512_">
			<path id="XMLID_69_" class="st2" d="M4,29.6c-0.6,0-1-0.4-1-1c0-7.7,6.2-14.1,13.9-14.1c0.6,0,1,0.4,1,1s-0.4,1-1,1
				C10.4,16.6,5,22,5,28.6C5,29.2,4.6,29.6,4,29.6z"/>
		</g>
		<g id="XMLID_511_">
			<path id="XMLID_68_" class="st2" d="M29.8,29.6c-0.6,0-1-0.4-1-1c0-4.2-2.3-8.1-5.9-10.2c-0.5-0.3-0.6-0.9-0.4-1.4
				c0.3-0.5,0.9-0.6,1.4-0.4c4.2,2.5,6.9,7.1,6.9,12C30.8,29.2,30.3,29.6,29.8,29.6z"/>
		</g>
		<g id="XMLID_505_">
			<g id="XMLID_507_">
				<path id="XMLID_67_" class="st2" d="M7.5,16.4c-0.1,0-0.1,0-0.2,0c-4.3-0.8-7.4-4.6-7.4-9C-0.1,2.3,4-1.8,9-1.8c0.6,0,1,0.4,1,1
					s-0.4,1-1,1c-3.9,0-7.1,3.2-7.1,7.2c0,3.5,2.4,6.4,5.8,7.1c0.5,0.1,0.9,0.6,0.8,1.2C8.4,16.1,8,16.4,7.5,16.4z"/>
			</g>
			<g id="XMLID_506_">
				<path id="XMLID_66_" class="st2" d="M-3.4,29.6c-0.6,0-1-0.4-1-1c0-6.9,5.1-13.1,11.6-14.2c0.5-0.1,1.1,0.3,1.1,0.8
					c0.1,0.5-0.3,1.1-0.8,1.1c-5.6,0.9-9.9,6.3-9.9,12.2C-2.4,29.2-2.9,29.6-3.4,29.6z"/>
			</g>
		</g>
	</g>
	<g id="XMLID_502_" class="st1">
		<path id="XMLID_148_" class="st3" d="M7.5,15.9"/>
	</g>
</g>
<g id="XMLID_99_" class="st0">
	<g id="XMLID_960_" class="st1">
		<polygon id="XMLID_1015_" class="st4" points="12.4,-1 27.4,14 29.5,14 12.4,-3.3 -4.8,14 -2.5,14 		"/>
		<polygon id="XMLID_1016_" class="st4" points="26,14.2 12.4,0.6 -1.1,14.2 		"/>
	</g>
	<path id="XMLID_98_" class="st5" d="M1,13v12.8C1,26.9,1.6,28,2.7,28H10v-7h5v7h7c1.1,0,2-1.1,2-2.2V13H1z"/>
</g>
<g id="XMLID_100_" class="st0">
	<g id="XMLID_982_" class="st1">
		<path id="XMLID_983_" class="st4" d="M9,28.3h-9.1c-1.3,0-2.3-1-2.3-2.3V5.5h29.8v20.8c0,1.1-0.9,2-2,2H9z"/>
	</g>
	<g id="XMLID_979_" class="st1">
		<path id="XMLID_980_" class="st4" d="M27.5,4.6H-2.4L4-2.5h17.1L27.5,4.6z"/>
	</g>
	<g id="XMLID_977_" class="st1">
		<polyline id="XMLID_978_" class="st6" points="7,5 7,12.3 4,9.8 1,12.4 1,5 		"/>
	</g>
	<g id="XMLID_988_" class="st1">
		<path id="XMLID_989_" class="st6" d="M16.8,26.4c-4.6,0-8.3-3.7-8.3-8.3s3.7-8.3,8.3-8.3s8.3,3.7,8.3,8.3S21.4,26.4,16.8,26.4z"/>
	</g>
	<g id="XMLID_984_" class="st1">
		<g id="XMLID_987_">
			<path id="XMLID_381_" class="st6" d="M26.5,28.1"/>
		</g>
		<g id="XMLID_986_">
			<path id="XMLID_374_" class="st6" d="M26.4,28.3c-0.2,0-0.5-0.1-0.7-0.3L22,24.5c-0.4-0.4-0.4-1-0.1-1.4c0.4-0.4,1-0.4,1.4-0.1
				l3.8,3.5c0.4,0.4,0.4,1,0.1,1.4C27,28.2,26.7,28.3,26.4,28.3z"/>
		</g>
		<g id="XMLID_985_">
			<path id="XMLID_377_" class="st6" d="M21.9,23.8"/>
		</g>
	</g>
</g>
<g id="XMLID_101_" class="st0">
	<path id="XMLID_954_" class="st5" d="M22,9V-1H-0.2C-1.3-1-2-0.1-2,1v27c0,1.1,0.7,2,1.8,2h27.2c1.1,0,2.1-0.9,2.1-2V9H22z"/>
	<g id="XMLID_958_" class="st1">
		<path id="XMLID_382_" class="st6" d="M23.7,14h-21c-0.6,0-1-0.4-1-1s0.4-1,1-1h21c0.6,0,1,0.4,1,1S24.3,14,23.7,14z"/>
	</g>
	<g id="XMLID_957_" class="st1">
		<path id="XMLID_379_" class="st6" d="M23.7,20h-21c-0.6,0-1-0.4-1-1s0.4-1,1-1h21c0.6,0,1,0.4,1,1S24.3,20,23.7,20z"/>
	</g>
	<g id="XMLID_956_" class="st1">
		<path id="XMLID_378_" class="st6" d="M23.7,26h-21c-0.6,0-1-0.4-1-1s0.4-1,1-1h21c0.6,0,1,0.4,1,1S24.3,26,23.7,26z"/>
	</g>
	<g id="XMLID_955_" class="st1">
		<path id="XMLID_383_" class="st4" d="M27.8,6.6c-0.2,0-0.5-0.1-0.6-0.3L23.8,1c-0.2-0.3-0.1-0.8,0.2-1c0.3-0.2,0.8-0.1,1,0.2
			l3.3,5.3c0.2,0.3,0.1,0.8-0.2,1C28,6.6,27.9,6.6,27.8,6.6z"/>
	</g>
</g>
<g id="XMLID_482_" class="st0">
	<g id="XMLID_487_" class="st1">
		<path id="XMLID_488_" class="st7" d="M12.1,28.8l-0.9-0.5l0.8-1.5c0.9-1.5,0.9-1.7,2.2-3.1c3.5-4,8.2-8.6,8.3-8.7l3.5-3.7
			c1.5-1.9,1.8-4.1,1.8-6.2c0-4.3-4.4-7.5-8.4-7.5c-4,0-7.1,3.1-7.2,7.2l-0.5,0l-0.5,0C11,0.7,7.9-2.4,4-2.4c-4,0-8.4,3.2-8.4,7.5
			c0,2.1,0.2,4.2,1.8,6.2l3.5,3.7l0,0c0,0,0.8,0.8,2.1,2.1l-0.7,0.7c-1.2-1.3-2.1-2.1-2.1-2.1L-3.4,12c-1.8-2.2-2-4.6-2-6.9
			c0-4.9,5-8.5,9.4-8.5c3.6,0,6.6,2.2,7.8,5.5c1.1-3.3,4.1-5.5,7.8-5.5c4.4,0,9.4,3.7,9.4,8.5c0,2.3-0.2,4.6-2,6.9l-3.5,3.8
			c-0.1,0.1-4.8,4.7-8.3,8.6c-1.2,1.3-1.2,1.4-2.1,2.9L12.1,28.8z"/>
	</g>
	<g id="XMLID_483_" class="st1">
		<g id="XMLID_484_">
			<path id="XMLID_485_" class="st7" d="M3.1,21.2h4.6v-4.6h1v4.6h4.6V22H8.6v5.1h-1V22H3.1V21.2z"/>
		</g>
	</g>
</g>
<g id="XMLID_489_" class="st0">
	<path id="XMLID_490_" class="st8" d="M19.5-2.9c-4.3,0-7.6,3.4-7.7,7.6c0-0.4,0-0.7,0-1.1c0,0.4,0,0.7,0,1.1
		C11.5,0.5,8.3-2.9,4-2.9c-4.4,0-8.9,3.6-8.9,8c0,2.1,0.2,4.4,1.9,6.5l3.5,3.7c0,0,4.7,4.5,8.3,8.5c1.5,1.7,1.2,1.2,3,4.2h0h0
		c1.7-3,1.5-2.5,3-4.2c3.5-4,8.3-8.5,8.3-8.5l3.5-3.7c1.7-2.1,1.9-4.4,1.9-6.5C28.3,0.7,23.9-2.9,19.5-2.9z"/>
</g>
<g id="XMLID_425_" class="st0">
	<path id="XMLID_70_" class="st9" d="M20.1,28.5c-0.2,0-0.4-0.1-0.5-0.2L3.4,12.1c-0.1-0.1-0.2-0.3-0.2-0.5c0-0.2,0.1-0.4,0.2-0.5
		L19.6-5c0.3-0.3,0.8-0.3,1.1,0c0.3,0.3,0.3,0.8,0,1.1L5,11.5l15.7,15.7c0.3,0.3,0.3,0.8,0,1.1C20.5,28.4,20.3,28.5,20.1,28.5z"/>
</g>
<g id="XMLID_44_" class="st0">
	<path id="XMLID_74_" class="st8" d="M19.5-2.9c-4.3,0-7.6,3.4-7.7,7.6c0-0.4,0-0.7,0-1.1c0,0.4,0,0.7,0,1.1C11.5,0.5,8.3-2.9,4-2.9
		c-4.4,0-8.9,3.6-8.9,8c0,2.1,0.2,4.4,1.9,6.5l3.5,3.7c0,0,4.7,4.5,8.3,8.5c1.5,1.7,1.2,1.2,3,4.2h0h0c1.7-3,1.5-2.5,3-4.2
		c3.5-4,8.3-8.5,8.3-8.5l3.5-3.7c1.7-2.1,1.9-4.4,1.9-6.5C28.3,0.7,23.9-2.9,19.5-2.9z"/>
</g>
<g id="XMLID_433_" class="st0">
	<g id="XMLID_435_" class="st1">
		<path id="XMLID_77_" class="st7" d="M23.5,25c-0.1,0-0.3,0-0.4-0.1L-0.2,1.5c-0.2-0.2-0.2-0.5,0-0.7s0.5-0.2,0.7,0l23.3,23.3
			c0.2,0.2,0.2,0.5,0,0.7C23.8,25,23.7,25,23.5,25z"/>
	</g>
	<g id="XMLID_434_" class="st1">
		<path id="XMLID_76_" class="st7" d="M0.2,24.3c-0.1,0-0.3,0-0.4-0.1c-0.2-0.2-0.2-0.5,0-0.7L23.2,0.1c0.2-0.2,0.5-0.2,0.7,0
			s0.2,0.5,0,0.7L0.5,24.2C0.4,24.3,0.3,24.3,0.2,24.3z"/>
	</g>
</g>
<g id="XMLID_450_" class="st0">
	<g id="XMLID_452_" class="st1">
		<path id="XMLID_94_" class="st7" d="M11.8,20.9c-7.8,0-14.9-6.3-14.9-8.7c0-2.1,6.7-8.5,14.9-8.5c8.2,0,14.9,6.9,14.9,8.5
			C26.7,14.3,19.8,20.9,11.8,20.9z M11.8,5.2c-7.5,0-13.3,5.9-13.5,7.1c0,1.2,5.7,7.2,13.5,7.2c7.3,0,13.2-5.9,13.5-7.2
			C24.8,11.1,19,5.2,11.8,5.2z"/>
	</g>
	<g id="XMLID_451_" class="st1">
		<path id="XMLID_91_" class="st7" d="M12,17.7c-3,0-5.5-2.5-5.5-5.5c0-3,2.5-5.5,5.5-5.5s5.5,2.5,5.5,5.5
			C17.5,15.2,15,17.7,12,17.7z M12,8.1c-2.2,0-4.1,1.8-4.1,4.1s1.8,4.1,4.1,4.1c2.2,0,4.1-1.8,4.1-4.1S14.2,8.1,12,8.1z"/>
	</g>
</g>
<g id="XMLID_454_" class="st0">
	<g id="XMLID_428_" class="st1">
		<g id="XMLID_429_">
			<path class="st7" d="M19.4,20.7C14.3,26,5.8,26.2,0.5,21.1S-5,7.5,0.2,2.1s13.6-5.5,18.9-0.4S24.5,15.4,19.4,20.7z M1.6,3.5
				C-2.8,8-2.6,15.3,1.9,19.6s11.7,4.2,16.1-0.3s4.2-11.7-0.3-16.1S6-1,1.6,3.5z"/>
		</g>
	</g>
	<g id="XMLID_423_" class="st1">
		<path id="XMLID_97_" class="st7" d="M26.9,26.9c-0.2,0-0.4-0.1-0.6-0.2l-7.4-6.1c-0.4-0.4-0.5-1-0.1-1.4c0.3-0.4,1-0.5,1.4-0.1
			l7.4,6.1c0.4,0.4,0.5,1,0.1,1.4C27.5,26.7,27.2,26.9,26.9,26.9z"/>
	</g>
</g>
<g id="XMLID_421_" class="st0">
	<path id="XMLID_115_" class="st9" d="M5.8,25.7c-0.2,0-0.3-0.1-0.4-0.2c-0.2-0.2-0.2-0.6,0-0.9l13.1-13.1L5.4-1.3
		C5.1-1.6,5.1-2,5.4-2.2c0.2-0.2,0.6-0.2,0.9,0l13.5,13.3c0.1,0.1,0.2,0.3,0.2,0.4c0,0.2-0.1,0.3-0.2,0.4L6.2,25.5
		C6.1,25.7,6,25.7,5.8,25.7z"/>
</g>
<g id="XMLID_418_">
	<path id="XMLID_129_" class="st7" d="M12.3,18c-0.1,0-0.3-0.3-0.4-0.4L0.7,6.3c-0.2-0.2-0.2-0.6,0-0.8s0.5-0.2,0.7,0l10.8,10.8
		L23,5.5c0.2-0.2,0.5-0.2,0.7,0c0.2,0.2,0.2,0.5,0,0.7l-11,11.4C12.5,17.7,12.4,18,12.3,18C12.3,18,12.3,18,12.3,18z"/>
</g>
</svg>
