<?xml version="1.0" encoding="utf-8"?>
<!-- Generator: Adobe Illustrator 19.0.0, SVG Export Plug-In . SVG Version: 6.00 Build 0)  -->
<svg version="1.1" id="图层_1" xmlns="http://www.w3.org/2000/svg" xmlns:xlink="http://www.w3.org/1999/xlink" x="0px" y="0px"
	 viewBox="0 0 224 86" style="enable-background:new 0 0 224 86;" xml:space="preserve">
<style type="text/css">
	.st0{display:none;}
	.st1{display:inline;}
	.st2{fill:#272728;}
	.st3{fill:none;stroke:#272728;stroke-width:2;stroke-linecap:round;stroke-linejoin:round;stroke-miterlimit:10;}
	.st4{fill:#F1BE1C;}
	.st5{display:inline;fill:#F1BE1C;}
	.st6{fill:#FFFFFF;}
	.st7{display:inline;fill:#FB5B46;}
	.st8{fill:#BCBCBC;}
	.st9{display:none;fill:#FCC505;}
	.st10{fill:#FCC505;}
</style>
<g id="XMLID_137_" class="st0">
	<g id="XMLID_149_" class="st1">
		<g id="XMLID_366_">
			<path id="XMLID_6_" class="st2" d="M106,64.4H95.6c-1.5,0-2.8-1.3-2.8-2.8V50.4c0-0.6,0.4-1,1-1s1,0.4,1,1v11.1
				c0,0.4,0.4,0.8,0.8,0.8H106c0.6,0,1,0.4,1,1S106.5,64.4,106,64.4z"/>
		</g>
		<g id="XMLID_150_">
			<path id="XMLID_5_" class="st2" d="M93.8,39.4c-0.6,0-1-0.4-1-1V28c0-1.5,1.3-2.8,2.8-2.8h10.3c0.6,0,1,0.4,1,1s-0.4,1-1,1H95.6
				c-0.4,0-0.8,0.4-0.8,0.8v10.5C94.8,39,94.4,39.4,93.8,39.4z"/>
		</g>
	</g>
	<g id="XMLID_143_" class="st1">
		<g id="XMLID_145_">
			<path id="XMLID_4_" class="st2" d="M129.2,64.4h-10.4c-0.6,0-1-0.4-1-1s0.4-1,1-1h10.4c0.4,0,0.8-0.4,0.8-0.8V50.4
				c0-0.6,0.4-1,1-1s1,0.4,1,1v11.1C131.9,63.1,130.7,64.4,129.2,64.4z"/>
		</g>
		<g id="XMLID_144_">
			<path id="XMLID_7_" class="st2" d="M130.9,39.4c-0.6,0-1-0.4-1-1V28c0-0.4-0.4-0.8-0.8-0.8h-10.3c-0.6,0-1-0.4-1-1s0.4-1,1-1
				h10.3c1.5,0,2.8,1.3,2.8,2.8v10.5C131.9,39,131.5,39.4,130.9,39.4z"/>
		</g>
	</g>
	<g id="XMLID_141_" class="st1">
		<path id="XMLID_3_" class="st2" d="M133,45H93c-0.6,0-1-0.4-1-1s0.4-1,1-1h40c0.6,0,1,0.4,1,1S133.6,45,133,45z"/>
	</g>
</g>
<g id="XMLID_385_" class="st0">
	<g id="XMLID_407_" class="st1">
		<path id="XMLID_16_" class="st2" d="M98.7,62.1l2.6-4.3c-5.7-2.9-9.1-7.9-9.1-13.3c0-8.8,9.1-15.9,20.3-15.9
			c11.2,0,20.3,7.1,20.3,15.9s-9.1,15.9-20.3,15.9c-0.7,0-1.5,0-2.4-0.1L98.7,62.1z M112.5,30.6c-10.1,0-18.3,6.2-18.3,13.9
			c0,4.9,3.4,9.4,9,11.9l1,0.5l-1.5,2.5l7.4-1.2l0.1,0c0.9,0.1,1.7,0.1,2.4,0.1c10.1,0,18.3-6.2,18.3-13.9
			C130.9,36.8,122.7,30.6,112.5,30.6z"/>
	</g>
	<g id="XMLID_395_" class="st1">
		<path id="XMLID_13_" class="st2" d="M101,47.2c-1.6,0-2.8-1.3-2.8-2.8s1.3-2.8,2.8-2.8s2.8,1.3,2.8,2.8S102.6,47.2,101,47.2z
			 M101,43.6c-0.4,0-0.8,0.4-0.8,0.8c0,0.4,0.4,0.8,0.8,0.8s0.8-0.4,0.8-0.8C101.8,44,101.5,43.6,101,43.6z"/>
	</g>
	<g id="XMLID_394_" class="st1">
		<path id="XMLID_10_" class="st2" d="M113,47.2c-1.6,0-2.8-1.3-2.8-2.8s1.3-2.8,2.8-2.8c1.6,0,2.8,1.3,2.8,2.8S114.6,47.2,113,47.2
			z M113,43.6c-0.4,0-0.8,0.4-0.8,0.8c0,0.4,0.4,0.8,0.8,0.8c0.4,0,0.8-0.4,0.8-0.8C113.8,44,113.5,43.6,113,43.6z"/>
	</g>
	<g id="XMLID_386_" class="st1">
		<path id="XMLID_8_" class="st2" d="M125,47.2c-1.6,0-2.8-1.3-2.8-2.8s1.3-2.8,2.8-2.8s2.8,1.3,2.8,2.8S126.6,47.2,125,47.2z
			 M125,43.6c-0.4,0-0.8,0.4-0.8,0.8c0,0.4,0.4,0.8,0.8,0.8s0.8-0.4,0.8-0.8C125.8,44,125.5,43.6,125,43.6z"/>
	</g>
</g>
<g id="XMLID_455_" class="st0">
	<g id="XMLID_458_" class="st1">
		<path id="XMLID_49_" class="st2" d="M130.5,46.2c-0.3,0-0.5-0.1-0.7-0.3l-16.4-16.6L96.9,45.9c-0.4,0.4-1,0.4-1.4,0
			c-0.4-0.4-0.4-1,0-1.4l17.2-17.2c0.2-0.2,0.4-0.2,0.7-0.2c0,0,0,0,0,0c0.3,0,0.5,0,0.7,0.2l17.1,17.2c0.4,0.4,0.4,1,0,1.4
			C131,46.1,130.7,46.2,130.5,46.2z"/>
	</g>
	<g id="XMLID_457_" class="st1">
		<path id="XMLID_48_" class="st2" d="M123,59.8h-19.3c-1.7,0-3-1.3-3-3V44.2c0-0.6,0.4-1,1-1s1,0.4,1,1v12.7c0,0.6,0.4,1,1,1H123
			c0.6,0,1-0.4,1-1V44.2c0-0.6,0.4-1,1-1s1,0.4,1,1v12.7C126,58.5,124.7,59.8,123,59.8z"/>
	</g>
	<g id="XMLID_456_" class="st1">
		<path id="XMLID_45_" class="st2" d="M116,59.1h-5.4c-0.4,0-0.8-0.3-0.8-0.8v-6.5c0-0.4,0.3-0.8,0.8-0.8h5.4c0.4,0,0.8,0.3,0.8,0.8
			v6.5C116.8,58.7,116.4,59.1,116,59.1z M111.4,57.6h3.9v-5h-3.9V57.6z"/>
	</g>
</g>
<g id="XMLID_554_" class="st0">
	<g id="XMLID_467_" class="st1">
		<g id="XMLID_468_">
			<path id="XMLID_57_" class="st2" d="M116.8,59.4c-5.2,0-9.3-4.2-9.3-9.3s4.2-9.3,9.3-9.3s9.3,4.2,9.3,9.3S122,59.4,116.8,59.4z
				 M116.8,42.7c-4,0-7.3,3.3-7.3,7.3s3.3,7.3,7.3,7.3c4,0,7.3-3.3,7.3-7.3S120.9,42.7,116.8,42.7z"/>
		</g>
	</g>
	<g id="XMLID_465_" class="st1">
		<g id="XMLID_466_">
			<path id="XMLID_52_" class="st2" d="M109,61.3h-9.1c-1.8,0-3.3-1.5-3.3-3.3V36.5c0-0.6,0.4-1,1-1h29.8c0.6,0,1,0.4,1,1v6.7
				c0,0.6-0.4,1-1,1s-1-0.4-1-1v-5.7H98.6V58c0,0.7,0.6,1.3,1.3,1.3h9.1c0.6,0,1,0.4,1,1S109.5,61.3,109,61.3z"/>
		</g>
	</g>
	<g id="XMLID_462_" class="st1">
		<g id="XMLID_463_">
			<path id="XMLID_53_" class="st2" d="M127.5,37.6H97.6c-0.4,0-0.8-0.2-0.9-0.6c-0.2-0.4-0.1-0.8,0.2-1.1l6.4-7.1
				c0.2-0.2,0.5-0.3,0.7-0.3h17.1c0.3,0,0.6,0.1,0.7,0.3l6.4,7.1c0.3,0.3,0.3,0.7,0.2,1.1C128.2,37.3,127.9,37.6,127.5,37.6z
				 M99.9,35.6h25.4l-4.6-5.1h-16.2L99.9,35.6z"/>
		</g>
	</g>
	<g id="XMLID_459_" class="st1">
		<g id="XMLID_460_">
			<path id="XMLID_51_" class="st2" d="M101,45.4c-0.1,0-0.3,0-0.4-0.1c-0.4-0.2-0.6-0.5-0.6-0.9V37c0-0.6,0.4-1,1-1s1,0.4,1,1v5.2
				l1.4-1.2c0.4-0.3,0.9-0.3,1.3,0l1.3,1.1V37c0-0.6,0.4-1,1-1s1,0.4,1,1v7.3c0,0.4-0.2,0.7-0.6,0.9c-0.4,0.2-0.8,0.1-1.1-0.1
				l-2.3-2l-2.4,2C101.5,45.3,101.2,45.4,101,45.4z"/>
		</g>
	</g>
	<g id="XMLID_521_" class="st1">
		<g id="XMLID_524_">
			<path id="XMLID_185_" class="st3" d="M126.7,61"/>
		</g>
		<g id="XMLID_523_">
			<path id="XMLID_50_" class="st2" d="M126.7,61.2c-0.2,0-0.5-0.1-0.7-0.3l-3.8-3.5c-0.4-0.4-0.4-1-0.1-1.4c0.4-0.4,1-0.4,1.4-0.1
				l3.8,3.5c0.4,0.4,0.4,1,0.1,1.4C127.2,61.1,127,61.2,126.7,61.2z"/>
		</g>
		<g id="XMLID_522_">
			<path id="XMLID_181_" class="st3" d="M122.1,56.7"/>
		</g>
	</g>
</g>
<g id="XMLID_555_" class="st0">
	<g id="XMLID_518_" class="st1">
		<path id="XMLID_65_" class="st2" d="M124,45h-21c-0.6,0-1-0.4-1-1s0.4-1,1-1h21c0.6,0,1,0.4,1,1S124.6,45,124,45z"/>
	</g>
	<g id="XMLID_517_" class="st1">
		<path id="XMLID_64_" class="st2" d="M124,51h-21c-0.6,0-1-0.4-1-1s0.4-1,1-1h21c0.6,0,1,0.4,1,1S124.6,51,124,51z"/>
	</g>
	<g id="XMLID_516_" class="st1">
		<path id="XMLID_63_" class="st2" d="M124,57h-21c-0.6,0-1-0.4-1-1s0.4-1,1-1h21c0.6,0,1,0.4,1,1S124.6,57,124,57z"/>
	</g>
	<g id="XMLID_515_" class="st1">
		<path id="XMLID_62_" class="st2" d="M127.8,37.6c-0.2,0-0.5-0.1-0.6-0.3l-3.3-5.3c-0.2-0.3-0.1-0.8,0.2-1c0.4-0.2,0.8-0.1,1,0.2
			l3.3,5.3c0.2,0.3,0.1,0.8-0.2,1C128,37.6,127.9,37.6,127.8,37.6z"/>
	</g>
	<g id="XMLID_500_" class="st1">
		<path id="XMLID_56_" class="st2" d="M126.9,62H99.8c-1.6,0-2.8-1.3-2.8-3V32c0-1.7,1.2-3,2.8-3H122c0.6,0,1,0.4,1,1v9h6
			c0.6,0,1,0.4,1,1v19C130,60.7,128.6,62,126.9,62z M99.8,31c-0.7,0-0.8,0.7-0.8,1v27c0,0.3,0.1,1,0.8,1h27.2c0.6,0,1.1-0.4,1.1-1
			V41h-6c-0.6,0-1-0.4-1-1v-9H99.8z"/>
	</g>
</g>
<g id="XMLID_501_" class="st0">
	<g id="XMLID_503_" class="st1">
		<g id="XMLID_513_">
			<path id="XMLID_71_" class="st2" d="M116.4,47.6c-5,0-9.1-4.1-9.1-9.2s4.1-9.2,9.1-9.2c5,0,9.1,4.1,9.1,9.2
				S121.4,47.6,116.4,47.6z M116.4,31.2c-3.9,0-7.1,3.2-7.1,7.2s3.2,7.2,7.1,7.2c3.9,0,7.1-3.2,7.1-7.2S120.3,31.2,116.4,31.2z"/>
		</g>
		<g id="XMLID_512_">
			<path id="XMLID_69_" class="st2" d="M104,60.6c-0.6,0-1-0.4-1-1c0-7.7,6.2-14.1,13.9-14.1c0.6,0,1,0.4,1,1s-0.4,1-1,1
				c-6.5,0-11.9,5.4-11.9,12.1C105,60.2,104.6,60.6,104,60.6z"/>
		</g>
		<g id="XMLID_511_">
			<path id="XMLID_68_" class="st2" d="M129.8,60.6c-0.6,0-1-0.4-1-1c0-4.2-2.3-8.1-5.9-10.2c-0.5-0.3-0.6-0.9-0.4-1.4
				c0.3-0.5,0.9-0.6,1.4-0.4c4.2,2.5,6.9,7.1,6.9,12C130.8,60.2,130.3,60.6,129.8,60.6z"/>
		</g>
		<g id="XMLID_505_">
			<g id="XMLID_507_">
				<path id="XMLID_67_" class="st2" d="M107.5,47.4c-0.1,0-0.1,0-0.2,0c-4.3-0.8-7.4-4.6-7.4-9c0-5.1,4.1-9.2,9.1-9.2
					c0.6,0,1,0.4,1,1s-0.4,1-1,1c-3.9,0-7.1,3.2-7.1,7.2c0,3.5,2.4,6.4,5.8,7.1c0.5,0.1,0.9,0.6,0.8,1.2
					C108.4,47.1,108,47.4,107.5,47.4z"/>
			</g>
			<g id="XMLID_506_">
				<path id="XMLID_66_" class="st2" d="M96.6,60.6c-0.6,0-1-0.4-1-1c0-6.9,5.1-13.1,11.6-14.2c0.5-0.1,1.1,0.3,1.1,0.8
					c0.1,0.5-0.3,1.1-0.8,1.1c-5.6,0.9-9.9,6.3-9.9,12.2C97.6,60.2,97.1,60.6,96.6,60.6z"/>
			</g>
		</g>
	</g>
	<g id="XMLID_502_" class="st1">
		<path id="XMLID_148_" class="st3" d="M107.5,46.9"/>
	</g>
</g>
<g id="XMLID_99_" class="st0">
	<g id="XMLID_960_" class="st1">
		<polygon id="XMLID_1015_" class="st4" points="112.4,30 127.4,45 129.5,45 112.4,27.7 95.2,45 97.5,45 		"/>
		<polygon id="XMLID_1016_" class="st4" points="126,45.2 112.4,31.6 98.9,45.2 		"/>
	</g>
	<path id="XMLID_98_" class="st5" d="M101,44v12.8c0,1.1,0.6,2.2,1.7,2.2h7.3v-7h5v7h7c1.1,0,2-1.1,2-2.2V44H101z"/>
</g>
<g id="XMLID_100_" class="st0">
	<g id="XMLID_982_" class="st1">
		<path id="XMLID_983_" class="st4" d="M109,59.3h-9.1c-1.3,0-2.3-1-2.3-2.3V36.5h29.8v20.8c0,1.1-0.9,2-2,2H109z"/>
	</g>
	<g id="XMLID_979_" class="st1">
		<path id="XMLID_980_" class="st4" d="M127.5,35.6H97.6l6.4-7.1h17.1L127.5,35.6z"/>
	</g>
	<g id="XMLID_977_" class="st1">
		<polyline id="XMLID_978_" class="st6" points="107,36 107,43.3 104,40.8 101,43.4 101,36 		"/>
	</g>
	<g id="XMLID_988_" class="st1">
		<path id="XMLID_989_" class="st6" d="M116.8,57.4c-4.6,0-8.3-3.7-8.3-8.3s3.7-8.3,8.3-8.3c4.6,0,8.3,3.7,8.3,8.3
			S121.4,57.4,116.8,57.4z"/>
	</g>
	<g id="XMLID_984_" class="st1">
		<g id="XMLID_987_">
			<path id="XMLID_381_" class="st6" d="M126.5,59.1"/>
		</g>
		<g id="XMLID_986_">
			<path id="XMLID_374_" class="st6" d="M126.4,59.3c-0.2,0-0.5-0.1-0.7-0.3l-3.8-3.5c-0.4-0.4-0.4-1-0.1-1.4c0.4-0.4,1-0.4,1.4-0.1
				l3.8,3.5c0.4,0.4,0.4,1,0.1,1.4C127,59.2,126.7,59.3,126.4,59.3z"/>
		</g>
		<g id="XMLID_985_">
			<path id="XMLID_377_" class="st6" d="M121.9,54.8"/>
		</g>
	</g>
</g>
<g id="XMLID_101_" class="st0">
	<path id="XMLID_954_" class="st5" d="M122,40V30H99.8c-1.1,0-1.8,0.9-1.8,2v27c0,1.1,0.7,2,1.8,2h27.2c1.1,0,2.1-0.9,2.1-2V40H122z
		"/>
	<g id="XMLID_958_" class="st1">
		<path id="XMLID_382_" class="st6" d="M123.7,45h-21c-0.6,0-1-0.4-1-1s0.4-1,1-1h21c0.6,0,1,0.4,1,1S124.3,45,123.7,45z"/>
	</g>
	<g id="XMLID_957_" class="st1">
		<path id="XMLID_379_" class="st6" d="M123.7,51h-21c-0.6,0-1-0.4-1-1s0.4-1,1-1h21c0.6,0,1,0.4,1,1S124.3,51,123.7,51z"/>
	</g>
	<g id="XMLID_956_" class="st1">
		<path id="XMLID_378_" class="st6" d="M123.7,57h-21c-0.6,0-1-0.4-1-1s0.4-1,1-1h21c0.6,0,1,0.4,1,1S124.3,57,123.7,57z"/>
	</g>
	<g id="XMLID_955_" class="st1">
		<path id="XMLID_383_" class="st4" d="M127.8,37.6c-0.2,0-0.5-0.1-0.6-0.3l-3.3-5.3c-0.2-0.3-0.1-0.8,0.2-1c0.3-0.2,0.8-0.1,1,0.2
			l3.3,5.3c0.2,0.3,0.1,0.8-0.2,1C128,37.6,127.9,37.6,127.8,37.6z"/>
	</g>
</g>
<g id="XMLID_1237_" class="st0">
	<path id="XMLID_1238_" class="st7" d="M119.1,30.1c-3.7,0-6.5,2.9-6.7,6.6c0-0.3,0-0.6,0-1c0,0.3,0,0.6,0,1c-0.2-3.7-3-6.6-6.7-6.6
		c-3.8,0-7.6,3.1-7.6,6.9c0,1.8,0.2,3.8,1.6,5.6l3,3.2c0,0,4.1,4,7.1,7.5c1.3,1.5,1,0.8,2.5,3.8h0h0c1.5-3,1.3-2.3,2.5-3.8
		c3-3.5,7.1-7.4,7.1-7.4l3-3.2c1.5-1.8,1.6-3.8,1.6-5.6C126.7,33.2,122.9,30.1,119.1,30.1z"/>
</g>
<g id="XMLID_2416_" class="st0">
	<g id="XMLID_2214_" class="st1">
		<g id="XMLID_2210_">
			<path id="XMLID_76_" class="st8" d="M118.3,54h-12.5c-0.7,0-1.3-0.6-1.3-1.3V33.3c0-0.7,0.6-1.3,1.3-1.3h12.5
				c0.7,0,1.3,0.6,1.3,1.3v19.5C119.6,53.5,119,54,118.3,54z M105.8,32.5c-0.4,0-0.7,0.3-0.7,0.7v19.5c0,0.4,0.3,0.7,0.7,0.7h12.5
				c0.4,0,0.7-0.3,0.7-0.7V33.3c0-0.4-0.3-0.7-0.7-0.7H105.8z"/>
		</g>
		<g id="XMLID_2312_">
			<rect id="XMLID_75_" x="104.7" y="35.9" class="st8" width="14.6" height="0.6"/>
		</g>
		<g id="XMLID_2380_">
			<rect id="XMLID_74_" x="104.7" y="48.5" class="st8" width="14.6" height="0.6"/>
		</g>
	</g>
	<g id="XMLID_2383_" class="st1">
		<rect id="XMLID_70_" x="110.3" y="51" class="st8" width="3.5" height="0.6"/>
	</g>
</g>
<g id="XMLID_2390_" class="st0">
	<g id="XMLID_2387_" class="st1">
		<rect id="XMLID_86_" x="111.7" y="34.6" class="st8" width="3.7" height="0.6"/>
	</g>
	<g id="XMLID_2388_" class="st1">
		<rect id="XMLID_85_" x="111.7" y="34.7" class="st8" width="3.7" height="0.6"/>
	</g>
	<g id="XMLID_2389_" class="st1">
		<rect id="XMLID_84_" x="111.7" y="37.7" class="st8" width="3.7" height="0.6"/>
	</g>
	<g id="XMLID_2385_" class="st1">
		<rect id="XMLID_83_" x="111.7" y="37.9" class="st8" width="3.7" height="0.6"/>
	</g>
	<g id="XMLID_2386_" class="st1">
		<rect id="XMLID_82_" x="111.4" y="32.6" class="st8" width="0.6" height="11.2"/>
	</g>
	<g id="XMLID_2384_" class="st1">
		<path id="XMLID_79_" class="st8" d="M111.7,54.1c-2.9,0-5.3-2.4-5.3-5.3s2.4-5.3,5.3-5.3s5.3,2.4,5.3,5.3S114.7,54.1,111.7,54.1z
			 M111.7,44.1c-2.5,0-4.6,2.1-4.6,4.6s2.1,4.6,4.6,4.6s4.6-2.1,4.6-4.6S114.3,44.1,111.7,44.1z"/>
	</g>
</g>
<g id="XMLID_2213_" class="st0">
	<g id="XMLID_2411_" class="st1">
		<path id="XMLID_88_" class="st8" d="M118.5,53.9H106c-0.7,0-1.3-0.6-1.3-1.3V34.1c0-0.7,0.6-1.3,1.3-1.3h12.5
			c0.7,0,1.3,0.6,1.3,1.3v3.4h-0.6v-3.4c0-0.4-0.3-0.7-0.7-0.7H106c-0.4,0-0.7,0.3-0.7,0.7v18.5c0,0.4,0.3,0.7,0.7,0.7h12.5
			c0.4,0,0.7-0.3,0.7-0.7v-5h0.6v5C119.8,53.3,119.2,53.9,118.5,53.9z"/>
	</g>
	<g id="XMLID_2417_" class="st1">
		<polygon id="XMLID_87_" class="st8" points="112.9,49.3 107.1,44.6 107.5,44.1 112.8,48.5 121.3,39.5 121.7,40 		"/>
	</g>
</g>
<path id="XMLID_93_" class="st9" d="M123.2,31h-22.5c-0.4,0-0.7,0.3-0.7,0.7v22.5c0,0.4,0.3,0.7,0.7,0.7h22.5c0.4,0,0.7-0.3,0.7-0.7
	V31.8C124,31.4,123.6,31,123.2,31z M122.5,36.3L110.7,50c-0.1,0.2-0.4,0.3-0.6,0.3c-0.2,0-0.3-0.1-0.5-0.2l-7.2-6.1
	c-0.3-0.3-0.4-0.7-0.1-1.1c0.3-0.3,0.7-0.4,1.1-0.1l6.6,5.6l11.3-13.2c0.3-0.3,0.7-0.3,1.1-0.1C122.7,35.5,122.8,36,122.5,36.3z"/>
<g id="XMLID_202_">
	<g id="XMLID_194_">
		<path id="XMLID_195_" class="st10" d="M9.3,56.5v1.2c0,6.8-0.4,13-1,18l-1.4-0.2c0.6-5,1-11.2,1-17.8v-1.2H9.3z M13.1,49.6v3.9
			h4.5V55h-4.5v21.2h-1.4V55H7.2v-1.5h4.5v-3.9H13.1z M16.7,56.6v19.2h-1.5V56.6H16.7z M17.9,50.6h15.2v1.4h-1.8v20.7
			c-0.1,1.6-0.7,2.7-1.7,3.5c0,0,0.1-2.3,0.3-4.8V52.1H17.9V50.6z M21.6,70.5c-1.5,0-2.8-1.3-2.8-2.9v-9.4c0-1.6,1.2-2.8,2.8-2.8
			h3.2c1.5,0,2.7,1.2,2.7,2.8v9.4c0,1.5-1.2,2.9-2.7,2.9H21.6z M24.8,69.1c0.7,0,1.3-0.6,1.3-1.4v-9.4c0-0.8-0.6-1.4-1.3-1.4h-3.2
			c-0.7,0-1.3,0.6-1.3,1.4v9.4c0,0.8,0.6,1.4,1.3,1.4H24.8z"/>
	</g>
	<g id="XMLID_189_">
		<path id="XMLID_190_" class="st10" d="M59.3,49.7v3.7h9.6v1.4h-9.6v5.2h10v1.4h-10v14.9h-1.4V61.4h-6v9.9c0,1.8-1.6,3.4-3.4,3.4
			h-2.1c-1.9,0-3.4-1.5-3.4-3.4V54.6c0-1.9,1.5-3.4,3.4-3.4h2.1c1.8,0,3.4,1.6,3.4,3.4v5.4h6V49.7H59.3z M48.6,73.2
			c1.1,0,2-0.9,2-1.9V54.6c0-1.1-0.9-2-2-2h-2.1c-1.1,0-2,0.8-2,2v16.7c0,1.1,0.8,1.9,2,1.9H48.6z M62.9,63.3L69,74.4l-1.3,0.7
			L61.6,64L62.9,63.3z"/>
	</g>
	<g id="XMLID_180_">
		<path id="XMLID_182_" class="st10" d="M79.4,76.2l0.7-23.3c0.1-1.5,1.2-2.7,2.7-2.7h4.1c1.6,0,2.9,1.3,2.9,2.9v19.7
			c-0.1,2.7-1.7,3.9-1.7,3.9s0.2-2.9,0.2-3.9v-4.7h-7.3l-0.2,8.1L79.4,76.2z M81.2,66.6h7.2v-6.8h-7L81.2,66.6z M81.4,58.4h7V53
			c0-0.8-0.7-1.4-1.4-1.4h-4.1c-0.7,0-1.2,0.6-1.3,1.3L81.4,58.4z M91.9,76.2V53.1c0-1.6,1.3-2.8,2.9-2.8h7.3c1.6,0,2.8,1.2,2.8,2.8
			v3.5c0,1.6-1.2,2.9-2.8,2.9h-3.9V58h3.9c0.8,0,1.4-0.7,1.4-1.4v-3.5c0-0.8-0.6-1.4-1.4-1.4h-7.3c-0.8,0-1.4,0.6-1.4,1.4v8.3h11.5
			c-1.2,3.3-2.5,6.1-4.1,8.6l4.7,5.1l-1.1,1l-4.5-4.9c-1.3,1.8-2.8,3.4-4.5,4.9l-0.9-1.1c1.7-1.4,3.2-3,4.5-4.8l-5.6-6v12.1H91.9z
			 M94.1,62.8l5.7,6.2c1.2-1.8,2.2-3.9,3-6.2H94.1z"/>
	</g>
	<g id="XMLID_174_">
		<path id="XMLID_175_" class="st10" d="M129.5,61.5v2.3h11.7v1.4h-14.4c-1.5,1.6-3.1,3-4.8,4.3v2.8c0,1.1,0.9,2,2,2h2.6v1.4H124
			c-1.8,0-3.4-1.6-3.4-3.4v-1.9c-1.4,0.8-2.9,1.6-4.5,2.3l-0.6-1.3c4-1.7,6.9-3.7,9.4-6.2h-8.6v-1.4h11.8v-2.3H129.5z M115.9,51.8
			h7.2v-2.3h1.4v12.3h-1.4v-3.2l-6.8,2.2l-0.4-1.4l7.2-2.3v-3.9h-7.2V51.8z M134.9,49.6V52h7v1.4h-7v6h6v1.4h-13.5v-1.4h6v-6h-7V52
			h7v-2.4H134.9z M140.2,67.5l-3.5,3.4l5,3.8l-0.9,1.1L130.6,68l0.9-1.1l4.1,3.2l3.6-3.6L140.2,67.5z"/>
	</g>
	<g id="XMLID_169_">
		<path id="XMLID_170_" class="st10" d="M175,72.8V54.2c0-1.1-0.9-1.9-1.9-1.9h-16.4c-1.1,0-1.9,0.9-1.9,1.9v22.1h-1.5V54.2
			c0-1.8,1.5-3.4,3.4-3.4h16.4c1.8,0,3.4,1.6,3.4,3.4v18.6c0,3.1-1.6,4.4-1.6,4.4S175,73.9,175,72.8z M157.5,55.6l3.5,6.3
			c0.8-2.1,1.4-4.3,1.9-6.6l1.4,0.3c-0.5,2.8-1.4,5.5-2.4,7.9l2.8,5.1l-1.3,0.7l-2.3-4.2c-1.2,2.3-2.5,4.5-4.1,6.6l-1.2-0.9
			c1.7-2.3,3.2-4.7,4.4-7.3l-4-7.3L157.5,55.6z M166.6,55.3l3.2,6.8c0.9-2.1,1.5-4.4,2-6.8l1.4,0.3c-0.6,2.9-1.4,5.7-2.6,8.2L174,71
			l-1.3,0.7l-2.9-6.1c-1.1,2.2-2.4,4.3-3.9,6.3l-1.2-0.9c1.7-2.2,3.1-4.5,4.3-7.1l-3.8-7.9L166.6,55.3z"/>
	</g>
	<g id="XMLID_165_">
		<g id="XMLID_166_">
			<path id="XMLID_167_" class="st10" d="M28.9,31.8c0.4,0.3,0.5,9.6,0.1,9.8c-2.6,1.1-4.7,2-10.1,2c-10,0-17-6.5-17-16.8
				c0-9.8,6.8-16.7,16.9-16.7c7,0,7.7,0.6,10.2,1.8c0.5,0.2,0.4,9.6,0,9.8c0,0-3.6-3.8-8.9-3.9c-6.1-0.1-9.5,3.4-9.5,8.6
				c-0.1,6.5,4.8,8.6,8.5,8.9C25.3,35.9,28.9,31.8,28.9,31.8z"/>
		</g>
	</g>
	<g id="XMLID_161_">
		<g id="XMLID_162_">
			<path id="XMLID_163_" class="st10" d="M89.5,29.6c0,0,4.1-5.7,6.1-8.6c0.1-0.2,0.1-0.4,0.5-0.4c2.5,0,5.4,0,7.6,0
				c0.5,0,0.3,0.5,0.1,0.8c-2.2,2.7-6.8,8.8-6.8,8.8s5,8.2,7.7,12.2c0.2,0.4,0.1,0.5-0.4,0.5c-3.6,0-5.2,0-8,0
				c-0.3,0-0.8-0.1-1.1-0.6l-4.2-5.6l-1.6,2v3.7c0,0.4-0.1,0.5-0.4,0.5c-2.3,0-4.4,0-6.8,0c-0.3,0-0.4,0-0.4-0.6
				c0-8.1,0-21.3,0-29.4c0-0.5-0.1-2.8,0.2-2.8c3.8,0,1.5,0,7,0c0.3,0,0.3,2.2,0.3,2.8V29.6z"/>
		</g>
	</g>
	<g id="XMLID_156_">
		<g id="XMLID_157_">
			<path id="XMLID_158_" class="st10" d="M119.7,39.7c-0.8,2.3-3.5,3.5-6.2,3.5c-5.9,0-10.4-4.2-10.4-11.5c0-6.7,4.7-11.4,10.3-11.4
				c3,0,5.3,1.8,6,3.5v-2.7c0-0.4,0.1-0.5,0.4-0.5c2.5,0,4.3,0,6.8,0c0.2,0,0.3,0.2,0.3,0.4c0,8.5,0,13.2,0,21.3
				c0,0.5-0.1,0.6-0.4,0.6c-1.2,0-5.6,0-6.3,0c-0.3,0-0.4-0.2-0.4-0.4V39.7z M110.4,32c0,2.7,2,4.6,4.5,4.6c2.4,0,4.4-1.9,4.4-4.6
				c0-2.9-2-4.6-4.4-4.6C112.1,27.2,110.4,29.2,110.4,32z"/>
		</g>
	</g>
	<g id="XMLID_151_">
		<g id="XMLID_152_">
			<path id="XMLID_153_" class="st10" d="M130,31.7v-0.6v-0.5V9.7c0-0.3,0.2-0.7,0.6-0.7c0.3,0,0.6,0.4,0.6,0.7v16.1
				c1.9-3.9,5.8-6.6,10.3-6.6c6.4,0,11.6,5.4,11.6,11.9c0,6.6-5.2,12-11.6,12c-4.5,0-8.4-2.7-10.3-6.5v5.9c0,0.3-0.3,0.6-0.6,0.6
				c-0.4,0-0.6-0.3-0.6-0.6V31.7z M131.2,31.1c0,5.9,4.7,10.8,10.3,10.8c5.7,0,10.4-4.8,10.4-10.8c0-5.9-4.7-10.7-10.4-10.7
				c-5.4,0-10.1,4.5-10.3,10.2V31.1z"/>
		</g>
	</g>
	<g id="XMLID_140_">
		<g id="XMLID_142_">
			<path id="XMLID_146_" class="st10" d="M155.7,19.9c0-0.3,0.2-0.6,0.6-0.6c0.3,0,0.6,0.3,0.6,0.6v13.6c0,4.7,3.7,8.4,8.3,8.4
				c4.6,0,8.4-3.7,8.4-8.4V19.9c0-0.3,0.3-0.6,0.6-0.6c0.3,0,0.6,0.3,0.6,0.6v13.6c0,5.4-4.3,9.6-9.6,9.6c-5.3,0-9.5-4.3-9.5-9.6
				V19.9z"/>
		</g>
	</g>
	<g id="XMLID_135_">
		<g id="XMLID_136_">
			<path id="XMLID_138_" class="st10" d="M177.9,19.9c0-0.3,0.2-0.6,0.6-0.6c0.3,0,0.6,0.3,0.6,0.6v13.6c0,4.6,3.7,8.3,8.4,8.3
				c4.4,0,8-3.6,8.2-8V19.9v-0.1c0,0,0-0.1,0.1-0.2c0,0,0,0,0,0l0.1-0.1c0.1,0,0.2-0.1,0.3-0.1h0.1c0,0,0.1,0,0.1,0l0.1,0.1
				c0,0,0,0,0,0c0.1,0.1,0.1,0.2,0.1,0.4v21.8c0,6.1-5,11.2-11.2,11.2c-1.8,0-3.4-0.4-4.9-1.2c-0.3-0.1-0.4-0.5-0.2-0.8
				c0.1-0.3,0.5-0.4,0.7-0.3c1.4,0.7,2.8,1.1,4.4,1.1c5.5,0,10-4.5,10-10v-3.6c-1.6,2.9-4.7,4.9-8.2,4.9c-5.3,0-9.6-4.3-9.6-9.5
				V19.9z"/>
		</g>
	</g>
	<g id="XMLID_125_">
		<g id="XMLID_133_">
			<path id="XMLID_134_" class="st10" d="M208.6,29c-0.5,0-1,0.2-1.3,0.6c-0.3,0.4-0.5,0.9-0.5,1.5c0,0.6,0.2,1.1,0.5,1.5
				c0.3,0.4,0.7,0.5,1.3,0.5c0.5,0,1-0.2,1.3-0.5c0.3-0.4,0.4-0.9,0.4-1.5c0-0.7-0.1-1.2-0.4-1.5C209.6,29.2,209.2,29,208.6,29z"/>
		</g>
		<g id="XMLID_126_">
			<g id="XMLID_127_">
				<path id="XMLID_128_" class="st10" d="M210.6,18.7c-6.7,0-12.2,5.5-12.2,12.2c0,6.7,5.5,12.2,12.2,12.2
					c6.7,0,12.2-5.5,12.2-12.2C222.8,24.2,217.4,18.7,210.6,18.7z M205.1,29.4c-0.4-0.3-0.8-0.4-1.3-0.4c-0.5,0-1,0.2-1.3,0.6
					c-0.3,0.4-0.5,0.9-0.5,1.5c0,0.6,0.2,1.1,0.5,1.5c0.3,0.4,0.8,0.5,1.3,0.5c0.5,0,0.9-0.2,1.3-0.5v0.8c-0.4,0.2-0.9,0.4-1.4,0.4
					c-0.8,0-1.4-0.2-1.8-0.7c-0.5-0.5-0.7-1.1-0.7-1.9c0-0.9,0.2-1.6,0.7-2.1c0.5-0.5,1.2-0.8,2-0.8c0.5,0,0.9,0.1,1.2,0.3V29.4z
					 M210.5,33c-0.5,0.5-1.1,0.8-1.9,0.8c-0.8,0-1.4-0.2-1.9-0.7c-0.5-0.5-0.7-1.1-0.7-2c0-0.9,0.2-1.6,0.7-2.1
					c0.5-0.5,1.1-0.7,2-0.7c0.8,0,1.4,0.2,1.8,0.7c0.4,0.5,0.7,1.2,0.7,2C211.2,31.8,211,32.5,210.5,33z M219.2,33.7v-3
					c0-0.6-0.1-1-0.3-1.3c-0.2-0.3-0.5-0.4-0.9-0.4c-0.4,0-0.7,0.2-0.9,0.5c-0.3,0.3-0.4,0.7-0.4,1.2v3h-0.8v-3.1
					c0-1-0.4-1.6-1.2-1.6c-0.4,0-0.7,0.2-0.9,0.5c-0.2,0.3-0.4,0.7-0.4,1.2v3h-0.8v-5.3h0.8v0.8h0c0.4-0.6,0.9-1,1.6-1
					c0.4,0,0.7,0.1,0.9,0.3c0.3,0.2,0.5,0.5,0.6,0.8c0.4-0.7,1-1.1,1.8-1.1c1.2,0,1.7,0.7,1.7,2.1v3.2H219.2z"/>
			</g>
		</g>
	</g>
	<g id="XMLID_123_">
		<path id="XMLID_124_" class="st10" d="M48,32c-0.1,1-0.1,0.6-0.2,0.8c-0.7,1.5-2,2.6-3.5,2.8c-0.1,0-0.5,0.1-0.6,0.1
			c-2.5,0-4.7-2.1-4.7-4.8c0,0,0,0,0,0c0,0,0.2,0,0.2,0c0-2,1.2-3.6,2.7-4.3c0.6-0.3,1.3-0.5,2-0.5c0.6,0,1.1,0.1,1.6,0.3
			c1.2,0.4,2.1,1.2,2.6,2.5c0,0.1,0.1,0.2,0.1,0.2h7.4c-0.6-6-5.3-10.2-11.7-10.2c-7,0-11.8,5.2-11.8,12c0,7.1,5,11.5,11.8,11.5
			c6.3,0,10.9-3.3,11.7-10.3H48z"/>
	</g>
	<g id="XMLID_121_">
		<path id="XMLID_122_" class="st10" d="M66.7,18.9c-6.5,0-11,4.1-11.7,10.1h7.5c0.4-1,1.2-2,2.2-2.5c0.6-0.3,1.3-0.4,2.1-0.4
			c0.4,0,0.8,0.1,1.2,0.2c1.3,0.4,2.4,1.3,2.9,2.7c0.3,0.6,0.4,1.3,0.4,2c0,1-0.3,2-0.8,2.7c-0.7,1.2-1.9,1.9-3.2,2.1
			c-0.2,0-0.3,0-0.5,0c-1.9,0-3.4-1.1-4.1-2.9c0,0,0-0.4,0-0.4c0,0,0,0.5-0.1-0.5h-7.5c0.8,7,5.5,10.4,11.7,10.4
			c6.9,0,11.8-4.7,11.8-11.8C78.5,23.6,73.6,18.9,66.7,18.9z"/>
	</g>
</g>
</svg>
