<?xml version="1.0" standalone="no"?><!DOCTYPE svg PUBLIC "-//W3C//DTD SVG 1.1//EN" "http://www.w3.org/Graphics/SVG/1.1/DTD/svg11.dtd"><svg width="200.1953125" height="200" viewBox="0 0 200.1953125 200" version="1.1" xmlns="http://www.w3.org/2000/svg" xmlns:xlink="http://www.w3.org/1999/xlink"><defs><style type="text/css"><![CDATA[
@font-face { font-family: ifont; src: url(http://at.alicdn.com/t/font_1442373896_4754455.eot?#iefix) format(embedded-opentype), url(http://at.alicdn.com/t/font_1442373896_4754455.woff) format(woff), url(http://at.alicdn.com/t/font_1442373896_4754455.ttf) format(truetype), url(http://at.alicdn.com/t/font_1442373896_4754455.svg#ifont) format(svg); }

]]></style></defs><g class="transform-group"><g transform="scale(0.1953125, 0.1953125)"><path d="M795.293397 64.603396 227.936016 64.603396c-90.162717 0-163.271219 73.078824-163.271219 163.277359l0 567.346124c0 90.162717 73.107478 163.277359 163.271219 163.277359L795.293397 958.504238c90.161694 0 163.273266-73.111572 163.273266-163.277359L958.566663 227.880755C958.566663 137.68222 885.455091 64.603396 795.293397 64.603396zM774.574546 286.439191 491.672071 776.456496c-2.111182 6.010166-5.129057 11.726628-10.133264 16.403362-16.432016 15.394334-42.282994 14.551089-57.683467-1.88502L237.232176 618.863876c-15.39945-16.46374-14.550065-42.282994 1.880927-57.713145 16.438156-15.394334 42.291181-14.551089 57.682444 1.88502l146.062477 134.724723 261.040536-452.151113c11.269188-19.517432 36.249291-26.208129 55.737046-14.939964C779.181692 241.941657 785.875458 266.885942 774.574546 286.439191z" fill="#272636"></path></g></g></svg>