<?xml version="1.0" encoding="utf-8"?>
<!-- Generator: Adobe Illustrator 19.0.0, SVG Export Plug-In . SVG Version: 6.00 Build 0)  -->
<svg version="1.1" id="图层_1" xmlns="http://www.w3.org/2000/svg" xmlns:xlink="http://www.w3.org/1999/xlink" x="0px" y="0px"
	 viewBox="-311.9 384 73.7 73.7" style="enable-background:new -311.9 384 73.7 73.7;" xml:space="preserve">
<style type="text/css">
	.st0{display:none;}
	.st1{display:inline;}
	.st2{fill:#272728;}
	.st3{fill:none;stroke:#272728;stroke-width:2;stroke-linecap:round;stroke-linejoin:round;stroke-miterlimit:10;}
	.st4{fill:#F1BE1C;}
	.st5{display:inline;fill:#F1BE1C;}
	.st6{fill:#FFFFFF;}
	.st7{fill:#282828;}
	.st8{display:inline;fill:#FB5B46;}
	.st9{display:inline;fill:#282828;}
	.st10{fill:#5ACAD5;}
</style>
<g id="XMLID_137_" class="st0">
	<g id="XMLID_149_" class="st1">
		<g id="XMLID_366_">
			<path id="XMLID_6_" class="st2" d="M-281,442.3h-10.4c-1.5,0-2.8-1.3-2.8-2.8v-11.2c0-0.6,0.4-1,1-1s1,0.4,1,1v11.1
				c0,0.4,0.4,0.8,0.8,0.8h10.4c0.6,0,1,0.4,1,1C-280,441.8-280.5,442.3-281,442.3z"/>
		</g>
		<g id="XMLID_150_">
			<path id="XMLID_5_" class="st2" d="M-293.2,417.3c-0.6,0-1-0.4-1-1v-10.4c0-1.5,1.3-2.8,2.8-2.8h10.3c0.6,0,1,0.4,1,1s-0.4,1-1,1
				h-10.3c-0.4,0-0.8,0.4-0.8,0.8v10.4C-292.2,416.9-292.6,417.3-293.2,417.3z"/>
		</g>
	</g>
	<g id="XMLID_143_" class="st1">
		<g id="XMLID_145_">
			<path id="XMLID_4_" class="st2" d="M-257.8,442.3h-10.4c-0.6,0-1-0.4-1-1c0-0.6,0.4-1,1-1h10.4c0.4,0,0.8-0.4,0.8-0.8v-11.2
				c0-0.6,0.4-1,1-1c0.6,0,1,0.4,1,1v11.1C-255.1,441-256.3,442.3-257.8,442.3z"/>
		</g>
		<g id="XMLID_144_">
			<path id="XMLID_3_" class="st2" d="M-256.1,417.3c-0.6,0-1-0.4-1-1v-10.4c0-0.4-0.4-0.8-0.8-0.8h-10.3c-0.6,0-1-0.4-1-1
				s0.4-1,1-1h10.3c1.5,0,2.8,1.3,2.8,2.8v10.4C-255.1,416.9-255.5,417.3-256.1,417.3z"/>
		</g>
	</g>
	<g id="XMLID_141_" class="st1">
		<path id="XMLID_2_" class="st2" d="M-254,422.9h-40c-0.6,0-1-0.4-1-1s0.4-1,1-1h40c0.6,0,1,0.4,1,1S-253.4,422.9-254,422.9z"/>
	</g>
</g>
<g id="XMLID_385_" class="st0">
	<g id="XMLID_407_" class="st1">
		<path id="XMLID_16_" class="st2" d="M-288.3,440l2.6-4.3c-5.7-2.9-9.1-7.9-9.1-13.3c0-8.8,9.1-15.9,20.3-15.9
			c11.2,0,20.3,7.1,20.3,15.9c0,8.8-9.1,15.9-20.3,15.9c-0.7,0-1.5,0-2.4-0.1L-288.3,440z M-274.5,408.5c-10.1,0-18.3,6.2-18.3,13.9
			c0,4.9,3.4,9.4,9,11.9l1,0.5l-1.5,2.5l7.3-1.1h0.1c0.9,0.1,1.7,0.1,2.4,0.1c10.1,0,18.3-6.2,18.3-13.9
			C-256.1,414.7-264.3,408.5-274.5,408.5z"/>
	</g>
	<g id="XMLID_395_" class="st1">
		<path id="XMLID_13_" class="st2" d="M-286,425.1c-1.6,0-2.8-1.3-2.8-2.8s1.3-2.8,2.8-2.8s2.8,1.3,2.8,2.8S-284.4,425.1-286,425.1z
			 M-286,421.5c-0.4,0-0.8,0.4-0.8,0.8c0,0.4,0.4,0.8,0.8,0.8s0.8-0.4,0.8-0.8C-285.2,421.9-285.5,421.5-286,421.5z"/>
	</g>
	<g id="XMLID_394_" class="st1">
		<path id="XMLID_10_" class="st2" d="M-274,425.1c-1.6,0-2.8-1.3-2.8-2.8s1.3-2.8,2.8-2.8c1.6,0,2.8,1.3,2.8,2.8
			S-272.4,425.1-274,425.1z M-274,421.5c-0.4,0-0.8,0.4-0.8,0.8c0,0.4,0.4,0.8,0.8,0.8c0.4,0,0.8-0.4,0.8-0.8
			C-273.2,421.9-273.5,421.5-274,421.5z"/>
	</g>
	<g id="XMLID_386_" class="st1">
		<path id="XMLID_7_" class="st2" d="M-262,425.1c-1.6,0-2.8-1.3-2.8-2.8s1.3-2.8,2.8-2.8s2.8,1.3,2.8,2.8S-260.4,425.1-262,425.1z
			 M-262,421.5c-0.4,0-0.8,0.4-0.8,0.8c0,0.4,0.4,0.8,0.8,0.8s0.8-0.4,0.8-0.8C-261.2,421.9-261.5,421.5-262,421.5z"/>
	</g>
</g>
<g id="XMLID_455_" class="st0">
	<g id="XMLID_458_" class="st1">
		<path id="XMLID_49_" class="st2" d="M-256.5,424.1c-0.3,0-0.5-0.1-0.7-0.3l-16.4-16.6l-16.5,16.6c-0.4,0.4-1,0.4-1.4,0
			c-0.4-0.4-0.4-1,0-1.4l17.2-17.3c0.2-0.2,0.5-0.2,0.7-0.2l0,0c0.3,0,0.5,0,0.7,0.2l17.1,17.2c0.4,0.4,0.4,1,0,1.4
			C-256,424-256.3,424.1-256.5,424.1z"/>
	</g>
	<g id="XMLID_457_" class="st1">
		<path id="XMLID_48_" class="st2" d="M-264,437.7h-19.3c-1.7,0-3-1.3-3-3v-12.6c0-0.6,0.4-1,1-1c0.6,0,1,0.4,1,1v12.7
			c0,0.6,0.4,1,1,1h19.3c0.6,0,1-0.4,1-1v-12.7c0-0.6,0.4-1,1-1s1,0.4,1,1v12.7C-261,436.4-262.3,437.7-264,437.7z"/>
	</g>
	<g id="XMLID_456_" class="st1">
		<path id="XMLID_45_" class="st2" d="M-271,437h-5.4c-0.4,0-0.8-0.3-0.8-0.8v-6.5c0-0.4,0.3-0.8,0.8-0.8h5.4c0.4,0,0.8,0.3,0.8,0.8
			v6.5C-270.2,436.6-270.6,437-271,437z M-275.6,435.5h3.9v-5h-3.9V435.5z"/>
	</g>
</g>
<g id="XMLID_554_" class="st0">
	<g id="XMLID_467_" class="st1">
		<g id="XMLID_468_">
			<path id="XMLID_57_" class="st2" d="M-270.2,437.3c-5.2,0-9.3-4.2-9.3-9.3s4.2-9.3,9.3-9.3s9.3,4.2,9.3,9.3
				S-265,437.3-270.2,437.3z M-270.2,420.6c-4,0-7.3,3.3-7.3,7.3s3.3,7.3,7.3,7.3s7.3-3.3,7.3-7.3S-266.1,420.6-270.2,420.6z"/>
		</g>
	</g>
	<g id="XMLID_465_" class="st1">
		<g id="XMLID_466_">
			<path id="XMLID_52_" class="st2" d="M-278,439.2h-9.1c-1.8,0-3.3-1.5-3.3-3.3v-21.5c0-0.6,0.4-1,1-1h29.8c0.6,0,1,0.4,1,1v6.7
				c0,0.6-0.4,1-1,1s-1-0.4-1-1v-5.7h-27.8v20.5c0,0.7,0.6,1.3,1.3,1.3h9.1c0.6,0,1,0.4,1,1C-277,438.8-277.5,439.2-278,439.2z"/>
		</g>
	</g>
	<g id="XMLID_462_" class="st1">
		<g id="XMLID_463_">
			<path id="XMLID_53_" class="st2" d="M-259.5,415.5h-29.9c-0.4,0-0.8-0.2-0.9-0.6c-0.2-0.4-0.1-0.8,0.2-1.1l6.4-7.1
				c0.1-0.2,0.4-0.3,0.7-0.3h17.1c0.3,0,0.6,0.1,0.7,0.3l6.4,7.1c0.3,0.3,0.3,0.7,0.2,1.1C-258.8,415.2-259.1,415.5-259.5,415.5z
				 M-287.1,413.5h25.4l-4.6-5.1h-16.3L-287.1,413.5z"/>
		</g>
	</g>
	<g id="XMLID_459_" class="st1">
		<g id="XMLID_460_">
			<path id="XMLID_51_" class="st2" d="M-286,423.3c-0.1,0-0.3,0-0.4-0.1c-0.4-0.2-0.6-0.5-0.6-0.9v-7.4c0-0.6,0.4-1,1-1s1,0.4,1,1
				v5.2l1.4-1.2c0.4-0.3,0.9-0.3,1.3,0l1.3,1.2v-5.2c0-0.6,0.4-1,1-1c0.6,0,1,0.4,1,1v7.3c0,0.4-0.2,0.7-0.6,0.9
				c-0.4,0.2-0.8,0.1-1.1-0.1l-2.3-2l-2.4,2C-285.5,423.2-285.8,423.3-286,423.3z"/>
		</g>
	</g>
	<g id="XMLID_521_" class="st1">
		<g id="XMLID_524_">
			<path id="XMLID_185_" class="st3" d="M-260.3,438.9"/>
		</g>
		<g id="XMLID_523_">
			<path id="XMLID_50_" class="st2" d="M-260.3,439.1c-0.2,0-0.5-0.1-0.7-0.3l-3.8-3.5c-0.4-0.4-0.4-1-0.1-1.4
				c0.4-0.4,1-0.4,1.4-0.1l3.8,3.5c0.4,0.4,0.4,1,0.1,1.4C-259.8,439-260,439.1-260.3,439.1z"/>
		</g>
		<g id="XMLID_522_">
			<path id="XMLID_181_" class="st3" d="M-264.9,434.6"/>
		</g>
	</g>
</g>
<g id="XMLID_555_" class="st0">
	<g id="XMLID_518_" class="st1">
		<path id="XMLID_65_" class="st2" d="M-263,422.9h-21c-0.6,0-1-0.4-1-1s0.4-1,1-1h21c0.6,0,1,0.4,1,1S-262.4,422.9-263,422.9z"/>
	</g>
	<g id="XMLID_517_" class="st1">
		<path id="XMLID_64_" class="st2" d="M-263,428.9h-21c-0.6,0-1-0.4-1-1s0.4-1,1-1h21c0.6,0,1,0.4,1,1S-262.4,428.9-263,428.9z"/>
	</g>
	<g id="XMLID_516_" class="st1">
		<path id="XMLID_63_" class="st2" d="M-263,434.9h-21c-0.6,0-1-0.4-1-1s0.4-1,1-1h21c0.6,0,1,0.4,1,1S-262.4,434.9-263,434.9z"/>
	</g>
	<g id="XMLID_515_" class="st1">
		<path id="XMLID_62_" class="st2" d="M-259.2,415.5c-0.2,0-0.5-0.1-0.6-0.3l-3.4-5.3c-0.2-0.3-0.1-0.8,0.2-1c0.4-0.2,0.8-0.1,1,0.2
			l3.3,5.3c0.2,0.3,0.1,0.8-0.2,1C-259,415.5-259.1,415.5-259.2,415.5z"/>
	</g>
	<g id="XMLID_500_" class="st1">
		<path id="XMLID_56_" class="st2" d="M-260.1,439.9h-27.1c-1.6,0-2.8-1.3-2.8-3v-27c0-1.7,1.2-3,2.8-3h22.2c0.6,0,1,0.4,1,1v9h6
			c0.6,0,1,0.4,1,1v19C-257,438.6-258.4,439.9-260.1,439.9z M-287.2,408.9c-0.7,0-0.8,0.7-0.8,1v27c0,0.3,0.1,1,0.8,1h27.2
			c0.6,0,1.1-0.4,1.1-1v-18h-6c-0.6,0-1-0.4-1-1v-9H-287.2z"/>
	</g>
</g>
<g id="XMLID_501_" class="st0">
	<g id="XMLID_503_" class="st1">
		<g id="XMLID_513_">
			<path id="XMLID_71_" class="st2" d="M-270.6,425.5c-5,0-9.1-4.1-9.1-9.2c0-5.1,4.1-9.2,9.1-9.2s9.1,4.1,9.1,9.2
				C-261.5,421.4-265.6,425.5-270.6,425.5z M-270.6,409.1c-3.9,0-7.1,3.2-7.1,7.2s3.2,7.2,7.1,7.2s7.1-3.2,7.1-7.2
				S-266.7,409.1-270.6,409.1z"/>
		</g>
		<g id="XMLID_512_">
			<path id="XMLID_69_" class="st2" d="M-283,438.5c-0.6,0-1-0.4-1-1c0-7.7,6.2-14.1,13.9-14.1c0.6,0,1,0.4,1,1s-0.4,1-1,1
				c-6.5,0.1-11.9,5.5-11.9,12.1C-282,438.1-282.4,438.5-283,438.5z"/>
		</g>
		<g id="XMLID_511_">
			<path id="XMLID_68_" class="st2" d="M-257.2,438.5c-0.6,0-1-0.4-1-1c0-4.2-2.3-8.1-5.9-10.2c-0.5-0.3-0.6-0.9-0.4-1.4
				c0.3-0.5,0.9-0.6,1.4-0.4c4.2,2.5,6.9,7.1,6.9,12C-256.2,438.1-256.7,438.5-257.2,438.5z"/>
		</g>
		<g id="XMLID_505_">
			<g id="XMLID_507_">
				<path id="XMLID_67_" class="st2" d="M-279.5,425.3c-0.1,0-0.1,0-0.2,0c-4.3-0.8-7.4-4.6-7.4-9c0-5.1,4.1-9.2,9.1-9.2
					c0.6,0,1,0.4,1,1s-0.4,1-1,1c-3.9,0-7.1,3.2-7.1,7.2c0,3.5,2.4,6.4,5.8,7.1c0.5,0.1,0.9,0.6,0.8,1.2
					C-278.6,425-279,425.3-279.5,425.3z"/>
			</g>
			<g id="XMLID_506_">
				<path id="XMLID_66_" class="st2" d="M-290.4,438.5c-0.6,0-1-0.4-1-1c0-6.9,5.1-13.1,11.6-14.2c0.5-0.1,1.1,0.3,1.1,0.8
					c0.1,0.5-0.3,1.1-0.8,1.1c-5.6,0.9-9.9,6.3-9.9,12.2C-289.4,438.1-289.9,438.5-290.4,438.5z"/>
			</g>
		</g>
	</g>
	<g id="XMLID_502_" class="st1">
		<path id="XMLID_148_" class="st3" d="M-279.5,424.8"/>
	</g>
</g>
<g id="XMLID_99_" class="st0">
	<g id="XMLID_960_" class="st1">
		<polygon id="XMLID_1015_" class="st4" points="-274.6,407.9 -259.6,422.9 -257.5,422.9 -274.6,405.6 -291.8,422.9 -289.5,422.9 		
			"/>
		<polygon id="XMLID_1016_" class="st4" points="-261,423.1 -274.6,409.5 -288.1,423.1 		"/>
	</g>
	<path id="XMLID_98_" class="st5" d="M-286,421.9v12.8c0,1.1,0.6,2.2,1.7,2.2h7.3v-7h5v7h7c1.1,0,2-1.1,2-2.2v-12.8H-286z"/>
</g>
<g id="XMLID_100_" class="st0">
	<g id="XMLID_982_" class="st1">
		<path id="XMLID_983_" class="st4" d="M-278,437.2h-9.1c-1.3,0-2.3-1-2.3-2.3v-20.5h29.8v20.8c0,1.1-0.9,2-2,2H-278z"/>
	</g>
	<g id="XMLID_979_" class="st1">
		<path id="XMLID_980_" class="st4" d="M-259.5,413.5h-29.9l6.4-7.1h17.1L-259.5,413.5z"/>
	</g>
	<g id="XMLID_977_" class="st1">
		<polyline id="XMLID_978_" class="st6" points="-280,413.9 -280,421.2 -283,418.7 -286,421.3 -286,413.9 		"/>
	</g>
	<g id="XMLID_988_" class="st1">
		<path id="XMLID_989_" class="st6" d="M-270.2,435.3c-4.6,0-8.3-3.7-8.3-8.3s3.7-8.3,8.3-8.3s8.3,3.7,8.3,8.3
			S-265.6,435.3-270.2,435.3z"/>
	</g>
	<g id="XMLID_984_" class="st1">
		<g id="XMLID_987_">
			<path id="XMLID_381_" class="st6" d="M-260.5,437"/>
		</g>
		<g id="XMLID_986_">
			<path id="XMLID_374_" class="st6" d="M-260.6,437.2c-0.2,0-0.5-0.1-0.7-0.3l-3.7-3.5c-0.4-0.4-0.4-1-0.1-1.4
				c0.4-0.4,1-0.4,1.4-0.1l3.8,3.5c0.4,0.4,0.4,1,0.1,1.4C-260,437.1-260.3,437.2-260.6,437.2z"/>
		</g>
		<g id="XMLID_985_">
			<path id="XMLID_377_" class="st6" d="M-265.1,432.7"/>
		</g>
	</g>
</g>
<g id="XMLID_101_" class="st0">
	<path id="XMLID_954_" class="st5" d="M-265,417.9v-10h-22.2c-1.1,0-1.8,0.9-1.8,2v27c0,1.1,0.7,2,1.8,2h27.2c1.1,0,2.1-0.9,2.1-2
		v-19H-265z"/>
	<g id="XMLID_958_" class="st1">
		<path id="XMLID_382_" class="st6" d="M-263.3,422.9h-21c-0.6,0-1-0.4-1-1s0.4-1,1-1h21c0.6,0,1,0.4,1,1S-262.7,422.9-263.3,422.9z
			"/>
	</g>
	<g id="XMLID_957_" class="st1">
		<path id="XMLID_379_" class="st6" d="M-263.3,428.9h-21c-0.6,0-1-0.4-1-1s0.4-1,1-1h21c0.6,0,1,0.4,1,1S-262.7,428.9-263.3,428.9z
			"/>
	</g>
	<g id="XMLID_956_" class="st1">
		<path id="XMLID_378_" class="st6" d="M-263.3,434.9h-21c-0.6,0-1-0.4-1-1s0.4-1,1-1h21c0.6,0,1,0.4,1,1S-262.7,434.9-263.3,434.9z
			"/>
	</g>
	<g id="XMLID_955_" class="st1">
		<path id="XMLID_383_" class="st4" d="M-259.2,415.5c-0.2,0-0.5-0.1-0.6-0.3l-3.4-5.3c-0.2-0.3-0.1-0.8,0.2-1
			c0.3-0.2,0.8-0.1,1,0.2l3.3,5.3c0.2,0.3,0.1,0.8-0.2,1C-259,415.5-259.1,415.5-259.2,415.5z"/>
	</g>
</g>
<g id="XMLID_482_" class="st0">
	<g id="XMLID_487_" class="st1">
		<path id="XMLID_488_" class="st7" d="M-274.9,437.7l-0.9-0.5l0.8-1.5c0.9-1.5,0.9-1.7,2.2-3.1c3.5-4,8.2-8.6,8.3-8.7l3.5-3.7
			c1.5-1.9,1.8-4.1,1.8-6.2c0-4.3-4.4-7.5-8.4-7.5s-7.1,3.1-7.2,7.2h-0.5h-0.5c-0.2-4.1-3.3-7.2-7.2-7.2c-4,0-8.4,3.2-8.4,7.5
			c0,2.1,0.2,4.2,1.8,6.2l3.5,3.7l0,0c0,0,0.8,0.8,2.1,2.1l-0.7,0.7c-1.2-1.3-2.1-2.1-2.1-2.1l-3.6-3.7c-1.8-2.2-2-4.6-2-6.9
			c0-4.9,5-8.5,9.4-8.5c3.6,0,6.6,2.2,7.8,5.5c1.1-3.3,4.1-5.5,7.8-5.5c4.4,0,9.4,3.7,9.4,8.5c0,2.3-0.2,4.6-2,6.9l-3.5,3.8
			c-0.1,0.1-4.8,4.7-8.3,8.6c-1.2,1.3-1.2,1.4-2.1,2.9L-274.9,437.7z"/>
	</g>
	<g id="XMLID_483_" class="st1">
		<g id="XMLID_484_">
			<path id="XMLID_485_" class="st7" d="M-283.9,430.1h4.6v-4.6h1v4.6h4.6v0.8h-4.7v5.1h-1v-5.1h-4.5V430.1z"/>
		</g>
	</g>
</g>
<g id="XMLID_489_" class="st0">
	<path id="XMLID_490_" class="st8" d="M-267.5,406c-4.3,0-7.6,3.4-7.7,7.6c0-0.4,0-0.7,0-1.1c0,0.4,0,0.7,0,1.1
		c-0.3-4.2-3.5-7.6-7.8-7.6c-4.4,0-8.9,3.6-8.9,8c0,2.1,0.2,4.4,1.9,6.5l3.5,3.7c0,0,4.7,4.5,8.3,8.5c1.5,1.7,1.2,1.2,3,4.2l0,0l0,0
		c1.7-3,1.5-2.5,3-4.2c3.5-4,8.3-8.5,8.3-8.5l3.5-3.7c1.7-2.1,1.9-4.4,1.9-6.5C-258.7,409.6-263.1,406-267.5,406z"/>
</g>
<g id="XMLID_425_" class="st0">
	<path id="XMLID_70_" class="st9" d="M-266.9,437.4c-0.2,0-0.4-0.1-0.5-0.2l-16.2-16.2c-0.1-0.1-0.2-0.3-0.2-0.5s0.1-0.4,0.2-0.5
		l16.2-16.1c0.3-0.3,0.8-0.3,1.1,0c0.3,0.3,0.3,0.8,0,1.1l-15.7,15.4l15.7,15.7c0.3,0.3,0.3,0.8,0,1.1
		C-266.5,437.3-266.7,437.4-266.9,437.4z"/>
</g>
<g id="XMLID_44_" class="st0">
	<path id="XMLID_74_" class="st8" d="M-267.5,406c-4.3,0-7.6,3.4-7.7,7.6c0-0.4,0-0.7,0-1.1c0,0.4,0,0.7,0,1.1
		c-0.3-4.2-3.5-7.6-7.8-7.6c-4.4,0-8.9,3.6-8.9,8c0,2.1,0.2,4.4,1.9,6.5l3.5,3.7c0,0,4.7,4.5,8.3,8.5c1.5,1.7,1.2,1.2,3,4.2l0,0l0,0
		c1.7-3,1.5-2.5,3-4.2c3.5-4,8.3-8.5,8.3-8.5l3.5-3.7c1.7-2.1,1.9-4.4,1.9-6.5C-258.7,409.6-263.1,406-267.5,406z"/>
</g>
<g id="XMLID_433_" class="st0">
	<g id="XMLID_435_" class="st1">
		<path id="XMLID_77_" class="st7" d="M-263.5,433.9c-0.1,0-0.3,0-0.4-0.1l-23.3-23.4c-0.2-0.2-0.2-0.5,0-0.7c0.2-0.2,0.5-0.2,0.7,0
			l23.3,23.3c0.2,0.2,0.2,0.5,0,0.7C-263.2,433.9-263.3,433.9-263.5,433.9z"/>
	</g>
	<g id="XMLID_434_" class="st1">
		<path id="XMLID_76_" class="st7" d="M-286.8,433.2c-0.1,0-0.3,0-0.4-0.1c-0.2-0.2-0.2-0.5,0-0.7l23.4-23.4c0.2-0.2,0.5-0.2,0.7,0
			s0.2,0.5,0,0.7l-23.4,23.4C-286.6,433.2-286.7,433.2-286.8,433.2z"/>
	</g>
</g>
<g id="XMLID_450_" class="st0">
	<g id="XMLID_452_" class="st1">
		<path id="XMLID_94_" class="st7" d="M-275.2,429.8c-7.8,0-14.9-6.3-14.9-8.7c0-2.1,6.7-8.5,14.9-8.5c8.2,0,14.9,6.9,14.9,8.5
			C-260.3,423.2-267.2,429.8-275.2,429.8z M-275.2,414.1c-7.5,0-13.3,5.9-13.5,7.1c0,1.2,5.7,7.2,13.5,7.2c7.3,0,13.2-5.9,13.5-7.2
			C-262.2,420-268,414.1-275.2,414.1z"/>
	</g>
	<g id="XMLID_451_" class="st1">
		<path id="XMLID_91_" class="st7" d="M-275,426.6c-3,0-5.5-2.5-5.5-5.5s2.5-5.5,5.5-5.5s5.5,2.5,5.5,5.5S-272,426.6-275,426.6z
			 M-275,417c-2.2,0-4.1,1.8-4.1,4.1c0,2.3,1.8,4.1,4.1,4.1c2.2,0,4.1-1.8,4.1-4.1C-270.9,418.8-272.8,417-275,417z"/>
	</g>
</g>
<g id="XMLID_454_" class="st0">
	<g id="XMLID_428_" class="st1">
		<g id="XMLID_429_">
			<path class="st7" d="M-267.6,429.6c-5.1,5.3-13.6,5.5-18.9,0.4c-5.3-5.1-5.5-13.6-0.3-19c5.2-5.4,13.6-5.5,18.9-0.4
				C-262.6,415.7-262.5,424.3-267.6,429.6z M-285.4,412.4c-4.4,4.5-4.2,11.8,0.3,16.1s11.7,4.2,16.1-0.3c4.4-4.5,4.2-11.7-0.3-16.1
				S-281,407.9-285.4,412.4z"/>
		</g>
	</g>
	<g id="XMLID_423_" class="st1">
		<path id="XMLID_97_" class="st7" d="M-260.1,435.8c-0.2,0-0.4-0.1-0.6-0.2l-7.4-6.1c-0.4-0.4-0.5-1-0.1-1.4c0.3-0.4,1-0.5,1.4-0.1
			l7.4,6.1c0.4,0.4,0.5,1,0.1,1.4C-259.5,435.6-259.8,435.8-260.1,435.8z"/>
	</g>
</g>
<g id="XMLID_421_" class="st0">
	<path id="XMLID_115_" class="st9" d="M-281.2,434.6c-0.2,0-0.3-0.1-0.4-0.2c-0.2-0.2-0.2-0.6,0-0.9l13.1-13.1l-13.1-12.8
		c-0.3-0.3-0.3-0.7,0-0.9c0.2-0.2,0.6-0.2,0.9,0l13.5,13.3c0.1,0.1,0.2,0.3,0.2,0.4c0,0.2-0.1,0.3-0.2,0.4l-13.6,13.6
		C-280.9,434.6-281,434.6-281.2,434.6z"/>
</g>
<g id="XMLID_418_" class="st0">
	<path id="XMLID_129_" class="st9" d="M-274.7,426.9c-0.1,0-0.3-0.3-0.4-0.4l-11.2-11.3c-0.2-0.2-0.2-0.6,0-0.8
		c0.2-0.2,0.5-0.2,0.7,0l10.8,10.8l10.8-10.8c0.2-0.2,0.5-0.2,0.7,0c0.2,0.2,0.2,0.5,0,0.7l-11,11.4
		C-274.5,426.6-274.6,426.9-274.7,426.9L-274.7,426.9z"/>
</g>
<polygon class="st10" points="-252.4,412.6 -274.9,386.8 -297.6,412.6 -282.8,412.6 -282.8,455 -267,455 -267,412.6 "/>
</svg>
