<?xml version="1.0" encoding="utf-8"?>
<!-- Generator: Adobe Illustrator 19.0.0, SVG Export Plug-In . SVG Version: 6.00 Build 0)  -->
<svg version="1.1" id="图层_1" xmlns="http://www.w3.org/2000/svg" xmlns:xlink="http://www.w3.org/1999/xlink" x="0px" y="0px"
	 viewBox="0 0 36 36" style="enable-background:new 0 0 36 36;" xml:space="preserve">
<style type="text/css">
	.st0{fill:#68C3BE;}
</style>
<g id="XMLID_2005_">
	<path id="XMLID_2135_" class="st0" d="M31,15.8c0-7.2-5.8-13.3-13-13.3S5,8.2,5,15.4c0,6.5,4.8,11.8,11,12.8l-7.2,5.6
		c12.4-3,16.5-6.7,16.5-6.7h0C28.8,24,31,20.2,31,15.8z M22.8,12.1c0.9,0,1.7,0.7,1.7,1.7c0,0.9-0.7,1.7-1.7,1.7
		c-0.9,0-1.7-0.7-1.7-1.7C21.2,12.8,21.9,12.1,22.8,12.1z M13.8,12.1c0.9,0,1.7,0.7,1.7,1.7c0,0.9-0.7,1.7-1.7,1.7
		c-0.9,0-1.7-0.7-1.7-1.7C12.2,12.8,12.9,12.1,13.8,12.1z M25.6,20.6c-2.5,2-4.8,2.7-6.9,2.7c-4.1,0-7.1-2.7-7.1-2.7
		c-0.2-0.2-0.2-0.5,0-0.7c0.2-0.2,0.5-0.2,0.7,0c0.2,0.2,6.1,5.5,12.8,0c0.2-0.2,0.5-0.1,0.7,0.1C25.9,20.1,25.8,20.4,25.6,20.6z"/>
</g>
</svg>
