<?xml version="1.0" encoding="utf-8"?>
<!-- Generator: Adobe Illustrator 19.0.0, SVG Export Plug-In . SVG Version: 6.00 Build 0)  -->
<svg version="1.1" id="图层_1" xmlns="http://www.w3.org/2000/svg" xmlns:xlink="http://www.w3.org/1999/xlink" x="0px" y="0px"
	 viewBox="0 0 114 114" style="enable-background:new 0 0 114 114;" xml:space="preserve">
<style type="text/css">
	.st0{fill:#1A1A1A;}
	.st1{fill:#D8D8D8;}
</style>
<g id="XMLID_1660_">
	<path id="XMLID_5_" class="st0" d="M57.1,94.5c-20.7,0-37.5-16.8-37.5-37.5s16.8-37.5,37.5-37.5S94.6,36.3,94.6,57
		S77.8,94.5,57.1,94.5z M57.1,20.5C37,20.5,20.6,36.8,20.6,57S37,93.5,57.1,93.5S93.6,77.1,93.6,57S77.3,20.5,57.1,20.5z"/>
</g>
<g id="XMLID_1659_">
	<path id="XMLID_2_" class="st1" d="M57.1,113.4C26,113.4,0.7,88.1,0.7,57S26,0.5,57.1,0.5s56.4,25.3,56.4,56.4
		S88.2,113.4,57.1,113.4z M57.1,1.5C26.6,1.5,1.7,26.4,1.7,57c0,30.6,24.9,55.4,55.4,55.4c30.6,0,55.4-24.9,55.4-55.4
		C112.6,26.4,87.7,1.5,57.1,1.5z"/>
</g>
</svg>
