<?xml version="1.0" encoding="utf-8"?>
<!-- Generator: Adobe Illustrator 19.0.0, SVG Export Plug-In . SVG Version: 6.00 Build 0)  -->
<svg version="1.1" id="图层_1" xmlns="http://www.w3.org/2000/svg" xmlns:xlink="http://www.w3.org/1999/xlink" x="0px" y="0px"
	 viewBox="0 0 30 30" style="enable-background:new 0 0 30 30;" xml:space="preserve">
<style type="text/css">
	.st0{display:none;}
	.st1{display:inline;}
	.st2{fill:#272728;}
	.st3{fill:none;stroke:#272728;stroke-width:2;stroke-linecap:round;stroke-linejoin:round;stroke-miterlimit:10;}
	.st4{fill:#F1BE1C;}
	.st5{display:inline;fill:#F1BE1C;}
	.st6{fill:#FFFFFF;}
	.st7{display:none;fill:#E2E2E2;}
	.st8{display:inline;fill:#1A1A1A;}
	.st9{fill:#1A1A1A;}
	.st10{fill:#BFBFBF;}
</style>
<g id="XMLID_137_" class="st0">
	<g id="XMLID_149_" class="st1">
		<g id="XMLID_366_">
			<path id="XMLID_6_" class="st2" d="M9,36.4H-1.4c-1.5,0-2.8-1.3-2.8-2.8V22.4c0-0.6,0.4-1,1-1s1,0.4,1,1v11.1
				c0,0.4,0.4,0.8,0.8,0.8H9c0.6,0,1,0.4,1,1S9.5,36.4,9,36.4z"/>
		</g>
		<g id="XMLID_150_">
			<path id="XMLID_5_" class="st2" d="M-3.2,11.4c-0.6,0-1-0.4-1-1V0c0-1.5,1.3-2.8,2.8-2.8H8.9c0.6,0,1,0.4,1,1s-0.4,1-1,1H-1.4
				c-0.4,0-0.8,0.4-0.8,0.8v10.5C-2.2,11-2.6,11.4-3.2,11.4z"/>
		</g>
	</g>
	<g id="XMLID_143_" class="st1">
		<g id="XMLID_145_">
			<path id="XMLID_4_" class="st2" d="M32.2,36.4H21.8c-0.6,0-1-0.4-1-1s0.4-1,1-1h10.4c0.4,0,0.8-0.4,0.8-0.8V22.4c0-0.6,0.4-1,1-1
				s1,0.4,1,1v11.1C34.9,35.1,33.7,36.4,32.2,36.4z"/>
		</g>
		<g id="XMLID_144_">
			<path id="XMLID_7_" class="st2" d="M33.9,11.4c-0.6,0-1-0.4-1-1V0c0-0.4-0.4-0.8-0.8-0.8H21.8c-0.6,0-1-0.4-1-1s0.4-1,1-1h10.3
				c1.5,0,2.8,1.3,2.8,2.8v10.5C34.9,11,34.5,11.4,33.9,11.4z"/>
		</g>
	</g>
	<g id="XMLID_141_" class="st1">
		<path id="XMLID_3_" class="st2" d="M36,17H-4c-0.6,0-1-0.4-1-1s0.4-1,1-1h40c0.6,0,1,0.4,1,1S36.6,17,36,17z"/>
	</g>
</g>
<g id="XMLID_385_" class="st0">
	<g id="XMLID_407_" class="st1">
		<path id="XMLID_16_" class="st2" d="M1.7,34.1l2.6-4.3c-5.7-2.9-9.1-7.9-9.1-13.3c0-8.8,9.1-15.9,20.3-15.9
			c11.2,0,20.3,7.1,20.3,15.9s-9.1,15.9-20.3,15.9c-0.7,0-1.5,0-2.4-0.1L1.7,34.1z M15.5,2.6C5.4,2.6-2.8,8.8-2.8,16.5
			c0,4.9,3.4,9.4,9,11.9l1,0.5l-1.5,2.5l7.4-1.2l0.1,0c0.9,0.1,1.7,0.1,2.4,0.1c10.1,0,18.3-6.2,18.3-13.9
			C33.9,8.8,25.7,2.6,15.5,2.6z"/>
	</g>
	<g id="XMLID_395_" class="st1">
		<path id="XMLID_13_" class="st2" d="M4,19.2c-1.6,0-2.8-1.3-2.8-2.8s1.3-2.8,2.8-2.8s2.8,1.3,2.8,2.8S5.6,19.2,4,19.2z M4,15.6
			c-0.4,0-0.8,0.4-0.8,0.8c0,0.4,0.4,0.8,0.8,0.8s0.8-0.4,0.8-0.8C4.8,16,4.5,15.6,4,15.6z"/>
	</g>
	<g id="XMLID_394_" class="st1">
		<path id="XMLID_10_" class="st2" d="M16,19.2c-1.6,0-2.8-1.3-2.8-2.8s1.3-2.8,2.8-2.8c1.6,0,2.8,1.3,2.8,2.8S17.6,19.2,16,19.2z
			 M16,15.6c-0.4,0-0.8,0.4-0.8,0.8c0,0.4,0.4,0.8,0.8,0.8c0.4,0,0.8-0.4,0.8-0.8C16.8,16,16.5,15.6,16,15.6z"/>
	</g>
	<g id="XMLID_386_" class="st1">
		<path id="XMLID_8_" class="st2" d="M28,19.2c-1.6,0-2.8-1.3-2.8-2.8s1.3-2.8,2.8-2.8s2.8,1.3,2.8,2.8S29.6,19.2,28,19.2z M28,15.6
			c-0.4,0-0.8,0.4-0.8,0.8c0,0.4,0.4,0.8,0.8,0.8s0.8-0.4,0.8-0.8C28.8,16,28.5,15.6,28,15.6z"/>
	</g>
</g>
<g id="XMLID_455_" class="st0">
	<g id="XMLID_458_" class="st1">
		<path id="XMLID_49_" class="st2" d="M33.5,18.2c-0.3,0-0.5-0.1-0.7-0.3L16.4,1.3L-0.1,17.9c-0.4,0.4-1,0.4-1.4,0
			c-0.4-0.4-0.4-1,0-1.4L15.7-0.8C15.9-1,16.2-1,16.4-1c0,0,0,0,0,0c0.3,0,0.5,0,0.7,0.2l17.1,17.2c0.4,0.4,0.4,1,0,1.4
			C34,18.1,33.7,18.2,33.5,18.2z"/>
	</g>
	<g id="XMLID_457_" class="st1">
		<path id="XMLID_48_" class="st2" d="M26,31.8H6.7c-1.7,0-3-1.3-3-3V16.2c0-0.6,0.4-1,1-1s1,0.4,1,1v12.7c0,0.6,0.4,1,1,1H26
			c0.6,0,1-0.4,1-1V16.2c0-0.6,0.4-1,1-1s1,0.4,1,1v12.7C29,30.5,27.7,31.8,26,31.8z"/>
	</g>
	<g id="XMLID_456_" class="st1">
		<path id="XMLID_45_" class="st2" d="M19,31.1h-5.4c-0.4,0-0.8-0.3-0.8-0.8v-6.5c0-0.4,0.3-0.8,0.8-0.8H19c0.4,0,0.8,0.3,0.8,0.8
			v6.5C19.8,30.7,19.4,31.1,19,31.1z M14.4,29.6h3.9v-5h-3.9V29.6z"/>
	</g>
</g>
<g id="XMLID_554_" class="st0">
	<g id="XMLID_467_" class="st1">
		<g id="XMLID_468_">
			<path id="XMLID_57_" class="st2" d="M19.8,31.4c-5.2,0-9.3-4.2-9.3-9.3s4.2-9.3,9.3-9.3s9.3,4.2,9.3,9.3S25,31.4,19.8,31.4z
				 M19.8,14.7c-4,0-7.3,3.3-7.3,7.3s3.3,7.3,7.3,7.3c4,0,7.3-3.3,7.3-7.3S23.9,14.7,19.8,14.7z"/>
		</g>
	</g>
	<g id="XMLID_465_" class="st1">
		<g id="XMLID_466_">
			<path id="XMLID_52_" class="st2" d="M12,33.3H2.9c-1.8,0-3.3-1.5-3.3-3.3V8.5c0-0.6,0.4-1,1-1h29.8c0.6,0,1,0.4,1,1v6.7
				c0,0.6-0.4,1-1,1s-1-0.4-1-1V9.5H1.6V30c0,0.7,0.6,1.3,1.3,1.3H12c0.6,0,1,0.4,1,1S12.5,33.3,12,33.3z"/>
		</g>
	</g>
	<g id="XMLID_462_" class="st1">
		<g id="XMLID_463_">
			<path id="XMLID_53_" class="st2" d="M30.5,9.6H0.6C0.2,9.6-0.1,9.3-0.3,9c-0.2-0.4-0.1-0.8,0.2-1.1l6.4-7.1
				C6.4,0.6,6.7,0.5,7,0.5h17.1c0.3,0,0.6,0.1,0.7,0.3l6.4,7.1c0.3,0.3,0.3,0.7,0.2,1.1C31.2,9.3,30.9,9.6,30.5,9.6z M2.9,7.6h25.4
				l-4.6-5.1H7.4L2.9,7.6z"/>
		</g>
	</g>
	<g id="XMLID_459_" class="st1">
		<g id="XMLID_460_">
			<path id="XMLID_51_" class="st2" d="M4,17.4c-0.1,0-0.3,0-0.4-0.1C3.2,17.1,3,16.8,3,16.4V9c0-0.6,0.4-1,1-1s1,0.4,1,1v5.2
				L6.4,13c0.4-0.3,0.9-0.3,1.3,0L9,14.2V9c0-0.6,0.4-1,1-1s1,0.4,1,1v7.3c0,0.4-0.2,0.7-0.6,0.9c-0.4,0.2-0.8,0.1-1.1-0.1l-2.3-2
				l-2.4,2C4.5,17.3,4.2,17.4,4,17.4z"/>
		</g>
	</g>
	<g id="XMLID_521_" class="st1">
		<g id="XMLID_524_">
			<path id="XMLID_185_" class="st3" d="M29.7,33"/>
		</g>
		<g id="XMLID_523_">
			<path id="XMLID_50_" class="st2" d="M29.7,33.2c-0.2,0-0.5-0.1-0.7-0.3l-3.8-3.5c-0.4-0.4-0.4-1-0.1-1.4c0.4-0.4,1-0.4,1.4-0.1
				l3.8,3.5c0.4,0.4,0.4,1,0.1,1.4C30.2,33.1,30,33.2,29.7,33.2z"/>
		</g>
		<g id="XMLID_522_">
			<path id="XMLID_181_" class="st3" d="M25.1,28.7"/>
		</g>
	</g>
</g>
<g id="XMLID_555_" class="st0">
	<g id="XMLID_518_" class="st1">
		<path id="XMLID_65_" class="st2" d="M27,17H6c-0.6,0-1-0.4-1-1s0.4-1,1-1h21c0.6,0,1,0.4,1,1S27.6,17,27,17z"/>
	</g>
	<g id="XMLID_517_" class="st1">
		<path id="XMLID_64_" class="st2" d="M27,23H6c-0.6,0-1-0.4-1-1s0.4-1,1-1h21c0.6,0,1,0.4,1,1S27.6,23,27,23z"/>
	</g>
	<g id="XMLID_516_" class="st1">
		<path id="XMLID_63_" class="st2" d="M27,29H6c-0.6,0-1-0.4-1-1s0.4-1,1-1h21c0.6,0,1,0.4,1,1S27.6,29,27,29z"/>
	</g>
	<g id="XMLID_515_" class="st1">
		<path id="XMLID_62_" class="st2" d="M30.8,9.6c-0.2,0-0.5-0.1-0.6-0.3L26.8,4c-0.2-0.3-0.1-0.8,0.2-1c0.4-0.2,0.8-0.1,1,0.2
			l3.3,5.3c0.2,0.3,0.1,0.8-0.2,1C31,9.6,30.9,9.6,30.8,9.6z"/>
	</g>
	<g id="XMLID_500_" class="st1">
		<path id="XMLID_56_" class="st2" d="M29.9,34H2.8C1.2,34,0,32.7,0,31V4c0-1.7,1.2-3,2.8-3H25c0.6,0,1,0.4,1,1v9h6c0.6,0,1,0.4,1,1
			v19C33,32.7,31.6,34,29.9,34z M2.8,3C2.1,3,2,3.7,2,4v27c0,0.3,0.1,1,0.8,1h27.2c0.6,0,1.1-0.4,1.1-1V13h-6c-0.6,0-1-0.4-1-1V3
			H2.8z"/>
	</g>
</g>
<g id="XMLID_501_" class="st0">
	<g id="XMLID_503_" class="st1">
		<g id="XMLID_513_">
			<path id="XMLID_71_" class="st2" d="M19.4,19.6c-5,0-9.1-4.1-9.1-9.2s4.1-9.2,9.1-9.2c5,0,9.1,4.1,9.1,9.2S24.4,19.6,19.4,19.6z
				 M19.4,3.2c-3.9,0-7.1,3.2-7.1,7.2s3.2,7.2,7.1,7.2c3.9,0,7.1-3.2,7.1-7.2S23.3,3.2,19.4,3.2z"/>
		</g>
		<g id="XMLID_512_">
			<path id="XMLID_69_" class="st2" d="M7,32.6c-0.6,0-1-0.4-1-1c0-7.7,6.2-14.1,13.9-14.1c0.6,0,1,0.4,1,1s-0.4,1-1,1
				C13.4,19.6,8,25,8,31.6C8,32.2,7.6,32.6,7,32.6z"/>
		</g>
		<g id="XMLID_511_">
			<path id="XMLID_68_" class="st2" d="M32.8,32.6c-0.6,0-1-0.4-1-1c0-4.2-2.3-8.1-5.9-10.2c-0.5-0.3-0.6-0.9-0.4-1.4
				c0.3-0.5,0.9-0.6,1.4-0.4c4.2,2.5,6.9,7.1,6.9,12C33.8,32.2,33.3,32.6,32.8,32.6z"/>
		</g>
		<g id="XMLID_505_">
			<g id="XMLID_507_">
				<path id="XMLID_67_" class="st2" d="M10.5,19.4c-0.1,0-0.1,0-0.2,0c-4.3-0.8-7.4-4.6-7.4-9C2.9,5.3,7,1.2,12,1.2
					c0.6,0,1,0.4,1,1s-0.4,1-1,1c-3.9,0-7.1,3.2-7.1,7.2c0,3.5,2.4,6.4,5.8,7.1c0.5,0.1,0.9,0.6,0.8,1.2
					C11.4,19.1,11,19.4,10.5,19.4z"/>
			</g>
			<g id="XMLID_506_">
				<path id="XMLID_66_" class="st2" d="M-0.4,32.6c-0.6,0-1-0.4-1-1c0-6.9,5.1-13.1,11.6-14.2c0.5-0.1,1.1,0.3,1.1,0.8
					c0.1,0.5-0.3,1.1-0.8,1.1c-5.6,0.9-9.9,6.3-9.9,12.2C0.6,32.2,0.1,32.6-0.4,32.6z"/>
			</g>
		</g>
	</g>
	<g id="XMLID_502_" class="st1">
		<path id="XMLID_148_" class="st3" d="M10.5,18.9"/>
	</g>
</g>
<g id="XMLID_99_" class="st0">
	<g id="XMLID_960_" class="st1">
		<polygon id="XMLID_1015_" class="st4" points="15.4,2 30.4,17 32.5,17 15.4,-0.3 -1.8,17 0.5,17 		"/>
		<polygon id="XMLID_1016_" class="st4" points="29,17.2 15.4,3.6 1.9,17.2 		"/>
	</g>
	<path id="XMLID_98_" class="st5" d="M4,16v12.8C4,29.9,4.6,31,5.7,31H13v-7h5v7h7c1.1,0,2-1.1,2-2.2V16H4z"/>
</g>
<g id="XMLID_100_" class="st0">
	<g id="XMLID_982_" class="st1">
		<path id="XMLID_983_" class="st4" d="M12,31.3H2.9c-1.3,0-2.3-1-2.3-2.3V8.5h29.8v20.8c0,1.1-0.9,2-2,2H12z"/>
	</g>
	<g id="XMLID_979_" class="st1">
		<path id="XMLID_980_" class="st4" d="M30.5,7.6H0.6L7,0.5h17.1L30.5,7.6z"/>
	</g>
	<g id="XMLID_977_" class="st1">
		<polyline id="XMLID_978_" class="st6" points="10,8 10,15.3 7,12.8 4,15.4 4,8 		"/>
	</g>
	<g id="XMLID_988_" class="st1">
		<path id="XMLID_989_" class="st6" d="M19.8,29.4c-4.6,0-8.3-3.7-8.3-8.3s3.7-8.3,8.3-8.3s8.3,3.7,8.3,8.3S24.4,29.4,19.8,29.4z"/>
	</g>
	<g id="XMLID_984_" class="st1">
		<g id="XMLID_987_">
			<path id="XMLID_381_" class="st6" d="M29.5,31.1"/>
		</g>
		<g id="XMLID_986_">
			<path id="XMLID_374_" class="st6" d="M29.4,31.3c-0.2,0-0.5-0.1-0.7-0.3L25,27.5c-0.4-0.4-0.4-1-0.1-1.4c0.4-0.4,1-0.4,1.4-0.1
				l3.8,3.5c0.4,0.4,0.4,1,0.1,1.4C30,31.2,29.7,31.3,29.4,31.3z"/>
		</g>
		<g id="XMLID_985_">
			<path id="XMLID_377_" class="st6" d="M24.9,26.8"/>
		</g>
	</g>
</g>
<g id="XMLID_101_" class="st0">
	<path id="XMLID_954_" class="st5" d="M25,12V2H2.8C1.7,2,1,2.9,1,4v27c0,1.1,0.7,2,1.8,2h27.2c1.1,0,2.1-0.9,2.1-2V12H25z"/>
	<g id="XMLID_958_" class="st1">
		<path id="XMLID_382_" class="st6" d="M26.7,17h-21c-0.6,0-1-0.4-1-1s0.4-1,1-1h21c0.6,0,1,0.4,1,1S27.3,17,26.7,17z"/>
	</g>
	<g id="XMLID_957_" class="st1">
		<path id="XMLID_379_" class="st6" d="M26.7,23h-21c-0.6,0-1-0.4-1-1s0.4-1,1-1h21c0.6,0,1,0.4,1,1S27.3,23,26.7,23z"/>
	</g>
	<g id="XMLID_956_" class="st1">
		<path id="XMLID_378_" class="st6" d="M26.7,29h-21c-0.6,0-1-0.4-1-1s0.4-1,1-1h21c0.6,0,1,0.4,1,1S27.3,29,26.7,29z"/>
	</g>
	<g id="XMLID_955_" class="st1">
		<path id="XMLID_383_" class="st4" d="M30.8,9.6c-0.2,0-0.5-0.1-0.6-0.3L26.8,4c-0.2-0.3-0.1-0.8,0.2-1c0.3-0.2,0.8-0.1,1,0.2
			l3.3,5.3c0.2,0.3,0.1,0.8-0.2,1C31,9.6,30.9,9.6,30.8,9.6z"/>
	</g>
</g>
<path id="XMLID_1227_" class="st7" d="M15-2C5.6-2-2,5.6-2,15s7.6,17,17,17s17-7.6,17-17S24.4-2,15-2z M15,31.4
	C6,31.4-1.4,24.1-1.4,15S6-1.3,15-1.3C24-1.3,31.4,6,31.4,15S24,31.4,15,31.4z"/>
<g id="XMLID_1228_" class="st0">
	<path id="XMLID_1229_" class="st8" d="M29,20.9c0.2,0.1,0.3,0.3,0.5,0.4c1,0.9,1.4,1.3,1.5,1.4h0l0,0l0,0c0,0,0.1,0.1,0.2,0.2
		c0,0.1,0.1,0.1,0.1,0.2c0,0,0,0,0.1,0.1c0,0,0.1,0.1,0.1,0.1l0.2,0.3v0c0.4,0.9,0.1,2-0.1,2.6c-0.5,1-1.4,2.1-2.1,2.7
		c-1.4,1.3-3.2,2.7-5.6,2.7c-0.2,0-0.5,0-0.7,0c-1.7-0.2-4.3-1.2-7.2-2.8c-3.1-1.7-6.1-3.9-8.4-6.1c-2.3-2.2-4.6-5-6.4-8
		c-1.7-2.7-2.8-5.2-3-6.8C-2,6.8-1.7,5.6-1.1,4.4c0.6-1.1,1.5-2.1,2.5-3c0.1-0.1,0.1-0.1,0.2-0.2C2.5,0.6,3.2,0,4.3-0.4
		c0.4-0.2,0.8-0.3,1.2-0.3c0.4,0,0.7,0.1,1.1,0.2l0,0C6.8-0.4,7-0.2,7.1-0.2c0.2,0.1,1.3,0.7,2.5,2.3c0.4,0.5,1,1.4,1.4,2.2
		c0.8,1.3,1.2,2.4,1.3,2.4l0,0L12.4,7c0.3,0.8,0.1,1.6-0.5,2.2c0,0-0.1,0.1-0.1,0.1l-0.1,0.1l0,0c0,0-0.1,0.1-0.1,0.1
		c-0.1,0.1-0.1,0.1-0.2,0.1l0,0c-0.4,0.3-0.5,0.3-0.7,0.4c-0.1,0.1-0.2,0.1-0.4,0.3l0,0c-0.4,0.2-0.8,0.4-1.2,0.5
		C8.8,11,8.5,11.1,8,11.4c-0.6,0.3-0.6,1.2-0.5,1.4c0.8,1.7,2.1,3.4,4.4,5.6c2,1.9,4,3.1,5.7,4.1c0.2,0.1,0.4,0.2,0.6,0.2
		c0.6,0,1.2-0.5,1.4-0.9c0.2-0.3,0.4-0.7,0.5-1c0.1-0.3,0.3-0.5,0.4-0.7l0,0c0.3-0.5,0.5-0.9,0.6-1.1c0.1-0.1,0.2-0.3,0.3-0.4
		c0.3-0.4,0.7-0.7,1.1-0.8c0.2-0.1,0.5-0.1,0.8-0.1c0.4,0,0.7,0.1,1,0.2l0.7,0.4l0,0c0.1,0,0.1,0.1,0.2,0.1c0.1,0,0.2,0.1,0.3,0.2
		c0.3,0.2,0.7,0.4,1.2,0.8c0.1,0.1,0.2,0.1,0.3,0.2 M22.5,19.6c-0.1,0.1-0.3,0.4-0.7,1.1c-0.1,0.2-0.2,0.4-0.3,0.7
		c-0.2,0.3-0.4,0.7-0.6,1.1c-0.5,0.8-1.5,1.7-2.7,1.7c-0.5,0-0.9-0.1-1.3-0.4c-1.7-1-3.8-2.3-6-4.3c-2.4-2.3-3.9-4.2-4.7-6.1
		c-0.2-0.5-0.3-1.1-0.1-1.7c0.2-0.7,0.7-1.3,1.3-1.6c0.5-0.2,0.9-0.4,1.2-0.5c0.4-0.1,0.7-0.3,1-0.4C9.8,8.9,9.9,8.8,10,8.8
		c0.1-0.1,0.2-0.1,0.6-0.3c0,0,0,0,0.1-0.1c0.1-0.1,0.1-0.1,0.1-0.1c0,0,0,0,0.1-0.1l0,0C11.1,8,11.1,7.8,11,7.5l0,0l-0.1-0.2
		C10.9,7.1,10.4,6.1,9.8,5C9.4,4.4,8.9,3.6,8.4,3c-1-1.4-1.9-1.8-2-1.9l0,0C6.3,1.1,6.1,1,6,0.9C5.8,0.8,5.7,0.8,5.5,0.8
		c-0.2,0-0.4,0-0.6,0.1l0,0C3.9,1.3,3.4,1.8,2.6,2.4C2.5,2.5,2.5,2.5,2.4,2.6c-1.9,1.6-3,3.5-2.8,5.1c0.2,1.4,1.2,3.8,2.8,6.3
		c1.7,2.8,3.9,5.5,6.2,7.7c2.2,2.1,5.1,4.2,8.1,5.9c2.6,1.5,5.1,2.5,6.6,2.6c0.2,0,0.4,0,0.6,0c1.4,0,2.8-0.7,4.6-2.3
		c0.6-0.5,1.3-1.4,1.7-2.2c0.2-0.5,0.3-1.1,0.1-1.3L30.2,24v0l0,0c-0.1-0.1-0.2-0.2-0.3-0.3c0,0-0.4-0.4-1.3-1.2
		c-0.9-0.7-1.9-1.5-2.6-2c-0.8-0.5-1.4-0.9-1.6-1l-0.7-0.4c0,0-0.2-0.1-0.3-0.1c-0.1,0-0.2,0-0.3,0c-0.2,0.1-0.3,0.2-0.4,0.3
		L22.5,19.6L22.5,19.6z M22.5,19.6"/>
</g>
<g id="XMLID_1215_" class="st0">
	<g id="XMLID_1220_" class="st1">
		<g id="XMLID_1221_">
			<path id="XMLID_77_" class="st9" d="M16.1,31.8l-0.9-0.5l0.8-1.5c0.9-1.5,0.9-1.7,2.2-3.1c3.5-4,8.2-8.6,8.3-8.7l3.5-3.7
				c1.5-1.9,1.8-4.1,1.8-6.2c0-4.3-4.4-7.5-8.4-7.5c-4,0-7.1,3.1-7.2,7.2l-0.5,0l-0.5,0C15,3.7,11.9,0.6,8,0.6c-4,0-8.4,3.2-8.4,7.5
				c0,2.1,0.2,4.2,1.8,6.2l3.5,3.7l0,0c0,0,0.8,0.8,2.1,2.1l-0.7,0.7c-1.2-1.3-2.1-2.1-2.1-2.1L0.6,15c-1.8-2.2-2-4.6-2-6.9
				c0-4.9,5-8.5,9.4-8.5c3.6,0,6.6,2.2,7.8,5.5c1.1-3.3,4.1-5.5,7.8-5.5c4.4,0,9.4,3.7,9.4,8.5c0,2.3-0.2,4.6-2,6.9l-3.5,3.8
				c-0.1,0.1-4.8,4.7-8.3,8.6c-1.2,1.3-1.2,1.4-2.1,2.9L16.1,31.8z"/>
			<path id="XMLID_78_" class="st9" d="M16.1,32c0,0-0.1,0-0.1,0l-0.9-0.5c-0.1-0.1-0.2-0.2-0.1-0.3l0.8-1.5c0.9-1.5,1-1.7,2.2-3.1
				c3.5-4,8.3-8.7,8.3-8.7l3.5-3.7c1.5-1.9,1.7-4,1.7-6c0-4.2-4.3-7.3-8.1-7.3c-3.8,0-6.8,3-7,6.9c0,0.1-0.1,0.2-0.3,0.2l-0.5,0
				l-0.5,0c-0.1,0-0.2-0.1-0.3-0.2c-0.2-3.9-3.2-6.9-7-6.9c-3.8,0-8.1,3.1-8.1,7.3c0,2,0.2,4.1,1.7,6L5,17.8c0,0,0.8,0.8,2.1,2.1
				c0,0,0.1,0.1,0.1,0.2s0,0.1-0.1,0.2l-0.7,0.7C6.3,21,6.1,21,6,20.9C4.8,19.7,4,18.8,4,18.8l-3.5-3.7c-1.9-2.3-2.1-4.7-2.1-7
				c0-5,5.1-8.8,9.6-8.8c3.4,0,6.4,2,7.8,5.1c1.3-3.1,4.3-5.1,7.8-5.1c4.5,0,9.6,3.8,9.6,8.8c0,2.3-0.3,4.7-2.1,7l-3.5,3.8
				c-0.5,0.5-4.9,4.9-8.2,8.6c-1.1,1.3-1.2,1.4-2,2.9l-0.8,1.5C16.3,31.9,16.3,32,16.1,32C16.2,32,16.2,32,16.1,32z M15.6,31.2
				l0.4,0.3l0.7-1.2c0.9-1.5,0.9-1.6,2.1-2.9c3.3-3.8,7.8-8.2,8.3-8.6l3.5-3.8c1.7-2.1,1.9-4.5,1.9-6.7c0-4.7-4.8-8.3-9.1-8.3
				c-3.4,0-6.4,2.1-7.5,5.4c-0.1,0.2-0.4,0.2-0.5,0C14.3,1.9,11.4-0.2,8-0.2c-4.3,0-9.1,3.5-9.1,8.3c0,2.2,0.2,4.5,2,6.7l3.5,3.7
				c0,0,0,0,0,0c0,0,0.8,0.8,1.9,1.9l0.4-0.3c-1.1-1.2-1.9-1.9-1.9-1.9l-3.5-3.7c-1.6-2-1.9-4.3-1.9-6.4c0-4.4,4.6-7.8,8.6-7.8
				c4,0,7.2,3.1,7.5,7.2l0.3,0l0.3,0c0.3-4.1,3.5-7.2,7.5-7.2c4.1,0,8.6,3.3,8.6,7.8c0,2.1-0.2,4.4-1.8,6.4l-3.5,3.7
				c-0.1,0.1-4.8,4.7-8.3,8.7c-1.2,1.4-1.3,1.5-2.1,3L15.6,31.2z"/>
		</g>
	</g>
	<g id="XMLID_1216_" class="st1">
		<g id="XMLID_1217_">
			<g id="XMLID_1218_">
				<path id="XMLID_44_" class="st9" d="M6.1,24.2h4.6v-4.6h1v4.6h4.6V25h-4.6v5.1h-1V25H6.1V24.2z"/>
				<path id="XMLID_74_" class="st9" d="M11.6,30.3h-1c-0.1,0-0.3-0.1-0.3-0.3v-4.8H6.1c-0.1,0-0.3-0.1-0.3-0.3v-0.8
					c0-0.1,0.1-0.3,0.3-0.3h4.4v-4.3c0-0.1,0.1-0.3,0.3-0.3h1c0.1,0,0.3,0.1,0.3,0.3v4.3h4.3c0.1,0,0.3,0.1,0.3,0.3V25
					c0,0.1-0.1,0.3-0.3,0.3h-4.3v4.8C11.9,30.2,11.8,30.3,11.6,30.3z M10.9,29.8h0.5V25c0-0.1,0.1-0.3,0.3-0.3H16v-0.3h-4.3
					c-0.1,0-0.3-0.1-0.3-0.3v-4.3h-0.5v4.3c0,0.1-0.1,0.3-0.3,0.3H6.3v0.3h4.4c0.1,0,0.3,0.1,0.3,0.3V29.8z"/>
			</g>
		</g>
	</g>
</g>
<g id="XMLID_1235_">
	<g id="XMLID_128_">
		<path id="XMLID_129_" class="st10" d="M10.8,28.7c-0.2,0-0.3-0.1-0.4-0.2c-0.2-0.2-0.2-0.6,0-0.9l13.1-13.1L10.4,1.7
			c-0.2-0.2-0.2-0.6,0-0.9c0.2-0.2,0.6-0.2,0.9,0l13.5,13.3c0.1,0.1,0.2,0.3,0.2,0.4c0,0.2-0.1,0.3-0.2,0.4L11.2,28.5
			C11.1,28.7,11,28.7,10.8,28.7z"/>
	</g>
</g>
</svg>
