<?xml version="1.0" encoding="utf-8"?>
<!-- Generator: Adobe Illustrator 19.0.0, SVG Export Plug-In . SVG Version: 6.00 Build 0)  -->
<svg version="1.1" id="图层_1" xmlns="http://www.w3.org/2000/svg" xmlns:xlink="http://www.w3.org/1999/xlink" x="0px" y="0px"
	 viewBox="0 0 48 48" style="enable-background:new 0 0 48 48;" xml:space="preserve">
<style type="text/css">
	.st0{fill:#F4C65D;}
</style>
<g id="XMLID_2164_">
	<g id="XMLID_2176_">
		<path id="XMLID_2199_" class="st0" d="M10.5,17L1,26.1V37h5.9c0,0,0-0.3,0-0.5c0-2.7,2.2-4.9,4.9-4.9s4.9,2.2,4.9,4.9
			c0,0.2,0,0.5,0,0.5H19V17H10.5z"/>
	</g>
	<g id="XMLID_2174_">
		<circle id="XMLID_2197_" class="st0" cx="12.1" cy="37.1" r="3.5"/>
	</g>
	<g id="XMLID_2173_">
		<circle id="XMLID_2183_" class="st0" cx="34.5" cy="37.1" r="3.5"/>
	</g>
	<path id="XMLID_2194_" class="st0" d="M44.6,7h-21C22.1,7,21,7.8,21,9.3L21,37h8.8c0,0,0-0.3,0-0.5c0-2.7,2.2-4.9,4.9-4.9
		c2.7,0,4.9,2.2,4.9,4.9c0,0.2,0,0.5,0,0.5h5.1c1.4,0,2.4-1.5,2.4-2.9V8.6C47,7.2,46,7,44.6,7z M38.3,27H29V17c0-0.6,0.4-1,1-1
		s1,0.4,1,1v8h7.3c0.6,0,1,0.4,1,1S38.8,27,38.3,27z"/>
</g>
</svg>
