<?xml version="1.0" encoding="utf-8"?>
<!-- Generator: Adobe Illustrator 19.0.0, SVG Export Plug-In . SVG Version: 6.00 Build 0)  -->
<svg version="1.1" id="图层_1" xmlns="http://www.w3.org/2000/svg" xmlns:xlink="http://www.w3.org/1999/xlink" x="0px" y="0px"
	 viewBox="0 0 48 48" style="enable-background:new 0 0 48 48;" xml:space="preserve">
<style type="text/css">
	.st0{fill:#DFBAD7;}
	.st1{fill:#D881B2;}
</style>
<g id="XMLID_1_">
	<g id="XMLID_2184_">
		<path id="XMLID_2185_" class="st0" d="M40.9,14H7l7.3-8h19.4L40.9,14z"/>
	</g>
	<path id="XMLID_2180_" class="st1" d="M21,15v8.7l-4-2.9l-4,2.9V15H7v24.3C7,40.6,8,41,9.3,41h29.5c1.3,0,2.3-0.4,2.3-1.7V15H21z
		 M37,35H25c-0.3,0-0.5-0.2-0.5-0.5S24.8,34,25,34h12c0.3,0,0.5,0.2,0.5,0.5S37.3,35,37,35z M37,29h-6c-0.3,0-0.5-0.2-0.5-0.5
		S30.8,28,31,28h6c0.3,0,0.5,0.2,0.5,0.5S37.3,29,37,29z"/>
</g>
</svg>
