<?xml version="1.0" encoding="utf-8"?>
<!-- Generator: Adobe Illustrator 19.0.0, SVG Export Plug-In . SVG Version: 6.00 Build 0)  -->
<svg version="1.1" id="图层_1" xmlns="http://www.w3.org/2000/svg" xmlns:xlink="http://www.w3.org/1999/xlink" x="0px" y="0px"
	 viewBox="-33 35 72 72" style="enable-background:new -33 35 72 72;" xml:space="preserve">
<style type="text/css">
	.st0{display:none;}
	.st1{display:inline;}
	.st2{fill:#272728;}
	.st3{fill:none;stroke:#272728;stroke-width:2;stroke-linecap:round;stroke-linejoin:round;stroke-miterlimit:10;}
	.st4{fill:#F1BE1C;}
	.st5{display:inline;fill:#F1BE1C;}
	.st6{fill:#FFFFFF;}
	.st7{display:inline;fill:#FB5B46;}
	.st8{fill:#C1C1C1;}
	.st9{fill:#D8D7D7;}
	.st10{display:none;fill:#FB482B;}
	.st11{display:none;fill:#247EE2;}
	.st12{fill:#FB482B;}
</style>
<g id="XMLID_137_" class="st0">
	<g id="XMLID_149_" class="st1">
		<g id="XMLID_366_">
			<path id="XMLID_6_" class="st2" d="M-3,92.4h-10.4c-1.5,0-2.8-1.3-2.8-2.8V78.4c0-0.6,0.4-1,1-1s1,0.4,1,1v11.1
				c0,0.4,0.4,0.8,0.8,0.8H-3c0.6,0,1,0.4,1,1C-2,91.9-2.5,92.4-3,92.4z"/>
		</g>
		<g id="XMLID_150_">
			<path id="XMLID_5_" class="st2" d="M-15.2,67.4c-0.6,0-1-0.4-1-1V56c0-1.5,1.3-2.8,2.8-2.8h10.3c0.6,0,1,0.4,1,1s-0.4,1-1,1
				h-10.3c-0.4,0-0.8,0.4-0.8,0.8v10.5C-14.2,67-14.6,67.4-15.2,67.4z"/>
		</g>
	</g>
	<g id="XMLID_143_" class="st1">
		<g id="XMLID_145_">
			<path id="XMLID_4_" class="st2" d="M20.2,92.4H9.8c-0.6,0-1-0.4-1-1s0.4-1,1-1h10.4c0.4,0,0.8-0.4,0.8-0.8V78.4c0-0.6,0.4-1,1-1
				s1,0.4,1,1v11.1C22.9,91.1,21.7,92.4,20.2,92.4z"/>
		</g>
		<g id="XMLID_144_">
			<path id="XMLID_7_" class="st2" d="M21.9,67.4c-0.6,0-1-0.4-1-1V56c0-0.4-0.4-0.8-0.8-0.8H9.8c-0.6,0-1-0.4-1-1s0.4-1,1-1h10.3
				c1.5,0,2.8,1.3,2.8,2.8v10.5C22.9,67,22.5,67.4,21.9,67.4z"/>
		</g>
	</g>
	<g id="XMLID_141_" class="st1">
		<path id="XMLID_3_" class="st2" d="M24,73h-40c-0.6,0-1-0.4-1-1s0.4-1,1-1h40c0.6,0,1,0.4,1,1S24.6,73,24,73z"/>
	</g>
</g>
<g id="XMLID_385_" class="st0">
	<g id="XMLID_407_" class="st1">
		<path id="XMLID_16_" class="st2" d="M-10.3,90.1l2.6-4.3c-5.7-2.9-9.1-7.9-9.1-13.3c0-8.8,9.1-15.9,20.3-15.9s20.3,7.1,20.3,15.9
			S14.7,88.4,3.5,88.4c-0.7,0-1.5,0-2.4-0.1L-10.3,90.1z M3.5,58.6c-10.1,0-18.3,6.2-18.3,13.9c0,4.9,3.4,9.4,9,11.9l1,0.5l-1.5,2.5
			l7.4-1.2h0.1c0.9,0.1,1.7,0.1,2.4,0.1c10.1,0,18.3-6.2,18.3-13.9C21.9,64.8,13.7,58.6,3.5,58.6z"/>
	</g>
	<g id="XMLID_395_" class="st1">
		<path id="XMLID_13_" class="st2" d="M-8,75.2c-1.6,0-2.8-1.3-2.8-2.8s1.3-2.8,2.8-2.8s2.8,1.3,2.8,2.8S-6.4,75.2-8,75.2z M-8,71.6
			c-0.4,0-0.8,0.4-0.8,0.8c0,0.4,0.4,0.8,0.8,0.8s0.8-0.4,0.8-0.8C-7.2,72-7.5,71.6-8,71.6z"/>
	</g>
	<g id="XMLID_394_" class="st1">
		<path id="XMLID_10_" class="st2" d="M4,75.2c-1.6,0-2.8-1.3-2.8-2.8s1.3-2.8,2.8-2.8c1.6,0,2.8,1.3,2.8,2.8S5.6,75.2,4,75.2z
			 M4,71.6c-0.4,0-0.8,0.4-0.8,0.8c0,0.4,0.4,0.8,0.8,0.8c0.4,0,0.8-0.4,0.8-0.8C4.8,72,4.5,71.6,4,71.6z"/>
	</g>
	<g id="XMLID_386_" class="st1">
		<path id="XMLID_8_" class="st2" d="M16,75.2c-1.6,0-2.8-1.3-2.8-2.8s1.3-2.8,2.8-2.8s2.8,1.3,2.8,2.8S17.6,75.2,16,75.2z M16,71.6
			c-0.4,0-0.8,0.4-0.8,0.8c0,0.4,0.4,0.8,0.8,0.8s0.8-0.4,0.8-0.8C16.8,72,16.5,71.6,16,71.6z"/>
	</g>
</g>
<g id="XMLID_455_" class="st0">
	<g id="XMLID_458_" class="st1">
		<path id="XMLID_49_" class="st2" d="M21.5,74.2c-0.3,0-0.5-0.1-0.7-0.3L4.4,57.3l-16.5,16.6c-0.4,0.4-1,0.4-1.4,0s-0.4-1,0-1.4
			L3.7,55.3c0.2-0.2,0.4-0.2,0.7-0.2l0,0c0.3,0,0.5,0,0.7,0.2l17.1,17.2c0.4,0.4,0.4,1,0,1.4C22,74.1,21.7,74.2,21.5,74.2z"/>
	</g>
	<g id="XMLID_457_" class="st1">
		<path id="XMLID_48_" class="st2" d="M14,87.8H-5.3c-1.7,0-3-1.3-3-3V72.2c0-0.6,0.4-1,1-1s1,0.4,1,1v12.7c0,0.6,0.4,1,1,1H14
			c0.6,0,1-0.4,1-1V72.2c0-0.6,0.4-1,1-1s1,0.4,1,1v12.7C17,86.5,15.7,87.8,14,87.8z"/>
	</g>
	<g id="XMLID_456_" class="st1">
		<path id="XMLID_45_" class="st2" d="M7,87.1H1.6c-0.4,0-0.8-0.3-0.8-0.8v-6.5c0-0.4,0.3-0.8,0.8-0.8H7c0.4,0,0.8,0.3,0.8,0.8v6.5
			C7.8,86.7,7.4,87.1,7,87.1z M2.4,85.6h3.9v-5H2.4V85.6z"/>
	</g>
</g>
<g id="XMLID_554_" class="st0">
	<g id="XMLID_467_" class="st1">
		<g id="XMLID_468_">
			<path id="XMLID_57_" class="st2" d="M7.8,87.4c-5.2,0-9.3-4.2-9.3-9.3c0-5.1,4.2-9.3,9.3-9.3s9.3,4.2,9.3,9.3
				C17.1,83.2,13,87.4,7.8,87.4z M7.8,70.7c-4,0-7.3,3.3-7.3,7.3s3.3,7.3,7.3,7.3s7.3-3.3,7.3-7.3S11.9,70.7,7.8,70.7z"/>
		</g>
	</g>
	<g id="XMLID_465_" class="st1">
		<g id="XMLID_466_">
			<path id="XMLID_52_" class="st2" d="M0,89.3h-9.1c-1.8,0-3.3-1.5-3.3-3.3V64.5c0-0.6,0.4-1,1-1h29.8c0.6,0,1,0.4,1,1v6.7
				c0,0.6-0.4,1-1,1s-1-0.4-1-1v-5.7h-27.8V86c0,0.7,0.6,1.3,1.3,1.3H0c0.6,0,1,0.4,1,1C1,88.9,0.5,89.3,0,89.3z"/>
		</g>
	</g>
	<g id="XMLID_462_" class="st1">
		<g id="XMLID_463_">
			<path id="XMLID_53_" class="st2" d="M18.5,65.6h-29.9c-0.4,0-0.8-0.2-0.9-0.6c-0.2-0.4-0.1-0.8,0.2-1.1l6.4-7.1
				c0.2-0.2,0.5-0.3,0.7-0.3h17.1c0.3,0,0.6,0.1,0.7,0.3l6.4,7.1c0.3,0.3,0.3,0.7,0.2,1.1C19.2,65.3,18.9,65.6,18.5,65.6z
				 M-9.1,63.6h25.4l-4.6-5.1H-4.6L-9.1,63.6z"/>
		</g>
	</g>
	<g id="XMLID_459_" class="st1">
		<g id="XMLID_460_">
			<path id="XMLID_51_" class="st2" d="M-8,73.4c-0.1,0-0.3,0-0.4-0.1C-8.8,73.1-9,72.8-9,72.4V65c0-0.6,0.4-1,1-1s1,0.4,1,1v5.2
				l1.4-1.2c0.4-0.3,0.9-0.3,1.3,0l1.3,1.1V65c0-0.6,0.4-1,1-1s1,0.4,1,1v7.3c0,0.4-0.2,0.7-0.6,0.9c-0.4,0.2-0.8,0.1-1.1-0.1
				l-2.3-2l-2.4,2C-7.5,73.3-7.8,73.4-8,73.4z"/>
		</g>
	</g>
	<g id="XMLID_521_" class="st1">
		<g id="XMLID_524_">
			<path id="XMLID_185_" class="st3" d="M17.7,89"/>
		</g>
		<g id="XMLID_523_">
			<path id="XMLID_50_" class="st2" d="M17.7,89.2c-0.2,0-0.5-0.1-0.7-0.3l-3.8-3.5c-0.4-0.4-0.4-1-0.1-1.4c0.4-0.4,1-0.4,1.4-0.1
				l3.8,3.5c0.4,0.4,0.4,1,0.1,1.4C18.2,89.1,18,89.2,17.7,89.2z"/>
		</g>
		<g id="XMLID_522_">
			<path id="XMLID_181_" class="st3" d="M13.1,84.7"/>
		</g>
	</g>
</g>
<g id="XMLID_555_" class="st0">
	<g id="XMLID_518_" class="st1">
		<path id="XMLID_65_" class="st2" d="M15,73H-6c-0.6,0-1-0.4-1-1s0.4-1,1-1h21c0.6,0,1,0.4,1,1S15.6,73,15,73z"/>
	</g>
	<g id="XMLID_517_" class="st1">
		<path id="XMLID_64_" class="st2" d="M15,79H-6c-0.6,0-1-0.4-1-1s0.4-1,1-1h21c0.6,0,1,0.4,1,1S15.6,79,15,79z"/>
	</g>
	<g id="XMLID_516_" class="st1">
		<path id="XMLID_63_" class="st2" d="M15,85H-6c-0.6,0-1-0.4-1-1s0.4-1,1-1h21c0.6,0,1,0.4,1,1S15.6,85,15,85z"/>
	</g>
	<g id="XMLID_515_" class="st1">
		<path id="XMLID_62_" class="st2" d="M18.8,65.6c-0.2,0-0.5-0.1-0.6-0.3L14.8,60c-0.2-0.3-0.1-0.8,0.2-1c0.4-0.2,0.8-0.1,1,0.2
			l3.3,5.3c0.2,0.3,0.1,0.8-0.2,1C19,65.6,18.9,65.6,18.8,65.6z"/>
	</g>
	<g id="XMLID_500_" class="st1">
		<path id="XMLID_56_" class="st2" d="M17.9,90H-9.2c-1.6,0-2.8-1.3-2.8-3V60c0-1.7,1.2-3,2.8-3H13c0.6,0,1,0.4,1,1v9h6
			c0.6,0,1,0.4,1,1v19C21,88.7,19.6,90,17.9,90z M-9.2,59c-0.7,0-0.8,0.7-0.8,1v27c0,0.3,0.1,1,0.8,1H18c0.6,0,1.1-0.4,1.1-1V69h-6
			c-0.6,0-1-0.4-1-1v-9H-9.2z"/>
	</g>
</g>
<g id="XMLID_501_" class="st0">
	<g id="XMLID_503_" class="st1">
		<g id="XMLID_513_">
			<path id="XMLID_71_" class="st2" d="M7.4,75.6c-5,0-9.1-4.1-9.1-9.2c0-5.1,4.1-9.2,9.1-9.2s9.1,4.1,9.1,9.2
				C16.5,71.5,12.4,75.6,7.4,75.6z M7.4,59.2c-3.9,0-7.1,3.2-7.1,7.2s3.2,7.2,7.1,7.2s7.1-3.2,7.1-7.2S11.3,59.2,7.4,59.2z"/>
		</g>
		<g id="XMLID_512_">
			<path id="XMLID_69_" class="st2" d="M-5,88.6c-0.6,0-1-0.4-1-1c0-7.7,6.2-14.1,13.9-14.1c0.6,0,1,0.4,1,1s-0.4,1-1,1
				C1.4,75.6-4,81-4,87.6C-4,88.2-4.4,88.6-5,88.6z"/>
		</g>
		<g id="XMLID_511_">
			<path id="XMLID_68_" class="st2" d="M20.8,88.6c-0.6,0-1-0.4-1-1c0-4.2-2.3-8.1-5.9-10.2c-0.5-0.3-0.6-0.9-0.4-1.4
				c0.3-0.5,0.9-0.6,1.4-0.4c4.2,2.5,6.9,7.1,6.9,12C21.8,88.2,21.3,88.6,20.8,88.6z"/>
		</g>
		<g id="XMLID_505_">
			<g id="XMLID_507_">
				<path id="XMLID_67_" class="st2" d="M-1.5,75.4c-0.1,0-0.1,0-0.2,0c-4.3-0.8-7.4-4.6-7.4-9c0-5.1,4.1-9.2,9.1-9.2
					c0.6,0,1,0.4,1,1s-0.4,1-1,1c-3.9,0-7.1,3.2-7.1,7.2c0,3.5,2.4,6.4,5.8,7.1c0.5,0.1,0.9,0.6,0.8,1.2C-0.6,75.1-1,75.4-1.5,75.4z
					"/>
			</g>
			<g id="XMLID_506_">
				<path id="XMLID_66_" class="st2" d="M-12.4,88.6c-0.6,0-1-0.4-1-1c0-6.9,5.1-13.1,11.6-14.2c0.5-0.1,1.1,0.3,1.1,0.8
					c0.1,0.5-0.3,1.1-0.8,1.1c-5.6,0.9-9.9,6.3-9.9,12.2C-11.4,88.2-11.9,88.6-12.4,88.6z"/>
			</g>
		</g>
	</g>
	<g id="XMLID_502_" class="st1">
		<path id="XMLID_148_" class="st3" d="M-1.5,74.9"/>
	</g>
</g>
<g id="XMLID_99_" class="st0">
	<g id="XMLID_960_" class="st1">
		<polygon id="XMLID_1015_" class="st4" points="3.4,58 18.4,73 20.5,73 3.4,55.7 -13.8,73 -11.5,73 		"/>
		<polygon id="XMLID_1016_" class="st4" points="17,73.2 3.4,59.6 -10.1,73.2 		"/>
	</g>
	<path id="XMLID_98_" class="st5" d="M-8,72v12.8c0,1.1,0.6,2.2,1.7,2.2H1v-7h5v7h7c1.1,0,2-1.1,2-2.2V72H-8z"/>
</g>
<g id="XMLID_100_" class="st0">
	<g id="XMLID_982_" class="st1">
		<path id="XMLID_983_" class="st4" d="M0,87.3h-9.1c-1.3,0-2.3-1-2.3-2.3V64.5h29.8v20.8c0,1.1-0.9,2-2,2H0z"/>
	</g>
	<g id="XMLID_979_" class="st1">
		<path id="XMLID_980_" class="st4" d="M18.5,63.6h-29.9l6.4-7.1h17.1L18.5,63.6z"/>
	</g>
	<g id="XMLID_977_" class="st1">
		<polyline id="XMLID_978_" class="st6" points="-2,64 -2,71.3 -5,68.8 -8,71.4 -8,64 		"/>
	</g>
	<g id="XMLID_988_" class="st1">
		<path id="XMLID_989_" class="st6" d="M7.8,85.4c-4.6,0-8.3-3.7-8.3-8.3c0-4.6,3.7-8.3,8.3-8.3s8.3,3.7,8.3,8.3
			C16.1,81.7,12.4,85.4,7.8,85.4z"/>
	</g>
	<g id="XMLID_984_" class="st1">
		<g id="XMLID_987_">
			<path id="XMLID_381_" class="st6" d="M17.5,87.1"/>
		</g>
		<g id="XMLID_986_">
			<path id="XMLID_374_" class="st6" d="M17.4,87.3c-0.2,0-0.5-0.1-0.7-0.3L13,83.5c-0.4-0.4-0.4-1-0.1-1.4c0.4-0.4,1-0.4,1.4-0.1
				l3.8,3.5c0.4,0.4,0.4,1,0.1,1.4C18,87.2,17.7,87.3,17.4,87.3z"/>
		</g>
		<g id="XMLID_985_">
			<path id="XMLID_377_" class="st6" d="M12.9,82.8"/>
		</g>
	</g>
</g>
<g id="XMLID_101_" class="st0">
	<path id="XMLID_954_" class="st5" d="M13,68V58H-9.2c-1.1,0-1.8,0.9-1.8,2v27c0,1.1,0.7,2,1.8,2H18c1.1,0,2.1-0.9,2.1-2V68H13z"/>
	<g id="XMLID_958_" class="st1">
		<path id="XMLID_382_" class="st6" d="M14.7,73h-21c-0.6,0-1-0.4-1-1s0.4-1,1-1h21c0.6,0,1,0.4,1,1S15.3,73,14.7,73z"/>
	</g>
	<g id="XMLID_957_" class="st1">
		<path id="XMLID_379_" class="st6" d="M14.7,79h-21c-0.6,0-1-0.4-1-1s0.4-1,1-1h21c0.6,0,1,0.4,1,1S15.3,79,14.7,79z"/>
	</g>
	<g id="XMLID_956_" class="st1">
		<path id="XMLID_378_" class="st6" d="M14.7,85h-21c-0.6,0-1-0.4-1-1s0.4-1,1-1h21c0.6,0,1,0.4,1,1S15.3,85,14.7,85z"/>
	</g>
	<g id="XMLID_955_" class="st1">
		<path id="XMLID_383_" class="st4" d="M18.8,65.6c-0.2,0-0.5-0.1-0.6-0.3L14.8,60c-0.2-0.3-0.1-0.8,0.2-1s0.8-0.1,1,0.2l3.3,5.3
			c0.2,0.3,0.1,0.8-0.2,1C19,65.6,18.9,65.6,18.8,65.6z"/>
	</g>
</g>
<g id="XMLID_1237_" class="st0">
	<path id="XMLID_1238_" class="st7" d="M10.1,58.1c-3.7,0-6.5,2.9-6.7,6.6c0-0.3,0-0.6,0-1c0,0.3,0,0.6,0,1c-0.2-3.7-3-6.6-6.7-6.6
		c-3.8,0-7.6,3.1-7.6,6.9c0,1.8,0.2,3.8,1.6,5.6l3,3.2c0,0,4.1,4,7.1,7.5c1.3,1.5,1,0.8,2.5,3.8l0,0l0,0c1.5-3,1.3-2.3,2.5-3.8
		c3-3.5,7.1-7.4,7.1-7.4l3-3.2c1.5-1.8,1.6-3.8,1.6-5.6C17.7,61.2,13.9,58.1,10.1,58.1z"/>
</g>
<g id="XMLID_1259_" class="st0">
	<g id="XMLID_1262_" class="st1">
		<path id="XMLID_78_" class="st8" d="M19.6,94.7h-33.5c-3.3,0-6-2.7-6-6V54.2c0-3.3,2.7-6,6-6H8.3c0.6,0,1,0.4,1,1s-0.4,1-1,1
			h-22.2c-2.2,0-4,1.8-4,4v34.5c0,2.2,1.8,4,4,4h33.5c2.2,0,4-1.8,4-4V67.6c0-0.6,0.4-1,1-1s1,0.4,1,1v21.1
			C25.6,92,22.9,94.7,19.6,94.7z"/>
	</g>
	<g id="XMLID_1298_" class="st1">
		<g id="XMLID_1299_">
			<path id="XMLID_44_" class="st8" d="M0,77c-0.2,0,1.4-3,1.8-3.4l21.8-25.1c0.4-0.4,1-0.4,1.4-0.1c0.4,0.4,0.4,1,0.1,1.4L3.2,75
				C3,75.2,0.2,77,0,77z"/>
			<path id="XMLID_74_" class="st8" d="M0,78h-0.3l-0.2-0.5c-0.3-0.7,1.9-4,1.9-4l21.7-25.1c0.3-0.3,0.6-0.5,1-0.5s0.8,0.1,1.1,0.4
				s0.5,0.6,0.5,1s-0.1,0.8-0.4,1.1L3.6,75.6C3.5,75.7,0.5,78,0,78z M24.3,49C24.2,49,24.2,49,24.3,49c-0.2,0-0.3-0.1-0.4,0L2.2,74
				C2,74.2,1.4,75.2,1,76c0.8-0.5,1.7-1.1,1.9-1.3l21.7-25.1c0.1-0.1,0.1-0.2,0.1-0.4c0-0.1-0.1-0.1-0.2-0.2
				C24.5,48.9,24.4,49,24.3,49z"/>
		</g>
	</g>
	<g id="XMLID_1281_" class="st1">
		<path id="XMLID_70_" class="st8" d="M16,83h-28c-0.3,0-0.5-0.2-0.5-0.5S-12.3,82-12,82h28c0.3,0,0.5,0.2,0.5,0.5S16.3,83,16,83z"
			/>
	</g>
</g>
<g id="XMLID_1339_" class="st0">
	<g id="XMLID_1346_" class="st1">
		<g id="XMLID_1351_">
			<path id="XMLID_1352_" class="st9" d="M-47,92.2l-16.9-29.5c-2.2-3.8-0.9-8.7,3-10.9L13.6,9.2c3.8-2.2,8.8-0.9,10.9,3L48.4,54
				c2.2,3.8,0.9,8.7-3,10.9l-1.6-2.8c1.1-0.6,1.9-1.7,2.3-2.9c0.3-1.2,0.2-2.5-0.5-3.7L21.7,13.8c-1.3-2.3-4.3-3.1-6.6-1.8
				l-74.5,42.6c-2.3,1.3-3.1,4.3-1.8,6.6l16.9,29.5L-47,92.2z"/>
		</g>
		<g id="XMLID_1347_">
			<path id="XMLID_1348_" class="st9" d="M62.3,134H-34c-5,0-9-4-9-9V71c0-5,4-9,9-9h96.3c5,0,9,4,9,9v54
				C71.3,129.9,67.3,134,62.3,134z M-34,65.5c-3,0-5.4,2.4-5.4,5.4v54c0,3,2.4,5.4,5.4,5.4h96.3c3,0,5.4-2.4,5.4-5.4v-54
				c0-3-2.4-5.4-5.4-5.4C62.3,65.5-34,65.5-34,65.5z"/>
		</g>
	</g>
	<g id="XMLID_1344_" class="st1">
		<rect id="XMLID_1345_" x="-41" y="80" class="st9" width="107" height="4"/>
	</g>
	<g id="XMLID_1342_" class="st1">
		<rect id="XMLID_1343_" x="-41" y="91" class="st9" width="107" height="4"/>
	</g>
	<g id="XMLID_1340_" class="st1">
		<rect id="XMLID_1341_" x="25" y="118" class="st9" width="34" height="5"/>
	</g>
</g>
<path id="XMLID_115_" class="st10" d="M2.7,52.9c-10.2,0-18.4,8.3-18.4,18.4c0,10.1,8.3,18.4,18.4,18.4c10.2,0,18.4-8.3,18.4-18.4
	S12.9,52.9,2.7,52.9z M2,58.7c0-0.8,0.4-1.5,1-1.5s1,0.7,1,1.5v18c0,0.8-0.4,1.5-1,1.5s-1-0.7-1-1.5V58.7z M2.9,85.9
	c-1,0-1.9-0.8-1.9-1.9c0-1,0.8-1.9,1.9-1.9s1.9,0.8,1.9,1.9C4.8,85,4,85.9,2.9,85.9z"/>
<path id="XMLID_130_" class="st11" d="M2.6,35.7c-19.4,0-35.2,15.7-35.2,35.2s15.8,35.3,35.3,35.3S38,90.4,38,70.9
	C37.9,51.4,22.1,35.7,2.6,35.7z M24.9,55.7L-4.4,87.2C-4.8,87.6-5.3,88-5.9,88c0,0,0,0-0.1,0c-0.6,0-1.1-0.4-1.5-0.9l-12.2-14.8
	c-0.7-0.8-0.6-2.2,0.3-2.9c0.8-0.7,2.1-0.6,2.8,0.2l10.9,13L22,53c0.8-0.8,2-0.9,2.8-0.1C25.6,53.7,25.7,54.9,24.9,55.7z"/>
<path class="st12" d="M29.3,63.1C29.3,48.7,17.5,37,3.1,37C-11.3,37-23,48.8-23,63.1c0,9.3,4.9,17.5,12.3,22.2
	c4.5,4.8,13.4,20.2,13.6,20.3c0.2,0.2,0.3,0,0.3,0s0.1,0.2,0.3,0c0.2-0.1,9-15.4,13.5-20.3C24.4,80.8,29.3,72.5,29.3,63.1z
	 M3.1,51.9c6.2,0,11.3,5,11.3,11.3c0,6.2-5.1,11.3-11.3,11.3c-6.2,0-11.3-5.1-11.3-11.3S-3.1,51.9,3.1,51.9z"/>
</svg>
