<?xml version="1.0" encoding="utf-8"?>
<!-- Generator: Adobe Illustrator 19.0.0, SVG Export Plug-In . SVG Version: 6.00 Build 0)  -->
<svg version="1.1" id="图层_1" xmlns="http://www.w3.org/2000/svg" xmlns:xlink="http://www.w3.org/1999/xlink" x="0px" y="0px"
	 viewBox="0 0 36 36" style="enable-background:new 0 0 36 36;" xml:space="preserve">
<style type="text/css">
	.st0{fill:#62727B;}
	.st1{fill:#FFFFFF;}
</style>
<g id="XMLID_1840_">
	<g id="XMLID_1714_">
		<g id="XMLID_1839_">
			<path id="XMLID_7_" class="st0" d="M34.6,33.3h-33c-0.1,0-0.2-0.1-0.2-0.2V22c0-0.1,0.1-0.2,0.2-0.2s0.2,0.1,0.2,0.2v10.9h32.6
				v-8.1c0-0.1,0.1-0.2,0.2-0.2s0.2,0.1,0.2,0.2v8.3C34.8,33.2,34.7,33.3,34.6,33.3z"/>
		</g>
		<g id="XMLID_1838_">
			<path id="XMLID_6_" class="st0" d="M34.6,26.2c-0.1,0-0.2-0.1-0.2-0.2V10.9H1.8v11.6c0,0.1-0.1,0.2-0.2,0.2s-0.2-0.1-0.2-0.2
				V10.7c0-0.1,0.1-0.2,0.2-0.2h33c0.1,0,0.2,0.1,0.2,0.2V26C34.8,26.1,34.7,26.2,34.6,26.2z"/>
		</g>
	</g>
	<g id="XMLID_1837_">
		<rect x="5.7" y="13.5" class="st0" width="24.8" height="16.8"/>
	</g>
	<g id="XMLID_1711_">
		<g id="XMLID_1836_">
			<circle class="st0" cx="17.9" cy="3.8" r="1.8"/>
		</g>
		<g id="XMLID_1818_">
			<path id="XMLID_5_" class="st0" d="M9.9,10.7c0,0-0.1,0-0.1-0.1c-0.1-0.1-0.1-0.2,0-0.3L16,3.6c0.1-0.1,0.2-0.1,0.3,0
				c0.1,0.1,0.1,0.2,0,0.3l-6.3,6.8C10,10.7,10,10.7,9.9,10.7z"/>
		</g>
		<g id="XMLID_1817_">
			<path id="XMLID_4_" class="st0" d="M26,10.7c-0.1,0-0.1,0-0.1-0.1l-6.3-6.8c-0.1-0.1-0.1-0.2,0-0.3c0.1-0.1,0.2-0.1,0.3,0
				l6.3,6.8c0.1,0.1,0.1,0.2,0,0.3C26.1,10.7,26,10.7,26,10.7z"/>
		</g>
	</g>
	<g id="XMLID_1715_">
		<g id="XMLID_1816_">
			<path id="XMLID_3_" class="st1" d="M21,17h-8c-0.3,0-0.5-0.2-0.5-0.5S12.7,16,13,16h8c0.3,0,0.5,0.2,0.5,0.5S21.3,17,21,17z"/>
		</g>
		<g id="XMLID_1812_">
			<path id="XMLID_2_" class="st1" d="M9,17H7c-0.3,0-0.5-0.2-0.5-0.5S6.7,16,7,16h2c0.3,0,0.5,0.2,0.5,0.5S9.3,17,9,17z"/>
		</g>
	</g>
</g>
</svg>
