<?xml version="1.0" encoding="utf-8"?>
<!-- Generator: Adobe Illustrator 19.0.0, SVG Export Plug-In . SVG Version: 6.00 Build 0)  -->
<svg version="1.1" id="图层_1" xmlns="http://www.w3.org/2000/svg" xmlns:xlink="http://www.w3.org/1999/xlink" x="0px" y="0px"
	 viewBox="0 0 22 22" style="enable-background:new 0 0 22 22;" xml:space="preserve">
<style type="text/css">
	.st0{display:none;}
	.st1{display:inline;}
	.st2{fill:#272728;}
	.st3{fill:none;stroke:#272728;stroke-width:2;stroke-linecap:round;stroke-linejoin:round;stroke-miterlimit:10;}
	.st4{fill:#F1BE1C;}
	.st5{display:inline;fill:#F1BE1C;}
	.st6{fill:#FFFFFF;}
	.st7{fill:#282828;}
	.st8{display:inline;fill:#FB5B46;}
	.st9{display:inline;fill:#282828;}
</style>
<g id="XMLID_137_" class="st0">
	<g id="XMLID_149_" class="st1">
		<g id="XMLID_366_">
			<path id="XMLID_6_" class="st2" d="M5,32.4H-5.4c-1.5,0-2.8-1.3-2.8-2.8V18.4c0-0.6,0.4-1,1-1s1,0.4,1,1v11.1
				c0,0.4,0.4,0.8,0.8,0.8H5c0.6,0,1,0.4,1,1S5.5,32.4,5,32.4z"/>
		</g>
		<g id="XMLID_150_">
			<path id="XMLID_5_" class="st2" d="M-7.2,7.4c-0.6,0-1-0.4-1-1V-4c0-1.5,1.3-2.8,2.8-2.8H4.9c0.6,0,1,0.4,1,1s-0.4,1-1,1H-5.4
				c-0.4,0-0.8,0.4-0.8,0.8V6.4C-6.2,7-6.6,7.4-7.2,7.4z"/>
		</g>
	</g>
	<g id="XMLID_143_" class="st1">
		<g id="XMLID_145_">
			<path id="XMLID_4_" class="st2" d="M28.2,32.4H17.8c-0.6,0-1-0.4-1-1s0.4-1,1-1h10.4c0.4,0,0.8-0.4,0.8-0.8V18.4c0-0.6,0.4-1,1-1
				s1,0.4,1,1v11.1C30.9,31.1,29.7,32.4,28.2,32.4z"/>
		</g>
		<g id="XMLID_144_">
			<path id="XMLID_3_" class="st2" d="M29.9,7.4c-0.6,0-1-0.4-1-1V-4c0-0.4-0.4-0.8-0.8-0.8H17.8c-0.6,0-1-0.4-1-1s0.4-1,1-1h10.3
				c1.5,0,2.8,1.3,2.8,2.8V6.4C30.9,7,30.5,7.4,29.9,7.4z"/>
		</g>
	</g>
	<g id="XMLID_141_" class="st1">
		<path id="XMLID_2_" class="st2" d="M32,13H-8c-0.6,0-1-0.4-1-1s0.4-1,1-1h40c0.6,0,1,0.4,1,1S32.6,13,32,13z"/>
	</g>
</g>
<g id="XMLID_385_" class="st0">
	<g id="XMLID_407_" class="st1">
		<path id="XMLID_16_" class="st2" d="M-2.3,30.1l2.6-4.3c-5.7-2.9-9.1-7.9-9.1-13.3c0-8.8,9.1-15.9,20.3-15.9
			c11.2,0,20.3,7.1,20.3,15.9s-9.1,15.9-20.3,15.9c-0.7,0-1.5,0-2.4-0.1L-2.3,30.1z M11.5-1.4C1.4-1.4-6.8,4.8-6.8,12.5
			c0,4.9,3.4,9.4,9,11.9l1,0.5l-1.5,2.5L9,26.3l0.1,0c0.9,0.1,1.7,0.1,2.4,0.1c10.1,0,18.3-6.2,18.3-13.9
			C29.9,4.8,21.7-1.4,11.5-1.4z"/>
	</g>
	<g id="XMLID_395_" class="st1">
		<path id="XMLID_13_" class="st2" d="M0,15.2c-1.6,0-2.8-1.3-2.8-2.8S-1.5,9.6,0,9.6s2.8,1.3,2.8,2.8S1.6,15.2,0,15.2z M0,11.6
			c-0.4,0-0.8,0.4-0.8,0.8c0,0.4,0.4,0.8,0.8,0.8s0.8-0.4,0.8-0.8C0.8,12,0.5,11.6,0,11.6z"/>
	</g>
	<g id="XMLID_394_" class="st1">
		<path id="XMLID_10_" class="st2" d="M12,15.2c-1.6,0-2.8-1.3-2.8-2.8s1.3-2.8,2.8-2.8c1.6,0,2.8,1.3,2.8,2.8S13.6,15.2,12,15.2z
			 M12,11.6c-0.4,0-0.8,0.4-0.8,0.8c0,0.4,0.4,0.8,0.8,0.8c0.4,0,0.8-0.4,0.8-0.8C12.8,12,12.5,11.6,12,11.6z"/>
	</g>
	<g id="XMLID_386_" class="st1">
		<path id="XMLID_7_" class="st2" d="M24,15.2c-1.6,0-2.8-1.3-2.8-2.8s1.3-2.8,2.8-2.8s2.8,1.3,2.8,2.8S25.6,15.2,24,15.2z M24,11.6
			c-0.4,0-0.8,0.4-0.8,0.8c0,0.4,0.4,0.8,0.8,0.8s0.8-0.4,0.8-0.8C24.8,12,24.5,11.6,24,11.6z"/>
	</g>
</g>
<g id="XMLID_455_" class="st0">
	<g id="XMLID_458_" class="st1">
		<path id="XMLID_49_" class="st2" d="M29.5,14.2c-0.3,0-0.5-0.1-0.7-0.3L12.4-2.7L-4.1,13.9c-0.4,0.4-1,0.4-1.4,0
			c-0.4-0.4-0.4-1,0-1.4L11.7-4.8C11.9-5,12.2-5,12.4-5c0,0,0,0,0,0c0.3,0,0.5,0,0.7,0.2l17.1,17.2c0.4,0.4,0.4,1,0,1.4
			C30,14.1,29.7,14.2,29.5,14.2z"/>
	</g>
	<g id="XMLID_457_" class="st1">
		<path id="XMLID_48_" class="st2" d="M22,27.8H2.7c-1.7,0-3-1.3-3-3V12.2c0-0.6,0.4-1,1-1s1,0.4,1,1v12.7c0,0.6,0.4,1,1,1H22
			c0.6,0,1-0.4,1-1V12.2c0-0.6,0.4-1,1-1s1,0.4,1,1v12.7C25,26.5,23.7,27.8,22,27.8z"/>
	</g>
	<g id="XMLID_456_" class="st1">
		<path id="XMLID_45_" class="st2" d="M15,27.1H9.6c-0.4,0-0.8-0.3-0.8-0.8v-6.5c0-0.4,0.3-0.8,0.8-0.8H15c0.4,0,0.8,0.3,0.8,0.8
			v6.5C15.8,26.7,15.4,27.1,15,27.1z M10.4,25.6h3.9v-5h-3.9V25.6z"/>
	</g>
</g>
<g id="XMLID_554_" class="st0">
	<g id="XMLID_467_" class="st1">
		<g id="XMLID_468_">
			<path id="XMLID_57_" class="st2" d="M15.8,27.4c-5.2,0-9.3-4.2-9.3-9.3s4.2-9.3,9.3-9.3s9.3,4.2,9.3,9.3S21,27.4,15.8,27.4z
				 M15.8,10.7c-4,0-7.3,3.3-7.3,7.3s3.3,7.3,7.3,7.3c4,0,7.3-3.3,7.3-7.3S19.9,10.7,15.8,10.7z"/>
		</g>
	</g>
	<g id="XMLID_465_" class="st1">
		<g id="XMLID_466_">
			<path id="XMLID_52_" class="st2" d="M8,29.3h-9.1c-1.8,0-3.3-1.5-3.3-3.3V4.5c0-0.6,0.4-1,1-1h29.8c0.6,0,1,0.4,1,1v6.7
				c0,0.6-0.4,1-1,1s-1-0.4-1-1V5.5H-2.4V26c0,0.7,0.6,1.3,1.3,1.3H8c0.6,0,1,0.4,1,1S8.5,29.3,8,29.3z"/>
		</g>
	</g>
	<g id="XMLID_462_" class="st1">
		<g id="XMLID_463_">
			<path id="XMLID_53_" class="st2" d="M26.5,5.6H-3.4c-0.4,0-0.8-0.2-0.9-0.6c-0.2-0.4-0.1-0.8,0.2-1.1l6.4-7.1
				C2.4-3.4,2.7-3.5,3-3.5h17.1c0.3,0,0.6,0.1,0.7,0.3l6.4,7.1c0.3,0.3,0.3,0.7,0.2,1.1C27.2,5.3,26.9,5.6,26.5,5.6z M-1.1,3.6h25.4
				l-4.6-5.1H3.4L-1.1,3.6z"/>
		</g>
	</g>
	<g id="XMLID_459_" class="st1">
		<g id="XMLID_460_">
			<path id="XMLID_51_" class="st2" d="M0,13.4c-0.1,0-0.3,0-0.4-0.1C-0.8,13.1-1,12.8-1,12.4V5c0-0.6,0.4-1,1-1s1,0.4,1,1v5.2
				L2.4,9c0.4-0.3,0.9-0.3,1.3,0L5,10.2V5c0-0.6,0.4-1,1-1s1,0.4,1,1v7.3c0,0.4-0.2,0.7-0.6,0.9c-0.4,0.2-0.8,0.1-1.1-0.1l-2.3-2
				l-2.4,2C0.5,13.3,0.2,13.4,0,13.4z"/>
		</g>
	</g>
	<g id="XMLID_521_" class="st1">
		<g id="XMLID_524_">
			<path id="XMLID_185_" class="st3" d="M25.7,29"/>
		</g>
		<g id="XMLID_523_">
			<path id="XMLID_50_" class="st2" d="M25.7,29.2c-0.2,0-0.5-0.1-0.7-0.3l-3.8-3.5c-0.4-0.4-0.4-1-0.1-1.4c0.4-0.4,1-0.4,1.4-0.1
				l3.8,3.5c0.4,0.4,0.4,1,0.1,1.4C26.2,29.1,26,29.2,25.7,29.2z"/>
		</g>
		<g id="XMLID_522_">
			<path id="XMLID_181_" class="st3" d="M21.1,24.7"/>
		</g>
	</g>
</g>
<g id="XMLID_555_" class="st0">
	<g id="XMLID_518_" class="st1">
		<path id="XMLID_65_" class="st2" d="M23,13H2c-0.6,0-1-0.4-1-1s0.4-1,1-1h21c0.6,0,1,0.4,1,1S23.6,13,23,13z"/>
	</g>
	<g id="XMLID_517_" class="st1">
		<path id="XMLID_64_" class="st2" d="M23,19H2c-0.6,0-1-0.4-1-1s0.4-1,1-1h21c0.6,0,1,0.4,1,1S23.6,19,23,19z"/>
	</g>
	<g id="XMLID_516_" class="st1">
		<path id="XMLID_63_" class="st2" d="M23,25H2c-0.6,0-1-0.4-1-1s0.4-1,1-1h21c0.6,0,1,0.4,1,1S23.6,25,23,25z"/>
	</g>
	<g id="XMLID_515_" class="st1">
		<path id="XMLID_62_" class="st2" d="M26.8,5.6c-0.2,0-0.5-0.1-0.6-0.3L22.8,0c-0.2-0.3-0.1-0.8,0.2-1c0.4-0.2,0.8-0.1,1,0.2
			l3.3,5.3c0.2,0.3,0.1,0.8-0.2,1C27,5.6,26.9,5.6,26.8,5.6z"/>
	</g>
	<g id="XMLID_500_" class="st1">
		<path id="XMLID_56_" class="st2" d="M25.9,30H-1.2C-2.8,30-4,28.7-4,27V0c0-1.7,1.2-3,2.8-3H21c0.6,0,1,0.4,1,1v9h6
			c0.6,0,1,0.4,1,1v19C29,28.7,27.6,30,25.9,30z M-1.2-1C-1.9-1-2-0.3-2,0v27c0,0.3,0.1,1,0.8,1h27.2c0.6,0,1.1-0.4,1.1-1V9h-6
			c-0.6,0-1-0.4-1-1v-9H-1.2z"/>
	</g>
</g>
<g id="XMLID_501_" class="st0">
	<g id="XMLID_503_" class="st1">
		<g id="XMLID_513_">
			<path id="XMLID_71_" class="st2" d="M15.4,15.6c-5,0-9.1-4.1-9.1-9.2s4.1-9.2,9.1-9.2c5,0,9.1,4.1,9.1,9.2S20.4,15.6,15.4,15.6z
				 M15.4-0.8c-3.9,0-7.1,3.2-7.1,7.2s3.2,7.2,7.1,7.2c3.9,0,7.1-3.2,7.1-7.2S19.3-0.8,15.4-0.8z"/>
		</g>
		<g id="XMLID_512_">
			<path id="XMLID_69_" class="st2" d="M3,28.6c-0.6,0-1-0.4-1-1c0-7.7,6.2-14.1,13.9-14.1c0.6,0,1,0.4,1,1s-0.4,1-1,1
				C9.4,15.6,4,21,4,27.6C4,28.2,3.6,28.6,3,28.6z"/>
		</g>
		<g id="XMLID_511_">
			<path id="XMLID_68_" class="st2" d="M28.8,28.6c-0.6,0-1-0.4-1-1c0-4.2-2.3-8.1-5.9-10.2c-0.5-0.3-0.6-0.9-0.4-1.4
				c0.3-0.5,0.9-0.6,1.4-0.4c4.2,2.5,6.9,7.1,6.9,12C29.8,28.2,29.3,28.6,28.8,28.6z"/>
		</g>
		<g id="XMLID_505_">
			<g id="XMLID_507_">
				<path id="XMLID_67_" class="st2" d="M6.5,15.4c-0.1,0-0.1,0-0.2,0c-4.3-0.8-7.4-4.6-7.4-9C-1.1,1.3,3-2.8,8-2.8c0.6,0,1,0.4,1,1
					s-0.4,1-1,1c-3.9,0-7.1,3.2-7.1,7.2c0,3.5,2.4,6.4,5.8,7.1c0.5,0.1,0.9,0.6,0.8,1.2C7.4,15.1,7,15.4,6.5,15.4z"/>
			</g>
			<g id="XMLID_506_">
				<path id="XMLID_66_" class="st2" d="M-4.4,28.6c-0.6,0-1-0.4-1-1c0-6.9,5.1-13.1,11.6-14.2c0.5-0.1,1.1,0.3,1.1,0.8
					c0.1,0.5-0.3,1.1-0.8,1.1c-5.6,0.9-9.9,6.3-9.9,12.2C-3.4,28.2-3.9,28.6-4.4,28.6z"/>
			</g>
		</g>
	</g>
	<g id="XMLID_502_" class="st1">
		<path id="XMLID_148_" class="st3" d="M6.5,14.9"/>
	</g>
</g>
<g id="XMLID_99_" class="st0">
	<g id="XMLID_960_" class="st1">
		<polygon id="XMLID_1015_" class="st4" points="11.4,-2 26.4,13 28.5,13 11.4,-4.3 -5.8,13 -3.5,13 		"/>
		<polygon id="XMLID_1016_" class="st4" points="25,13.2 11.4,-0.4 -2.1,13.2 		"/>
	</g>
	<path id="XMLID_98_" class="st5" d="M0,12v12.8C0,25.9,0.6,27,1.7,27H9v-7h5v7h7c1.1,0,2-1.1,2-2.2V12H0z"/>
</g>
<g id="XMLID_100_" class="st0">
	<g id="XMLID_982_" class="st1">
		<path id="XMLID_983_" class="st4" d="M8,27.3h-9.1c-1.3,0-2.3-1-2.3-2.3V4.5h29.8v20.8c0,1.1-0.9,2-2,2H8z"/>
	</g>
	<g id="XMLID_979_" class="st1">
		<path id="XMLID_980_" class="st4" d="M26.5,3.6H-3.4L3-3.5h17.1L26.5,3.6z"/>
	</g>
	<g id="XMLID_977_" class="st1">
		<polyline id="XMLID_978_" class="st6" points="6,4 6,11.3 3,8.8 0,11.4 0,4 		"/>
	</g>
	<g id="XMLID_988_" class="st1">
		<path id="XMLID_989_" class="st6" d="M15.8,25.4c-4.6,0-8.3-3.7-8.3-8.3s3.7-8.3,8.3-8.3s8.3,3.7,8.3,8.3S20.4,25.4,15.8,25.4z"/>
	</g>
	<g id="XMLID_984_" class="st1">
		<g id="XMLID_987_">
			<path id="XMLID_381_" class="st6" d="M25.5,27.1"/>
		</g>
		<g id="XMLID_986_">
			<path id="XMLID_374_" class="st6" d="M25.4,27.3c-0.2,0-0.5-0.1-0.7-0.3L21,23.5c-0.4-0.4-0.4-1-0.1-1.4c0.4-0.4,1-0.4,1.4-0.1
				l3.8,3.5c0.4,0.4,0.4,1,0.1,1.4C26,27.2,25.7,27.3,25.4,27.3z"/>
		</g>
		<g id="XMLID_985_">
			<path id="XMLID_377_" class="st6" d="M20.9,22.8"/>
		</g>
	</g>
</g>
<g id="XMLID_101_" class="st0">
	<path id="XMLID_954_" class="st5" d="M21,8V-2H-1.2C-2.3-2-3-1.1-3,0v27c0,1.1,0.7,2,1.8,2h27.2c1.1,0,2.1-0.9,2.1-2V8H21z"/>
	<g id="XMLID_958_" class="st1">
		<path id="XMLID_382_" class="st6" d="M22.7,13h-21c-0.6,0-1-0.4-1-1s0.4-1,1-1h21c0.6,0,1,0.4,1,1S23.3,13,22.7,13z"/>
	</g>
	<g id="XMLID_957_" class="st1">
		<path id="XMLID_379_" class="st6" d="M22.7,19h-21c-0.6,0-1-0.4-1-1s0.4-1,1-1h21c0.6,0,1,0.4,1,1S23.3,19,22.7,19z"/>
	</g>
	<g id="XMLID_956_" class="st1">
		<path id="XMLID_378_" class="st6" d="M22.7,25h-21c-0.6,0-1-0.4-1-1s0.4-1,1-1h21c0.6,0,1,0.4,1,1S23.3,25,22.7,25z"/>
	</g>
	<g id="XMLID_955_" class="st1">
		<path id="XMLID_383_" class="st4" d="M26.8,5.6c-0.2,0-0.5-0.1-0.6-0.3L22.8,0c-0.2-0.3-0.1-0.8,0.2-1c0.3-0.2,0.8-0.1,1,0.2
			l3.3,5.3c0.2,0.3,0.1,0.8-0.2,1C27,5.6,26.9,5.6,26.8,5.6z"/>
	</g>
</g>
<g id="XMLID_482_" class="st0">
	<g id="XMLID_487_" class="st1">
		<path id="XMLID_488_" class="st7" d="M11.1,27.8l-0.9-0.5l0.8-1.5c0.9-1.5,0.9-1.7,2.2-3.1c3.5-4,8.2-8.6,8.3-8.7l3.5-3.7
			c1.5-1.9,1.8-4.1,1.8-6.2c0-4.3-4.4-7.5-8.4-7.5c-4,0-7.1,3.1-7.2,7.2l-0.5,0l-0.5,0C10-0.3,6.9-3.4,3-3.4c-4,0-8.4,3.2-8.4,7.5
			c0,2.1,0.2,4.2,1.8,6.2l3.5,3.7l0,0c0,0,0.8,0.8,2.1,2.1l-0.7,0.7c-1.2-1.3-2.1-2.1-2.1-2.1L-4.4,11c-1.8-2.2-2-4.6-2-6.9
			c0-4.9,5-8.5,9.4-8.5c3.6,0,6.6,2.2,7.8,5.5c1.1-3.3,4.1-5.5,7.8-5.5c4.4,0,9.4,3.7,9.4,8.5c0,2.3-0.2,4.6-2,6.9l-3.5,3.8
			c-0.1,0.1-4.8,4.7-8.3,8.6c-1.2,1.3-1.2,1.4-2.1,2.9L11.1,27.8z"/>
	</g>
	<g id="XMLID_483_" class="st1">
		<g id="XMLID_484_">
			<path id="XMLID_485_" class="st7" d="M2.1,20.2h4.6v-4.6h1v4.6h4.6V21H7.6v5.1h-1V21H2.1V20.2z"/>
		</g>
	</g>
</g>
<g id="XMLID_489_" class="st0">
	<path id="XMLID_490_" class="st8" d="M18.5-3.9c-4.3,0-7.6,3.4-7.7,7.6c0-0.4,0-0.7,0-1.1c0,0.4,0,0.7,0,1.1
		C10.5-0.5,7.3-3.9,3-3.9c-4.4,0-8.9,3.6-8.9,8c0,2.1,0.2,4.4,1.9,6.5l3.5,3.7c0,0,4.7,4.5,8.3,8.5c1.5,1.7,1.2,1.2,3,4.2h0h0
		c1.7-3,1.5-2.5,3-4.2c3.5-4,8.3-8.5,8.3-8.5l3.5-3.7c1.7-2.1,1.9-4.4,1.9-6.5C27.3-0.3,22.9-3.9,18.5-3.9z"/>
</g>
<g id="XMLID_425_" class="st0">
	<path id="XMLID_70_" class="st9" d="M19.1,27.5c-0.2,0-0.4-0.1-0.5-0.2L2.4,11.1c-0.1-0.1-0.2-0.3-0.2-0.5c0-0.2,0.1-0.4,0.2-0.5
		L18.6-6c0.3-0.3,0.8-0.3,1.1,0c0.3,0.3,0.3,0.8,0,1.1L4,10.5l15.7,15.7c0.3,0.3,0.3,0.8,0,1.1C19.5,27.4,19.3,27.5,19.1,27.5z"/>
</g>
<g id="XMLID_44_" class="st0">
	<path id="XMLID_74_" class="st8" d="M18.5-3.9c-4.3,0-7.6,3.4-7.7,7.6c0-0.4,0-0.7,0-1.1c0,0.4,0,0.7,0,1.1C10.5-0.5,7.3-3.9,3-3.9
		c-4.4,0-8.9,3.6-8.9,8c0,2.1,0.2,4.4,1.9,6.5l3.5,3.7c0,0,4.7,4.5,8.3,8.5c1.5,1.7,1.2,1.2,3,4.2h0h0c1.7-3,1.5-2.5,3-4.2
		c3.5-4,8.3-8.5,8.3-8.5l3.5-3.7c1.7-2.1,1.9-4.4,1.9-6.5C27.3-0.3,22.9-3.9,18.5-3.9z"/>
</g>
<g id="XMLID_433_" class="st0">
	<g id="XMLID_435_" class="st1">
		<path id="XMLID_77_" class="st7" d="M22.5,24c-0.1,0-0.3,0-0.4-0.1L-1.2,0.5c-0.2-0.2-0.2-0.5,0-0.7s0.5-0.2,0.7,0l23.3,23.3
			c0.2,0.2,0.2,0.5,0,0.7C22.8,24,22.7,24,22.5,24z"/>
	</g>
	<g id="XMLID_434_" class="st1">
		<path id="XMLID_76_" class="st7" d="M-0.8,23.3c-0.1,0-0.3,0-0.4-0.1c-0.2-0.2-0.2-0.5,0-0.7L22.2-0.9c0.2-0.2,0.5-0.2,0.7,0
			s0.2,0.5,0,0.7L-0.5,23.2C-0.6,23.3-0.7,23.3-0.8,23.3z"/>
	</g>
</g>
<g id="XMLID_450_" class="st0">
	<g id="XMLID_452_" class="st1">
		<path id="XMLID_94_" class="st7" d="M10.8,19.9c-7.8,0-14.9-6.3-14.9-8.7c0-2.1,6.7-8.5,14.9-8.5c8.2,0,14.9,6.9,14.9,8.5
			C25.7,13.3,18.8,19.9,10.8,19.9z M10.8,4.2c-7.5,0-13.3,5.9-13.5,7.1c0,1.2,5.7,7.2,13.5,7.2c7.3,0,13.2-5.9,13.5-7.2
			C23.8,10.1,18,4.2,10.8,4.2z"/>
	</g>
	<g id="XMLID_451_" class="st1">
		<path id="XMLID_91_" class="st7" d="M11,16.7c-3,0-5.5-2.5-5.5-5.5c0-3,2.5-5.5,5.5-5.5s5.5,2.5,5.5,5.5
			C16.5,14.2,14,16.7,11,16.7z M11,7.1c-2.2,0-4.1,1.8-4.1,4.1s1.8,4.1,4.1,4.1c2.2,0,4.1-1.8,4.1-4.1S13.2,7.1,11,7.1z"/>
	</g>
</g>
<g id="XMLID_454_" class="st0">
	<g id="XMLID_428_" class="st1">
		<g id="XMLID_429_">
			<path class="st7" d="M18.4,19.7C13.3,25,4.8,25.2-0.5,20.1S-6,6.5-0.8,1.1s13.6-5.5,18.9-0.4S23.5,14.4,18.4,19.7z M0.6,2.5
				C-3.8,7-3.6,14.3,0.9,18.6s11.7,4.2,16.1-0.3s4.2-11.7-0.3-16.1S5-2,0.6,2.5z"/>
		</g>
	</g>
	<g id="XMLID_423_" class="st1">
		<path id="XMLID_97_" class="st7" d="M25.9,25.9c-0.2,0-0.4-0.1-0.6-0.2l-7.4-6.1c-0.4-0.4-0.5-1-0.1-1.4c0.3-0.4,1-0.5,1.4-0.1
			l7.4,6.1c0.4,0.4,0.5,1,0.1,1.4C26.5,25.7,26.2,25.9,25.9,25.9z"/>
	</g>
</g>
<g id="XMLID_421_" class="st0">
	<path id="XMLID_115_" class="st9" d="M4.8,24.7c-0.2,0-0.3-0.1-0.4-0.2c-0.2-0.2-0.2-0.6,0-0.9l13.1-13.1L4.4-2.3
		C4.1-2.6,4.1-3,4.4-3.2c0.2-0.2,0.6-0.2,0.9,0l13.5,13.3c0.1,0.1,0.2,0.3,0.2,0.4c0,0.2-0.1,0.3-0.2,0.4L5.2,24.5
		C5.1,24.7,5,24.7,4.8,24.7z"/>
</g>
<g id="XMLID_418_" class="st0">
	<path id="XMLID_129_" class="st9" d="M11.3,17c-0.1,0-0.3-0.3-0.4-0.4L-0.3,5.3c-0.2-0.2-0.2-0.6,0-0.8s0.5-0.2,0.7,0l10.8,10.8
		L22,4.5c0.2-0.2,0.5-0.2,0.7,0c0.2,0.2,0.2,0.5,0,0.7l-11,11.4C11.5,16.7,11.4,17,11.3,17C11.3,17,11.3,17,11.3,17z"/>
</g>
<g id="XMLID_571_">
	<g id="XMLID_564_">
		<path id="XMLID_152_" class="st7" d="M21,12H2c-0.3,0-0.5-0.2-0.5-0.5S1.7,11,2,11h19c0.3,0,0.5,0.2,0.5,0.5S21.3,12,21,12z"/>
	</g>
	<g id="XMLID_572_">
		<path id="XMLID_151_" class="st7" d="M11.5,21.5c-0.3,0-0.5-0.2-0.5-0.5V2c0-0.3,0.2-0.5,0.5-0.5S12,1.7,12,2v19
			C12,21.3,11.8,21.5,11.5,21.5z"/>
	</g>
</g>
</svg>
