<?xml version="1.0" encoding="utf-8"?>
<!-- Generator: Adobe Illustrator 19.0.0, SVG Export Plug-In . SVG Version: 6.00 Build 0)  -->
<svg version="1.1" id="图层_1" xmlns="http://www.w3.org/2000/svg" xmlns:xlink="http://www.w3.org/1999/xlink" x="0px" y="0px"
	 viewBox="0 0 18 18" style="enable-background:new 0 0 18 18;" xml:space="preserve">
<style type="text/css">
	.st0{display:none;}
	.st1{display:inline;}
	.st2{fill:#272728;}
	.st3{fill:none;stroke:#272728;stroke-width:2;stroke-linecap:round;stroke-linejoin:round;stroke-miterlimit:10;}
	.st4{fill:#F1BE1C;}
	.st5{display:inline;fill:#F1BE1C;}
	.st6{fill:#FFFFFF;}
	.st7{fill:#282828;}
	.st8{display:inline;fill:#FB5B46;}
	.st9{display:inline;fill:#282828;}
</style>
<g id="XMLID_137_" class="st0">
	<g id="XMLID_149_" class="st1">
		<g id="XMLID_366_">
			<path id="XMLID_6_" class="st2" d="M3,30.4H-7.4c-1.5,0-2.8-1.3-2.8-2.8V16.4c0-0.6,0.4-1,1-1s1,0.4,1,1v11.1
				c0,0.4,0.4,0.8,0.8,0.8H3c0.6,0,1,0.4,1,1S3.5,30.4,3,30.4z"/>
		</g>
		<g id="XMLID_150_">
			<path id="XMLID_5_" class="st2" d="M-9.2,5.4c-0.6,0-1-0.4-1-1V-6c0-1.5,1.3-2.8,2.8-2.8H2.9c0.6,0,1,0.4,1,1s-0.4,1-1,1H-7.4
				c-0.4,0-0.8,0.4-0.8,0.8V4.4C-8.2,5-8.6,5.4-9.2,5.4z"/>
		</g>
	</g>
	<g id="XMLID_143_" class="st1">
		<g id="XMLID_145_">
			<path id="XMLID_4_" class="st2" d="M26.2,30.4H15.8c-0.6,0-1-0.4-1-1s0.4-1,1-1h10.4c0.4,0,0.8-0.4,0.8-0.8V16.4c0-0.6,0.4-1,1-1
				s1,0.4,1,1v11.1C28.9,29.1,27.7,30.4,26.2,30.4z"/>
		</g>
		<g id="XMLID_144_">
			<path id="XMLID_3_" class="st2" d="M27.9,5.4c-0.6,0-1-0.4-1-1V-6c0-0.4-0.4-0.8-0.8-0.8H15.8c-0.6,0-1-0.4-1-1s0.4-1,1-1h10.3
				c1.5,0,2.8,1.3,2.8,2.8V4.4C28.9,5,28.5,5.4,27.9,5.4z"/>
		</g>
	</g>
	<g id="XMLID_141_" class="st1">
		<path id="XMLID_2_" class="st2" d="M30,11h-40c-0.6,0-1-0.4-1-1s0.4-1,1-1h40c0.6,0,1,0.4,1,1S30.6,11,30,11z"/>
	</g>
</g>
<g id="XMLID_385_" class="st0">
	<g id="XMLID_407_" class="st1">
		<path id="XMLID_16_" class="st2" d="M-4.3,28.1l2.6-4.3c-5.7-2.9-9.1-7.9-9.1-13.3c0-8.8,9.1-15.9,20.3-15.9
			c11.2,0,20.3,7.1,20.3,15.9S20.8,26.4,9.5,26.4c-0.7,0-1.5,0-2.4-0.1L-4.3,28.1z M9.5-3.4C-0.6-3.4-8.8,2.8-8.8,10.5
			c0,4.9,3.4,9.4,9,11.9l1,0.5l-1.5,2.5L7,24.3l0.1,0c0.9,0.1,1.7,0.1,2.4,0.1c10.1,0,18.3-6.2,18.3-13.9C27.9,2.8,19.7-3.4,9.5-3.4
			z"/>
	</g>
	<g id="XMLID_395_" class="st1">
		<path id="XMLID_13_" class="st2" d="M-2,13.2c-1.6,0-2.8-1.3-2.8-2.8S-3.5,7.6-2,7.6s2.8,1.3,2.8,2.8S-0.4,13.2-2,13.2z M-2,9.6
			c-0.4,0-0.8,0.4-0.8,0.8c0,0.4,0.4,0.8,0.8,0.8s0.8-0.4,0.8-0.8C-1.2,10-1.5,9.6-2,9.6z"/>
	</g>
	<g id="XMLID_394_" class="st1">
		<path id="XMLID_10_" class="st2" d="M10,13.2c-1.6,0-2.8-1.3-2.8-2.8S8.5,7.6,10,7.6c1.6,0,2.8,1.3,2.8,2.8S11.6,13.2,10,13.2z
			 M10,9.6c-0.4,0-0.8,0.4-0.8,0.8c0,0.4,0.4,0.8,0.8,0.8c0.4,0,0.8-0.4,0.8-0.8C10.8,10,10.5,9.6,10,9.6z"/>
	</g>
	<g id="XMLID_386_" class="st1">
		<path id="XMLID_7_" class="st2" d="M22,13.2c-1.6,0-2.8-1.3-2.8-2.8s1.3-2.8,2.8-2.8s2.8,1.3,2.8,2.8S23.6,13.2,22,13.2z M22,9.6
			c-0.4,0-0.8,0.4-0.8,0.8c0,0.4,0.4,0.8,0.8,0.8s0.8-0.4,0.8-0.8C22.8,10,22.5,9.6,22,9.6z"/>
	</g>
</g>
<g id="XMLID_455_" class="st0">
	<g id="XMLID_458_" class="st1">
		<path id="XMLID_49_" class="st2" d="M27.5,12.2c-0.3,0-0.5-0.1-0.7-0.3L10.4-4.7L-6.1,11.9c-0.4,0.4-1,0.4-1.4,0
			c-0.4-0.4-0.4-1,0-1.4L9.7-6.8C9.9-7,10.2-7,10.4-7c0,0,0,0,0,0c0.3,0,0.5,0,0.7,0.2l17.1,17.2c0.4,0.4,0.4,1,0,1.4
			C28,12.1,27.7,12.2,27.5,12.2z"/>
	</g>
	<g id="XMLID_457_" class="st1">
		<path id="XMLID_48_" class="st2" d="M20,25.8H0.7c-1.7,0-3-1.3-3-3V10.2c0-0.6,0.4-1,1-1s1,0.4,1,1v12.7c0,0.6,0.4,1,1,1H20
			c0.6,0,1-0.4,1-1V10.2c0-0.6,0.4-1,1-1s1,0.4,1,1v12.7C23,24.5,21.7,25.8,20,25.8z"/>
	</g>
	<g id="XMLID_456_" class="st1">
		<path id="XMLID_45_" class="st2" d="M13,25.1H7.6c-0.4,0-0.8-0.3-0.8-0.8v-6.5c0-0.4,0.3-0.8,0.8-0.8H13c0.4,0,0.8,0.3,0.8,0.8
			v6.5C13.8,24.7,13.4,25.1,13,25.1z M8.4,23.6h3.9v-5H8.4V23.6z"/>
	</g>
</g>
<g id="XMLID_554_" class="st0">
	<g id="XMLID_467_" class="st1">
		<g id="XMLID_468_">
			<path id="XMLID_57_" class="st2" d="M13.8,25.4c-5.2,0-9.3-4.2-9.3-9.3s4.2-9.3,9.3-9.3s9.3,4.2,9.3,9.3S19,25.4,13.8,25.4z
				 M13.8,8.7c-4,0-7.3,3.3-7.3,7.3s3.3,7.3,7.3,7.3c4,0,7.3-3.3,7.3-7.3S17.9,8.7,13.8,8.7z"/>
		</g>
	</g>
	<g id="XMLID_465_" class="st1">
		<g id="XMLID_466_">
			<path id="XMLID_52_" class="st2" d="M6,27.3h-9.1c-1.8,0-3.3-1.5-3.3-3.3V2.5c0-0.6,0.4-1,1-1h29.8c0.6,0,1,0.4,1,1v6.7
				c0,0.6-0.4,1-1,1s-1-0.4-1-1V3.5H-4.4V24c0,0.7,0.6,1.3,1.3,1.3H6c0.6,0,1,0.4,1,1S6.5,27.3,6,27.3z"/>
		</g>
	</g>
	<g id="XMLID_462_" class="st1">
		<g id="XMLID_463_">
			<path id="XMLID_53_" class="st2" d="M24.5,3.6H-5.4c-0.4,0-0.8-0.2-0.9-0.6c-0.2-0.4-0.1-0.8,0.2-1.1l6.4-7.1
				C0.4-5.4,0.7-5.5,1-5.5h17.1c0.3,0,0.6,0.1,0.7,0.3l6.4,7.1c0.3,0.3,0.3,0.7,0.2,1.1C25.2,3.3,24.9,3.6,24.5,3.6z M-3.1,1.6h25.4
				l-4.6-5.1H1.4L-3.1,1.6z"/>
		</g>
	</g>
	<g id="XMLID_459_" class="st1">
		<g id="XMLID_460_">
			<path id="XMLID_51_" class="st2" d="M-2,11.4c-0.1,0-0.3,0-0.4-0.1C-2.8,11.1-3,10.8-3,10.4V3c0-0.6,0.4-1,1-1s1,0.4,1,1v5.2
				L0.4,7c0.4-0.3,0.9-0.3,1.3,0L3,8.2V3c0-0.6,0.4-1,1-1s1,0.4,1,1v7.3c0,0.4-0.2,0.7-0.6,0.9c-0.4,0.2-0.8,0.1-1.1-0.1L1,9.1
				l-2.4,2C-1.5,11.3-1.8,11.4-2,11.4z"/>
		</g>
	</g>
	<g id="XMLID_521_" class="st1">
		<g id="XMLID_524_">
			<path id="XMLID_185_" class="st3" d="M23.7,27"/>
		</g>
		<g id="XMLID_523_">
			<path id="XMLID_50_" class="st2" d="M23.7,27.2c-0.2,0-0.5-0.1-0.7-0.3l-3.8-3.5c-0.4-0.4-0.4-1-0.1-1.4c0.4-0.4,1-0.4,1.4-0.1
				l3.8,3.5c0.4,0.4,0.4,1,0.1,1.4C24.2,27.1,24,27.2,23.7,27.2z"/>
		</g>
		<g id="XMLID_522_">
			<path id="XMLID_181_" class="st3" d="M19.1,22.7"/>
		</g>
	</g>
</g>
<g id="XMLID_555_" class="st0">
	<g id="XMLID_518_" class="st1">
		<path id="XMLID_65_" class="st2" d="M21,11H0c-0.6,0-1-0.4-1-1s0.4-1,1-1h21c0.6,0,1,0.4,1,1S21.6,11,21,11z"/>
	</g>
	<g id="XMLID_517_" class="st1">
		<path id="XMLID_64_" class="st2" d="M21,17H0c-0.6,0-1-0.4-1-1s0.4-1,1-1h21c0.6,0,1,0.4,1,1S21.6,17,21,17z"/>
	</g>
	<g id="XMLID_516_" class="st1">
		<path id="XMLID_63_" class="st2" d="M21,23H0c-0.6,0-1-0.4-1-1s0.4-1,1-1h21c0.6,0,1,0.4,1,1S21.6,23,21,23z"/>
	</g>
	<g id="XMLID_515_" class="st1">
		<path id="XMLID_62_" class="st2" d="M24.8,3.6c-0.2,0-0.5-0.1-0.6-0.3L20.8-2c-0.2-0.3-0.1-0.8,0.2-1c0.4-0.2,0.8-0.1,1,0.2
			l3.3,5.3c0.2,0.3,0.1,0.8-0.2,1C25,3.6,24.9,3.6,24.8,3.6z"/>
	</g>
	<g id="XMLID_500_" class="st1">
		<path id="XMLID_56_" class="st2" d="M23.9,28H-3.2C-4.8,28-6,26.7-6,25V-2c0-1.7,1.2-3,2.8-3H19c0.6,0,1,0.4,1,1v9h6
			c0.6,0,1,0.4,1,1v19C27,26.7,25.6,28,23.9,28z M-3.2-3C-3.9-3-4-2.3-4-2v27c0,0.3,0.1,1,0.8,1h27.2c0.6,0,1.1-0.4,1.1-1V7h-6
			c-0.6,0-1-0.4-1-1v-9H-3.2z"/>
	</g>
</g>
<g id="XMLID_501_" class="st0">
	<g id="XMLID_503_" class="st1">
		<g id="XMLID_513_">
			<path id="XMLID_71_" class="st2" d="M13.4,13.6c-5,0-9.1-4.1-9.1-9.2s4.1-9.2,9.1-9.2c5,0,9.1,4.1,9.1,9.2S18.4,13.6,13.4,13.6z
				 M13.4-2.8c-3.9,0-7.1,3.2-7.1,7.2s3.2,7.2,7.1,7.2c3.9,0,7.1-3.2,7.1-7.2S17.3-2.8,13.4-2.8z"/>
		</g>
		<g id="XMLID_512_">
			<path id="XMLID_69_" class="st2" d="M1,26.6c-0.6,0-1-0.4-1-1c0-7.7,6.2-14.1,13.9-14.1c0.6,0,1,0.4,1,1s-0.4,1-1,1
				C7.4,13.6,2,19,2,25.6C2,26.2,1.6,26.6,1,26.6z"/>
		</g>
		<g id="XMLID_511_">
			<path id="XMLID_68_" class="st2" d="M26.8,26.6c-0.6,0-1-0.4-1-1c0-4.2-2.3-8.1-5.9-10.2c-0.5-0.3-0.6-0.9-0.4-1.4
				c0.3-0.5,0.9-0.6,1.4-0.4c4.2,2.5,6.9,7.1,6.9,12C27.8,26.2,27.3,26.6,26.8,26.6z"/>
		</g>
		<g id="XMLID_505_">
			<g id="XMLID_507_">
				<path id="XMLID_67_" class="st2" d="M4.5,13.4c-0.1,0-0.1,0-0.2,0c-4.3-0.8-7.4-4.6-7.4-9C-3.1-0.7,1-4.8,6-4.8c0.6,0,1,0.4,1,1
					s-0.4,1-1,1c-3.9,0-7.1,3.2-7.1,7.2c0,3.5,2.4,6.4,5.8,7.1c0.5,0.1,0.9,0.6,0.8,1.2C5.4,13.1,5,13.4,4.5,13.4z"/>
			</g>
			<g id="XMLID_506_">
				<path id="XMLID_66_" class="st2" d="M-6.4,26.6c-0.6,0-1-0.4-1-1c0-6.9,5.1-13.1,11.6-14.2c0.5-0.1,1.1,0.3,1.1,0.8
					c0.1,0.5-0.3,1.1-0.8,1.1c-5.6,0.9-9.9,6.3-9.9,12.2C-5.4,26.2-5.9,26.6-6.4,26.6z"/>
			</g>
		</g>
	</g>
	<g id="XMLID_502_" class="st1">
		<path id="XMLID_148_" class="st3" d="M4.5,12.9"/>
	</g>
</g>
<g id="XMLID_99_" class="st0">
	<g id="XMLID_960_" class="st1">
		<polygon id="XMLID_1015_" class="st4" points="9.4,-4 24.4,11 26.5,11 9.4,-6.3 -7.8,11 -5.5,11 		"/>
		<polygon id="XMLID_1016_" class="st4" points="23,11.2 9.4,-2.4 -4.1,11.2 		"/>
	</g>
	<path id="XMLID_98_" class="st5" d="M-2,10v12.8c0,1.1,0.6,2.2,1.7,2.2H7v-7h5v7h7c1.1,0,2-1.1,2-2.2V10H-2z"/>
</g>
<g id="XMLID_100_" class="st0">
	<g id="XMLID_982_" class="st1">
		<path id="XMLID_983_" class="st4" d="M6,25.3h-9.1c-1.3,0-2.3-1-2.3-2.3V2.5h29.8v20.8c0,1.1-0.9,2-2,2H6z"/>
	</g>
	<g id="XMLID_979_" class="st1">
		<path id="XMLID_980_" class="st4" d="M24.5,1.6H-5.4L1-5.5h17.1L24.5,1.6z"/>
	</g>
	<g id="XMLID_977_" class="st1">
		<polyline id="XMLID_978_" class="st6" points="4,2 4,9.3 1,6.8 -2,9.4 -2,2 		"/>
	</g>
	<g id="XMLID_988_" class="st1">
		<path id="XMLID_989_" class="st6" d="M13.8,23.4c-4.6,0-8.3-3.7-8.3-8.3s3.7-8.3,8.3-8.3s8.3,3.7,8.3,8.3S18.4,23.4,13.8,23.4z"/>
	</g>
	<g id="XMLID_984_" class="st1">
		<g id="XMLID_987_">
			<path id="XMLID_381_" class="st6" d="M23.5,25.1"/>
		</g>
		<g id="XMLID_986_">
			<path id="XMLID_374_" class="st6" d="M23.4,25.3c-0.2,0-0.5-0.1-0.7-0.3L19,21.5c-0.4-0.4-0.4-1-0.1-1.4c0.4-0.4,1-0.4,1.4-0.1
				l3.8,3.5c0.4,0.4,0.4,1,0.1,1.4C24,25.2,23.7,25.3,23.4,25.3z"/>
		</g>
		<g id="XMLID_985_">
			<path id="XMLID_377_" class="st6" d="M18.9,20.8"/>
		</g>
	</g>
</g>
<g id="XMLID_101_" class="st0">
	<path id="XMLID_954_" class="st5" d="M19,6V-4H-3.2C-4.3-4-5-3.1-5-2v27c0,1.1,0.7,2,1.8,2h27.2c1.1,0,2.1-0.9,2.1-2V6H19z"/>
	<g id="XMLID_958_" class="st1">
		<path id="XMLID_382_" class="st6" d="M20.7,11h-21c-0.6,0-1-0.4-1-1s0.4-1,1-1h21c0.6,0,1,0.4,1,1S21.3,11,20.7,11z"/>
	</g>
	<g id="XMLID_957_" class="st1">
		<path id="XMLID_379_" class="st6" d="M20.7,17h-21c-0.6,0-1-0.4-1-1s0.4-1,1-1h21c0.6,0,1,0.4,1,1S21.3,17,20.7,17z"/>
	</g>
	<g id="XMLID_956_" class="st1">
		<path id="XMLID_378_" class="st6" d="M20.7,23h-21c-0.6,0-1-0.4-1-1s0.4-1,1-1h21c0.6,0,1,0.4,1,1S21.3,23,20.7,23z"/>
	</g>
	<g id="XMLID_955_" class="st1">
		<path id="XMLID_383_" class="st4" d="M24.8,3.6c-0.2,0-0.5-0.1-0.6-0.3L20.8-2c-0.2-0.3-0.1-0.8,0.2-1c0.3-0.2,0.8-0.1,1,0.2
			l3.3,5.3c0.2,0.3,0.1,0.8-0.2,1C25,3.6,24.9,3.6,24.8,3.6z"/>
	</g>
</g>
<g id="XMLID_482_" class="st0">
	<g id="XMLID_487_" class="st1">
		<path id="XMLID_488_" class="st7" d="M9.1,25.8l-0.9-0.5l0.8-1.5c0.9-1.5,0.9-1.7,2.2-3.1c3.5-4,8.2-8.6,8.3-8.7l3.5-3.7
			c1.5-1.9,1.8-4.1,1.8-6.2c0-4.3-4.4-7.5-8.4-7.5c-4,0-7.1,3.1-7.2,7.2l-0.5,0l-0.5,0C8-2.3,4.9-5.4,1-5.4c-4,0-8.4,3.2-8.4,7.5
			c0,2.1,0.2,4.2,1.8,6.2l3.5,3.7l0,0c0,0,0.8,0.8,2.1,2.1l-0.7,0.7c-1.2-1.3-2.1-2.1-2.1-2.1L-6.4,9c-1.8-2.2-2-4.6-2-6.9
			c0-4.9,5-8.5,9.4-8.5c3.6,0,6.6,2.2,7.8,5.5c1.1-3.3,4.1-5.5,7.8-5.5c4.4,0,9.4,3.7,9.4,8.5c0,2.3-0.2,4.6-2,6.9l-3.5,3.8
			c-0.1,0.1-4.8,4.7-8.3,8.6c-1.2,1.3-1.2,1.4-2.1,2.9L9.1,25.8z"/>
	</g>
	<g id="XMLID_483_" class="st1">
		<g id="XMLID_484_">
			<path id="XMLID_485_" class="st7" d="M0.1,18.2h4.6v-4.6h1v4.6h4.6V19H5.6v5.1h-1V19H0.1V18.2z"/>
		</g>
	</g>
</g>
<g id="XMLID_489_" class="st0">
	<path id="XMLID_490_" class="st8" d="M16.5-5.9c-4.3,0-7.6,3.4-7.7,7.6c0-0.4,0-0.7,0-1.1c0,0.4,0,0.7,0,1.1C8.5-2.5,5.3-5.9,1-5.9
		c-4.4,0-8.9,3.6-8.9,8c0,2.1,0.2,4.4,1.9,6.5l3.5,3.7c0,0,4.7,4.5,8.3,8.5C7.2,22.5,7,22,8.7,25h0h0c1.7-3,1.5-2.5,3-4.2
		c3.5-4,8.3-8.5,8.3-8.5l3.5-3.7c1.7-2.1,1.9-4.4,1.9-6.5C25.3-2.3,20.9-5.9,16.5-5.9z"/>
</g>
<g id="XMLID_425_" class="st0">
	<path id="XMLID_70_" class="st9" d="M17.1,25.5c-0.2,0-0.4-0.1-0.5-0.2L0.4,9.1C0.3,8.9,0.2,8.7,0.2,8.5c0-0.2,0.1-0.4,0.2-0.5
		L16.6-8c0.3-0.3,0.8-0.3,1.1,0c0.3,0.3,0.3,0.8,0,1.1L2,8.5l15.7,15.7c0.3,0.3,0.3,0.8,0,1.1C17.5,25.4,17.3,25.5,17.1,25.5z"/>
</g>
<g id="XMLID_44_" class="st0">
	<path id="XMLID_74_" class="st8" d="M16.5-5.9c-4.3,0-7.6,3.4-7.7,7.6c0-0.4,0-0.7,0-1.1c0,0.4,0,0.7,0,1.1C8.5-2.5,5.3-5.9,1-5.9
		c-4.4,0-8.9,3.6-8.9,8c0,2.1,0.2,4.4,1.9,6.5l3.5,3.7c0,0,4.7,4.5,8.3,8.5C7.2,22.5,7,22,8.7,25h0h0c1.7-3,1.5-2.5,3-4.2
		c3.5-4,8.3-8.5,8.3-8.5l3.5-3.7c1.7-2.1,1.9-4.4,1.9-6.5C25.3-2.3,20.9-5.9,16.5-5.9z"/>
</g>
<g id="XMLID_433_" class="st0">
	<g id="XMLID_435_" class="st1">
		<path id="XMLID_77_" class="st7" d="M20.5,22c-0.1,0-0.3,0-0.4-0.1L-3.2-1.5c-0.2-0.2-0.2-0.5,0-0.7s0.5-0.2,0.7,0l23.3,23.3
			c0.2,0.2,0.2,0.5,0,0.7C20.8,22,20.7,22,20.5,22z"/>
	</g>
	<g id="XMLID_434_" class="st1">
		<path id="XMLID_76_" class="st7" d="M-2.8,21.3c-0.1,0-0.3,0-0.4-0.1c-0.2-0.2-0.2-0.5,0-0.7L20.2-2.9c0.2-0.2,0.5-0.2,0.7,0
			s0.2,0.5,0,0.7L-2.5,21.2C-2.6,21.3-2.7,21.3-2.8,21.3z"/>
	</g>
</g>
<g id="XMLID_450_" class="st0">
	<g id="XMLID_452_" class="st1">
		<path id="XMLID_94_" class="st7" d="M8.8,17.9c-7.8,0-14.9-6.3-14.9-8.7c0-2.1,6.7-8.5,14.9-8.5c8.2,0,14.9,6.9,14.9,8.5
			C23.7,11.3,16.8,17.9,8.8,17.9z M8.8,2.2C1.3,2.2-4.6,8.1-4.7,9.2c0,1.2,5.7,7.2,13.5,7.2c7.3,0,13.2-5.9,13.5-7.2
			C21.8,8.1,16,2.2,8.8,2.2z"/>
	</g>
	<g id="XMLID_451_" class="st1">
		<path id="XMLID_91_" class="st7" d="M9,14.7c-3,0-5.5-2.5-5.5-5.5c0-3,2.5-5.5,5.5-5.5s5.5,2.5,5.5,5.5C14.5,12.2,12,14.7,9,14.7z
			 M9,5.1c-2.2,0-4.1,1.8-4.1,4.1s1.8,4.1,4.1,4.1c2.2,0,4.1-1.8,4.1-4.1S11.2,5.1,9,5.1z"/>
	</g>
</g>
<g id="XMLID_454_" class="st0">
	<g id="XMLID_428_" class="st1">
		<g id="XMLID_429_">
			<path class="st7" d="M16.4,17.7C11.3,23,2.8,23.2-2.5,18.1S-8,4.5-2.8-0.9s13.6-5.5,18.9-0.4S21.5,12.4,16.4,17.7z M-1.4,0.5
				C-5.8,5-5.6,12.3-1.1,16.6s11.7,4.2,16.1-0.3s4.2-11.7-0.3-16.1S3-4-1.4,0.5z"/>
		</g>
	</g>
	<g id="XMLID_423_" class="st1">
		<path id="XMLID_97_" class="st7" d="M23.9,23.9c-0.2,0-0.4-0.1-0.6-0.2l-7.4-6.1c-0.4-0.4-0.5-1-0.1-1.4c0.3-0.4,1-0.5,1.4-0.1
			l7.4,6.1c0.4,0.4,0.5,1,0.1,1.4C24.5,23.7,24.2,23.9,23.9,23.9z"/>
	</g>
</g>
<g id="XMLID_421_" class="st0">
	<path id="XMLID_115_" class="st9" d="M2.8,22.7c-0.2,0-0.3-0.1-0.4-0.2c-0.2-0.2-0.2-0.6,0-0.9L15.4,8.6L2.4-4.3
		C2.1-4.6,2.1-5,2.4-5.2c0.2-0.2,0.6-0.2,0.9,0L16.8,8.1C16.9,8.2,17,8.4,17,8.6c0,0.2-0.1,0.3-0.2,0.4L3.2,22.5
		C3.1,22.7,3,22.7,2.8,22.7z"/>
</g>
<g id="XMLID_418_" class="st0">
	<path id="XMLID_129_" class="st9" d="M9.3,15c-0.1,0-0.3-0.3-0.4-0.4L-2.3,3.3c-0.2-0.2-0.2-0.6,0-0.8s0.5-0.2,0.7,0L9.3,13.4
		L20,2.5c0.2-0.2,0.5-0.2,0.7,0c0.2,0.2,0.2,0.5,0,0.7l-11,11.4C9.5,14.7,9.4,15,9.3,15C9.3,15,9.3,15,9.3,15z"/>
</g>
<g id="XMLID_571_" class="st0">
	<g id="XMLID_564_" class="st1">
		<path id="XMLID_152_" class="st7" d="M19,10H0c-0.3,0-0.5-0.2-0.5-0.5S-0.3,9,0,9h19c0.3,0,0.5,0.2,0.5,0.5S19.3,10,19,10z"/>
	</g>
	<g id="XMLID_572_" class="st1">
		<path id="XMLID_151_" class="st7" d="M9.5,19.5C9.2,19.5,9,19.3,9,19V0c0-0.3,0.2-0.5,0.5-0.5S10-0.3,10,0v19
			C10,19.3,9.8,19.5,9.5,19.5z"/>
	</g>
</g>
<g id="XMLID_448_" class="st0">
	<g id="XMLID_147_" class="st1">
		<path id="XMLID_157_" class="st7" d="M8.7,15.3c-5.4,0-10.2-4.3-10.2-6c0-1.4,4.6-5.8,10.2-5.8C14.4,3.5,19,8.2,19,9.4
			C19,10.8,14.2,15.3,8.7,15.3z M8.7,4.5c-5.1,0-9.1,4-9.2,4.8c0,0.8,3.9,5,9.2,5c5,0,9-4.1,9.2-5C17.7,8.6,13.7,4.5,8.7,4.5z"/>
	</g>
	<g id="XMLID_447_" class="st1">
		<path id="XMLID_154_" class="st7" d="M8.9,13.1c-2.1,0-3.8-1.7-3.8-3.8s1.7-3.8,3.8-3.8c2.1,0,3.8,1.7,3.8,3.8S11,13.1,8.9,13.1z
			 M8.9,6.5c-1.5,0-2.8,1.2-2.8,2.8c0,1.5,1.2,2.8,2.8,2.8s2.8-1.2,2.8-2.8C11.7,7.8,10.4,6.5,8.9,6.5z"/>
	</g>
</g>
<g id="XMLID_439_">
	<path id="XMLID_173_" class="st7" d="M9.6,13c-0.1,0-0.3,0-0.4-0.1L1.3,5c-0.2-0.2-0.2-0.5,0-0.7s0.5-0.2,0.7,0l7.6,7.6l7.5-7.6
		c0.2-0.2,0.5-0.2,0.7,0C18,4.5,18,4.8,17.8,5L10,12.9C9.9,13,9.8,13,9.6,13C9.6,13,9.6,13,9.6,13z"/>
</g>
</svg>
