<?xml version="1.0" encoding="utf-8"?>
<!-- Generator: Adobe Illustrator 19.0.0, SVG Export Plug-In . SVG Version: 6.00 Build 0)  -->
<svg version="1.1" id="图层_1" xmlns="http://www.w3.org/2000/svg" xmlns:xlink="http://www.w3.org/1999/xlink" x="0px" y="0px"
	 viewBox="0 0 36 36" style="enable-background:new 0 0 36 36;" xml:space="preserve">
<style type="text/css">
	.st0{fill:#FFFFFF;}
	.st1{fill:#54B3E6;}
</style>
<g id="XMLID_2120_">
	<polygon id="XMLID_2320_" class="st0" points="30.7,10.5 25,4.4 25,10.7 	"/>
</g>
<path id="XMLID_17_" class="st1" d="M29.8,10h-4.4c0,0-0.3-0.1-0.3-0.2c0,0,0,0,0,0V5V4.5C25,4.2,25,4,24.8,4H7.2C6.3,4,5,4.6,5,5.5
	v25.7c0,1,1.3,1.8,2.2,1.8h0.7c0.5,0,1,0,1.4,0h19.5h0.2c0.3,0,1.1-0.1,1.1-1.8v0V11v-0.5C30,10.2,30,10,29.8,10z M17.9,12.9
	c-4,0-7.2,3.2-7.2,7.2s3.2,7.2,7.2,7.2c3.2,0,6.1-2.2,6.9-5.3c0.1-0.3,0.4-0.5,0.7-0.4c0.3,0.1,0.5,0.4,0.4,0.7
	c-1,3.6-4.3,6.2-8.1,6.2c-4.6,0-8.4-3.7-8.4-8.4c0-4.6,3.7-8.4,8.4-8.4c3.9,0,7.2,2.7,8.1,6.4l0.9-2.1c0.1-0.3,0.5-0.4,0.8-0.3
	c0.3,0.1,0.4,0.5,0.2,0.8l-1.5,3.4c0,0-0.6,0.2-0.6,0.2c0,0,0,0,0,0l-3.4-1.4c-0.3-0.1-0.4-0.4-0.3-0.7s0.5-0.4,0.8-0.3l2.1,0.9
	C24.2,15.2,21.3,12.9,17.9,12.9z M21.3,21c0.1,0-0.3,0.1-0.3,0.3v0.2c0,0.1,0.4,0.5,0.3,0.5H18v2.6c0,0.1,0.3,0.4,0.1,0.4h-0.2
	c-0.1,0-0.9-0.2-0.9-0.4V22h-2.3c-0.1,0-0.7-0.4-0.7-0.5v-0.2c0-0.1,0.6-0.3,0.7-0.3H17v-0.2l-3.3-4.6c0-0.1,0.1-0.1,0.1-0.2
	c0-0.1,0.1-0.1,0.2-0.2l0.2-0.1c0.1-0.1,0.3-0.1,0.4,0l3.4,4.3l3.4-4.3c0-0.1,0.1-0.1,0.2-0.1c0.1,0,0.1,0,0.2,0.1l0.1,0.1
	c0.1,0.1-0.1,0.2-0.1,0.3L18,20.8V21H21.3z M13.8,9.5C13.8,9.2,14,9,14.3,9h8c0.3,0,0.5,0.2,0.5,0.5S22.5,10,22.3,10h-8
	C14,10,13.8,9.8,13.8,9.5z M12.8,9.5c0,0.3-0.2,0.5-0.5,0.5h-3C9,10,8.8,9.8,8.8,9.5S9,9,9.3,9h3C12.5,9,12.8,9.2,12.8,9.5z M6,31.2
	V5.5C6,5.3,6.5,5.1,7,5V32C6.6,31.8,6,31.5,6,31.2z"/>
<g id="XMLID_2113_">
	<path id="XMLID_2335_" class="st1" d="M29.3,9.8c0,0-0.1,0-0.1-0.1l-3.8-4c-0.1-0.1-0.1-0.2,0-0.2c0.1-0.1,0.2-0.1,0.2,0l3.8,4
		c0.1,0.1,0.1,0.2,0,0.2C29.4,9.8,29.4,9.8,29.3,9.8z"/>
</g>
</svg>
