<?xml version="1.0" encoding="utf-8"?>
<!-- Generator: Adobe Illustrator 19.0.0, SVG Export Plug-In . SVG Version: 6.00 Build 0)  -->
<svg version="1.1" id="图层_1" xmlns="http://www.w3.org/2000/svg" xmlns:xlink="http://www.w3.org/1999/xlink" x="0px" y="0px"
	 viewBox="0 0 80 80" style="enable-background:new 0 0 80 80;" xml:space="preserve">
<style type="text/css">
	.st0{display:none;}
	.st1{display:inline;}
	.st2{fill:#272728;}
	.st3{fill:none;stroke:#272728;stroke-width:2;stroke-linecap:round;stroke-linejoin:round;stroke-miterlimit:10;}
	.st4{fill:#F1BE1C;}
	.st5{display:inline;fill:#F1BE1C;}
	.st6{fill:#FFFFFF;}
	.st7{fill:#282828;}
	.st8{display:inline;fill:#FB5B46;}
	.st9{display:inline;fill:#282828;}
	.st10{fill:#F5DEFF;}
	.st11{fill:#FFAEFF;}
	.st12{fill:#F9D4FC;}
	.st13{fill:#D2EFFF;}
	.st14{fill:#92D8FF;}
	.st15{fill:#31AEFA;}
</style>
<g id="XMLID_137_" class="st0">
	<g id="XMLID_149_" class="st1">
		<g id="XMLID_366_">
			<path id="XMLID_6_" class="st2" d="M34,61.4H23.6c-1.5,0-2.8-1.3-2.8-2.8V47.4c0-0.6,0.4-1,1-1s1,0.4,1,1v11.1
				c0,0.4,0.4,0.8,0.8,0.8H34c0.6,0,1,0.4,1,1S34.5,61.4,34,61.4z"/>
		</g>
		<g id="XMLID_150_">
			<path id="XMLID_5_" class="st2" d="M21.8,36.4c-0.6,0-1-0.4-1-1V25c0-1.5,1.3-2.8,2.8-2.8h10.3c0.6,0,1,0.4,1,1s-0.4,1-1,1H23.6
				c-0.4,0-0.8,0.4-0.8,0.8v10.5C22.8,36,22.4,36.4,21.8,36.4z"/>
		</g>
	</g>
	<g id="XMLID_143_" class="st1">
		<g id="XMLID_145_">
			<path id="XMLID_4_" class="st2" d="M57.2,61.4H46.8c-0.6,0-1-0.4-1-1s0.4-1,1-1h10.4c0.4,0,0.8-0.4,0.8-0.8V47.4c0-0.6,0.4-1,1-1
				s1,0.4,1,1v11.1C59.9,60.1,58.7,61.4,57.2,61.4z"/>
		</g>
		<g id="XMLID_144_">
			<path id="XMLID_3_" class="st2" d="M58.9,36.4c-0.6,0-1-0.4-1-1V25c0-0.4-0.4-0.8-0.8-0.8H46.8c-0.6,0-1-0.4-1-1s0.4-1,1-1h10.3
				c1.5,0,2.8,1.3,2.8,2.8v10.5C59.9,36,59.5,36.4,58.9,36.4z"/>
		</g>
	</g>
	<g id="XMLID_141_" class="st1">
		<path id="XMLID_2_" class="st2" d="M61,42H21c-0.6,0-1-0.4-1-1s0.4-1,1-1h40c0.6,0,1,0.4,1,1S61.6,42,61,42z"/>
	</g>
</g>
<g id="XMLID_385_" class="st0">
	<g id="XMLID_407_" class="st1">
		<path id="XMLID_16_" class="st2" d="M26.7,59.1l2.6-4.3c-5.7-2.9-9.1-7.9-9.1-13.3c0-8.8,9.1-15.9,20.3-15.9
			c11.2,0,20.3,7.1,20.3,15.9s-9.1,15.9-20.3,15.9c-0.7,0-1.5,0-2.4-0.1L26.7,59.1z M40.5,27.6c-10.1,0-18.3,6.2-18.3,13.9
			c0,4.9,3.4,9.4,9,11.9l1,0.5l-1.5,2.5l7.4-1.2l0.1,0c0.9,0.1,1.7,0.1,2.4,0.1c10.1,0,18.3-6.2,18.3-13.9
			C58.9,33.8,50.7,27.6,40.5,27.6z"/>
	</g>
	<g id="XMLID_395_" class="st1">
		<path id="XMLID_13_" class="st2" d="M29,44.2c-1.6,0-2.8-1.3-2.8-2.8s1.3-2.8,2.8-2.8s2.8,1.3,2.8,2.8S30.6,44.2,29,44.2z
			 M29,40.6c-0.4,0-0.8,0.4-0.8,0.8c0,0.4,0.4,0.8,0.8,0.8s0.8-0.4,0.8-0.8C29.8,41,29.5,40.6,29,40.6z"/>
	</g>
	<g id="XMLID_394_" class="st1">
		<path id="XMLID_10_" class="st2" d="M41,44.2c-1.6,0-2.8-1.3-2.8-2.8s1.3-2.8,2.8-2.8c1.6,0,2.8,1.3,2.8,2.8S42.6,44.2,41,44.2z
			 M41,40.6c-0.4,0-0.8,0.4-0.8,0.8c0,0.4,0.4,0.8,0.8,0.8c0.4,0,0.8-0.4,0.8-0.8C41.8,41,41.5,40.6,41,40.6z"/>
	</g>
	<g id="XMLID_386_" class="st1">
		<path id="XMLID_7_" class="st2" d="M53,44.2c-1.6,0-2.8-1.3-2.8-2.8s1.3-2.8,2.8-2.8s2.8,1.3,2.8,2.8S54.6,44.2,53,44.2z M53,40.6
			c-0.4,0-0.8,0.4-0.8,0.8c0,0.4,0.4,0.8,0.8,0.8s0.8-0.4,0.8-0.8C53.8,41,53.5,40.6,53,40.6z"/>
	</g>
</g>
<g id="XMLID_455_" class="st0">
	<g id="XMLID_458_" class="st1">
		<path id="XMLID_49_" class="st2" d="M58.5,43.2c-0.3,0-0.5-0.1-0.7-0.3L41.4,26.3L24.9,42.9c-0.4,0.4-1,0.4-1.4,0
			c-0.4-0.4-0.4-1,0-1.4l17.2-17.2c0.2-0.2,0.4-0.2,0.7-0.2c0,0,0,0,0,0c0.3,0,0.5,0,0.7,0.2l17.1,17.2c0.4,0.4,0.4,1,0,1.4
			C59,43.1,58.7,43.2,58.5,43.2z"/>
	</g>
	<g id="XMLID_457_" class="st1">
		<path id="XMLID_48_" class="st2" d="M51,56.8H31.7c-1.7,0-3-1.3-3-3V41.2c0-0.6,0.4-1,1-1s1,0.4,1,1v12.7c0,0.6,0.4,1,1,1H51
			c0.6,0,1-0.4,1-1V41.2c0-0.6,0.4-1,1-1s1,0.4,1,1v12.7C54,55.5,52.7,56.8,51,56.8z"/>
	</g>
	<g id="XMLID_456_" class="st1">
		<path id="XMLID_45_" class="st2" d="M44,56.1h-5.4c-0.4,0-0.8-0.3-0.8-0.8v-6.5c0-0.4,0.3-0.8,0.8-0.8H44c0.4,0,0.8,0.3,0.8,0.8
			v6.5C44.8,55.7,44.4,56.1,44,56.1z M39.4,54.6h3.9v-5h-3.9V54.6z"/>
	</g>
</g>
<g id="XMLID_554_" class="st0">
	<g id="XMLID_467_" class="st1">
		<g id="XMLID_468_">
			<path id="XMLID_57_" class="st2" d="M44.8,56.4c-5.2,0-9.3-4.2-9.3-9.3s4.2-9.3,9.3-9.3s9.3,4.2,9.3,9.3S50,56.4,44.8,56.4z
				 M44.8,39.7c-4,0-7.3,3.3-7.3,7.3s3.3,7.3,7.3,7.3c4,0,7.3-3.3,7.3-7.3S48.9,39.7,44.8,39.7z"/>
		</g>
	</g>
	<g id="XMLID_465_" class="st1">
		<g id="XMLID_466_">
			<path id="XMLID_52_" class="st2" d="M37,58.3h-9.1c-1.8,0-3.3-1.5-3.3-3.3V33.5c0-0.6,0.4-1,1-1h29.8c0.6,0,1,0.4,1,1v6.7
				c0,0.6-0.4,1-1,1s-1-0.4-1-1v-5.7H26.6V55c0,0.7,0.6,1.3,1.3,1.3H37c0.6,0,1,0.4,1,1S37.5,58.3,37,58.3z"/>
		</g>
	</g>
	<g id="XMLID_462_" class="st1">
		<g id="XMLID_463_">
			<path id="XMLID_53_" class="st2" d="M55.5,34.6H25.6c-0.4,0-0.8-0.2-0.9-0.6c-0.2-0.4-0.1-0.8,0.2-1.1l6.4-7.1
				c0.2-0.2,0.5-0.3,0.7-0.3h17.1c0.3,0,0.6,0.1,0.7,0.3l6.4,7.1c0.3,0.3,0.3,0.7,0.2,1.1C56.2,34.3,55.9,34.6,55.5,34.6z
				 M27.9,32.6h25.4l-4.6-5.1H32.4L27.9,32.6z"/>
		</g>
	</g>
	<g id="XMLID_459_" class="st1">
		<g id="XMLID_460_">
			<path id="XMLID_51_" class="st2" d="M29,42.4c-0.1,0-0.3,0-0.4-0.1c-0.4-0.2-0.6-0.5-0.6-0.9V34c0-0.6,0.4-1,1-1s1,0.4,1,1v5.2
				l1.4-1.2c0.4-0.3,0.9-0.3,1.3,0l1.3,1.1V34c0-0.6,0.4-1,1-1s1,0.4,1,1v7.3c0,0.4-0.2,0.7-0.6,0.9c-0.4,0.2-0.8,0.1-1.1-0.1
				l-2.3-2l-2.4,2C29.5,42.3,29.2,42.4,29,42.4z"/>
		</g>
	</g>
	<g id="XMLID_521_" class="st1">
		<g id="XMLID_524_">
			<path id="XMLID_185_" class="st3" d="M54.7,58"/>
		</g>
		<g id="XMLID_523_">
			<path id="XMLID_50_" class="st2" d="M54.7,58.2c-0.2,0-0.5-0.1-0.7-0.3l-3.8-3.5c-0.4-0.4-0.4-1-0.1-1.4c0.4-0.4,1-0.4,1.4-0.1
				l3.8,3.5c0.4,0.4,0.4,1,0.1,1.4C55.2,58.1,55,58.2,54.7,58.2z"/>
		</g>
		<g id="XMLID_522_">
			<path id="XMLID_181_" class="st3" d="M50.1,53.7"/>
		</g>
	</g>
</g>
<g id="XMLID_555_" class="st0">
	<g id="XMLID_518_" class="st1">
		<path id="XMLID_65_" class="st2" d="M52,42H31c-0.6,0-1-0.4-1-1s0.4-1,1-1h21c0.6,0,1,0.4,1,1S52.6,42,52,42z"/>
	</g>
	<g id="XMLID_517_" class="st1">
		<path id="XMLID_64_" class="st2" d="M52,48H31c-0.6,0-1-0.4-1-1s0.4-1,1-1h21c0.6,0,1,0.4,1,1S52.6,48,52,48z"/>
	</g>
	<g id="XMLID_516_" class="st1">
		<path id="XMLID_63_" class="st2" d="M52,54H31c-0.6,0-1-0.4-1-1s0.4-1,1-1h21c0.6,0,1,0.4,1,1S52.6,54,52,54z"/>
	</g>
	<g id="XMLID_515_" class="st1">
		<path id="XMLID_62_" class="st2" d="M55.8,34.6c-0.2,0-0.5-0.1-0.6-0.3L51.8,29c-0.2-0.3-0.1-0.8,0.2-1c0.4-0.2,0.8-0.1,1,0.2
			l3.3,5.3c0.2,0.3,0.1,0.8-0.2,1C56,34.6,55.9,34.6,55.8,34.6z"/>
	</g>
	<g id="XMLID_500_" class="st1">
		<path id="XMLID_56_" class="st2" d="M54.9,59H27.8c-1.6,0-2.8-1.3-2.8-3V29c0-1.7,1.2-3,2.8-3H50c0.6,0,1,0.4,1,1v9h6
			c0.6,0,1,0.4,1,1v19C58,57.7,56.6,59,54.9,59z M27.8,28c-0.7,0-0.8,0.7-0.8,1v27c0,0.3,0.1,1,0.8,1h27.2c0.6,0,1.1-0.4,1.1-1V38
			h-6c-0.6,0-1-0.4-1-1v-9H27.8z"/>
	</g>
</g>
<g id="XMLID_501_" class="st0">
	<g id="XMLID_503_" class="st1">
		<g id="XMLID_513_">
			<path id="XMLID_71_" class="st2" d="M44.4,44.6c-5,0-9.1-4.1-9.1-9.2s4.1-9.2,9.1-9.2c5,0,9.1,4.1,9.1,9.2S49.4,44.6,44.4,44.6z
				 M44.4,28.2c-3.9,0-7.1,3.2-7.1,7.2s3.2,7.2,7.1,7.2c3.9,0,7.1-3.2,7.1-7.2S48.3,28.2,44.4,28.2z"/>
		</g>
		<g id="XMLID_512_">
			<path id="XMLID_69_" class="st2" d="M32,57.6c-0.6,0-1-0.4-1-1c0-7.7,6.2-14.1,13.9-14.1c0.6,0,1,0.4,1,1s-0.4,1-1,1
				C38.4,44.6,33,50,33,56.6C33,57.2,32.6,57.6,32,57.6z"/>
		</g>
		<g id="XMLID_511_">
			<path id="XMLID_68_" class="st2" d="M57.8,57.6c-0.6,0-1-0.4-1-1c0-4.2-2.3-8.1-5.9-10.2c-0.5-0.3-0.6-0.9-0.4-1.4
				c0.3-0.5,0.9-0.6,1.4-0.4c4.2,2.5,6.9,7.1,6.9,12C58.8,57.2,58.3,57.6,57.8,57.6z"/>
		</g>
		<g id="XMLID_505_">
			<g id="XMLID_507_">
				<path id="XMLID_67_" class="st2" d="M35.5,44.4c-0.1,0-0.1,0-0.2,0c-4.3-0.8-7.4-4.6-7.4-9c0-5.1,4.1-9.2,9.1-9.2
					c0.6,0,1,0.4,1,1s-0.4,1-1,1c-3.9,0-7.1,3.2-7.1,7.2c0,3.5,2.4,6.4,5.8,7.1c0.5,0.1,0.9,0.6,0.8,1.2
					C36.4,44.1,36,44.4,35.5,44.4z"/>
			</g>
			<g id="XMLID_506_">
				<path id="XMLID_66_" class="st2" d="M24.6,57.6c-0.6,0-1-0.4-1-1c0-6.9,5.1-13.1,11.6-14.2c0.5-0.1,1.1,0.3,1.1,0.8
					c0.1,0.5-0.3,1.1-0.8,1.1c-5.6,0.9-9.9,6.3-9.9,12.2C25.6,57.2,25.1,57.6,24.6,57.6z"/>
			</g>
		</g>
	</g>
	<g id="XMLID_502_" class="st1">
		<path id="XMLID_148_" class="st3" d="M35.5,43.9"/>
	</g>
</g>
<g id="XMLID_99_" class="st0">
	<g id="XMLID_960_" class="st1">
		<polygon id="XMLID_1015_" class="st4" points="40.4,27 55.4,42 57.5,42 40.4,24.7 23.2,42 25.5,42 		"/>
		<polygon id="XMLID_1016_" class="st4" points="54,42.2 40.4,28.6 26.9,42.2 		"/>
	</g>
	<path id="XMLID_98_" class="st5" d="M29,41v12.8c0,1.1,0.6,2.2,1.7,2.2H38v-7h5v7h7c1.1,0,2-1.1,2-2.2V41H29z"/>
</g>
<g id="XMLID_100_" class="st0">
	<g id="XMLID_982_" class="st1">
		<path id="XMLID_983_" class="st4" d="M37,56.3h-9.1c-1.3,0-2.3-1-2.3-2.3V33.5h29.8v20.8c0,1.1-0.9,2-2,2H37z"/>
	</g>
	<g id="XMLID_979_" class="st1">
		<path id="XMLID_980_" class="st4" d="M55.5,32.6H25.6l6.4-7.1h17.1L55.5,32.6z"/>
	</g>
	<g id="XMLID_977_" class="st1">
		<polyline id="XMLID_978_" class="st6" points="35,33 35,40.3 32,37.8 29,40.4 29,33 		"/>
	</g>
	<g id="XMLID_988_" class="st1">
		<path id="XMLID_989_" class="st6" d="M44.8,54.4c-4.6,0-8.3-3.7-8.3-8.3s3.7-8.3,8.3-8.3s8.3,3.7,8.3,8.3S49.4,54.4,44.8,54.4z"/>
	</g>
	<g id="XMLID_984_" class="st1">
		<g id="XMLID_987_">
			<path id="XMLID_381_" class="st6" d="M54.5,56.1"/>
		</g>
		<g id="XMLID_986_">
			<path id="XMLID_374_" class="st6" d="M54.4,56.3c-0.2,0-0.5-0.1-0.7-0.3L50,52.5c-0.4-0.4-0.4-1-0.1-1.4c0.4-0.4,1-0.4,1.4-0.1
				l3.8,3.5c0.4,0.4,0.4,1,0.1,1.4C55,56.2,54.7,56.3,54.4,56.3z"/>
		</g>
		<g id="XMLID_985_">
			<path id="XMLID_377_" class="st6" d="M49.9,51.8"/>
		</g>
	</g>
</g>
<g id="XMLID_101_" class="st0">
	<path id="XMLID_954_" class="st5" d="M50,37V27H27.8c-1.1,0-1.8,0.9-1.8,2v27c0,1.1,0.7,2,1.8,2h27.2c1.1,0,2.1-0.9,2.1-2V37H50z"
		/>
	<g id="XMLID_958_" class="st1">
		<path id="XMLID_382_" class="st6" d="M51.7,42h-21c-0.6,0-1-0.4-1-1s0.4-1,1-1h21c0.6,0,1,0.4,1,1S52.3,42,51.7,42z"/>
	</g>
	<g id="XMLID_957_" class="st1">
		<path id="XMLID_379_" class="st6" d="M51.7,48h-21c-0.6,0-1-0.4-1-1s0.4-1,1-1h21c0.6,0,1,0.4,1,1S52.3,48,51.7,48z"/>
	</g>
	<g id="XMLID_956_" class="st1">
		<path id="XMLID_378_" class="st6" d="M51.7,54h-21c-0.6,0-1-0.4-1-1s0.4-1,1-1h21c0.6,0,1,0.4,1,1S52.3,54,51.7,54z"/>
	</g>
	<g id="XMLID_955_" class="st1">
		<path id="XMLID_383_" class="st4" d="M55.8,34.6c-0.2,0-0.5-0.1-0.6-0.3L51.8,29c-0.2-0.3-0.1-0.8,0.2-1c0.3-0.2,0.8-0.1,1,0.2
			l3.3,5.3c0.2,0.3,0.1,0.8-0.2,1C56,34.6,55.9,34.6,55.8,34.6z"/>
	</g>
</g>
<g id="XMLID_482_" class="st0">
	<g id="XMLID_487_" class="st1">
		<path id="XMLID_488_" class="st7" d="M40.1,56.8l-0.9-0.5l0.8-1.5c0.9-1.5,0.9-1.7,2.2-3.1c3.5-4,8.2-8.6,8.3-8.7l3.5-3.7
			c1.5-1.9,1.8-4.1,1.8-6.2c0-4.3-4.4-7.5-8.4-7.5c-4,0-7.1,3.1-7.2,7.2l-0.5,0l-0.5,0c-0.2-4.1-3.3-7.2-7.2-7.2
			c-4,0-8.4,3.2-8.4,7.5c0,2.1,0.2,4.2,1.8,6.2l3.5,3.7l0,0c0,0,0.8,0.8,2.1,2.1l-0.7,0.7c-1.2-1.3-2.1-2.1-2.1-2.1L24.6,40
			c-1.8-2.2-2-4.6-2-6.9c0-4.9,5-8.5,9.4-8.5c3.6,0,6.6,2.2,7.8,5.5c1.1-3.3,4.1-5.5,7.8-5.5c4.4,0,9.4,3.7,9.4,8.5
			c0,2.3-0.2,4.6-2,6.9l-3.5,3.8c-0.1,0.1-4.8,4.7-8.3,8.6c-1.2,1.3-1.2,1.4-2.1,2.9L40.1,56.8z"/>
	</g>
	<g id="XMLID_483_" class="st1">
		<g id="XMLID_484_">
			<path id="XMLID_485_" class="st7" d="M31.1,49.2h4.6v-4.6h1v4.6h4.6V50h-4.6v5.1h-1V50h-4.6V49.2z"/>
		</g>
	</g>
</g>
<g id="XMLID_489_" class="st0">
	<path id="XMLID_490_" class="st8" d="M47.5,25.1c-4.3,0-7.6,3.4-7.7,7.6c0-0.4,0-0.7,0-1.1c0,0.4,0,0.7,0,1.1
		c-0.2-4.3-3.4-7.6-7.7-7.6c-4.4,0-8.9,3.6-8.9,8c0,2.1,0.2,4.4,1.9,6.5l3.5,3.7c0,0,4.7,4.5,8.3,8.5c1.5,1.7,1.2,1.2,3,4.2h0h0
		c1.7-3,1.5-2.5,3-4.2c3.5-4,8.3-8.5,8.3-8.5l3.5-3.7c1.7-2.1,1.9-4.4,1.9-6.5C56.3,28.7,51.9,25.1,47.5,25.1z"/>
</g>
<g id="XMLID_425_" class="st0">
	<path id="XMLID_70_" class="st9" d="M48.1,56.5c-0.2,0-0.4-0.1-0.5-0.2L31.4,40.1c-0.1-0.1-0.2-0.3-0.2-0.5c0-0.2,0.1-0.4,0.2-0.5
		l16.2-16c0.3-0.3,0.8-0.3,1.1,0c0.3,0.3,0.3,0.8,0,1.1L33,39.5l15.7,15.7c0.3,0.3,0.3,0.8,0,1.1C48.5,56.4,48.3,56.5,48.1,56.5z"/>
</g>
<g id="XMLID_44_" class="st0">
	<path id="XMLID_74_" class="st8" d="M47.5,25.1c-4.3,0-7.6,3.4-7.7,7.6c0-0.4,0-0.7,0-1.1c0,0.4,0,0.7,0,1.1
		c-0.2-4.3-3.4-7.6-7.7-7.6c-4.4,0-8.9,3.6-8.9,8c0,2.1,0.2,4.4,1.9,6.5l3.5,3.7c0,0,4.7,4.5,8.3,8.5c1.5,1.7,1.2,1.2,3,4.2h0h0
		c1.7-3,1.5-2.5,3-4.2c3.5-4,8.3-8.5,8.3-8.5l3.5-3.7c1.7-2.1,1.9-4.4,1.9-6.5C56.3,28.7,51.9,25.1,47.5,25.1z"/>
</g>
<g id="XMLID_433_" class="st0">
	<g id="XMLID_435_" class="st1">
		<path id="XMLID_77_" class="st7" d="M51.5,53c-0.1,0-0.3,0-0.4-0.1L27.8,29.5c-0.2-0.2-0.2-0.5,0-0.7s0.5-0.2,0.7,0l23.3,23.3
			c0.2,0.2,0.2,0.5,0,0.7C51.8,53,51.7,53,51.5,53z"/>
	</g>
	<g id="XMLID_434_" class="st1">
		<path id="XMLID_76_" class="st7" d="M28.2,52.3c-0.1,0-0.3,0-0.4-0.1c-0.2-0.2-0.2-0.5,0-0.7l23.3-23.3c0.2-0.2,0.5-0.2,0.7,0
			s0.2,0.5,0,0.7L28.5,52.2C28.4,52.3,28.3,52.3,28.2,52.3z"/>
	</g>
</g>
<g id="XMLID_450_" class="st0">
	<g id="XMLID_452_" class="st1">
		<path id="XMLID_94_" class="st7" d="M39.8,48.9c-7.8,0-14.9-6.3-14.9-8.7c0-2.1,6.7-8.5,14.9-8.5c8.2,0,14.9,6.9,14.9,8.5
			C54.7,42.3,47.8,48.9,39.8,48.9z M39.8,33.2c-7.5,0-13.3,5.9-13.5,7.1c0,1.2,5.7,7.2,13.5,7.2c7.3,0,13.2-5.9,13.5-7.2
			C52.8,39.1,47,33.2,39.8,33.2z"/>
	</g>
	<g id="XMLID_451_" class="st1">
		<path id="XMLID_91_" class="st7" d="M40,45.7c-3,0-5.5-2.5-5.5-5.5c0-3,2.5-5.5,5.5-5.5s5.5,2.5,5.5,5.5
			C45.5,43.2,43,45.7,40,45.7z M40,36.1c-2.2,0-4.1,1.8-4.1,4.1s1.8,4.1,4.1,4.1c2.2,0,4.1-1.8,4.1-4.1S42.2,36.1,40,36.1z"/>
	</g>
</g>
<g id="XMLID_454_" class="st0">
	<g id="XMLID_428_" class="st1">
		<g id="XMLID_429_">
			<path class="st7" d="M47.4,48.7c-5.1,5.3-13.6,5.5-18.9,0.4S23,35.5,28.2,30.1s13.6-5.5,18.9-0.4S52.5,43.4,47.4,48.7z
				 M29.6,31.5c-4.4,4.5-4.2,11.7,0.3,16.1s11.7,4.2,16.1-0.3s4.2-11.7-0.3-16.1S34,27,29.6,31.5z"/>
		</g>
	</g>
	<g id="XMLID_423_" class="st1">
		<path id="XMLID_97_" class="st7" d="M54.9,54.9c-0.2,0-0.4-0.1-0.6-0.2l-7.4-6.1c-0.4-0.4-0.5-1-0.1-1.4c0.3-0.4,1-0.5,1.4-0.1
			l7.4,6.1c0.4,0.4,0.5,1,0.1,1.4C55.5,54.7,55.2,54.9,54.9,54.9z"/>
	</g>
</g>
<g id="XMLID_421_" class="st0">
	<path id="XMLID_115_" class="st9" d="M33.8,53.7c-0.2,0-0.3-0.1-0.4-0.2c-0.2-0.2-0.2-0.6,0-0.9l13.1-13.1L33.4,26.7
		c-0.2-0.2-0.2-0.6,0-0.9c0.2-0.2,0.6-0.2,0.9,0l13.5,13.3c0.1,0.1,0.2,0.3,0.2,0.4c0,0.2-0.1,0.3-0.2,0.4L34.2,53.5
		C34.1,53.7,34,53.7,33.8,53.7z"/>
</g>
<g id="XMLID_418_" class="st0">
	<path id="XMLID_129_" class="st9" d="M40.3,46c-0.1,0-0.3-0.3-0.4-0.4L28.7,34.3c-0.2-0.2-0.2-0.6,0-0.8s0.5-0.2,0.7,0l10.8,10.8
		L51,33.5c0.2-0.2,0.5-0.2,0.7,0c0.2,0.2,0.2,0.5,0,0.7l-11,11.4C40.5,45.7,40.4,46,40.3,46C40.3,46,40.3,46,40.3,46z"/>
</g>
<g id="XMLID_571_" class="st0">
	<g id="XMLID_564_" class="st1">
		<path id="XMLID_152_" class="st7" d="M50,41H31c-0.3,0-0.5-0.2-0.5-0.5S30.7,40,31,40h19c0.3,0,0.5,0.2,0.5,0.5S50.3,41,50,41z"/>
	</g>
	<g id="XMLID_572_" class="st1">
		<path id="XMLID_151_" class="st7" d="M40.5,50.5c-0.3,0-0.5-0.2-0.5-0.5V31c0-0.3,0.2-0.5,0.5-0.5S41,30.7,41,31v19
			C41,50.3,40.8,50.5,40.5,50.5z"/>
	</g>
</g>
<g id="XMLID_448_" class="st0">
	<g id="XMLID_147_" class="st1">
		<path id="XMLID_157_" class="st7" d="M39.7,46.3c-5.4,0-10.2-4.3-10.2-6c0-1.4,4.6-5.8,10.2-5.8c5.6,0,10.2,4.7,10.2,5.8
			C50,41.8,45.2,46.3,39.7,46.3z M39.7,35.5c-5.1,0-9.1,4-9.2,4.8c0,0.8,3.9,5,9.2,5c5,0,9-4.1,9.2-5C48.7,39.6,44.7,35.5,39.7,35.5
			z"/>
	</g>
	<g id="XMLID_447_" class="st1">
		<path id="XMLID_154_" class="st7" d="M39.9,44.1c-2.1,0-3.8-1.7-3.8-3.8s1.7-3.8,3.8-3.8c2.1,0,3.8,1.7,3.8,3.8S42,44.1,39.9,44.1
			z M39.9,37.5c-1.5,0-2.8,1.2-2.8,2.8c0,1.5,1.2,2.8,2.8,2.8s2.8-1.2,2.8-2.8C42.7,38.8,41.4,37.5,39.9,37.5z"/>
	</g>
</g>
<g id="XMLID_439_" class="st0">
	<path id="XMLID_173_" class="st9" d="M40.6,44c-0.1,0-0.3,0-0.4-0.1l-8-7.9c-0.2-0.2-0.2-0.5,0-0.7s0.5-0.2,0.7,0l7.6,7.6l7.5-7.6
		c0.2-0.2,0.5-0.2,0.7,0c0.2,0.2,0.2,0.5,0,0.7L41,43.9C40.9,44,40.8,44,40.6,44C40.6,44,40.6,44,40.6,44z"/>
</g>
<g id="XMLID_561_" class="st0">
	<g id="XMLID_408_" class="st1">
		<g id="XMLID_388_">
			<path id="XMLID_189_" class="st10" d="M40.6,76.7c-20.4,0-37-16.6-37-37s16.6-37,37-37s37,16.6,37,37S61,76.7,40.6,76.7z
				 M40.6,4.7c-19.3,0-35,15.7-35,35c0,19.3,15.7,35,35,35c19.3,0,35-15.7,35-35C75.6,20.4,59.9,4.7,40.6,4.7z"/>
		</g>
		<g id="XMLID_400_">
			<path class="st10" d="M4.6,38.3c0,0,13,21.5,37.9,14.5s32.5-2.8,32.5-2.8s-9.1,29.9-40.5,25.3C5.5,71,4.6,38.3,4.6,38.3z"/>
		</g>
	</g>
	<g id="XMLID_396_" class="st1">
		<g id="XMLID_399_">
			<path class="st11" d="M49.6,14.7c0,0-6.1,10.1-8.6,10.3c-3.1,0-8.2-10.6-8.2-10.6l-3.6,0.9L36,30.2V33h5.4H45v-2.8l7.7-14.9
				L49.6,14.7z"/>
		</g>
		<g id="XMLID_398_">
			<rect x="36.1" y="30.2" class="st12" width="9" height="2.8"/>
		</g>
		<g id="XMLID_397_">
			<path class="st11" d="M37,36c-2.4,6-13,22.1-15.3,26.6c-0.4,0.7,7.1-0.4,8.5,0.1s8.3,4.8,12.2,3.6c5.9-1.8,13-4.1,19-4.9
				c1.7-0.2-12-14.4-16.7-25.4H37z"/>
		</g>
	</g>
</g>
<g id="XMLID_560_">
	<g id="XMLID_401_">
		<path id="XMLID_193_" class="st13" d="M39.5,77.2c-20.4,0-37-16.6-37-37c0-20.4,16.6-37,37-37c20.4,0,37,16.6,37,37
			C76.5,60.6,59.9,77.2,39.5,77.2z M39.5,5.2c-19.3,0-35,15.7-35,35s15.7,35,35,35s35-15.7,35-35S58.8,5.2,39.5,5.2z"/>
	</g>
	<g id="XMLID_188_">
		<path class="st13" d="M74.7,47.9c-4,13.7-15.2,28.9-40.8,27.4C17.7,73.1,8,59.1,4.4,47.9"/>
	</g>
	<g id="XMLID_404_">
		<g id="XMLID_412_">
			<path class="st14" d="M53.6,66.3l-3-53.3l-10.8,4h-0.4l-10.8-3.8l-2.8,53.2c0,0,4.5,2.7,13.6,2.7C49.6,69.1,53.6,66.3,53.6,66.3z
				"/>
		</g>
		<g id="XMLID_403_">
			<polygon class="st15" points="40.7,26 39.2,26 39.1,26 37.7,26 31.9,56.8 39.2,64.6 46.5,56.9 			"/>
		</g>
		<g id="XMLID_402_">
			<path class="st15" d="M40.6,20h-1.3h-0.1h-1.3c-2.5,4-1.9,2.7-1.9,2.7l2,2.3h1.3h1.3l2-2.3C42.4,22.7,43,24,40.6,20z"/>
		</g>
	</g>
</g>
</svg>
