<?xml version="1.0" encoding="utf-8"?>
<!-- Generator: Adobe Illustrator 19.0.0, SVG Export Plug-In . SVG Version: 6.00 Build 0)  -->
<svg version="1.1" id="图层_1" xmlns="http://www.w3.org/2000/svg" xmlns:xlink="http://www.w3.org/1999/xlink" x="0px" y="0px"
	 viewBox="0 0 36 36" style="enable-background:new 0 0 36 36;" xml:space="preserve">
<style type="text/css">
	.st0{fill:#F0D357;}
</style>
<g id="XMLID_2117_">
	<g id="XMLID_2130_">
		<path id="XMLID_2327_" class="st0" d="M30,22.7H3.7c-0.9,0-1.5-0.7-1.5-1.5V4.7c0-0.9,0.7-1.5,1.5-1.5H30c0.9,0,1.5,0.7,1.5,1.5
			v16.5C31.5,22,30.8,22.7,30,22.7z M3.7,4.1C3.3,4.1,3,4.3,3,4.7v16.5c0,0.3,0.3,0.6,0.6,0.6H30c0.3,0,0.6-0.3,0.6-0.6V4.7
			c0-0.3-0.3-0.6-0.6-0.6H3.7z"/>
	</g>
	<path id="XMLID_2076_" class="st0" d="M32.6,7H7.9C7.4,7,6,7.7,6,8.8v15.4C6,25.1,7.1,25,7.9,25h6.8l-5.2,7.2L21.6,25h11
		c0.7,0,1.4,0.2,1.4-0.8V8.8C34,8,33.9,7,32.6,7z M9.6,10c-0.3,0-0.5-0.2-0.5-0.5S9.3,9,9.6,9h2c0.3,0,0.5,0.2,0.5,0.5
		S11.9,10,11.6,10H9.6z M13.4,18c-0.9,0-1.6-0.7-1.6-1.6c0-0.9,0.7-1.6,1.6-1.6s1.6,0.7,1.6,1.6C14.9,17.3,14.2,18,13.4,18z
		 M20.4,18c-0.9,0-1.6-0.7-1.6-1.6c0-0.9,0.7-1.6,1.6-1.6s1.6,0.7,1.6,1.6C22,17.3,21.3,18,20.4,18z M22.6,10h-8
		c-0.3,0-0.5-0.2-0.5-0.5S14.3,9,14.6,9h8c0.3,0,0.5,0.2,0.5,0.5S22.9,10,22.6,10z M27.4,18c-0.9,0-1.6-0.7-1.6-1.6
		c0-0.9,0.7-1.6,1.6-1.6s1.6,0.7,1.6,1.6C29,17.3,28.3,18,27.4,18z"/>
</g>
</svg>
