<?xml version="1.0" encoding="utf-8"?>
<!-- Generator: Adobe Illustrator 19.0.0, SVG Export Plug-In . SVG Version: 6.00 Build 0)  -->
<svg version="1.1" id="图层_1" xmlns="http://www.w3.org/2000/svg" xmlns:xlink="http://www.w3.org/1999/xlink" x="0px" y="0px"
	 viewBox="0 0 106 106" style="enable-background:new 0 0 106 106;" xml:space="preserve">
<style type="text/css">
	.st0{fill:#F2BF1E;}
</style>
<g id="XMLID_2403_">
	<g id="XMLID_2408_">
		<path id="XMLID_44_" class="st0" d="M52,60.7c-15.4,0-27.9-12.5-27.9-27.9S36.6,4.9,52,4.9s27.9,12.5,27.9,27.9S67.4,60.7,52,60.7
			z M52,9.9c-12.6,0-22.9,10.3-22.9,22.9c0,12.6,10.3,22.9,22.9,22.9c12.6,0,22.9-10.3,22.9-22.9C74.9,20.2,64.6,9.9,52,9.9z"/>
	</g>
	<g id="XMLID_2405_">
		<g id="XMLID_2407_">
			<path id="XMLID_43_" class="st0" d="M11.6,101.9c-1.4,0-2.5-1.1-2.5-2.5c0-24,19.5-43.4,43.4-43.4c1.4,0,2.5,1.1,2.5,2.5
				s-1.1,2.5-2.5,2.5c-21.2,0-38.4,17.2-38.4,38.4C14.1,100.8,13,101.9,11.6,101.9z"/>
		</g>
		<g id="XMLID_2406_">
			<path id="XMLID_42_" class="st0" d="M93.5,101.9c-1.4,0-2.5-1.1-2.5-2.5c0-21.2-17.2-38.4-38.4-38.4c-1.4,0-2.5-1.1-2.5-2.5
				s1.1-2.5,2.5-2.5c24,0,43.4,19.5,43.4,43.4C96,100.8,94.9,101.9,93.5,101.9z"/>
		</g>
	</g>
	<g id="XMLID_2404_">
		<path id="XMLID_41_" class="st0" d="M81,97H51.5c-1.4,0-2.5-1.1-2.5-2.5V72c0-1.4,1.1-2.5,2.5-2.5S54,70.6,54,72v20h27
			c1.4,0,2.5,1.1,2.5,2.5S82.4,97,81,97z"/>
	</g>
</g>
</svg>
