<?xml version="1.0" encoding="utf-8"?>
<!-- Generator: Adobe Illustrator 19.0.0, SVG Export Plug-In . SVG Version: 6.00 Build 0)  -->
<svg version="1.1" id="图层_1" xmlns="http://www.w3.org/2000/svg" xmlns:xlink="http://www.w3.org/1999/xlink" x="0px" y="0px"
	 viewBox="0 0 106 106" style="enable-background:new 0 0 106 106;" xml:space="preserve">
<style type="text/css">
	.st0{fill:#F2BF1E;}
</style>
<g id="XMLID_2391_">
	<g id="XMLID_2395_">
		<path id="XMLID_44_" class="st0" d="M53,58.7c-15.4,0-27.9-12.5-27.9-27.9S37.6,2.9,53,2.9s27.9,12.5,27.9,27.9S68.4,58.7,53,58.7
			z M53,7.9c-12.6,0-22.9,10.3-22.9,22.9c0,12.6,10.3,22.9,22.9,22.9c12.6,0,22.9-10.3,22.9-22.9C75.9,18.2,65.6,7.9,53,7.9z"/>
	</g>
	<g id="XMLID_2394_">
		<path id="XMLID_43_" class="st0" d="M94.5,99.9c-1.4,0-2.5-1.1-2.5-2.5c0-7.5-2.1-14.7-6.2-21c-0.8-1.2-0.4-2.7,0.7-3.5
			c1.2-0.8,2.7-0.4,3.5,0.7c4.6,7,7,15.2,7,23.7C97,98.8,95.9,99.9,94.5,99.9z"/>
	</g>
	<g id="XMLID_2393_">
		<path id="XMLID_42_" class="st0" d="M12.6,99.9c-1.4,0-2.5-1.1-2.5-2.5c0-24,19.5-43.4,43.4-43.4c10.3,0,20.2,3.6,28,10.3
			c1.1,0.9,1.2,2.5,0.3,3.5c-0.9,1.1-2.5,1.2-3.5,0.3c-6.9-5.9-15.7-9.1-24.8-9.1c-21.2,0-38.4,17.2-38.4,38.4
			C15.1,98.8,14,99.9,12.6,99.9z"/>
	</g>
	<g id="XMLID_2392_">
		<path id="XMLID_41_" class="st0" d="M53,104C53,104,53,104,53,104c-0.8,0-1.4-0.5-1.9-1L30.4,78.6c-0.9-1.1-0.8-2.7,0.3-3.6
			c1-0.9,2.6-0.8,3.5,0.3l18.9,22.2l48.4-50c1-1,2.5-1,3.5-0.1c1,1,1,2.5,0.1,3.5l-50.3,52.1C54.3,103.6,53.7,104,53,104z"/>
	</g>
</g>
</svg>
