<?xml version="1.0" encoding="utf-8"?>
<!-- Generator: Adobe Illustrator 19.0.0, SVG Export Plug-In . SVG Version: 6.00 Build 0)  -->
<svg version="1.1" id="图层_1" xmlns="http://www.w3.org/2000/svg" xmlns:xlink="http://www.w3.org/1999/xlink" x="0px" y="0px"
	 viewBox="0 0 106 106" style="enable-background:new 0 0 106 106;" xml:space="preserve">
<style type="text/css">
	.st0{fill:#EC621A;}
</style>
<g id="XMLID_2371_">
	<g id="XMLID_2375_">
		<g id="XMLID_2379_">
			<path id="XMLID_45_" class="st0" d="M52,60.7c-15.4,0-27.9-12.5-27.9-27.9S36.6,4.9,52,4.9s27.9,12.5,27.9,27.9
				S67.4,60.7,52,60.7z M52,9.9c-12.6,0-22.9,10.3-22.9,22.9c0,12.6,10.3,22.9,22.9,22.9c12.6,0,22.9-10.3,22.9-22.9
				C74.9,20.2,64.6,9.9,52,9.9z"/>
		</g>
		<g id="XMLID_2376_">
			<g id="XMLID_2378_">
				<path id="XMLID_44_" class="st0" d="M11.6,101.9c-1.4,0-2.5-1.1-2.5-2.5c0-24,19.5-43.4,43.4-43.4c1.4,0,2.5,1.1,2.5,2.5
					s-1.1,2.5-2.5,2.5c-21.2,0-38.4,17.2-38.4,38.4C14.1,100.8,13,101.9,11.6,101.9z"/>
			</g>
			<g id="XMLID_2377_">
				<path id="XMLID_43_" class="st0" d="M93.5,101.9c-1.4,0-2.5-1.1-2.5-2.5c0-21.2-17.2-38.4-38.4-38.4c-1.4,0-2.5-1.1-2.5-2.5
					s1.1-2.5,2.5-2.5c24,0,43.4,19.5,43.4,43.4C96,100.8,94.9,101.9,93.5,101.9z"/>
			</g>
		</g>
	</g>
	<g id="XMLID_2372_">
		<g id="XMLID_2374_">
			<path id="XMLID_42_" class="st0" d="M67.9,103.3c-0.6,0-1.3-0.2-1.8-0.7L35.8,72c-1-1-1-2.6,0-3.5c1-1,2.6-1,3.5,0L69.7,99
				c1,1,1,2.6,0,3.5C69.2,103,68.5,103.3,67.9,103.3z"/>
		</g>
		<g id="XMLID_2373_">
			<path id="XMLID_41_" class="st0" d="M37.5,103.1c-0.6,0-1.3-0.2-1.8-0.7c-1-1-1-2.6,0-3.5l30.5-30.3c1-1,2.6-1,3.5,0
				c1,1,1,2.6,0,3.5l-30.5,30.3C38.8,102.9,38.1,103.1,37.5,103.1z"/>
		</g>
	</g>
</g>
</svg>
