<?xml version="1.0" encoding="utf-8"?>
<!-- Generator: Adobe Illustrator 19.0.0, SVG Export Plug-In . SVG Version: 6.00 Build 0)  -->
<svg version="1.1" id="图层_1" xmlns="http://www.w3.org/2000/svg" xmlns:xlink="http://www.w3.org/1999/xlink" x="0px" y="0px"
	 viewBox="0 0 36 36" style="enable-background:new 0 0 36 36;" xml:space="preserve">
<style type="text/css">
	.st0{fill:#D585B5;}
</style>
<g id="XMLID_2150_">
	<g id="XMLID_2055_">
		<path id="XMLID_2345_" class="st0" d="M21.5,31.5c-0.3,0-0.5-0.2-0.5-0.5v-9.9c0,0-0.2-0.1-0.5-0.1h-5.6c-0.3,0-0.9,0-0.9,0.1V31
			c0,0.3-0.2,0.5-0.5,0.5S13,31.3,13,31V20.9c0-0.6,0.9-0.9,1.9-0.9h5.6c0.5,0,1.5,0.1,1.5,0.9V31C22,31.3,21.8,31.5,21.5,31.5z"/>
	</g>
	<g id="XMLID_2054_">
		<path id="XMLID_2344_" class="st0" d="M26.7,32H8.3c-1.4,0-2.5-1.1-2.5-2.5v-9.6c0-0.3,0.3-0.6,0.6-0.6s0.6,0.3,0.6,0.6v9.6
			c0,0.7,0.6,1.2,1.2,1.2h18.4c0.7,0,1.2-0.6,1.2-1.2v-9.6c0-0.3,0.3-0.6,0.6-0.6s0.6,0.3,0.6,0.6v9.6C29.2,30.9,28,32,26.7,32z"/>
	</g>
	<g id="XMLID_2053_">
		<path id="XMLID_2343_" class="st0" d="M25.3,5h-16C9,5,8.8,4.8,8.8,4.5S9,4,9.3,4h16c0.3,0,0.5,0.2,0.5,0.5S25.5,5,25.3,5z"/>
	</g>
	<path id="XMLID_2049_" class="st0" d="M27.9,7.5c-0.4-1-1.2-1.3-2.2-1.3l-8-0.2H9.8c-1,0-1.7,0.2-2.2,1.3c0,0-4.4,7.5-4.4,8.1
		c0,1.3,1.3,2.4,3,2.4c1.5,0,2.7-0.9,2.9-2c0.2,1.2,1.4,2.1,2.9,2.1c1.5,0,2.7-0.8,2.9-2c0.2,1.1,1.3,2.1,2.6,2.1h0.1
		c1.3,0,2.4-1,2.6-2.1c0.2,1.2,1.4,2,2.9,2s2.7-0.9,2.9-2.1c0.2,1.2,1.4,2,2.9,2c1.6,0,3-1.1,3-2.4C32,14.9,27.9,7.5,27.9,7.5z
		 M14.3,9h-3c-0.3,0-0.5-0.2-0.5-0.5S11,8,11.3,8h3c0.3,0,0.5,0.2,0.5,0.5S14.5,9,14.3,9z M24.3,9h-8c-0.3,0-0.5-0.2-0.5-0.5
		S16,8,16.3,8h8c0.3,0,0.5,0.2,0.5,0.5S24.5,9,24.3,9z"/>
</g>
</svg>
