<?xml version="1.0" encoding="utf-8"?>
<!-- Generator: Adobe Illustrator 19.0.0, SVG Export Plug-In . SVG Version: 6.00 Build 0)  -->
<svg version="1.1" id="图层_1" xmlns="http://www.w3.org/2000/svg" xmlns:xlink="http://www.w3.org/1999/xlink" x="0px" y="0px"
	 viewBox="0 0 36 36" style="enable-background:new 0 0 36 36;" xml:space="preserve">
<style type="text/css">
	.st0{fill:#E94D18;}
</style>
<g id="XMLID_2149_">
	<path id="XMLID_2051_" class="st0" d="M24.1,6.3c-3.6,0-6.4,2.9-6.5,6.4c0-0.3,0-0.6,0-0.9c0,0.3,0,0.6,0,0.9
		c-0.2-3.6-2.9-6.4-6.5-6.4c-3.7,0-7.5,3-7.5,6.7c0,1.8,0.2,3.7,1.6,5.5l3,3.1c0,0,4.1,4.7,6.9,7.4c1.8,1.7,2.9,2.3,5,0
		c3-3.4,6.9-7.3,6.9-7.3l3-3.2c1.4-1.8,1.6-3.7,1.6-5.5C31.6,9.3,27.9,6.3,24.1,6.3z M12.1,9.4c-3.7-0.7-4.9,2.6-4.9,2.7
		c-0.1,0.2-0.3,0.4-0.5,0.4c-0.1,0-0.1,0-0.2,0c-0.3-0.1-0.4-0.4-0.3-0.7c0,0,1.5-4.3,6.1-3.4c0.3,0.1,0.5,0.3,0.4,0.6
		C12.7,9.2,12.4,9.4,12.1,9.4z"/>
</g>
</svg>
