<?xml version="1.0" encoding="utf-8"?>
<!-- Generator: Adobe Illustrator 19.0.0, SVG Export Plug-In . SVG Version: 6.00 Build 0)  -->
<svg version="1.1" id="图层_1" xmlns="http://www.w3.org/2000/svg" xmlns:xlink="http://www.w3.org/1999/xlink" x="0px" y="0px"
	 viewBox="0 0 48 48" style="enable-background:new 0 0 48 48;" xml:space="preserve">
<style type="text/css">
	.st0{fill:#EB6A86;}
	.st1{fill:#E83C11;}
	.st2{fill:#FFFFFF;}
</style>
<path id="XMLID_2_" class="st0" d="M39.6,7.7L5.2,7.4c-1.8,0-3.3,1.4-3.3,3.3l0,4.2h40.8v6H1.8L1.7,35.1c0,1.8,1.4,3.3,3.3,3.3
	l34.4,0.2c1.8,0,3.3-1.4,3.3-3.3L42.9,11C42.9,9.1,41.4,7.7,39.6,7.7z"/>
<path id="XMLID_2018_" class="st1" d="M12.5,39.7c-0.4-0.1,19,3.3,23.8-13.6l-5.8-3L47,11.9l0.4,19.9L42,29.1
	C42,29.1,34,46.7,12.5,39.7z"/>
<g id="XMLID_2017_">
	<line id="XMLID_5_" class="st2" x1="45.3" y1="22.1" x2="45.4" y2="22.2"/>
	<polyline id="XMLID_4_" class="st2" points="40.5,24.8 42.9,26.1 42.9,26.3 40.4,25 39.1,27.5 39,27.4 40.2,24.9 37.7,23.6 
		37.8,23.5 40.3,24.8 	"/>
	<polygon id="XMLID_3_" class="st2" points="39.3,28.1 38.3,27.6 39.6,25.1 37.1,23.9 37.6,22.8 40,24.1 39,18.9 40.1,18.7 41,23.5 
		45.6,21.4 45.9,22.5 41.2,24.7 43.6,25.9 43.1,26.9 40.6,25.6 	"/>
</g>
</svg>
