<?xml version="1.0" encoding="utf-8"?>
<!-- Generator: Adobe Illustrator 19.0.0, SVG Export Plug-In . SVG Version: 6.00 Build 0)  -->
<svg version="1.1" id="图层_1" xmlns="http://www.w3.org/2000/svg" xmlns:xlink="http://www.w3.org/1999/xlink" x="0px" y="0px"
	 viewBox="0 0 36 36" style="enable-background:new 0 0 36 36;" xml:space="preserve">
<style type="text/css">
	.st0{display:none;}
	.st1{display:inline;}
	.st2{fill:#272728;}
	.st3{fill:none;stroke:#272728;stroke-width:2;stroke-linecap:round;stroke-linejoin:round;stroke-miterlimit:10;}
	.st4{fill:#F1BE1C;}
	.st5{display:inline;fill:#F1BE1C;}
	.st6{fill:#FFFFFF;}
	.st7{fill:#282828;}
	.st8{display:inline;fill:#FB5B46;}
	.st9{display:inline;fill:#282828;}
	.st10{fill:#F5DEFF;}
	.st11{fill:#FFAEFF;}
	.st12{fill:#F9D4FC;}
	.st13{fill:#D2EFFF;}
	.st14{fill:#92D8FF;}
	.st15{fill:#31AEFA;}
	.st16{fill:#F7EDB2;}
	.st17{fill:#FCC505;}
	.st18{fill:#E1F2AA;}
	.st19{fill:#C0E005;}
	.st20{display:inline;fill:#FCC505;}
	.st21{fill:#AAD093;}
	.st22{fill:#9BBB85;}
	.st23{display:inline;fill:none;}
	.st24{display:inline;fill:#9BBB85;}
	.st25{fill:#86A370;}
	.st26{fill:#D880B1;}
	.st27{fill:none;}
	.st28{display:inline;fill:#E594BD;}
	.st29{display:inline;fill:#D880B1;}
	.st30{fill:#FCFCFC;}
	.st31{fill:#C174A8;}
	.st32{fill:#919AA7;}
	.st33{display:inline;fill:#7D838C;}
	.st34{fill:#7D838C;}
	.st35{fill:#646970;}
	.st36{fill:#E3C197;}
	.st37{display:inline;fill:#F6D19B;}
	.st38{display:inline;fill:#E3C197;}
	.st39{fill:#DAB07A;}
	.st40{fill:none;stroke:#282828;stroke-width:2;stroke-linecap:round;stroke-linejoin:round;stroke-miterlimit:10;}
</style>
<g id="XMLID_137_" class="st0">
	<g id="XMLID_149_" class="st1">
		<g id="XMLID_366_">
			<path id="XMLID_6_" class="st2" d="M12,39.4H1.6c-1.5,0-2.8-1.3-2.8-2.8V25.4c0-0.6,0.4-1,1-1s1,0.4,1,1v11.1
				c0,0.4,0.4,0.8,0.8,0.8H12c0.6,0,1,0.4,1,1S12.5,39.4,12,39.4z"/>
		</g>
		<g id="XMLID_150_">
			<path id="XMLID_5_" class="st2" d="M-0.2,14.4c-0.6,0-1-0.4-1-1V3c0-1.5,1.3-2.8,2.8-2.8h10.3c0.6,0,1,0.4,1,1s-0.4,1-1,1H1.6
				C1.2,2.2,0.8,2.5,0.8,3v10.5C0.8,14,0.4,14.4-0.2,14.4z"/>
		</g>
	</g>
	<g id="XMLID_143_" class="st1">
		<g id="XMLID_145_">
			<path id="XMLID_4_" class="st2" d="M35.2,39.4H24.8c-0.6,0-1-0.4-1-1s0.4-1,1-1h10.4c0.4,0,0.8-0.4,0.8-0.8V25.4c0-0.6,0.4-1,1-1
				s1,0.4,1,1v11.1C37.9,38.1,36.7,39.4,35.2,39.4z"/>
		</g>
		<g id="XMLID_144_">
			<path id="XMLID_3_" class="st2" d="M36.9,14.4c-0.6,0-1-0.4-1-1V3c0-0.4-0.4-0.8-0.8-0.8H24.8c-0.6,0-1-0.4-1-1s0.4-1,1-1h10.3
				c1.5,0,2.8,1.3,2.8,2.8v10.5C37.9,14,37.5,14.4,36.9,14.4z"/>
		</g>
	</g>
	<g id="XMLID_141_" class="st1">
		<path id="XMLID_2_" class="st2" d="M39,20H-1c-0.6,0-1-0.4-1-1s0.4-1,1-1h40c0.6,0,1,0.4,1,1S39.6,20,39,20z"/>
	</g>
</g>
<g id="XMLID_385_" class="st0">
	<g id="XMLID_407_" class="st1">
		<path id="XMLID_16_" class="st2" d="M4.7,37.1l2.6-4.3c-5.7-2.9-9.1-7.9-9.1-13.3c0-8.8,9.1-15.9,20.3-15.9
			c11.2,0,20.3,7.1,20.3,15.9s-9.1,15.9-20.3,15.9c-0.7,0-1.5,0-2.4-0.1L4.7,37.1z M18.5,5.6C8.4,5.6,0.2,11.8,0.2,19.5
			c0,4.9,3.4,9.4,9,11.9l1,0.5l-1.5,2.5l7.4-1.2l0.1,0c0.9,0.1,1.7,0.1,2.4,0.1c10.1,0,18.3-6.2,18.3-13.9
			C36.9,11.8,28.7,5.6,18.5,5.6z"/>
	</g>
	<g id="XMLID_395_" class="st1">
		<path id="XMLID_13_" class="st2" d="M7,22.2c-1.6,0-2.8-1.3-2.8-2.8s1.3-2.8,2.8-2.8s2.8,1.3,2.8,2.8S8.6,22.2,7,22.2z M7,18.6
			c-0.4,0-0.8,0.4-0.8,0.8c0,0.4,0.4,0.8,0.8,0.8s0.8-0.4,0.8-0.8C7.8,19,7.5,18.6,7,18.6z"/>
	</g>
	<g id="XMLID_394_" class="st1">
		<path id="XMLID_10_" class="st2" d="M19,22.2c-1.6,0-2.8-1.3-2.8-2.8s1.3-2.8,2.8-2.8c1.6,0,2.8,1.3,2.8,2.8S20.6,22.2,19,22.2z
			 M19,18.6c-0.4,0-0.8,0.4-0.8,0.8c0,0.4,0.4,0.8,0.8,0.8c0.4,0,0.8-0.4,0.8-0.8C19.8,19,19.5,18.6,19,18.6z"/>
	</g>
	<g id="XMLID_386_" class="st1">
		<path id="XMLID_7_" class="st2" d="M31,22.2c-1.6,0-2.8-1.3-2.8-2.8s1.3-2.8,2.8-2.8s2.8,1.3,2.8,2.8S32.6,22.2,31,22.2z M31,18.6
			c-0.4,0-0.8,0.4-0.8,0.8c0,0.4,0.4,0.8,0.8,0.8s0.8-0.4,0.8-0.8C31.8,19,31.5,18.6,31,18.6z"/>
	</g>
</g>
<g id="XMLID_455_" class="st0">
	<g id="XMLID_458_" class="st1">
		<path id="XMLID_49_" class="st2" d="M36.5,21.2c-0.3,0-0.5-0.1-0.7-0.3L19.4,4.3L2.9,20.9c-0.4,0.4-1,0.4-1.4,0
			c-0.4-0.4-0.4-1,0-1.4L18.7,2.2C18.9,2,19.2,2,19.4,2c0,0,0,0,0,0c0.3,0,0.5,0,0.7,0.2l17.1,17.2c0.4,0.4,0.4,1,0,1.4
			C37,21.1,36.7,21.2,36.5,21.2z"/>
	</g>
	<g id="XMLID_457_" class="st1">
		<path id="XMLID_48_" class="st2" d="M29,34.8H9.7c-1.7,0-3-1.3-3-3V19.2c0-0.6,0.4-1,1-1s1,0.4,1,1v12.7c0,0.6,0.4,1,1,1H29
			c0.6,0,1-0.4,1-1V19.2c0-0.6,0.4-1,1-1s1,0.4,1,1v12.7C32,33.5,30.7,34.8,29,34.8z"/>
	</g>
	<g id="XMLID_456_" class="st1">
		<path id="XMLID_45_" class="st2" d="M22,34.1h-5.4c-0.4,0-0.8-0.3-0.8-0.8v-6.5c0-0.4,0.3-0.8,0.8-0.8H22c0.4,0,0.8,0.3,0.8,0.8
			v6.5C22.8,33.7,22.4,34.1,22,34.1z M17.4,32.6h3.9v-5h-3.9V32.6z"/>
	</g>
</g>
<g id="XMLID_554_" class="st0">
	<g id="XMLID_467_" class="st1">
		<g id="XMLID_468_">
			<path id="XMLID_57_" class="st2" d="M22.8,34.4c-5.2,0-9.3-4.2-9.3-9.3s4.2-9.3,9.3-9.3s9.3,4.2,9.3,9.3S28,34.4,22.8,34.4z
				 M22.8,17.7c-4,0-7.3,3.3-7.3,7.3s3.3,7.3,7.3,7.3c4,0,7.3-3.3,7.3-7.3S26.9,17.7,22.8,17.7z"/>
		</g>
	</g>
	<g id="XMLID_465_" class="st1">
		<g id="XMLID_466_">
			<path id="XMLID_52_" class="st2" d="M15,36.3H5.9c-1.8,0-3.3-1.5-3.3-3.3V11.5c0-0.6,0.4-1,1-1h29.8c0.6,0,1,0.4,1,1v6.7
				c0,0.6-0.4,1-1,1s-1-0.4-1-1v-5.7H4.6V33c0,0.7,0.6,1.3,1.3,1.3H15c0.6,0,1,0.4,1,1S15.5,36.3,15,36.3z"/>
		</g>
	</g>
	<g id="XMLID_462_" class="st1">
		<g id="XMLID_463_">
			<path id="XMLID_53_" class="st2" d="M33.5,12.6H3.6c-0.4,0-0.8-0.2-0.9-0.6c-0.2-0.4-0.1-0.8,0.2-1.1l6.4-7.1
				C9.4,3.6,9.7,3.5,10,3.5h17.1c0.3,0,0.6,0.1,0.7,0.3l6.4,7.1c0.3,0.3,0.3,0.7,0.2,1.1C34.2,12.3,33.9,12.6,33.5,12.6z M5.9,10.6
				h25.4l-4.6-5.1H10.4L5.9,10.6z"/>
		</g>
	</g>
	<g id="XMLID_459_" class="st1">
		<g id="XMLID_460_">
			<path id="XMLID_51_" class="st2" d="M7,20.4c-0.1,0-0.3,0-0.4-0.1C6.2,20.1,6,19.8,6,19.4V12c0-0.6,0.4-1,1-1s1,0.4,1,1v5.2
				L9.4,16c0.4-0.3,0.9-0.3,1.3,0l1.3,1.1V12c0-0.6,0.4-1,1-1s1,0.4,1,1v7.3c0,0.4-0.2,0.7-0.6,0.9c-0.4,0.2-0.8,0.1-1.1-0.1l-2.3-2
				l-2.4,2C7.5,20.3,7.2,20.4,7,20.4z"/>
		</g>
	</g>
	<g id="XMLID_521_" class="st1">
		<g id="XMLID_524_">
			<path id="XMLID_185_" class="st3" d="M32.7,36"/>
		</g>
		<g id="XMLID_523_">
			<path id="XMLID_50_" class="st2" d="M32.7,36.2c-0.2,0-0.5-0.1-0.7-0.3l-3.8-3.5c-0.4-0.4-0.4-1-0.1-1.4c0.4-0.4,1-0.4,1.4-0.1
				l3.8,3.5c0.4,0.4,0.4,1,0.1,1.4C33.2,36.1,33,36.2,32.7,36.2z"/>
		</g>
		<g id="XMLID_522_">
			<path id="XMLID_181_" class="st3" d="M28.1,31.7"/>
		</g>
	</g>
</g>
<g id="XMLID_555_" class="st0">
	<g id="XMLID_518_" class="st1">
		<path id="XMLID_65_" class="st2" d="M30,20H9c-0.6,0-1-0.4-1-1s0.4-1,1-1h21c0.6,0,1,0.4,1,1S30.6,20,30,20z"/>
	</g>
	<g id="XMLID_517_" class="st1">
		<path id="XMLID_64_" class="st2" d="M30,26H9c-0.6,0-1-0.4-1-1s0.4-1,1-1h21c0.6,0,1,0.4,1,1S30.6,26,30,26z"/>
	</g>
	<g id="XMLID_516_" class="st1">
		<path id="XMLID_63_" class="st2" d="M30,32H9c-0.6,0-1-0.4-1-1s0.4-1,1-1h21c0.6,0,1,0.4,1,1S30.6,32,30,32z"/>
	</g>
	<g id="XMLID_515_" class="st1">
		<path id="XMLID_62_" class="st2" d="M33.8,12.6c-0.2,0-0.5-0.1-0.6-0.3L29.8,7c-0.2-0.3-0.1-0.8,0.2-1c0.4-0.2,0.8-0.1,1,0.2
			l3.3,5.3c0.2,0.3,0.1,0.8-0.2,1C34,12.6,33.9,12.6,33.8,12.6z"/>
	</g>
	<g id="XMLID_500_" class="st1">
		<path id="XMLID_56_" class="st2" d="M32.9,37H5.8C4.2,37,3,35.7,3,34V7c0-1.7,1.2-3,2.8-3H28c0.6,0,1,0.4,1,1v9h6c0.6,0,1,0.4,1,1
			v19C36,35.7,34.6,37,32.9,37z M5.8,6C5.1,6,5,6.7,5,7v27c0,0.3,0.1,1,0.8,1h27.2c0.6,0,1.1-0.4,1.1-1V16h-6c-0.6,0-1-0.4-1-1V6
			H5.8z"/>
	</g>
</g>
<g id="XMLID_501_" class="st0">
	<g id="XMLID_503_" class="st1">
		<g id="XMLID_513_">
			<path id="XMLID_71_" class="st2" d="M22.4,22.6c-5,0-9.1-4.1-9.1-9.2s4.1-9.2,9.1-9.2c5,0,9.1,4.1,9.1,9.2S27.4,22.6,22.4,22.6z
				 M22.4,6.2c-3.9,0-7.1,3.2-7.1,7.2s3.2,7.2,7.1,7.2c3.9,0,7.1-3.2,7.1-7.2S26.3,6.2,22.4,6.2z"/>
		</g>
		<g id="XMLID_512_">
			<path id="XMLID_69_" class="st2" d="M10,35.6c-0.6,0-1-0.4-1-1c0-7.7,6.2-14.1,13.9-14.1c0.6,0,1,0.4,1,1s-0.4,1-1,1
				C16.4,22.6,11,28,11,34.6C11,35.2,10.6,35.6,10,35.6z"/>
		</g>
		<g id="XMLID_511_">
			<path id="XMLID_68_" class="st2" d="M35.8,35.6c-0.6,0-1-0.4-1-1c0-4.2-2.3-8.1-5.9-10.2c-0.5-0.3-0.6-0.9-0.4-1.4
				c0.3-0.5,0.9-0.6,1.4-0.4c4.2,2.5,6.9,7.1,6.9,12C36.8,35.2,36.3,35.6,35.8,35.6z"/>
		</g>
		<g id="XMLID_505_">
			<g id="XMLID_507_">
				<path id="XMLID_67_" class="st2" d="M13.5,22.4c-0.1,0-0.1,0-0.2,0c-4.3-0.8-7.4-4.6-7.4-9c0-5.1,4.1-9.2,9.1-9.2
					c0.6,0,1,0.4,1,1s-0.4,1-1,1c-3.9,0-7.1,3.2-7.1,7.2c0,3.5,2.4,6.4,5.8,7.1c0.5,0.1,0.9,0.6,0.8,1.2
					C14.4,22.1,14,22.4,13.5,22.4z"/>
			</g>
			<g id="XMLID_506_">
				<path id="XMLID_66_" class="st2" d="M2.6,35.6c-0.6,0-1-0.4-1-1c0-6.9,5.1-13.1,11.6-14.2c0.5-0.1,1.1,0.3,1.1,0.8
					c0.1,0.5-0.3,1.1-0.8,1.1c-5.6,0.9-9.9,6.3-9.9,12.2C3.6,35.2,3.1,35.6,2.6,35.6z"/>
			</g>
		</g>
	</g>
	<g id="XMLID_502_" class="st1">
		<path id="XMLID_148_" class="st3" d="M13.5,21.9"/>
	</g>
</g>
<g id="XMLID_99_" class="st0">
	<g id="XMLID_960_" class="st1">
		<polygon id="XMLID_1015_" class="st4" points="18.4,5 33.4,20 35.5,20 18.4,2.7 1.2,20 3.5,20 		"/>
		<polygon id="XMLID_1016_" class="st4" points="32,20.2 18.4,6.6 4.9,20.2 		"/>
	</g>
	<path id="XMLID_98_" class="st5" d="M7,19v12.8C7,32.9,7.6,34,8.7,34H16v-7h5v7h7c1.1,0,2-1.1,2-2.2V19H7z"/>
</g>
<g id="XMLID_100_" class="st0">
	<g id="XMLID_982_" class="st1">
		<path id="XMLID_983_" class="st4" d="M15,34.3H5.9c-1.3,0-2.3-1-2.3-2.3V11.5h29.8v20.8c0,1.1-0.9,2-2,2H15z"/>
	</g>
	<g id="XMLID_979_" class="st1">
		<path id="XMLID_980_" class="st4" d="M33.5,10.6H3.6L10,3.5h17.1L33.5,10.6z"/>
	</g>
	<g id="XMLID_977_" class="st1">
		<polyline id="XMLID_978_" class="st6" points="13,11 13,18.3 10,15.8 7,18.4 7,11 		"/>
	</g>
	<g id="XMLID_988_" class="st1">
		<path id="XMLID_989_" class="st6" d="M22.8,32.4c-4.6,0-8.3-3.7-8.3-8.3s3.7-8.3,8.3-8.3s8.3,3.7,8.3,8.3S27.4,32.4,22.8,32.4z"/>
	</g>
	<g id="XMLID_984_" class="st1">
		<g id="XMLID_987_">
			<path id="XMLID_381_" class="st6" d="M32.5,34.1"/>
		</g>
		<g id="XMLID_986_">
			<path id="XMLID_374_" class="st6" d="M32.4,34.3c-0.2,0-0.5-0.1-0.7-0.3L28,30.5c-0.4-0.4-0.4-1-0.1-1.4c0.4-0.4,1-0.4,1.4-0.1
				l3.8,3.5c0.4,0.4,0.4,1,0.1,1.4C33,34.2,32.7,34.3,32.4,34.3z"/>
		</g>
		<g id="XMLID_985_">
			<path id="XMLID_377_" class="st6" d="M27.9,29.8"/>
		</g>
	</g>
</g>
<g id="XMLID_101_" class="st0">
	<path id="XMLID_954_" class="st5" d="M28,15V5H5.8C4.7,5,4,5.9,4,7v27c0,1.1,0.7,2,1.8,2h27.2c1.1,0,2.1-0.9,2.1-2V15H28z"/>
	<g id="XMLID_958_" class="st1">
		<path id="XMLID_382_" class="st6" d="M29.7,20h-21c-0.6,0-1-0.4-1-1s0.4-1,1-1h21c0.6,0,1,0.4,1,1S30.3,20,29.7,20z"/>
	</g>
	<g id="XMLID_957_" class="st1">
		<path id="XMLID_379_" class="st6" d="M29.7,26h-21c-0.6,0-1-0.4-1-1s0.4-1,1-1h21c0.6,0,1,0.4,1,1S30.3,26,29.7,26z"/>
	</g>
	<g id="XMLID_956_" class="st1">
		<path id="XMLID_378_" class="st6" d="M29.7,32h-21c-0.6,0-1-0.4-1-1s0.4-1,1-1h21c0.6,0,1,0.4,1,1S30.3,32,29.7,32z"/>
	</g>
	<g id="XMLID_955_" class="st1">
		<path id="XMLID_383_" class="st4" d="M33.8,12.6c-0.2,0-0.5-0.1-0.6-0.3L29.8,7c-0.2-0.3-0.1-0.8,0.2-1c0.3-0.2,0.8-0.1,1,0.2
			l3.3,5.3c0.2,0.3,0.1,0.8-0.2,1C34,12.6,33.9,12.6,33.8,12.6z"/>
	</g>
</g>
<g id="XMLID_482_" class="st0">
	<g id="XMLID_487_" class="st1">
		<path id="XMLID_488_" class="st7" d="M18.1,34.8l-0.9-0.5l0.8-1.5c0.9-1.5,0.9-1.7,2.2-3.1c3.5-4,8.2-8.6,8.3-8.7l3.5-3.7
			c1.5-1.9,1.8-4.1,1.8-6.2c0-4.3-4.4-7.5-8.4-7.5c-4,0-7.1,3.1-7.2,7.2l-0.5,0l-0.5,0C17,6.7,13.9,3.6,10,3.6c-4,0-8.4,3.2-8.4,7.5
			c0,2.1,0.2,4.2,1.8,6.2l3.5,3.7l0,0c0,0,0.8,0.8,2.1,2.1l-0.7,0.7c-1.2-1.3-2.1-2.1-2.1-2.1L2.6,18c-1.8-2.2-2-4.6-2-6.9
			c0-4.9,5-8.5,9.4-8.5c3.6,0,6.6,2.2,7.8,5.5c1.1-3.3,4.1-5.5,7.8-5.5c4.4,0,9.4,3.7,9.4,8.5c0,2.3-0.2,4.6-2,6.9l-3.5,3.8
			c-0.1,0.1-4.8,4.7-8.3,8.6c-1.2,1.3-1.2,1.4-2.1,2.9L18.1,34.8z"/>
	</g>
	<g id="XMLID_483_" class="st1">
		<g id="XMLID_484_">
			<path id="XMLID_485_" class="st7" d="M9.1,27.2h4.6v-4.6h1v4.6h4.6V28h-4.6v5.1h-1V28H9.1V27.2z"/>
		</g>
	</g>
</g>
<g id="XMLID_489_" class="st0">
	<path id="XMLID_490_" class="st8" d="M25.5,3.1c-4.3,0-7.6,3.4-7.7,7.6c0-0.4,0-0.7,0-1.1c0,0.4,0,0.7,0,1.1
		c-0.2-4.3-3.4-7.6-7.7-7.6c-4.4,0-8.9,3.6-8.9,8c0,2.1,0.2,4.4,1.9,6.5l3.5,3.7c0,0,4.7,4.5,8.3,8.5c1.5,1.7,1.2,1.2,3,4.2h0h0
		c1.7-3,1.5-2.5,3-4.2c3.5-4,8.3-8.5,8.3-8.5l3.5-3.7c1.7-2.1,1.9-4.4,1.9-6.5C34.3,6.7,29.9,3.1,25.5,3.1z"/>
</g>
<g id="XMLID_425_" class="st0">
	<path id="XMLID_70_" class="st9" d="M26.1,34.5c-0.2,0-0.4-0.1-0.5-0.2L9.4,18.1c-0.1-0.1-0.2-0.3-0.2-0.5c0-0.2,0.1-0.4,0.2-0.5
		L25.6,1c0.3-0.3,0.8-0.3,1.1,0c0.3,0.3,0.3,0.8,0,1.1L11,17.5l15.7,15.7c0.3,0.3,0.3,0.8,0,1.1C26.5,34.4,26.3,34.5,26.1,34.5z"/>
</g>
<g id="XMLID_44_" class="st0">
	<path id="XMLID_74_" class="st8" d="M25.5,3.1c-4.3,0-7.6,3.4-7.7,7.6c0-0.4,0-0.7,0-1.1c0,0.4,0,0.7,0,1.1
		c-0.2-4.3-3.4-7.6-7.7-7.6c-4.4,0-8.9,3.6-8.9,8c0,2.1,0.2,4.4,1.9,6.5l3.5,3.7c0,0,4.7,4.5,8.3,8.5c1.5,1.7,1.2,1.2,3,4.2h0h0
		c1.7-3,1.5-2.5,3-4.2c3.5-4,8.3-8.5,8.3-8.5l3.5-3.7c1.7-2.1,1.9-4.4,1.9-6.5C34.3,6.7,29.9,3.1,25.5,3.1z"/>
</g>
<g id="XMLID_433_" class="st0">
	<g id="XMLID_435_" class="st1">
		<path id="XMLID_77_" class="st7" d="M29.5,31c-0.1,0-0.3,0-0.4-0.1L5.8,7.5C5.6,7.4,5.6,7,5.8,6.8s0.5-0.2,0.7,0l23.3,23.3
			c0.2,0.2,0.2,0.5,0,0.7C29.8,31,29.7,31,29.5,31z"/>
	</g>
	<g id="XMLID_434_" class="st1">
		<path id="XMLID_76_" class="st7" d="M6.2,30.3c-0.1,0-0.3,0-0.4-0.1c-0.2-0.2-0.2-0.5,0-0.7L29.2,6.1c0.2-0.2,0.5-0.2,0.7,0
			s0.2,0.5,0,0.7L6.5,30.2C6.4,30.3,6.3,30.3,6.2,30.3z"/>
	</g>
</g>
<g id="XMLID_450_" class="st0">
	<g id="XMLID_452_" class="st1">
		<path id="XMLID_94_" class="st7" d="M17.8,26.9c-7.8,0-14.9-6.3-14.9-8.7c0-2.1,6.7-8.5,14.9-8.5c8.2,0,14.9,6.9,14.9,8.5
			C32.7,20.3,25.8,26.9,17.8,26.9z M17.8,11.2c-7.5,0-13.3,5.9-13.5,7.1c0,1.2,5.7,7.2,13.5,7.2c7.3,0,13.2-5.9,13.5-7.2
			C30.8,17.1,25,11.2,17.8,11.2z"/>
	</g>
	<g id="XMLID_451_" class="st1">
		<path id="XMLID_91_" class="st7" d="M18,23.7c-3,0-5.5-2.5-5.5-5.5c0-3,2.5-5.5,5.5-5.5s5.5,2.5,5.5,5.5
			C23.5,21.2,21,23.7,18,23.7z M18,14.1c-2.2,0-4.1,1.8-4.1,4.1s1.8,4.1,4.1,4.1c2.2,0,4.1-1.8,4.1-4.1S20.2,14.1,18,14.1z"/>
	</g>
</g>
<g id="XMLID_454_" class="st0">
	<g id="XMLID_428_" class="st1">
		<g id="XMLID_429_">
			<path class="st7" d="M25.4,26.7c-5.1,5.3-13.6,5.5-18.9,0.4S1,13.5,6.2,8.1s13.6-5.5,18.9-0.4S30.5,21.4,25.4,26.7z M7.6,9.5
				C3.2,14,3.4,21.3,7.9,25.6s11.7,4.2,16.1-0.3s4.2-11.7-0.3-16.1S12,5,7.6,9.5z"/>
		</g>
	</g>
	<g id="XMLID_423_" class="st1">
		<path id="XMLID_97_" class="st7" d="M32.9,32.9c-0.2,0-0.4-0.1-0.6-0.2l-7.4-6.1c-0.4-0.4-0.5-1-0.1-1.4c0.3-0.4,1-0.5,1.4-0.1
			l7.4,6.1c0.4,0.4,0.5,1,0.1,1.4C33.5,32.7,33.2,32.9,32.9,32.9z"/>
	</g>
</g>
<g id="XMLID_421_" class="st0">
	<path id="XMLID_115_" class="st9" d="M11.8,31.7c-0.2,0-0.3-0.1-0.4-0.2c-0.2-0.2-0.2-0.6,0-0.9l13.1-13.1L11.4,4.7
		c-0.2-0.2-0.2-0.6,0-0.9c0.2-0.2,0.6-0.2,0.9,0l13.5,13.3c0.1,0.1,0.2,0.3,0.2,0.4c0,0.2-0.1,0.3-0.2,0.4L12.2,31.5
		C12.1,31.7,12,31.7,11.8,31.7z"/>
</g>
<g id="XMLID_418_" class="st0">
	<path id="XMLID_129_" class="st9" d="M18.3,24c-0.1,0-0.3-0.3-0.4-0.4L6.7,12.3c-0.2-0.2-0.2-0.6,0-0.8s0.5-0.2,0.7,0l10.8,10.8
		L29,11.5c0.2-0.2,0.5-0.2,0.7,0c0.2,0.2,0.2,0.5,0,0.7l-11,11.4C18.5,23.7,18.4,24,18.3,24C18.3,24,18.3,24,18.3,24z"/>
</g>
<g id="XMLID_571_" class="st0">
	<g id="XMLID_564_" class="st1">
		<path id="XMLID_152_" class="st7" d="M28,19H9c-0.3,0-0.5-0.2-0.5-0.5S8.7,18,9,18h19c0.3,0,0.5,0.2,0.5,0.5S28.3,19,28,19z"/>
	</g>
	<g id="XMLID_572_" class="st1">
		<path id="XMLID_151_" class="st7" d="M18.5,28.5c-0.3,0-0.5-0.2-0.5-0.5V9c0-0.3,0.2-0.5,0.5-0.5S19,8.7,19,9v19
			C19,28.3,18.8,28.5,18.5,28.5z"/>
	</g>
</g>
<g id="XMLID_448_" class="st0">
	<g id="XMLID_147_" class="st1">
		<path id="XMLID_157_" class="st7" d="M17.7,24.3c-5.4,0-10.2-4.3-10.2-6c0-1.4,4.6-5.8,10.2-5.8c5.6,0,10.2,4.7,10.2,5.8
			C28,19.8,23.2,24.3,17.7,24.3z M17.7,13.5c-5.1,0-9.1,4-9.2,4.8c0,0.8,3.9,5,9.2,5c5,0,9-4.1,9.2-5C26.7,17.6,22.7,13.5,17.7,13.5
			z"/>
	</g>
	<g id="XMLID_447_" class="st1">
		<path id="XMLID_154_" class="st7" d="M17.9,22.1c-2.1,0-3.8-1.7-3.8-3.8s1.7-3.8,3.8-3.8c2.1,0,3.8,1.7,3.8,3.8S20,22.1,17.9,22.1
			z M17.9,15.5c-1.5,0-2.8,1.2-2.8,2.8c0,1.5,1.2,2.8,2.8,2.8s2.8-1.2,2.8-2.8C20.7,16.8,19.4,15.5,17.9,15.5z"/>
	</g>
</g>
<g id="XMLID_439_" class="st0">
	<path id="XMLID_173_" class="st9" d="M18.6,22c-0.1,0-0.3,0-0.4-0.1l-8-7.9c-0.2-0.2-0.2-0.5,0-0.7s0.5-0.2,0.7,0l7.6,7.6l7.5-7.6
		c0.2-0.2,0.5-0.2,0.7,0c0.2,0.2,0.2,0.5,0,0.7L19,21.9C18.9,22,18.8,22,18.6,22C18.6,22,18.6,22,18.6,22z"/>
</g>
<g id="XMLID_561_" class="st0">
	<g id="XMLID_408_" class="st1">
		<g id="XMLID_388_">
			<path id="XMLID_189_" class="st10" d="M18.6,54.7c-20.4,0-37-16.6-37-37s16.6-37,37-37s37,16.6,37,37S39,54.7,18.6,54.7z
				 M18.6-17.3c-19.3,0-35,15.7-35,35c0,19.3,15.7,35,35,35c19.3,0,35-15.7,35-35C53.6-1.6,37.9-17.3,18.6-17.3z"/>
		</g>
		<g id="XMLID_400_">
			<path class="st10" d="M-17.4,16.3c0,0,13,21.5,37.9,14.5s32.5-2.8,32.5-2.8s-9.1,29.9-40.5,25.3C-16.5,49-17.4,16.3-17.4,16.3z"
				/>
		</g>
	</g>
	<g id="XMLID_396_" class="st1">
		<g id="XMLID_399_">
			<path class="st11" d="M27.6-7.3c0,0-6.1,10.1-8.6,10.3c-3.1,0-8.2-10.6-8.2-10.6L7.2-6.6L14,8.2V11h5.4H23V8.2l7.7-14.9L27.6-7.3
				z"/>
		</g>
		<g id="XMLID_398_">
			<rect x="14.1" y="8.2" class="st12" width="9" height="2.8"/>
		</g>
		<g id="XMLID_397_">
			<path class="st11" d="M15,14C12.5,20,2,36.1-0.4,40.6c-0.4,0.7,7.1-0.4,8.5,0.1s8.3,4.8,12.3,3.6c5.9-1.8,13-4.1,19-4.9
				c1.7-0.2-12-14.4-16.7-25.4H15z"/>
		</g>
	</g>
</g>
<g id="XMLID_560_" class="st0">
	<g id="XMLID_401_" class="st1">
		<path id="XMLID_193_" class="st13" d="M17.5,55.2c-20.4,0-37-16.6-37-37c0-20.4,16.6-37,37-37c20.4,0,37,16.6,37,37
			C54.5,38.6,37.9,55.2,17.5,55.2z M17.5-16.8c-19.3,0-35,15.7-35,35s15.7,35,35,35s35-15.7,35-35S36.8-16.8,17.5-16.8z"/>
	</g>
	<g id="XMLID_188_" class="st1">
		<path class="st13" d="M52.7,25.9c-4,13.7-15.2,28.9-40.8,27.4C-4.3,51.1-14,37.1-17.6,25.9"/>
	</g>
	<g id="XMLID_404_" class="st1">
		<g id="XMLID_412_">
			<path class="st14" d="M31.6,44.3L28.6-9L17.8-5h-0.4L6.5-8.8L3.7,44.4c0,0,4.5,2.7,13.6,2.7C27.6,47.1,31.6,44.3,31.6,44.3z"/>
		</g>
		<g id="XMLID_403_">
			<polygon class="st15" points="18.7,4 17.2,4 17.1,4 15.7,4 9.9,34.8 17.2,42.6 24.5,34.9 			"/>
		</g>
		<g id="XMLID_402_">
			<path class="st15" d="M18.6-2h-1.3h-0.1h-1.3C13.4,2,14,0.7,14,0.7l2,2.3h1.3h1.3l2-2.3C20.4,0.7,21,2,18.6-2z"/>
		</g>
	</g>
</g>
<g id="XMLID_559_" class="st0">
	<g id="XMLID_409_" class="st1">
		<path id="XMLID_196_" class="st16" d="M18,55c-20.4,0-37-16.6-37-37c0-20.4,16.6-37,37-37S55-2.4,55,18C55,38.4,38.4,55,18,55z
			 M18-17C-1.3-17-17-1.3-17,18s15.7,35,35,35c19.3,0,35-15.7,35-35S37.3-17,18-17z"/>
	</g>
	<g id="XMLID_413_" class="st1">
		<path class="st16" d="M13.3-9.7c0,0,4.9,1.2,8.2,6.6c2.8,4.5,6.8,14-5.6,16.6s-2.3,15.8-2.3,15.8s6.4,1.4,8.8,4.8
			S5.1,40.1,5.1,40.1L1.2,28.7C1.2,28.7,2-8.8,13.3-9.7z"/>
	</g>
	<g id="XMLID_411_" class="st1">
		<path class="st16" d="M13.7,33c-8.3,7.4-30.3-7.3-30.3-7.3c2,15.8,20.5,28.1,34.6,28.1c11.6,0,21.8-5.8,28.3-13.8h0c0,0,0,0,0,0
			c1-1.3,3.6-3.6,4.1-6.1C51.8,26.4,32.6,16.3,13.7,33z"/>
	</g>
	<g id="XMLID_410_" class="st1">
		<path class="st17" d="M11.3-12c0,0-16.8,1.9-14.6,21s-0.5,32.2-4.9,34.2C-1,44.6,10.7,30.9,11.3-0.1C13.7-11.8,13.7-12,13.7-12
			H11.3z"/>
	</g>
</g>
<g id="XMLID_557_" class="st0">
	<g id="XMLID_414_" class="st1">
		<path id="XMLID_199_" class="st18" d="M17.7,54.7c-20.4,0-37-16.6-37-37s16.6-37,37-37s37,16.6,37,37S38.1,54.7,17.7,54.7z
			 M17.7-17.3c-19.3,0-35,15.7-35,35c0,19.3,15.7,35,35,35c19.3,0,35-15.7,35-35C52.7-1.6,37-17.3,17.7-17.3z"/>
	</g>
	<g id="XMLID_417_" class="st1">
		<path class="st18" d="M53.7,21.1c0,0-0.5,4.9-1.9,8.2c-6.2,14-16.1,23.2-30.9,24.3C1.1,55.1-14.4,40.7-17.5,25
			c-0.9-4.2,7.9,9.2,14.6,5.3c10.1-6,12.6,3.2,17.5-0.9c5.2-4.3,9.5-2.9,13.4,0.6c3.6,3.2,6.5-4.7,13.1-1.5
			C47.2,31.4,53.8,18.2,53.7,21.1z"/>
	</g>
	<g id="XMLID_416_" class="st1">
		<path class="st19" d="M36.3,3.3L30.9-4c0,0-4.7-2.4-6.9-2.2C23-6.2,22-1,19.3-1c-0.4,0-0.5,0-0.6,0c0,0,0,0,0,0c0,0,0,0,0,0
			c-0.1,0-0.2,0-0.6,0c-2.6,0-3.6-5.2-4.6-5.2c-2.3-0.1-6.9,2.3-6.9,2.3L1.1,3.4l5.1,3.8l1.4-2.1c0,0-0.8,13.9-0.4,14.5
			s11.5,3.1,11.5,3.1s11.1-2.5,11.5-3.1S29.8,5,29.8,5l1.4,2.1L36.3,3.3z"/>
	</g>
	<g id="XMLID_415_" class="st1">
		<polygon class="st6" points="19.1,2.3 20.7,5.5 24.2,6 21.7,8.5 22.3,12 19.1,10.4 16,12 16.6,8.5 14.1,6 17.6,5.5 		"/>
	</g>
	<g id="XMLID_419_" class="st1">
		<polygon class="st19" points="8,25 30,25 30,42 22.7,42 19.1,30.8 14.1,42 8,42 		"/>
	</g>
</g>
<g id="XMLID_218_" class="st0">
	<g id="XMLID_215_" class="st1">
		<polygon id="XMLID_217_" class="st17" points="17.4,3 32.4,18 34.5,18 17.4,0.7 0.2,18 2.5,18 		"/>
		<polygon id="XMLID_216_" class="st17" points="31,18.2 17.4,4.6 3.9,18.2 		"/>
	</g>
	<path id="XMLID_214_" class="st20" d="M6,17v12.8C6,30.9,6.6,32,7.7,32H15v-7h5v7h7c1.1,0,2-1.1,2-2.2V17H6z"/>
</g>
<g id="XMLID_245_" class="st0">
	<g id="XMLID_744_" class="st1">
		<path id="XMLID_745_" class="st21" d="M18-63.1c-45.8,0-83,37.2-83,83c0,45.8,37.2,83,83,83c45.8,0,83-37.2,83-83
			C101-25.8,63.8-63.1,18-63.1z"/>
	</g>
	<g id="XMLID_742_" class="st1">
		<polygon id="XMLID_743_" class="st22" points="34.7,-29.2 34.4,65.1 46.3,-12.9 36,-29.5 		"/>
	</g>
	<path id="XMLID_249_" class="st23" d="M9.7,58.8l39.7-1.5l0.6-74.8l43.8,70.9c4.5-10.3,7.1-21.6,7.1-33.5c0-45.8-37.2-83-83-83
		c-45.8,0-83,37.2-83,83c0,39.7,28.1,73,65.4,81.1L-25,59.5L9.7,58.8z"/>
	<path id="XMLID_250_" class="st24" d="M93.9,53.4L50.1-17.5l-0.6,74.8L9.7,58.8L-25,59.5l25.4,41.6c5.7,1.2,11.5,1.9,17.6,1.9
		C51.8,102.9,81,82.6,93.9,53.4z"/>
	<g id="XMLID_735_" class="st1">
		<polygon id="XMLID_736_" class="st25" points="25.7,-23.7 25.7,-27.4 33,-24.8 33,-22.3 31.8,-21.8 		"/>
	</g>
	<g id="XMLID_733_" class="st1">
		<polygon id="XMLID_734_" class="st25" points="15.3,-24.1 19.2,-26.3 19.3,-22.2 15.3,-20.7 		"/>
	</g>
	<g id="XMLID_731_" class="st1">
		<polygon id="XMLID_732_" class="st25" points="9.8,-21.2 12.8,-22.8 12.8,-19.7 9.8,-18.3 		"/>
	</g>
	<g id="XMLID_729_" class="st1">
		<polyline id="XMLID_730_" class="st6" points="7.8,-20.7 -25,3.6 -25,57.4 -25,57.4 -25,59.5 7.7,59.5 7.9,59.5 7.9,59.5 
			51.5,59.5 51.5,53 50.1,53 50.1,-17.5 36,-23.3 36,53 34.9,53 34.9,-23.1 36,-23.7 36,-29.5 23.2,-35 23.2,-18.1 22,-17.6 
			22,-34.8 7.9,-26.2 7.9,-20.5 		"/>
	</g>
	<g id="XMLID_727_" class="st1">
		<polygon id="XMLID_728_" class="st25" points="-18.6,57 -23.4,57.2 -23.4,48.1 -18.6,46 		"/>
	</g>
	<g id="XMLID_725_" class="st1">
		<polygon id="XMLID_726_" class="st25" points="-18.5,34.3 -23.4,37.1 -23.2,30.5 -18.5,27.2 		"/>
	</g>
	<g id="XMLID_723_" class="st1">
		<polygon id="XMLID_724_" class="st25" points="-13.7,23.9 -7.7,19.7 -7.7,28.7 -13.9,32.2 		"/>
	</g>
	<g id="XMLID_720_" class="st1">
		<polygon id="XMLID_721_" class="st25" points="-7.4,56.8 -13.8,57 -13.8,44.3 -7.4,41.4 		"/>
	</g>
	<g id="XMLID_718_" class="st1">
		<polygon id="XMLID_719_" class="st25" points="4.7,56.3 -2.1,56.6 -2.1,39.9 4.7,36.8 		"/>
	</g>
	<g id="XMLID_716_" class="st1">
		<polygon id="XMLID_717_" class="st25" points="5,22.3 -2.2,26.3 -2.2,16 5,11.1 		"/>
	</g>
	<g id="XMLID_714_" class="st1">
		<path id="XMLID_715_" class="st25" d="M19.3-18.9v2.6l-4,1.7v-2.6C16.6-17.8,17.9-18.4,19.3-18.9z"/>
	</g>
	<g id="XMLID_712_" class="st1">
		<path id="XMLID_713_" class="st25" d="M9.8-14.6c1-0.5,2.1-1,3.1-1.4v2.4l-3.1,1.3V-14.6z"/>
	</g>
	<g id="XMLID_710_" class="st1">
		<polygon id="XMLID_711_" class="st25" points="11.2,-7.3 13,-8.1 13,-4.9 11.2,-4.3 		"/>
	</g>
	<g id="XMLID_708_" class="st1">
		<path id="XMLID_709_" class="st25" d="M11.3-1c0.6-0.2,1.2-0.4,1.8-0.7v3.2c-0.6,0.2-1.2,0.4-1.8,0.6V-1z"/>
	</g>
	<g id="XMLID_706_" class="st1">
		<path id="XMLID_707_" class="st25" d="M11.3,5.3c0.6-0.2,1.2-0.4,1.8-0.6v3.2c-0.6,0.2-1.2,0.3-1.8,0.5V5.3z"/>
	</g>
	<g id="XMLID_704_" class="st1">
		<path id="XMLID_705_" class="st25" d="M11.3,11.6c0.6-0.2,1.2-0.4,1.8-0.6v3.2c-0.6,0.1-1.2,0.3-1.8,0.5V11.6z"/>
	</g>
	<g id="XMLID_702_" class="st1">
		<path id="XMLID_703_" class="st25" d="M11.3,18c0.6-0.2,1.2-0.3,1.8-0.5v3.2c-0.6,0.1-1.2,0.3-1.8,0.4V18z"/>
	</g>
	<g id="XMLID_700_" class="st1">
		<path id="XMLID_701_" class="st25" d="M11.3,24.3c0.6-0.2,1.2-0.3,1.8-0.5V27c-0.6,0.1-1.2,0.2-1.8,0.3V24.3z"/>
	</g>
	<g id="XMLID_698_" class="st1">
		<path id="XMLID_699_" class="st25" d="M11.3,30.6c0.6-0.1,1.2-0.3,1.8-0.4v3.2c-0.6,0.1-1.2,0.2-1.8,0.3V30.6z"/>
	</g>
	<g id="XMLID_696_" class="st1">
		<path id="XMLID_697_" class="st25" d="M11.3,36.9c0.6-0.1,1.2-0.2,1.8-0.3v3.2c-0.6,0.1-1.2,0.2-1.8,0.2V36.9z"/>
	</g>
	<g id="XMLID_694_" class="st1">
		<path id="XMLID_695_" class="st25" d="M11.3,43.3l1.8-0.3v3.2c-0.6,0.1-1.2,0.1-1.8,0.2V43.3z"/>
	</g>
	<g id="XMLID_692_" class="st1">
		<path id="XMLID_693_" class="st25" d="M13.2,52.5c-0.6,0-1.2,0.1-1.8,0.1v-3c0.6-0.1,1.2-0.2,1.8-0.2V52.5z"/>
	</g>
	<g id="XMLID_690_" class="st1">
		<polygon id="XMLID_691_" class="st25" points="15.2,-8.9 17.3,-9.7 17.3,-6.4 15.2,-5.6 		"/>
	</g>
	<g id="XMLID_688_" class="st1">
		<path id="XMLID_689_" class="st25" d="M15.2-2.4c0.7-0.3,1.4-0.5,2.1-0.8v3.4c-0.7,0.2-1.4,0.4-2.1,0.7V-2.4z"/>
	</g>
	<g id="XMLID_686_" class="st1">
		<path id="XMLID_687_" class="st25" d="M15.2,4c0.7-0.2,1.4-0.5,2.1-0.7v3.4c-0.7,0.2-1.4,0.4-2.1,0.6V4z"/>
	</g>
	<g id="XMLID_684_" class="st1">
		<path id="XMLID_685_" class="st25" d="M15.2,10.4l2.1-0.7v3.4c-0.7,0.2-1.4,0.3-2.1,0.5V10.4z"/>
	</g>
	<g id="XMLID_682_" class="st1">
		<path id="XMLID_683_" class="st25" d="M15.2,16.9c0.7-0.2,1.4-0.4,2.1-0.6v3.4l-2.1,0.5V16.9z"/>
	</g>
	<g id="XMLID_680_" class="st1">
		<polygon id="XMLID_681_" class="st25" points="15.2,23.3 17.3,22.8 17.3,26.1 15.2,26.5 		"/>
	</g>
	<g id="XMLID_678_" class="st1">
		<path id="XMLID_679_" class="st25" d="M15.2,29.7c0.7-0.2,1.4-0.3,2.1-0.5v3.4c-0.7,0.1-1.4,0.2-2.1,0.3V29.7z"/>
	</g>
	<g id="XMLID_676_" class="st1">
		<path id="XMLID_677_" class="st25" d="M15.2,36.2c0.7-0.1,1.4-0.3,2.1-0.4v3.4c-0.7,0.1-1.4,0.2-2.1,0.3V36.2z"/>
	</g>
	<g id="XMLID_674_" class="st1">
		<path id="XMLID_675_" class="st25" d="M17.3,42.3v3.4c-0.7,0.1-1.4,0.1-2.1,0.2v-3.2C15.9,42.5,16.6,42.4,17.3,42.3z"/>
	</g>
	<g id="XMLID_672_" class="st1">
		<path id="XMLID_673_" class="st25" d="M17.3,52.2c-0.7,0-1.4,0.1-2.1,0.1V49c0.7-0.1,1.4-0.2,2.1-0.3V52.2z"/>
	</g>
	<g id="XMLID_670_" class="st1">
		<path id="XMLID_671_" class="st25" d="M22.6,51.7c-1,0.1-1.9,0.1-2.9,0.2v-3.5c1-0.1,1.9-0.3,2.9-0.4V51.7z"/>
	</g>
	<g id="XMLID_668_" class="st1">
		<path id="XMLID_669_" class="st25" d="M22.6,45.1c-1,0.1-1.9,0.2-2.9,0.3v-3.5c1-0.2,1.9-0.3,2.9-0.5V45.1z"/>
	</g>
	<g id="XMLID_666_" class="st1">
		<path id="XMLID_667_" class="st25" d="M22.6,38.4c-1,0.1-1.9,0.2-2.9,0.4v-3.5c1-0.2,1.9-0.4,2.9-0.6V38.4z"/>
	</g>
	<g id="XMLID_664_" class="st1">
		<path id="XMLID_665_" class="st25" d="M22.6,31.7c-1,0.2-1.9,0.3-2.9,0.5v-3.5c1-0.2,1.9-0.4,2.9-0.6V31.7z"/>
	</g>
	<g id="XMLID_662_" class="st1">
		<path id="XMLID_663_" class="st25" d="M22.6,25.1c-1,0.2-1.9,0.4-2.9,0.5v-3.5c1-0.2,1.9-0.5,2.9-0.7V25.1z"/>
	</g>
	<g id="XMLID_660_" class="st1">
		<path id="XMLID_661_" class="st25" d="M22.6,18.4c-1,0.2-1.9,0.4-2.9,0.6v-3.5c1-0.3,1.9-0.5,2.9-0.8V18.4z"/>
	</g>
	<g id="XMLID_658_" class="st1">
		<path id="XMLID_659_" class="st25" d="M22.6,11.8c-1,0.2-1.9,0.5-2.9,0.7V9c1-0.3,1.9-0.6,2.9-0.9V11.8z"/>
	</g>
	<g id="XMLID_656_" class="st1">
		<path id="XMLID_657_" class="st25" d="M22.7,5.1c-1,0.3-1.9,0.5-2.9,0.8V2.4c1-0.3,1.9-0.7,2.9-1V5.1z"/>
	</g>
	<g id="XMLID_654_" class="st1">
		<path id="XMLID_655_" class="st25" d="M22.7-1.6c-1,0.3-1.9,0.6-2.9,0.9v-3.5c1-0.4,1.9-0.7,2.9-1.1V-1.6z"/>
	</g>
	<g id="XMLID_652_" class="st1">
		<polygon id="XMLID_653_" class="st25" points="22.7,-8.2 19.8,-7.2 19.8,-10.7 22.7,-11.9 		"/>
	</g>
	<g id="XMLID_650_" class="st1">
		<path id="XMLID_651_" class="st25" d="M48.3,51.8c-3.4,0.1-6.9,0.1-10.3,0.2v-3.5c3.4,0.1,6.9,0.2,10.3,0.3V51.8z"/>
	</g>
	<g id="XMLID_648_" class="st1">
		<path id="XMLID_649_" class="st25" d="M48.3,43.3c-3.4-0.1-6.9-0.3-10.3-0.4v-3.5c3.4,0.3,6.9,0.6,10.3,0.9V43.3z"/>
	</g>
	<g id="XMLID_646_" class="st1">
		<path id="XMLID_647_" class="st25" d="M48.3,34.7c-3.4-0.3-6.9-0.6-10.3-1v-3.5c3.4,0.5,6.9,0.9,10.3,1.4V34.7z"/>
	</g>
	<g id="XMLID_644_" class="st1">
		<path id="XMLID_645_" class="st25" d="M48.3,26.2c-3.4-0.5-6.9-1-10.3-1.5v-3.5c3.4,0.6,6.9,1.3,10.3,1.9V26.2z"/>
	</g>
	<g id="XMLID_642_" class="st1">
		<path id="XMLID_643_" class="st25" d="M48.3,17.7c-3.4-0.7-6.9-1.4-10.3-2.1v-3.5c3.4,0.8,6.9,1.6,10.3,2.4V17.7z"/>
	</g>
	<g id="XMLID_640_" class="st1">
		<path id="XMLID_641_" class="st25" d="M48.3,9.1C44.8,8.2,41.4,7.4,38,6.5V2.9c3.4,1,6.9,2,10.3,3V9.1z"/>
	</g>
	<g id="XMLID_638_" class="st1">
		<path id="XMLID_639_" class="st25" d="M48.3,0.6C44.8-0.5,41.4-1.5,38-2.6v-3.5c3.4,1.2,6.9,2.3,10.3,3.5V0.6z"/>
	</g>
	<g id="XMLID_636_" class="st1">
		<polygon id="XMLID_637_" class="st25" points="48.3,-8 38,-11.7 38,-15.3 48.3,-11.2 		"/>
	</g>
	<g id="XMLID_626_" class="st1">
		<g id="XMLID_634_">
			<polygon id="XMLID_635_" class="st25" points="-13.7,23.9 -7.7,19.7 -7.7,28.7 -13.9,32.2 			"/>
		</g>
		<g id="XMLID_632_">
			<polygon id="XMLID_633_" class="st25" points="-7.4,56.8 -13.8,57 -13.8,44.3 -7.4,41.4 			"/>
		</g>
		<g id="XMLID_630_">
			<polygon id="XMLID_631_" class="st25" points="4.7,56.3 -2.1,56.6 -2.1,39.9 4.7,36.8 			"/>
		</g>
		<g id="XMLID_627_">
			<polygon id="XMLID_628_" class="st25" points="5,22.3 -2.2,26.3 -2.2,16 5,11.1 			"/>
		</g>
	</g>
	<g id="XMLID_586_" class="st1">
		<path id="XMLID_622_" class="st25" d="M29.1-25.5H28c0.1,0.1,0.4,0.2,0.9,0.4c-0.1,0.1-0.2,0.3-0.4,0.6h0.8v0.9h-1.6v0.5h1.4v0.9
			h-1.4v1.9c0,0.2-0.1,0.4-0.2,0.6c-0.1,0.1-0.3,0.2-0.4,0.3s-0.5,0.1-1,0.1c0-0.3-0.1-0.6-0.2-0.9l-0.2,0.4
			c-0.2-0.1-0.5-0.3-0.9-0.4c0.3-0.5,0.5-1.1,0.7-1.8l0.9,0.3c-0.1,0.5-0.3,1-0.5,1.4c0.1,0,0.3,0,0.4,0c0.2,0,0.3-0.1,0.3-0.4v-1.5
			h-1.5v-0.9h1.5v-0.5h-1.6v-0.9h0.9c-0.1-0.2-0.2-0.4-0.3-0.6l0.9-0.4c0.2,0.4,0.4,0.7,0.5,1h0.4c0.3-0.4,0.4-0.8,0.5-1h-2.7v-0.9
			h1.4c-0.1-0.2-0.1-0.4-0.2-0.5l1.1-0.2c0.1,0.2,0.2,0.5,0.2,0.7h1.3V-25.5z M33-23.4h-0.6v4.2h-1.1v-4.2h-0.7v0.5
			c0,1.7-0.4,3-1.1,3.9c-0.4-0.3-0.7-0.6-1-0.8c0.3-0.3,0.5-0.6,0.7-1l-0.8,0.5c-0.2-0.4-0.4-0.8-0.6-1.2l0.8-0.4
			c0.2,0.3,0.4,0.6,0.7,1.1c0.2-0.5,0.3-1.2,0.3-1.9v-3.6c1.2-0.1,2.2-0.3,3-0.6l0.5,1c-0.7,0.2-1.5,0.3-2.4,0.4v1.1H33V-23.4z"/>
		<path id="XMLID_614_" class="st25" d="M25.7-14.6c0.3,0.1,0.6,0.2,0.9,0.3c-0.1,0.8-0.3,1.9-0.6,3.1c-0.3-0.1-0.7-0.2-1-0.3
			C25.3-12.1,25.5-13.2,25.7-14.6z M25.7-16.8c0.5,0.4,0.8,0.7,1.1,0.9l-0.7,0.8c-0.4-0.4-0.7-0.7-1-1L25.7-16.8z M26.6-13.2h1.2
			v-0.4h-1V-17h1v-0.4h-1.2v-0.5L26-17.3c-0.3-0.3-0.6-0.7-0.9-1l0.6-0.6c0.4,0.3,0.7,0.6,0.9,0.8v-0.2h1.2V-19h0.9v0.7h1.1v0.9
			h-1.1v0.4h0.9v3.4h-0.9v0.4h1.1v0.7c0.2-0.6,0.2-1.3,0.2-2.1v-4.1h2.6v6.7c0,0.6-0.3,0.9-0.8,0.9c-0.3,0-0.6,0-0.9,0
			c-0.1-0.3-0.1-0.6-0.2-0.9c0.2,0,0.4,0,0.7,0c0.2,0,0.3-0.1,0.3-0.3v-1.4H31c0,1.2-0.3,2.2-0.6,2.8c-0.3-0.2-0.6-0.4-0.9-0.6
			c0.1-0.2,0.3-0.5,0.4-0.8h-1v1.2h-0.9v-1.2h-1.2V-13.2z M28.9-16.2h-1.2v0.5h1.2V-16.2z M28.9-14.5V-15h-1.2v0.5H28.9z M31.8-17.8
			H31v1.1h0.8V-17.8z M31-14.7h0.8v-1.2H31V-14.7z"/>
		<path id="XMLID_609_" class="st25" d="M25-9h1.6v-0.8h-1.3v-0.9h1.3v-0.8h1v0.8h0.8v0.7c0.2-0.3,0.4-0.5,0.5-0.8l0.8,0.5v-0.8h3.1
			v0.8c-0.3,0.8-0.5,1.5-0.8,2.2C32.7-7.6,33-6.8,33-6c0,0.4-0.1,0.8-0.3,1c-0.2,0.3-0.7,0.4-1.5,0.4c0-0.4-0.1-0.8-0.2-1.2
			c0.2,0,0.4,0,0.5,0c0.3,0,0.5-0.1,0.5-0.4c0-0.7-0.3-1.3-0.9-1.9c0.3-0.7,0.6-1.4,0.8-2.1h-1v6.6h-1v-6.6
			c-0.3,0.5-0.6,0.9-0.9,1.3h0.7v0.9h-1.5c-0.2,0.2-0.4,0.4-0.6,0.6h1.8v3.9h-1V-4h-1.6v0.3h-1v-2.6c-0.2,0.1-0.4,0.2-0.6,0.3
			C25.1-6.4,25-6.7,25-7c0.6-0.3,1.2-0.7,1.7-1.1H25V-9z M28.3-6.7h-1.6v0.6h1.6V-6.7z M26.7-4.8h1.6v-0.6h-1.6V-4.8z M28.3-9.8
			h-0.7V-9C27.9-9.3,28.1-9.5,28.3-9.8z"/>
		<path id="XMLID_605_" class="st25" d="M27.2-1.7l0.7,1.5c0.2-0.5,0.4-1,0.6-1.5L29-1.5l0.4-0.2l0.6,1.4c0.2-0.5,0.4-1,0.6-1.5
			l0.9,0.4c-0.3,0.8-0.6,1.6-0.9,2.3l0.8,1.9l-0.9,0.4l-0.5-1.2c-0.3,0.5-0.5,1-0.8,1.5c-0.1-0.1-0.2-0.2-0.4-0.3l-0.4,0.2L27.9,2
			c-0.3,0.6-0.6,1.1-1,1.6c-0.1-0.1-0.3-0.3-0.5-0.4v1.3h-1.1V-3h7.3v6.2c0,0.4-0.1,0.7-0.2,1c-0.2,0.2-0.4,0.4-0.7,0.4
			c-0.3,0-0.8,0.1-1.6,0.1c-0.1-0.4-0.2-0.8-0.2-1.1c0.4,0,0.8,0.1,1.2,0.1c0.3,0,0.5-0.2,0.5-0.5v-5h-5.1v0.7L27.2-1.7z M26.4-1.1
			v3.7c0.3-0.5,0.6-1.1,0.9-1.7C27,0.2,26.7-0.5,26.4-1.1z M29-0.4c-0.2,0.5-0.4,0.9-0.6,1.4L29,2.1c0.2-0.4,0.4-0.8,0.6-1.2L29-0.4
			z"/>
		<path id="XMLID_598_" class="st25" d="M26.2,7.4c0.2,0,0.4,0,0.5,0c0.2-0.4,0.4-0.8,0.6-1.2l0.9,0.4c-0.5,0.9-1.1,1.9-1.7,2.8
			c0.4-0.1,0.8-0.1,1.3-0.2c0,0.4-0.1,0.7-0.1,1c-1.1,0.1-1.9,0.3-2.3,0.4l-0.3-0.9c0.3-0.3,0.6-0.7,1-1.4c-0.3,0-0.6,0-0.8,0.1
			L25,7.5c0.4-0.5,0.8-1.3,1.4-2.6l1,0.4C27,6,26.6,6.7,26.2,7.4z M25.2,12.4L25,11.2c0.7-0.1,1.7-0.2,3-0.4c0,0.4,0,0.8,0,1.1
			C26.8,12.1,25.9,12.2,25.2,12.4z M28.1,7.1c0.6-0.7,1.1-1.4,1.5-2.2l1.1,0.2c-0.1,0.2-0.2,0.4-0.4,0.6h2.3v1
			c-0.3,0.6-0.7,1.1-1.3,1.5c0.5,0.2,1,0.3,1.6,0.4c-0.1,0.4-0.2,0.7-0.2,1c-1-0.2-1.7-0.5-2.4-0.8c-0.7,0.3-1.4,0.6-2.3,0.8
			c-0.1-0.4-0.3-0.7-0.4-1c0.7-0.1,1.3-0.3,1.8-0.5c-0.2-0.2-0.4-0.4-0.5-0.6c-0.1,0.1-0.2,0.2-0.3,0.3C28.5,7.7,28.3,7.4,28.1,7.1z
			 M28.3,12.8V9.6h4.1v3.2h-1v-0.4h-2.1v0.4H28.3z M31.4,10.6h-2.1v0.9h2.1V10.6z M29.7,6.6c0,0.1-0.1,0.1-0.2,0.2
			c0.2,0.3,0.5,0.6,0.8,0.8c0.4-0.3,0.8-0.6,1-1H29.7z"/>
		<path id="XMLID_594_" class="st25" d="M25,14.6h0.8v-1.4h1v1.4h0.6v1h-0.6v1.2c0.2-0.1,0.4-0.1,0.6-0.2c0,0.4,0,0.8,0,1.1
			l-0.6,0.2V20c0,0.3-0.1,0.5-0.2,0.7c-0.1,0.2-0.3,0.3-0.6,0.3c-0.3,0-0.6,0-0.9,0c0-0.3-0.1-0.7-0.2-1h0.6c0.1,0,0.2-0.1,0.2-0.3
			v-1.5l-0.8,0.2L25,17.2l0.8-0.2v-1.4H25V14.6z M28.9,13.3v2.3h0.9v1.1h-0.9v2.7c0.3-0.1,0.6-0.3,0.8-0.4c0,0.5,0,0.8,0.1,1.1
			c-1,0.4-1.6,0.7-1.8,0.9L27.4,20c0.3-0.2,0.4-0.5,0.4-0.9v-5.8H28.9z M32.2,14.6l0.7,0.9c-0.6,0.6-1.2,1.2-1.9,1.8v2.2
			c0,0.2,0.1,0.3,0.3,0.3h0.2c0.1,0,0.2-0.1,0.2-0.2c0.1-0.1,0.1-0.7,0.2-1.8l1,0.3c-0.1,0.7-0.1,1.3-0.2,1.6
			c-0.1,0.3-0.2,0.6-0.4,0.8c-0.2,0.2-0.5,0.3-0.8,0.3h-0.5c-0.8,0-1.1-0.4-1.1-1.2v-6.4h1.1v2.6C31.4,15.5,31.8,15.1,32.2,14.6z"/>
		<path id="XMLID_590_" class="st25" d="M32.1,25.5c-0.4,0.7-0.9,1.3-1.6,1.9c0.6,0.3,1.4,0.5,2.4,0.6c-0.2,0.4-0.5,0.8-0.7,1.2
			c-1.1-0.2-2-0.6-2.8-1.1c-0.8,0.5-1.7,0.9-2.8,1.2c-0.2-0.4-0.4-0.7-0.6-1c0.9-0.3,1.7-0.5,2.4-0.9c-0.4-0.4-0.7-0.8-1.1-1.3
			c-0.6,1-1.3,1.8-2.1,2.5c-0.1-0.5-0.2-0.9-0.4-1.3c1-1,1.8-2.1,2.3-3.4h-2v-1c0.1-0.4,0.3-0.9,0.4-1.4l1.1,0.1
			c-0.1,0.3-0.2,0.7-0.3,1.2h1.2c0.1-0.5,0.2-1,0.4-1.6l1.2,0.1l-0.3,1.5h2.2c-0.3-0.3-0.6-0.6-0.9-0.9l0.7-0.7
			c0.5,0.4,0.9,0.7,1.3,1l-0.5,0.5H33v1h-4.4c-0.1,0.2-0.2,0.5-0.3,0.7h3.9V25.5z M29.5,26.8c0.6-0.4,1-0.8,1.3-1.3h-2.4
			C28.7,26,29,26.4,29.5,26.8z"/>
		<path id="XMLID_587_" class="st25" d="M30,34.8c0,0.7-0.3,1.1-0.8,1.1c-0.2,0-0.5,0-0.8,0c0-0.1-0.1-0.3-0.1-0.5
			c-0.1,0.8-0.3,1.5-0.7,2c-0.3-0.3-0.6-0.6-0.8-0.8c0.2-0.3,0.3-0.6,0.4-1c-0.7,0.2-1.3,0.4-2.1,0.7L25,35.2
			c0.3-0.1,0.5-0.1,0.8-0.2v-2.5h-0.6v-1h0.6v-1.9h1v1.9h0.6v1h-0.6v2.2c0.2-0.1,0.4-0.1,0.5-0.2c0,0.3,0,0.7,0,1.1
			c0.2-0.6,0.3-1.3,0.3-2.1v-2.7h2.7c0-0.4,0-0.8,0-1.3h1c0,0.5,0,0.9,0,1.3h0.8c-0.2-0.3-0.5-0.6-0.7-0.9l0.7-0.4
			c0.3,0.3,0.6,0.6,0.8,1l-0.6,0.4H33v1h-1.8c0,0.8,0.1,1.5,0.1,2.1c0.2-0.5,0.5-1,0.6-1.5l1,0.5c-0.4,1-0.9,1.8-1.4,2.6
			c0.1,0.5,0.3,0.8,0.4,0.8c0.1,0,0.2-0.5,0.3-1.4c0.3,0.2,0.6,0.3,0.9,0.4c-0.1,0.7-0.2,1.2-0.3,1.6c-0.1,0.4-0.4,0.6-0.8,0.6
			c-0.5,0-0.9-0.3-1.1-1c-0.4,0.4-0.7,0.8-1.1,1.1c-0.2-0.3-0.5-0.6-0.7-0.8c0.5-0.4,1-0.9,1.5-1.5c-0.1-0.8-0.2-1.9-0.3-3.4h-1.8
			v0.9H30C30,33.3,30,34,30,34.8z M28.4,35c0.1,0,0.2,0,0.3,0c0.2,0,0.4-0.1,0.4-0.4c0-0.3,0-0.6,0-1h-0.6
			C28.4,34.2,28.4,34.6,28.4,35z"/>
	</g>
	<g id="XMLID_584_" class="st1">
		<polygon id="XMLID_585_" class="st25" points="-18.5,13.5 -23.4,16.3 -23.2,9.7 -18.5,6.4 		"/>
	</g>
	<g id="XMLID_582_" class="st1">
		<polygon id="XMLID_583_" class="st25" points="-13.7,3.1 -7.7,-1.1 -7.7,7.9 -13.9,11.4 		"/>
	</g>
	<g id="XMLID_580_" class="st1">
		<polygon id="XMLID_581_" class="st25" points="5,1.5 -2.2,5.5 -2.2,-4.8 5,-9.7 		"/>
	</g>
</g>
<g id="XMLID_740_" class="st0">
	<g id="XMLID_889_" class="st1">
		<polygon id="XMLID_890_" class="st26" points="13.4,10.3 12.4,17.8 13.4,24.3 22.3,26 24.5,24.7 15,9.4 		"/>
	</g>
	<g id="XMLID_885_" class="st1">
		<polygon id="XMLID_886_" class="st27" points="52.6,-7.9 51.8,-1.7 52.6,3.7 60,5.1 61.7,4 53.9,-8.6 		"/>
	</g>
	<g id="XMLID_883_" class="st1">
		<polygon id="XMLID_884_" class="st26" points="35,-25.8 33,-11.1 35,1.5 52.3,4.9 56.5,2.3 38.1,-27.6 		"/>
	</g>
	<path id="XMLID_741_" class="st28" d="M49.3,55.4l2.3-0.9l6.6-57.7l35.1,56.8c5.2-10.9,8.2-23,8.2-35.9c0-45.8-37.2-83-83-83
		c-45.8,0-83,37.2-83,83c0,40.9,29.7,74.9,68.7,81.7l-26.6-43.2C-22.5,56.3,47,56.1,49.3,55.4z"/>
	<path id="XMLID_882_" class="st29" d="M93.3,53.6L58.2-3.2l-6.6,57.7l-2.3,0.9c-2.3,0.7-71.8,0.9-71.8,0.9L4.1,99.4
		c4.7,0.8,9.4,1.3,14.3,1.3C51.3,100.7,79.9,81.4,93.3,53.6z"/>
	<g id="XMLID_879_" class="st1">
		<path id="XMLID_880_" class="st27" d="M18.4-65.3c-45.8,0-83,37.2-83,83c0,45.8,37.2,83,83,83c45.8,0,83-37.2,83-83
			C101.4-28.1,64.2-65.3,18.4-65.3z"/>
	</g>
	<g id="XMLID_876_" class="st1">
		<rect id="XMLID_877_" x="-12.2" y="-27.5" class="st30" width="50.2" height="59.2"/>
	</g>
	<g id="XMLID_874_" class="st1">
		<rect id="XMLID_875_" x="-22.5" y="-4.2" class="st30" width="10.3" height="60.5"/>
	</g>
	<g id="XMLID_872_" class="st1">
		<rect id="XMLID_873_" x="38.1" y="-3.2" class="st30" width="20.1" height="51.6"/>
	</g>
	<g id="XMLID_870_" class="st1">
		<rect id="XMLID_871_" x="42.3" y="-8.6" class="st30" width="11.6" height="5.5"/>
	</g>
	<g id="XMLID_868_" class="st1">
		<rect id="XMLID_869_" x="-2.1" y="35.2" class="st30" width="10.2" height="21"/>
	</g>
	<g id="XMLID_866_" class="st1">
		<rect id="XMLID_867_" x="17.9" y="35.2" class="st30" width="10.2" height="21"/>
	</g>
	<g id="XMLID_780_" class="st1">
		<g id="XMLID_864_">
			<rect id="XMLID_865_" x="38.1" y="48.4" class="st31" width="22.9" height="7.9"/>
		</g>
		<g id="XMLID_862_">
			<rect id="XMLID_863_" x="41.8" y="0.2" class="st31" width="12.9" height="5.1"/>
		</g>
		<g id="XMLID_860_">
			<rect id="XMLID_861_" x="41.8" y="9.5" class="st31" width="12.9" height="5.1"/>
		</g>
		<g id="XMLID_858_">
			<rect id="XMLID_859_" x="41.8" y="18.8" class="st31" width="12.9" height="5.1"/>
		</g>
		<g id="XMLID_856_">
			<rect id="XMLID_857_" x="41.8" y="28" class="st31" width="12.9" height="5.1"/>
		</g>
		<g id="XMLID_854_">
			<rect id="XMLID_855_" x="41.8" y="37.3" class="st31" width="12.9" height="5.1"/>
		</g>
		<g id="XMLID_852_">
			<rect id="XMLID_853_" x="-7.8" y="-23.5" class="st31" width="3.3" height="5.1"/>
		</g>
		<g id="XMLID_850_">
			<rect id="XMLID_851_" x="-7.8" y="-14.2" class="st31" width="3.3" height="5.1"/>
		</g>
		<g id="XMLID_848_">
			<rect id="XMLID_849_" x="-7.8" y="-5" class="st31" width="3.3" height="5.1"/>
		</g>
		<g id="XMLID_846_">
			<rect id="XMLID_847_" x="-7.8" y="4.3" class="st31" width="3.3" height="5.1"/>
		</g>
		<g id="XMLID_844_">
			<rect id="XMLID_845_" x="-7.8" y="13.6" class="st31" width="3.3" height="5.1"/>
		</g>
		<g id="XMLID_831_">
			<g id="XMLID_842_">
				<rect id="XMLID_843_" x="-18.8" y="0.4" class="st31" width="3.3" height="5.1"/>
			</g>
			<g id="XMLID_840_">
				<rect id="XMLID_841_" x="-18.8" y="9.7" class="st31" width="3.3" height="5.1"/>
			</g>
			<g id="XMLID_838_">
				<rect id="XMLID_839_" x="-18.8" y="18.9" class="st31" width="3.3" height="5.1"/>
			</g>
			<g id="XMLID_836_">
				<rect id="XMLID_837_" x="-18.8" y="28.2" class="st31" width="3.3" height="5.1"/>
			</g>
			<g id="XMLID_834_">
				<rect id="XMLID_835_" x="-18.8" y="37.5" class="st31" width="3.3" height="5.1"/>
			</g>
			<g id="XMLID_832_">
				<rect id="XMLID_833_" x="-18.8" y="46.5" class="st31" width="3.3" height="5.1"/>
			</g>
		</g>
		<g id="XMLID_829_">
			<rect id="XMLID_830_" x="-0.7" y="-23.5" class="st31" width="8.2" height="5.1"/>
		</g>
		<g id="XMLID_827_">
			<rect id="XMLID_828_" x="-0.7" y="-14.2" class="st31" width="8.2" height="5.1"/>
		</g>
		<g id="XMLID_825_">
			<rect id="XMLID_826_" x="-0.7" y="-5" class="st31" width="8.2" height="5.1"/>
		</g>
		<g id="XMLID_823_">
			<rect id="XMLID_824_" x="-0.7" y="4.3" class="st31" width="8.2" height="5.1"/>
		</g>
		<g id="XMLID_821_">
			<rect id="XMLID_822_" x="-0.7" y="13.6" class="st31" width="8.2" height="5.1"/>
		</g>
		<g id="XMLID_819_">
			<rect id="XMLID_820_" x="30.4" y="-23.5" class="st31" width="3.3" height="5.1"/>
		</g>
		<g id="XMLID_817_">
			<rect id="XMLID_818_" x="30.4" y="-14.2" class="st31" width="3.3" height="5.1"/>
		</g>
		<g id="XMLID_815_">
			<rect id="XMLID_816_" x="30.4" y="-5" class="st31" width="3.3" height="5.1"/>
		</g>
		<g id="XMLID_813_">
			<rect id="XMLID_814_" x="30.4" y="4.3" class="st31" width="3.3" height="5.1"/>
		</g>
		<g id="XMLID_811_">
			<rect id="XMLID_812_" x="30.4" y="13.6" class="st31" width="3.3" height="5.1"/>
		</g>
		<g id="XMLID_809_">
			<rect id="XMLID_810_" x="18.4" y="-23.5" class="st31" width="8.2" height="5.1"/>
		</g>
		<g id="XMLID_807_">
			<rect id="XMLID_808_" x="18.4" y="-14.2" class="st31" width="8.2" height="5.1"/>
		</g>
		<g id="XMLID_805_">
			<rect id="XMLID_806_" x="18.4" y="-5" class="st31" width="8.2" height="5.1"/>
		</g>
		<g id="XMLID_803_">
			<rect id="XMLID_804_" x="18.4" y="4.3" class="st31" width="8.2" height="5.1"/>
		</g>
		<g id="XMLID_801_">
			<rect id="XMLID_802_" x="18.4" y="13.6" class="st31" width="8.2" height="5.1"/>
		</g>
		<g id="XMLID_799_">
			<rect id="XMLID_800_" x="11.3" y="-23.5" class="st31" width="3.3" height="5.1"/>
		</g>
		<g id="XMLID_797_">
			<rect id="XMLID_798_" x="11.3" y="-14.2" class="st31" width="3.3" height="5.1"/>
		</g>
		<g id="XMLID_795_">
			<rect id="XMLID_796_" x="11.3" y="-5" class="st31" width="3.3" height="5.1"/>
		</g>
		<g id="XMLID_793_">
			<rect id="XMLID_794_" x="11.3" y="4.3" class="st31" width="3.3" height="5.1"/>
		</g>
		<g id="XMLID_791_">
			<rect id="XMLID_792_" x="11.3" y="13.6" class="st31" width="3.3" height="5.1"/>
		</g>
		<g id="XMLID_789_">
			<rect id="XMLID_790_" x="0.5" y="-34.5" class="st31" width="31.3" height="7"/>
		</g>
		<g id="XMLID_787_">
			<rect id="XMLID_788_" x="-12.2" y="31.6" class="st31" width="50.2" height="3.6"/>
		</g>
		<g id="XMLID_785_">
			<rect id="XMLID_786_" x="-12.2" y="35.2" class="st31" width="10.2" height="21"/>
		</g>
		<g id="XMLID_783_">
			<rect id="XMLID_784_" x="7.9" y="35.2" class="st31" width="10.2" height="21"/>
		</g>
		<g id="XMLID_781_">
			<rect id="XMLID_782_" x="27.9" y="35.2" class="st31" width="10.2" height="21"/>
		</g>
	</g>
	<g id="XMLID_749_" class="st1">
		<path id="XMLID_768_" class="st31" d="M-11.4,24.8c0.4,0.4,0.7,0.7,1,1h1.3c0-0.1,0-0.2-0.1-0.3h-1v-2.6h2.9v2.6h-1
			c0,0.1,0,0.2,0,0.3h1.2v0.8h-3.5v-0.6l-0.6,0.6c-0.2-0.3-0.5-0.6-0.9-1.1L-11.4,24.8z M-11.3,22.6c0.5,0.5,0.8,0.8,1,1.1l-0.7,0.7
			c-0.4-0.5-0.7-0.9-1-1.2L-11.3,22.6z M-11.4,26.9c0.3,0.1,0.6,0.3,0.9,0.4c-0.2,0.9-0.3,2-0.5,3.3c-0.3-0.1-0.7-0.2-0.9-0.3
			C-11.8,29.4-11.6,28.3-11.4,26.9z M-10.8,30c0.3-0.3,0.6-0.8,0.9-1.3l0.6,0.4c-0.3,0.5-0.6,0.9-0.9,1.3L-10.8,30z M-10.2,26.8h2.9
			v1.8h-1v1c0,0.6-0.2,0.9-0.7,0.9c-0.2,0-0.4,0-0.6,0c0-0.1-0.1-0.3-0.1-0.8c0,0,0.1,0,0.3,0c0.2,0,0.3-0.1,0.3-0.4v-0.8h-1.1V26.8
			z M-8.1,23.5h-1.3v0.3h1.3V23.5z M-8.1,24.8v-0.3h-1.3v0.3H-8.1z M-8.1,27.9v-0.4h-1.2v0.4H-8.1z M-8.2,29.1l0.5-0.4
			c0.2,0.2,0.5,0.5,0.8,0.9L-7.5,30C-7.7,29.8-7.9,29.4-8.2,29.1z M-5.2,28.5c0.5,0.5,1,1,1.5,1.5c-0.2,0.2-0.4,0.4-0.7,0.6
			c-0.4-0.5-0.7-0.9-1-1.3c-0.2,0.5-0.6,0.9-1.3,1.3c-0.2-0.2-0.4-0.4-0.6-0.7c1-0.5,1.5-1.3,1.4-2.4v-1.7H-5v0.5
			C-5,27.4-5.1,28.1-5.2,28.5z M-6.9,28.6v-4.1H-6c0-0.2,0.1-0.5,0.1-0.7H-7v-0.9h3.1v0.9H-5c0,0.2-0.1,0.5-0.1,0.7H-4v4.1h-0.8
			v-3.3h-1.4v3.2H-6.9z"/>
		<path id="XMLID_766_" class="st31" d="M-3.5,27.8h3.4v-1.1h-2.5v-1h2.5v-1.1H-3v-1h2.9v-1.1h1.3v1.1h3v1h-3v1.1h2.6v1H1.2v1.1h3.4
			v1H1.2v1.8h-1.3v-1.8h-3.4V27.8z"/>
		<path id="XMLID_761_" class="st31" d="M5.1,23.2h3.2l-0.2-0.7l1.4,0l0.1,0.7h3.3v0.9H5.1V23.2z M5.4,24.9H7l-0.5-0.6h1.3l0.4,0.6
			h1.3c0.2-0.2,0.4-0.4,0.5-0.6h1.3c-0.2,0.2-0.4,0.4-0.5,0.6h1.7v4.2c0,0.4-0.1,0.7-0.2,0.9s-0.4,0.4-0.6,0.4
			c-0.3,0.1-0.8,0.1-1.7,0.1c-0.1-0.4-0.1-0.8-0.2-1c0.3,0,0.6,0,0.9,0c0.5,0,0.8-0.2,0.8-0.7v-1.5l-0.3,0.3l-0.6-0.4v2H8.4v0.4h-1
			v-2.3l-0.5,0.4c0,0-0.1-0.2-0.3-0.4v3.2H5.4V24.9z M8.1,25.8l0.6,0.7C8.4,26.6,8.2,26.8,8,27h2.1l-0.8-0.5l0.5-0.6
			c0.6,0.3,1.1,0.6,1.6,1v-1.1H6.5v1.2C7.1,26.5,7.6,26.2,8.1,25.8z M9.7,28.5v-0.7H8.4v0.7H9.7z"/>
		<path id="XMLID_759_" class="st31" d="M15.7,22.6h1.2v6.5H18v-6.5h1.2v4.5c0.4-0.9,0.9-1.9,1.3-3.1l1.1,0.5
			c-0.4,1-0.9,2.2-1.5,3.4l-0.9-0.4v1.7h2.4v1.1h-8.2v-1.1h2.3v-1.6l-0.9,0.4c-0.5-1.3-0.9-2.5-1.4-3.5l1-0.5
			c0.5,1.1,0.9,2.1,1.3,3.1V22.6z"/>
		<path id="XMLID_757_" class="st31" d="M22,24.6h3.3c0-0.6,0.1-1.3,0-2.1h1.3c0,0.8,0,1.5-0.1,2.1h3.4v1.1h-3.3
			c0.5,1.8,1.6,3.1,3.4,3.7c-0.4,0.4-0.7,0.8-0.9,1.1c-1.5-0.7-2.5-1.8-3.1-3.4c-0.5,1.4-1.5,2.6-3.2,3.5c-0.2-0.3-0.5-0.6-0.9-1.1
			c2-0.9,3.1-2.2,3.3-3.9H22V24.6z"/>
		<path id="XMLID_750_" class="st31" d="M31.9,26.7c0,1.6-0.3,2.9-0.9,3.9c-0.3-0.4-0.6-0.6-0.8-0.9c0.4-0.8,0.7-1.9,0.7-3.3v-3.7
			h7.5v0.8h-6.5V26.7z M37.8,28v0.6c-0.5,0.3-1,0.7-1.6,0.9c0.7,0.1,1.4,0.2,2.3,0.2c-0.2,0.2-0.3,0.5-0.5,0.9
			c-1.1-0.1-2.1-0.3-2.9-0.6c-0.8,0.3-1.8,0.5-2.7,0.7c-0.1-0.2-0.3-0.5-0.5-0.8c0.8-0.1,1.6-0.2,2.2-0.4c-0.3-0.2-0.6-0.3-0.9-0.6
			c-0.3,0.2-0.6,0.4-0.9,0.6c-0.2-0.3-0.4-0.5-0.5-0.7c0.6-0.4,1.2-0.8,1.7-1.2h-0.9v-2.9h1.6l0.1-0.3h-2.1v-0.6h6.1v0.6h-2.9
			l-0.1,0.3h2.7v2.9h-3.3c-0.1,0.1-0.2,0.2-0.3,0.3H37.8z M36.9,25.3h-3.4v0.3h3.4V25.3z M33.5,26.4h3.4v-0.3h-3.4V26.4z M36.9,27.2
			v-0.3h-3.4v0.3H36.9z M36.4,28.6h-2.5c0.4,0.2,0.8,0.4,1.2,0.6C35.6,29,36,28.8,36.4,28.6z"/>
	</g>
</g>
<g id="XMLID_746_" class="st0">
	<g id="XMLID_1180_" class="st1">
		<path id="XMLID_995_" class="st32" d="M18.2-65c-45.8,0-83,37.2-83,83c0,45.8,37.2,83,83,83c45.8,0,83-37.2,83-83
			C101.2-27.8,64-65,18.2-65z"/>
	</g>
	<path id="XMLID_881_" class="st23" d="M-22.1,48.9l-0.1-28.7l0-32.1L-7.3-23l12.2,4.8l35.7-2.9l0.5-12.4l7.2,4.2l47.5,76.8
		c3.5-9.2,5.4-19.1,5.4-29.4c0-45.8-37.2-83-83-83c-45.8,0-83,37.2-83,83c0,40,28.5,73.6,66.3,81.3l-25.8-41.7L-22.1,48.9z"/>
	<path id="XMLID_887_" class="st33" d="M95.8,47.4L48.3-29.4l-7.2-4.2l-0.5,12.4L4.9-18.2L-7.3-23l-14.9,11.2l0,32.1l0.1,28.7
		l-2.2,8.7L1.5,99.3c5.4,1.1,11,1.7,16.7,1.7C53.6,101,83.9,78.7,95.8,47.4z"/>
	<g id="XMLID_1173_" class="st1">
		<polygon id="XMLID_992_" class="st34" points="25,-30 25,-18.1 38.9,-19.4 32.7,-29.4 		"/>
	</g>
	<g id="XMLID_1171_" class="st1">
		<polygon id="XMLID_991_" class="st34" points="8.4,-30 8.4,-18.1 22.3,-19.4 16.1,-29.4 		"/>
	</g>
	<g id="XMLID_1169_" class="st1">
		<polygon id="XMLID_976_" class="st34" points="-6.6,-30 -6.6,-18.1 7.2,-19.4 1.1,-29.4 		"/>
	</g>
	<g id="XMLID_1167_" class="st1">
		<polygon id="XMLID_975_" class="st6" points="-7.3,-23 50.1,-23 50.3,57.8 -7,57.8 		"/>
	</g>
	<g id="XMLID_1162_" class="st1">
		<g id="XMLID_1165_">
			<rect id="XMLID_974_" x="-7" y="-33.9" class="st6" width="0.6" height="10.9"/>
		</g>
		<g id="XMLID_1163_">
			<polygon id="XMLID_973_" class="st6" points="-6.4,-33.9 1,-29.4 -6.4,-27.6 			"/>
		</g>
	</g>
	<g id="XMLID_1157_" class="st1">
		<g id="XMLID_1160_">
			<rect id="XMLID_972_" x="8.1" y="-33.9" class="st6" width="0.6" height="10.9"/>
		</g>
		<g id="XMLID_1158_">
			<polygon id="XMLID_971_" class="st6" points="8.7,-33.9 16.1,-29.4 8.7,-27.6 			"/>
		</g>
	</g>
	<g id="XMLID_1152_" class="st1">
		<g id="XMLID_1155_">
			<rect id="XMLID_970_" x="24.8" y="-33.9" class="st6" width="0.6" height="10.9"/>
		</g>
		<g id="XMLID_1153_">
			<polygon id="XMLID_969_" class="st6" points="25.3,-33.9 32.7,-29.4 25.3,-27.6 			"/>
		</g>
	</g>
	<g id="XMLID_1147_" class="st1">
		<g id="XMLID_1150_">
			<rect id="XMLID_968_" x="40.3" y="-33.9" class="st6" width="0.6" height="10.9"/>
		</g>
		<g id="XMLID_1148_">
			<polygon id="XMLID_967_" class="st6" points="40.9,-33.9 48.3,-29.4 40.9,-27.6 			"/>
		</g>
	</g>
	<g id="XMLID_1096_" class="st1">
		<g id="XMLID_1103_">
			<g id="XMLID_1144_">
				<g id="XMLID_1145_">
					<rect id="XMLID_966_" x="-0.4" y="-4.4" class="st35" width="12.5" height="4.5"/>
				</g>
			</g>
			<g id="XMLID_1141_">
				<g id="XMLID_1142_">
					<rect id="XMLID_965_" x="18.8" y="-4.4" class="st35" width="12.5" height="4.5"/>
				</g>
			</g>
			<g id="XMLID_1138_">
				<g id="XMLID_1139_">
					<rect id="XMLID_964_" x="-0.4" y="4.2" class="st35" width="12.5" height="4.5"/>
				</g>
			</g>
			<g id="XMLID_1135_">
				<g id="XMLID_1136_">
					<rect id="XMLID_963_" x="18.8" y="4.2" class="st35" width="12.5" height="4.5"/>
				</g>
			</g>
			<g id="XMLID_1132_">
				<g id="XMLID_1133_">
					<rect id="XMLID_962_" x="-0.4" y="12.8" class="st35" width="12.5" height="4.5"/>
				</g>
			</g>
			<g id="XMLID_1129_">
				<g id="XMLID_1130_">
					<rect id="XMLID_961_" x="18.8" y="12.8" class="st35" width="12.5" height="4.5"/>
				</g>
			</g>
			<g id="XMLID_1126_">
				<g id="XMLID_1127_">
					<rect id="XMLID_959_" x="-0.4" y="21.5" class="st35" width="12.5" height="4.5"/>
				</g>
			</g>
			<g id="XMLID_1123_">
				<g id="XMLID_1124_">
					<rect id="XMLID_952_" x="18.8" y="21.5" class="st35" width="12.5" height="4.5"/>
				</g>
			</g>
			<g id="XMLID_1120_">
				<g id="XMLID_1121_">
					<rect id="XMLID_951_" x="-0.4" y="29.5" class="st35" width="12.5" height="4.5"/>
				</g>
			</g>
			<g id="XMLID_1117_">
				<g id="XMLID_1118_">
					<rect id="XMLID_950_" x="18.8" y="29.5" class="st35" width="12.5" height="4.5"/>
				</g>
			</g>
			<g id="XMLID_1114_">
				<g id="XMLID_1115_">
					<rect id="XMLID_949_" x="-0.4" y="38.1" class="st35" width="12.5" height="4.5"/>
				</g>
			</g>
			<g id="XMLID_1111_">
				<g id="XMLID_1112_">
					<rect id="XMLID_948_" x="18.8" y="38.1" class="st35" width="12.5" height="4.5"/>
				</g>
			</g>
			<g id="XMLID_1108_">
				<g id="XMLID_1109_">
					<rect id="XMLID_947_" x="-0.4" y="46.7" class="st35" width="12.5" height="4.5"/>
				</g>
			</g>
			<g id="XMLID_1104_">
				<g id="XMLID_1105_">
					<rect id="XMLID_946_" x="18.8" y="46.7" class="st35" width="12.5" height="4.5"/>
				</g>
			</g>
		</g>
		<g id="XMLID_1100_">
			<g id="XMLID_1101_">
				<polygon id="XMLID_945_" class="st35" points="35.2,-11.6 35.3,57.8 54.8,57.8 54.8,-17.5 47,-20.5 				"/>
			</g>
		</g>
		<g id="XMLID_1097_">
			<g id="XMLID_1098_">
				<polygon id="XMLID_944_" class="st35" points="-6.4,-22.1 -22.1,-11.8 -19.9,57.6 -4.8,57.8 				"/>
			</g>
		</g>
	</g>
	<g id="XMLID_1071_" class="st1">
		<g id="XMLID_1094_">
			<polygon id="XMLID_943_" class="st6" points="-7,57.8 -7,-17.2 -2.6,-12.9 -2.6,57.6 			"/>
		</g>
		<g id="XMLID_1092_">
			<polygon id="XMLID_942_" class="st6" points="-17.2,-10.4 -17.2,-7.9 -11,-12.1 -11,-14.6 			"/>
		</g>
		<g id="XMLID_1090_">
			<polygon id="XMLID_941_" class="st6" points="-17.2,-5.8 -17.2,-0.2 -11,-4.3 -11,-9.9 			"/>
		</g>
		<g id="XMLID_1088_">
			<polygon id="XMLID_940_" class="st6" points="-17.2,2.9 -17.2,8.5 -11,4.7 -11,-0.9 			"/>
		</g>
		<g id="XMLID_1086_">
			<polygon id="XMLID_939_" class="st6" points="-17.2,18.9 -17.2,23.9 -11,21 -11,15.9 			"/>
		</g>
		<g id="XMLID_1084_">
			<polygon id="XMLID_938_" class="st6" points="-17.2,11 -17.2,16.1 -11,12.6 -11,7.5 			"/>
		</g>
		<g id="XMLID_1082_">
			<polygon id="XMLID_937_" class="st6" points="-17.2,26.8 -17.2,31.6 -11,29.5 -11,24.2 			"/>
		</g>
		<g id="XMLID_1080_">
			<polygon id="XMLID_936_" class="st6" points="-17.2,34.4 -17.2,39.5 -11,38.3 -11,32.8 			"/>
		</g>
		<g id="XMLID_1078_">
			<polygon id="XMLID_935_" class="st6" points="-17.2,42.5 -17.2,48.1 -11,47.7 -11,41.6 			"/>
		</g>
		<g id="XMLID_1076_">
			<polygon id="XMLID_934_" class="st6" points="-17.2,51.3 -17.2,56.8 -11,56.9 -11,51 			"/>
		</g>
		<g id="XMLID_1074_">
			<polygon id="XMLID_933_" class="st6" points="-7.3,-23 -22.1,-11.8 -22.1,-8.7 -7,-19.8 -7,-13.8 -2.6,-17.8 			"/>
		</g>
		<g id="XMLID_1072_">
			<polygon id="XMLID_932_" class="st6" points="-19.9,57.6 -19.9,-8.2 -22.1,-6.5 -22.1,20.2 -24.2,21.4 -24.2,57.6 			"/>
		</g>
	</g>
	<g id="XMLID_1046_" class="st1">
		<g id="XMLID_1069_">
			<polygon id="XMLID_931_" class="st6" points="50.4,58 50.4,-16.9 54.8,-12.7 54.8,57.8 			"/>
		</g>
		<g id="XMLID_1067_">
			<polygon id="XMLID_930_" class="st6" points="40.2,-10.2 40.2,-7.7 46.4,-11.9 46.4,-14.4 			"/>
		</g>
		<g id="XMLID_1065_">
			<polygon id="XMLID_929_" class="st6" points="40.2,-5.6 40.2,0 46.4,-4.1 46.4,-9.6 			"/>
		</g>
		<g id="XMLID_1063_">
			<polygon id="XMLID_928_" class="st6" points="40.2,3.1 40.2,8.7 46.4,5 46.4,-0.6 			"/>
		</g>
		<g id="XMLID_1061_">
			<polygon id="XMLID_927_" class="st6" points="40.2,19.1 40.2,24.1 46.4,21.2 46.4,16.1 			"/>
		</g>
		<g id="XMLID_1059_">
			<polygon id="XMLID_926_" class="st6" points="40.2,11.2 40.2,16.4 46.4,12.8 46.4,7.8 			"/>
		</g>
		<g id="XMLID_1057_">
			<polygon id="XMLID_925_" class="st6" points="40.2,27 40.2,31.8 46.4,29.7 46.4,24.5 			"/>
		</g>
		<g id="XMLID_1055_">
			<polygon id="XMLID_924_" class="st6" points="40.2,34.6 40.2,39.7 46.4,38.6 46.4,33 			"/>
		</g>
		<g id="XMLID_1053_">
			<polygon id="XMLID_923_" class="st6" points="40.2,42.7 40.2,48.3 46.4,47.9 46.4,41.8 			"/>
		</g>
		<g id="XMLID_1051_">
			<polygon id="XMLID_922_" class="st6" points="40.2,51.5 40.2,57.1 46.4,57.2 46.3,51.2 			"/>
		</g>
		<g id="XMLID_1049_">
			<polygon id="XMLID_921_" class="st6" points="50.1,-22.8 39.3,-14.4 39.3,-11.3 49.7,-19.2 54.8,-14.3 54.8,-17.5 			"/>
		</g>
		<g id="XMLID_1047_">
			<polygon id="XMLID_920_" class="st6" points="37.5,57.8 37.5,-12.9 34.8,-11.2 34.8,20.5 33.1,21.6 33.1,57.8 			"/>
		</g>
	</g>
	<g id="XMLID_1044_" class="st1">
		<rect id="XMLID_919_" x="-7.3" y="-23.2" class="st6" width="57.7" height="13.2"/>
	</g>
	<g id="XMLID_1000_" class="st1">
		<path id="XMLID_1041_" class="st35" d="M-6.2-17.3h1.1v-3.1H-4v3.1h5.3v1h-2.9c0.6,1.1,1.6,1.8,3.1,2.2c-0.2,0.3-0.5,0.7-0.8,1.1
			c-1.6-0.7-2.7-1.8-3.3-3.3H-4v2.2l2-0.7c0,0.4,0,0.7,0,1c-1.5,0.5-2.4,0.8-2.8,1.1l-0.6-1c0.2-0.2,0.3-0.5,0.3-0.9v-1.7h-1.1
			V-17.3z M-0.2-20.3l0.8,1c-1.1,0.6-2.2,1.2-3.5,1.7l-0.6-0.8C-2.1-19.1-1-19.7-0.2-20.3z"/>
		<path id="XMLID_1031_" class="st35" d="M9.3-14L9-13c-2.9,0-4.6,0-5-0.1c-0.4-0.1-0.7-0.3-1-0.6c-0.3,0.3-0.6,0.6-0.9,0.9L1.6-14
			c0.2-0.2,0.5-0.4,0.8-0.6v-2.1H1.7v-1h1.8v3.1c0.2,0.2,0.4,0.4,0.6,0.5C4.2-14.1,4.4-14,4.6-14c0.2,0,0.7,0,1.4,0
			C6.9-13.9,7.9-13.9,9.3-14z M2.7-20.4c0.4,0.5,0.8,1,1.1,1.5l-0.9,0.6c-0.3-0.5-0.7-1.1-1-1.5L2.7-20.4z M7.7-17
			c0.5,0.7,1,1.4,1.4,2.2l-0.9,0.5c-0.1-0.2-0.2-0.4-0.3-0.5c-1.6,0.1-2.8,0.2-3.6,0.3l-0.4-0.9c0.5-0.4,0.9-1,1.3-1.7H3.9v-1h5.2v1
			H6.4c-0.3,0.5-0.6,1-1,1.5c0.5,0,1.2-0.1,2-0.1c-0.2-0.3-0.4-0.6-0.5-0.8L7.7-17z M8.7-19H4.4v-1h4.3V-19z"/>
		<path id="XMLID_1027_" class="st35" d="M12.8-20.4h1.2v1.4h2.9v4.3h-1.1v-0.5h-1.7v2.5h-1.2v-2.5H11v0.6H9.9V-19h2.9V-20.4z
			 M11-16.3h1.7V-18H11V-16.3z M15.7-18h-1.7v1.7h1.7V-18z"/>
		<path id="XMLID_1022_" class="st35" d="M18.3-18.2l1.1,0.2c-0.2,1.2-0.5,2.4-0.9,3.4l-1-0.4C17.7-15.9,18-17,18.3-18.2z
			 M22.6-15.5c0.5,0.2,0.9,0.3,1.2,0.4c0,0.2-0.1,0.6-0.2,1c-0.1,0.4-0.2,0.7-0.3,0.8c-0.1,0.1-0.3,0.2-0.5,0.3
			C22.6-13,22.3-13,22-13h-1.3c-0.9,0-1.3-0.4-1.3-1.3v-4.4h1.1v4.1c0,0.4,0.2,0.7,0.7,0.7h0.4c0.2,0,0.4,0,0.5-0.1
			c0.1-0.1,0.2-0.2,0.2-0.3C22.5-14.6,22.6-15,22.6-15.5z M21.2-20.4c0.4,0.6,0.9,1.2,1.4,2l-1,0.6c-0.4-0.8-0.9-1.5-1.3-2.1
			L21.2-20.4z M24-18.1c0.4,0.8,0.8,1.7,1.1,2.5l-1.1,0.4c-0.3-0.8-0.6-1.7-1-2.6L24-18.1z"/>
		<path id="XMLID_1014_" class="st35" d="M26-12.7c-0.2-0.3-0.5-0.6-0.7-0.9c0.2-0.4,0.3-0.9,0.4-1.4c0.1-0.5,0.1-1.3,0.1-2.5v-2.6
			h2.5v6.2c0,0.3-0.1,0.5-0.2,0.7s-0.6,0.3-1.3,0.3c-0.1-0.4-0.2-0.7-0.3-1c0.2,0,0.3,0,0.5,0c0.2,0,0.4-0.1,0.4-0.4v-1h-0.7
			C26.6-14.2,26.4-13.3,26-12.7z M26.7-16.2h0.7v-1h-0.7C26.7-16.8,26.7-16.5,26.7-16.2z M27.4-19.1h-0.7v1h0.7V-19.1z M32.8-17.3
			v0.9c-0.2,0.7-0.5,1.4-0.9,2c0.3,0.2,0.7,0.5,1.1,0.6c-0.2,0.3-0.4,0.6-0.6,1c-0.4-0.2-0.8-0.5-1.1-0.8c-0.3,0.3-0.7,0.6-1.1,0.9
			c-0.1-0.3-0.3-0.5-0.5-0.8v0.8h-1v-7.3h4c0,0.8,0,1.3-0.1,1.5c-0.1,0.2-0.1,0.4-0.3,0.6c-0.1,0.1-0.3,0.2-0.5,0.3
			c-0.2,0-0.7,0.1-1.5,0c0-0.3-0.1-0.6-0.2-0.9c0.4,0,0.8,0,1,0c0.1,0,0.3,0,0.4-0.1c0.1-0.1,0.1-0.2,0.1-0.5h-1.9v1.9H32.8z
			 M30.6-16.4c0.2,0.4,0.3,0.8,0.6,1.1c0.2-0.4,0.4-0.8,0.6-1.2h-2.1v2.6c0.3-0.2,0.6-0.4,0.9-0.6c-0.3-0.5-0.6-1-0.8-1.5L30.6-16.4
			z"/>
		<path id="XMLID_1004_" class="st35" d="M33.5-16.9l-0.3-1c0.7-0.2,1.4-0.5,2-0.8v-1.7h1v3.4h-1v-0.7
			C34.7-17.4,34.1-17.2,33.5-16.9z M40.4-14.9c-0.3,0.1-0.7,0.3-1.2,0.5c0.5,0.2,1,0.4,1.7,0.5c-0.3,0.4-0.5,0.7-0.7,1
			c-1-0.3-1.8-0.8-2.4-1.3c0,0.4-0.1,0.7-0.1,0.9c-1.3,0.2-2.1,0.4-2.4,0.6l-0.5-0.9c0.2-0.1,0.3-0.3,0.3-0.5v-0.1
			c-0.4,0.2-0.9,0.5-1.5,0.7c-0.1-0.3-0.3-0.7-0.5-1c1.1-0.3,2-0.7,2.7-1.2h-2.7v-0.9h3.3c0-0.1-0.1-0.2-0.1-0.3l1.1-0.1l0.1,0.5
			h3.2v0.9h-1L40.4-14.9z M34.1-20.2c0.2,0.2,0.6,0.5,1,0.9l-0.7,0.6c-0.4-0.4-0.7-0.8-0.9-1L34.1-20.2z M36.9-15.4
			c-0.2,0.2-0.4,0.4-0.7,0.6v0.8c0.3-0.1,0.8-0.2,1.5-0.3C37.3-14.7,37.1-15,36.9-15.4z M36.6-18.1h1.5v-0.6h-1.7v-0.9h1.7v-0.8h1
			v0.8h1.7v0.9h-1.7v0.6h1.5v0.9h-4V-18.1z M38.3-15c0.6-0.3,1.1-0.5,1.4-0.8h-2.1C37.9-15.5,38.1-15.2,38.3-15z"/>
		<path id="XMLID_1001_" class="st35" d="M45.9-15.3c0,0.7-0.3,1-0.7,1.1c-0.2,0-0.4,0-0.8,0c0-0.1-0.1-0.3-0.1-0.5
			c-0.1,0.8-0.3,1.5-0.6,1.9c-0.3-0.3-0.5-0.6-0.8-0.8c0.2-0.3,0.3-0.6,0.4-0.9c-0.6,0.2-1.3,0.4-2,0.7l-0.2-1.1
			c0.3-0.1,0.5-0.1,0.7-0.2v-2.4h-0.6v-1h0.6v-1.8h1v1.8h0.5v1h-0.5v2.2c0.2-0.1,0.3-0.1,0.5-0.2c0,0.3,0,0.6,0,1
			c0.2-0.6,0.2-1.2,0.2-2v-2.6h2.6c0-0.4,0-0.8,0-1.3H47c0,0.4,0,0.9,0,1.3h0.8c-0.2-0.3-0.4-0.6-0.7-0.9l0.7-0.4
			c0.3,0.3,0.5,0.6,0.8,0.9L48-19.1h0.8v0.9h-1.7c0,0.8,0.1,1.4,0.1,2c0.2-0.4,0.4-0.9,0.6-1.5l0.9,0.4c-0.4,0.9-0.9,1.8-1.3,2.5
			c0.1,0.5,0.2,0.8,0.4,0.8c0.1,0,0.2-0.4,0.3-1.3c0.3,0.2,0.6,0.3,0.8,0.4c-0.1,0.6-0.2,1.2-0.3,1.5c-0.1,0.4-0.4,0.6-0.8,0.6
			c-0.5,0-0.9-0.3-1.1-1c-0.3,0.4-0.7,0.8-1.1,1.1c-0.2-0.3-0.5-0.6-0.7-0.8c0.5-0.4,1-0.8,1.4-1.4c-0.1-0.8-0.2-1.9-0.3-3.3h-1.7
			v0.9H46C45.9-16.7,45.9-16.1,45.9-15.3z M44.4-15.1c0.1,0,0.2,0,0.3,0c0.2,0,0.3-0.1,0.3-0.4c0-0.3,0-0.6,0-1h-0.6
			C44.4-15.9,44.4-15.5,44.4-15.1z"/>
	</g>
	<g id="XMLID_998_" class="st1">
		<rect id="XMLID_891_" x="-7.2" y="-11.5" class="st35" width="57.6" height="1.6"/>
	</g>
</g>
<g id="XMLID_747_" class="st0">
	<g id="XMLID_1202_" class="st1">
		<polygon id="XMLID_1203_" class="st36" points="31.4,-28.1 31.4,16.2 61.5,12 35.5,-30.2 		"/>
	</g>
	<g id="XMLID_1200_" class="st1">
		<polygon id="XMLID_1201_" class="st36" points="54.3,2.7 54.3,46.9 84.5,42.8 58.4,0.6 		"/>
	</g>
	<g id="XMLID_1198_" class="st1">
		<polygon id="XMLID_1199_" class="st36" points="21.7,-33.7 21.7,10.5 51.9,6.3 25.8,-35.8 		"/>
	</g>
	<path id="XMLID_878_" class="st37" d="M12.5,41.9l48.2-1.2l-2.8-4.4l6.3-29.9l29.1,47c5.2-10.8,8.1-22.9,8.1-35.7
		c0-45.8-37.2-83-83-83c-45.8,0-83,37.2-83,83c0,40.6,29.3,74.5,67.9,81.6l-27-43.8L12.5,41.9z"/>
	<path id="XMLID_994_" class="st38" d="M93.3,53.4l-29.1-47l-6.3,29.9l2.8,4.4l-48.2,1.2l-36.2,13.7l27,43.8
		c4.9,0.9,9.9,1.4,15.1,1.4C51.4,100.7,80,81.4,93.3,53.4z"/>
	<g id="XMLID_1194_" class="st1">
		<path id="XMLID_1195_" class="st27" d="M18.4-65.3c-45.8,0-83,37.2-83,83s37.2,83,83,83c45.8,0,83-37.2,83-83S64.2-65.3,18.4-65.3
			z"/>
	</g>
	<g id="XMLID_1191_" class="st1">
		<rect id="XMLID_1192_" x="-18.1" y="-30.2" class="st6" width="53.6" height="49.1"/>
	</g>
	<g id="XMLID_1189_" class="st1">
		<rect id="XMLID_1190_" x="-23.7" y="6.4" class="st6" width="87.9" height="49.1"/>
	</g>
	<g id="XMLID_1102_" class="st1">
		<path id="XMLID_1186_" class="st39" d="M-10.2,47.5h1.3v-3.8h1.3v3.8h6.6v1.2h-3.6c0.8,1.3,2,2.2,3.8,2.8c-0.3,0.4-0.6,0.8-1,1.3
			c-2-0.8-3.4-2.2-4.2-4.1h-1.6v2.7l2.5-0.8c0,0.4,0,0.9,0,1.3c-1.9,0.6-3,1-3.4,1.4L-9.2,52c0.2-0.2,0.4-0.6,0.4-1.1v-2.1h-1.3
			V47.5z M-2.7,43.8l1,1.2c-1.4,0.8-2.8,1.5-4.3,2.1l-0.8-1C-5.1,45.3-3.8,44.5-2.7,43.8z"/>
		<path id="XMLID_1183_" class="st39" d="M5.5,50c0,0.8-0.3,1.3-0.9,1.3c-0.2,0-0.5,0-0.9,0c0-0.2-0.1-0.4-0.1-0.6
			c-0.1,1-0.4,1.8-0.8,2.4c-0.3-0.4-0.7-0.7-1-0.9c0.2-0.3,0.4-0.7,0.5-1.2c-0.8,0.3-1.6,0.5-2.5,0.8l-0.2-1.4
			c0.3-0.1,0.6-0.2,0.9-0.2v-3h-0.7V46h0.7v-2.3h1.2V46h0.7v1.2H1.6V50c0.2-0.1,0.4-0.1,0.6-0.2c0,0.4,0,0.8,0,1.3
			c0.2-0.7,0.3-1.5,0.3-2.5v-3.3h3.2c0-0.5,0-1,0-1.6h1.2c0,0.6,0,1.1,0,1.6h1c-0.3-0.4-0.5-0.7-0.9-1.1l0.8-0.5
			c0.4,0.4,0.7,0.8,1,1.1l-0.7,0.5h1v1.2H6.9c0,1,0.1,1.8,0.1,2.5c0.3-0.5,0.5-1.2,0.8-1.8L9,47.7c-0.5,1.2-1.1,2.2-1.7,3.1
			c0.1,0.6,0.3,1,0.5,1c0.2,0,0.3-0.6,0.3-1.7c0.4,0.2,0.7,0.4,1,0.5C9.1,51.4,9,52,8.8,52.5c-0.2,0.5-0.5,0.7-1,0.7
			c-0.6,0-1.1-0.4-1.4-1.2c-0.4,0.5-0.9,1-1.3,1.3c-0.3-0.4-0.6-0.7-0.8-0.9c0.6-0.4,1.2-1,1.8-1.8c-0.2-1-0.3-2.3-0.3-4.1H3.6v1.1
			h1.9C5.5,48.3,5.5,49.1,5.5,50z M3.5,50.3c0.2,0,0.3,0,0.3,0c0.3,0,0.4-0.1,0.4-0.5c0-0.4,0-0.8,0-1.2H3.6
			C3.6,49.2,3.6,49.8,3.5,50.3z"/>
		<path id="XMLID_1168_" class="st39" d="M9.4,47.1h1.2v-3.4h1.1v3.4h1.1v1h-1.1v1l0.4-0.4c0.4,0.4,0.8,0.8,1.1,1.1l-0.8,0.7
			c-0.2-0.2-0.4-0.5-0.8-0.9v3.4h-1.1v-2.9c-0.3,0.7-0.6,1.3-0.9,1.8c-0.1-0.4-0.2-0.9-0.4-1.4c0.5-0.6,0.9-1.4,1.3-2.4H9.4V47.1z
			 M10.1,44.5c0.2,0.7,0.4,1.4,0.5,1.9l-0.8,0.2c-0.1-0.6-0.3-1.3-0.5-1.9L10.1,44.5z M12.3,44.5l0.8,0.2c-0.2,0.6-0.4,1.3-0.6,1.9
			l-0.7-0.3L12.3,44.5z M13,46.9h2.3v-0.4h-1.9v-0.8h1.9v-0.4h-2.1v-0.8h2.1v-0.8h1.2v0.8h2.2v0.8h-2.2v0.4h2v0.8h-2v0.4h2.4v0.8H13
			V46.9z M14.6,53.1h-1.2v-5h5v3.6c0,0.4-0.1,0.8-0.3,1s-0.4,0.3-0.8,0.3c-0.3,0-0.9,0-1.6,0c-0.1-0.3-0.1-0.6-0.2-1
			c0.7,0,1.1,0.1,1.3,0.1c0.3,0,0.4-0.2,0.4-0.5v-0.1h-2.7V53.1z M17.3,49h-2.7v0.5h2.7V49z M14.6,50.8h2.7v-0.5h-2.7V50.8z"/>
		<path id="XMLID_1151_" class="st39" d="M22.3,52.5h-1.3V53h-1.3v-4.5h4V53h-1.3V52.5z M20.5,44.1h6.9v3.7h-6.9V44.1z M20.9,51.4
			h1.3v-1.7h-1.3V51.4z M26,45.3h-4.1v1.2H26V45.3z M25.6,52.5V53h-1.3v-4.5h4V53H27v-0.5H25.6z M27,51.4v-1.7h-1.4v1.7H27z"/>
		<path id="XMLID_1128_" class="st39" d="M29,52h4.1v-0.4h-3.5v-0.8h3.5v-0.4H30v-3.3h7.6v3.3h-3.2v0.4H38v0.8h-3.6V52h4.1v0.9H29
			V52z M29.1,45.8h2.2l-0.4-0.5h1.5c0.1,0.2,0.3,0.3,0.4,0.5h1.8l0.4-0.5h1.6l-0.5,0.5h2.3v0.9h-9.3V45.8z M29.6,44.3h3.5l-0.2-0.5
			l1.6-0.1l0.3,0.7h3.1v0.9h-8.3V44.3z M31.2,48.4h1.9v-0.5h-1.9V48.4z M31.2,49.6h1.9v-0.5h-1.9V49.6z M36.3,47.9h-1.9v0.5h1.9
			V47.9z M36.3,49.6v-0.5h-1.9v0.5H36.3z"/>
		<path id="XMLID_1107_" class="st39" d="M39.2,48l-0.4-1.3c0.9-0.3,1.7-0.6,2.4-0.9v-2.1h1.2v4.2h-1.2v-0.8
			C40.6,47.4,39.9,47.7,39.2,48z M47.7,50.5c-0.4,0.2-0.9,0.4-1.5,0.6c0.6,0.3,1.3,0.5,2.2,0.7c-0.4,0.5-0.7,0.9-0.9,1.3
			c-1.3-0.4-2.3-1-3-1.6c-0.1,0.5-0.1,0.8-0.1,1.1c-1.6,0.3-2.6,0.5-3,0.7l-0.6-1.1c0.2-0.2,0.4-0.4,0.4-0.6v-0.2
			c-0.5,0.3-1.1,0.6-1.8,0.9c-0.2-0.4-0.4-0.8-0.6-1.2c1.4-0.4,2.5-0.9,3.4-1.5h-3.3v-1.1H43c0-0.1-0.1-0.3-0.1-0.4l1.3-0.2l0.2,0.6
			h3.9v1.1H47L47.7,50.5z M39.9,43.9c0.3,0.3,0.7,0.6,1.2,1.2l-0.9,0.8c-0.5-0.5-0.9-0.9-1.2-1.2L39.9,43.9z M43.3,49.9
			c-0.3,0.2-0.5,0.5-0.9,0.7v1c0.4-0.1,1-0.2,1.8-0.4C43.9,50.8,43.6,50.4,43.3,49.9z M43,46.6h1.8v-0.8h-2.1v-1.1h2.1v-1h1.3v1h2.1
			v1.1h-2.1v0.8h1.9v1.1h-5V46.6z M45.2,50.4c0.7-0.3,1.3-0.7,1.8-0.9h-2.6C44.6,49.8,44.9,50.1,45.2,50.4z"/>
	</g>
	<g id="XMLID_999_" class="st1">
		<g id="XMLID_1095_">
			<rect id="XMLID_1099_" x="-8.8" y="-24.6" class="st39" width="12.6" height="4.2"/>
		</g>
		<g id="XMLID_1091_">
			<rect id="XMLID_1093_" x="13.8" y="-24.6" class="st39" width="12.6" height="4.2"/>
		</g>
		<g id="XMLID_1087_">
			<rect id="XMLID_1089_" x="-8.8" y="-16.6" class="st39" width="12.6" height="4.2"/>
		</g>
		<g id="XMLID_1083_">
			<rect id="XMLID_1085_" x="13.8" y="-16.6" class="st39" width="12.6" height="4.2"/>
		</g>
		<g id="XMLID_1079_">
			<rect id="XMLID_1081_" x="-8.8" y="-8.7" class="st39" width="12.6" height="4.2"/>
		</g>
		<g id="XMLID_1075_">
			<rect id="XMLID_1077_" x="13.8" y="-8.7" class="st39" width="12.6" height="4.2"/>
		</g>
		<g id="XMLID_1070_">
			<rect id="XMLID_1073_" x="-8.8" y="-0.7" class="st39" width="12.6" height="4.2"/>
		</g>
		<g id="XMLID_1066_">
			<rect id="XMLID_1068_" x="13.8" y="-0.7" class="st39" width="12.6" height="4.2"/>
		</g>
		<g id="XMLID_1062_">
			<rect id="XMLID_1064_" x="-19.9" y="12" class="st39" width="16.8" height="4.2"/>
		</g>
		<g id="XMLID_1058_">
			<rect id="XMLID_1060_" x="1.6" y="12" class="st39" width="16.8" height="4.2"/>
		</g>
		<g id="XMLID_1054_">
			<rect id="XMLID_1056_" x="22.9" y="12" class="st39" width="16.8" height="4.2"/>
		</g>
		<g id="XMLID_1050_">
			<rect id="XMLID_1052_" x="44.4" y="12" class="st39" width="16.8" height="4.2"/>
		</g>
		<g id="XMLID_1045_">
			<rect id="XMLID_1048_" x="-19.9" y="20" class="st39" width="16.8" height="4.2"/>
		</g>
		<g id="XMLID_1042_">
			<rect id="XMLID_1043_" x="1.6" y="20" class="st39" width="16.8" height="4.2"/>
		</g>
		<g id="XMLID_1035_">
			<rect id="XMLID_1040_" x="22.9" y="20" class="st39" width="16.8" height="4.2"/>
		</g>
		<g id="XMLID_1032_">
			<rect id="XMLID_1033_" x="44.4" y="20" class="st39" width="16.8" height="4.2"/>
		</g>
		<g id="XMLID_1029_">
			<rect id="XMLID_1030_" x="-19.9" y="27.9" class="st39" width="16.8" height="4.2"/>
		</g>
		<g id="XMLID_1026_">
			<rect id="XMLID_1028_" x="1.6" y="27.9" class="st39" width="16.8" height="4.2"/>
		</g>
		<g id="XMLID_1024_">
			<rect id="XMLID_1025_" x="22.9" y="27.9" class="st39" width="16.8" height="4.2"/>
		</g>
		<g id="XMLID_1021_">
			<rect id="XMLID_1023_" x="44.4" y="27.9" class="st39" width="16.8" height="4.2"/>
		</g>
		<g id="XMLID_1019_">
			<rect id="XMLID_1020_" x="-19.9" y="35.9" class="st39" width="16.8" height="4.2"/>
		</g>
		<g id="XMLID_1017_">
			<rect id="XMLID_1018_" x="1.6" y="35.9" class="st39" width="16.8" height="4.2"/>
		</g>
		<g id="XMLID_1010_">
			<rect id="XMLID_1011_" x="22.9" y="35.9" class="st39" width="16.8" height="4.2"/>
		</g>
		<g id="XMLID_1008_">
			<rect id="XMLID_1009_" x="44.4" y="35.9" class="st39" width="16.8" height="4.2"/>
		</g>
		<g id="XMLID_1006_">
			<rect id="XMLID_1007_" x="44.4" y="0.6" class="st39" width="14.1" height="5.8"/>
		</g>
		<g id="XMLID_1002_">
			<rect id="XMLID_1003_" x="-8.8" y="-35.8" class="st39" width="34.7" height="5.7"/>
		</g>
	</g>
</g>
<g id="XMLID_264_" class="st0">
	<g id="XMLID_261_" class="st1">
		<path id="XMLID_262_" class="st17" d="M32.5,8.6H2.6L9,1.5h17.1L32.5,8.6z"/>
	</g>
	<path id="XMLID_888_" class="st20" d="M12,10v6.3l-3-2.5l-3,2.6V10H3v20c0,1.3,0.7,2,1.9,2H14h16.5c0.1,0,0.2,0,0.2,0l-3.5-3.2
		c-0.1-0.1-0.1-0.2-0.2-0.2c-1.4,1.1-3.2,1.8-5.2,1.8c-4.6,0-8.3-3.7-8.3-8.3s3.7-8.3,8.3-8.3s8.3,3.7,8.3,8.3
		c0,1.9-0.7,3.7-1.8,5.2c0.1,0,0.1,0.1,0.2,0.1l3.8,3.5c0.1,0.1,0.3,0.1,0.3,0.2c0.1-0.2,0.3-0.4,0.3-0.7V10H12z"/>
</g>
<g id="XMLID_271_" class="st0">
	<path id="XMLID_748_" class="st20" d="M27,13V3H4.8C3.7,3,3,3.9,3,5v27c0,1.1,0.7,2,1.8,2h27.2c1.1,0,2.1-0.9,2.1-2V13H27z
		 M28.7,30h-21c-0.6,0-1-0.4-1-1s0.4-1,1-1h21c0.6,0,1,0.4,1,1S29.3,30,28.7,30z M28.7,24h-21c-0.6,0-1-0.4-1-1s0.4-1,1-1h21
		c0.6,0,1,0.4,1,1S29.3,24,28.7,24z M28.7,18h-21c-0.6,0-1-0.4-1-1s0.4-1,1-1h21c0.6,0,1,0.4,1,1S29.3,18,28.7,18z"/>
	<g id="XMLID_265_" class="st1">
		<path id="XMLID_266_" class="st17" d="M32.8,10.6c-0.2,0-0.5-0.1-0.6-0.3L28.8,5c-0.2-0.3-0.1-0.8,0.2-1c0.3-0.2,0.8-0.1,1,0.2
			l3.3,5.3c0.2,0.3,0.1,0.8-0.2,1C33,10.6,32.9,10.6,32.8,10.6z"/>
	</g>
</g>
<g id="XMLID_272_">
	<g id="XMLID_1012_">
		<path class="st17" d="M20.8,18.9c-4.5,0-8.2-3.7-8.2-8.3s3.7-8.3,8.2-8.3c4.5,0,8.2,3.7,8.2,8.3S25.3,18.9,20.8,18.9z"/>
	</g>
	<g id="XMLID_376_">
		<path class="st17" d="M22,32h13.1c0-7-6.1-13-13.4-13h-0.1c-7.2,0-13.4,6-13.4,13H22"/>
	</g>
	<g id="XMLID_380_">
		<path id="XMLID_274_" class="st17" d="M14.8,18.9c-4.5,0-8.2-3.7-8.2-8.3s3.7-8.3,8.2-8.3c4.5,0,8.2,3.7,8.2,8.3
			S19.3,18.9,14.8,18.9z M14.8,3.2c-4,0-7.2,3.3-7.2,7.3s3.2,7.3,7.2,7.3c4,0,7.2-3.3,7.2-7.3S18.8,3.2,14.8,3.2z"/>
	</g>
	<g id="XMLID_375_">
		<path id="XMLID_273_" class="st17" d="M6,32H2v-0.5C2,25,7.5,18.6,14,17.8l0,1C8.2,19.5,3,25.2,2.7,31H6V32z"/>
	</g>
	<g id="XMLID_1005_">
		<path class="st40" d="M11.7,19.2"/>
	</g>
</g>
</svg>
