<?xml version="1.0" encoding="utf-8"?>
<!-- Generator: Adobe Illustrator 19.0.0, SVG Export Plug-In . SVG Version: 6.00 Build 0)  -->
<svg version="1.1" id="图层_1" xmlns="http://www.w3.org/2000/svg" xmlns:xlink="http://www.w3.org/1999/xlink" x="0px" y="0px"
	 viewBox="0 0 36 36" style="enable-background:new 0 0 36 36;" xml:space="preserve">
<style type="text/css">
	.st0{display:none;}
	.st1{display:inline;}
	.st2{fill:#282828;}
	.st3{fill:none;stroke:#282828;stroke-width:2;stroke-linecap:round;stroke-linejoin:round;stroke-miterlimit:10;}
</style>
<g id="XMLID_137_" class="st0">
	<g id="XMLID_149_" class="st1">
		<g id="XMLID_366_">
			<path id="XMLID_6_" class="st2" d="M11,37.4H0.6c-1.5,0-2.8-1.3-2.8-2.8V23.4c0-0.6,0.4-1,1-1s1,0.4,1,1v11.1
				c0,0.4,0.4,0.8,0.8,0.8H11c0.6,0,1,0.4,1,1S11.5,37.4,11,37.4z"/>
		</g>
		<g id="XMLID_150_">
			<path id="XMLID_5_" class="st2" d="M-1.2,12.4c-0.6,0-1-0.4-1-1V1c0-1.5,1.3-2.8,2.8-2.8h10.3c0.6,0,1,0.4,1,1s-0.4,1-1,1H0.6
				C0.2,0.2-0.2,0.5-0.2,1v10.5C-0.2,12-0.6,12.4-1.2,12.4z"/>
		</g>
	</g>
	<g id="XMLID_143_" class="st1">
		<g id="XMLID_145_">
			<path id="XMLID_4_" class="st2" d="M34.2,37.4H23.8c-0.6,0-1-0.4-1-1s0.4-1,1-1h10.4c0.4,0,0.8-0.4,0.8-0.8V23.4c0-0.6,0.4-1,1-1
				s1,0.4,1,1v11.1C36.9,36.1,35.7,37.4,34.2,37.4z"/>
		</g>
		<g id="XMLID_144_">
			<path id="XMLID_3_" class="st2" d="M35.9,12.4c-0.6,0-1-0.4-1-1V1c0-0.4-0.4-0.8-0.8-0.8H23.8c-0.6,0-1-0.4-1-1s0.4-1,1-1h10.3
				c1.5,0,2.8,1.3,2.8,2.8v10.5C36.9,12,36.5,12.4,35.9,12.4z"/>
		</g>
	</g>
	<g id="XMLID_141_" class="st1">
		<path id="XMLID_2_" class="st2" d="M38,18H-2c-0.6,0-1-0.4-1-1s0.4-1,1-1h40c0.6,0,1,0.4,1,1S38.6,18,38,18z"/>
	</g>
</g>
<g id="XMLID_385_" class="st0">
	<g id="XMLID_407_" class="st1">
		<path id="XMLID_16_" class="st2" d="M3.7,35.1l2.6-4.3c-5.7-2.9-9.1-7.9-9.1-13.3c0-8.8,9.1-15.9,20.3-15.9
			c11.2,0,20.3,7.1,20.3,15.9s-9.1,15.9-20.3,15.9c-0.7,0-1.5,0-2.4-0.1L3.7,35.1z M17.5,3.6C7.4,3.6-0.8,9.8-0.8,17.5
			c0,4.9,3.4,9.4,9,11.9l1,0.5l-1.5,2.5l7.4-1.2l0.1,0c0.9,0.1,1.7,0.1,2.4,0.1c10.1,0,18.3-6.2,18.3-13.9
			C35.9,9.8,27.7,3.6,17.5,3.6z"/>
	</g>
	<g id="XMLID_395_" class="st1">
		<path id="XMLID_13_" class="st2" d="M6,20.2c-1.6,0-2.8-1.3-2.8-2.8s1.3-2.8,2.8-2.8s2.8,1.3,2.8,2.8S7.6,20.2,6,20.2z M6,16.6
			c-0.4,0-0.8,0.4-0.8,0.8c0,0.4,0.4,0.8,0.8,0.8s0.8-0.4,0.8-0.8C6.8,17,6.5,16.6,6,16.6z"/>
	</g>
	<g id="XMLID_394_" class="st1">
		<path id="XMLID_10_" class="st2" d="M18,20.2c-1.6,0-2.8-1.3-2.8-2.8s1.3-2.8,2.8-2.8c1.6,0,2.8,1.3,2.8,2.8S19.6,20.2,18,20.2z
			 M18,16.6c-0.4,0-0.8,0.4-0.8,0.8c0,0.4,0.4,0.8,0.8,0.8c0.4,0,0.8-0.4,0.8-0.8C18.8,17,18.5,16.6,18,16.6z"/>
	</g>
	<g id="XMLID_386_" class="st1">
		<path id="XMLID_7_" class="st2" d="M30,20.2c-1.6,0-2.8-1.3-2.8-2.8s1.3-2.8,2.8-2.8s2.8,1.3,2.8,2.8S31.6,20.2,30,20.2z M30,16.6
			c-0.4,0-0.8,0.4-0.8,0.8c0,0.4,0.4,0.8,0.8,0.8s0.8-0.4,0.8-0.8C30.8,17,30.5,16.6,30,16.6z"/>
	</g>
</g>
<g id="XMLID_455_" class="st0">
	<g id="XMLID_458_" class="st1">
		<path id="XMLID_49_" class="st2" d="M35.5,19.2c-0.3,0-0.5-0.1-0.7-0.3L18.4,2.3L1.9,18.9c-0.4,0.4-1,0.4-1.4,0
			c-0.4-0.4-0.4-1,0-1.4L17.7,0.2C17.9,0,18.2,0,18.4,0c0,0,0,0,0,0c0.3,0,0.5,0,0.7,0.2l17.1,17.2c0.4,0.4,0.4,1,0,1.4
			C36,19.1,35.7,19.2,35.5,19.2z"/>
	</g>
	<g id="XMLID_457_" class="st1">
		<path id="XMLID_48_" class="st2" d="M28,32.8H8.7c-1.7,0-3-1.3-3-3V17.2c0-0.6,0.4-1,1-1s1,0.4,1,1v12.7c0,0.6,0.4,1,1,1H28
			c0.6,0,1-0.4,1-1V17.2c0-0.6,0.4-1,1-1s1,0.4,1,1v12.7C31,31.5,29.7,32.8,28,32.8z"/>
	</g>
	<g id="XMLID_456_" class="st1">
		<path id="XMLID_45_" class="st2" d="M21,32.1h-5.4c-0.4,0-0.8-0.3-0.8-0.8v-6.5c0-0.4,0.3-0.8,0.8-0.8H21c0.4,0,0.8,0.3,0.8,0.8
			v6.5C21.8,31.7,21.4,32.1,21,32.1z M16.4,30.6h3.9v-5h-3.9V30.6z"/>
	</g>
</g>
<g id="XMLID_554_" class="st0">
	<g id="XMLID_467_" class="st1">
		<g id="XMLID_468_">
			<path id="XMLID_57_" class="st2" d="M21.8,32.4c-5.2,0-9.3-4.2-9.3-9.3s4.2-9.3,9.3-9.3s9.3,4.2,9.3,9.3S27,32.4,21.8,32.4z
				 M21.8,15.7c-4,0-7.3,3.3-7.3,7.3s3.3,7.3,7.3,7.3c4,0,7.3-3.3,7.3-7.3S25.9,15.7,21.8,15.7z"/>
		</g>
	</g>
	<g id="XMLID_465_" class="st1">
		<g id="XMLID_466_">
			<path id="XMLID_52_" class="st2" d="M14,34.3H4.9c-1.8,0-3.3-1.5-3.3-3.3V9.5c0-0.6,0.4-1,1-1h29.8c0.6,0,1,0.4,1,1v6.7
				c0,0.6-0.4,1-1,1s-1-0.4-1-1v-5.7H3.6V31c0,0.7,0.6,1.3,1.3,1.3H14c0.6,0,1,0.4,1,1S14.5,34.3,14,34.3z"/>
		</g>
	</g>
	<g id="XMLID_462_" class="st1">
		<g id="XMLID_463_">
			<path id="XMLID_53_" class="st2" d="M32.5,10.6H2.6c-0.4,0-0.8-0.2-0.9-0.6C1.5,9.6,1.6,9.2,1.9,8.9l6.4-7.1
				C8.4,1.6,8.7,1.5,9,1.5h17.1c0.3,0,0.6,0.1,0.7,0.3l6.4,7.1c0.3,0.3,0.3,0.7,0.2,1.1C33.2,10.3,32.9,10.6,32.5,10.6z M4.9,8.6
				h25.4l-4.6-5.1H9.4L4.9,8.6z"/>
		</g>
	</g>
	<g id="XMLID_459_" class="st1">
		<g id="XMLID_460_">
			<path id="XMLID_51_" class="st2" d="M6,18.4c-0.1,0-0.3,0-0.4-0.1C5.2,18.1,5,17.8,5,17.4V10c0-0.6,0.4-1,1-1s1,0.4,1,1v5.2
				L8.4,14c0.4-0.3,0.9-0.3,1.3,0l1.3,1.1V10c0-0.6,0.4-1,1-1s1,0.4,1,1v7.3c0,0.4-0.2,0.7-0.6,0.9c-0.4,0.2-0.8,0.1-1.1-0.1l-2.3-2
				l-2.4,2C6.5,18.3,6.2,18.4,6,18.4z"/>
		</g>
	</g>
	<g id="XMLID_521_" class="st1">
		<g id="XMLID_524_">
			<path class="st3" d="M31.7,34"/>
		</g>
		<g id="XMLID_523_">
			<path id="XMLID_50_" class="st2" d="M31.7,34.2c-0.2,0-0.5-0.1-0.7-0.3l-3.8-3.5c-0.4-0.4-0.4-1-0.1-1.4c0.4-0.4,1-0.4,1.4-0.1
				l3.8,3.5c0.4,0.4,0.4,1,0.1,1.4C32.2,34.1,32,34.2,31.7,34.2z"/>
		</g>
		<g id="XMLID_522_">
			<path class="st3" d="M27.1,29.7"/>
		</g>
	</g>
</g>
<g id="XMLID_555_" class="st0">
	<g id="XMLID_518_" class="st1">
		<path id="XMLID_65_" class="st2" d="M29,18H8c-0.6,0-1-0.4-1-1s0.4-1,1-1h21c0.6,0,1,0.4,1,1S29.6,18,29,18z"/>
	</g>
	<g id="XMLID_517_" class="st1">
		<path id="XMLID_64_" class="st2" d="M29,24H8c-0.6,0-1-0.4-1-1s0.4-1,1-1h21c0.6,0,1,0.4,1,1S29.6,24,29,24z"/>
	</g>
	<g id="XMLID_516_" class="st1">
		<path id="XMLID_63_" class="st2" d="M29,30H8c-0.6,0-1-0.4-1-1s0.4-1,1-1h21c0.6,0,1,0.4,1,1S29.6,30,29,30z"/>
	</g>
	<g id="XMLID_515_" class="st1">
		<path id="XMLID_62_" class="st2" d="M32.8,10.6c-0.2,0-0.5-0.1-0.6-0.3L28.8,5c-0.2-0.3-0.1-0.8,0.2-1c0.4-0.2,0.8-0.1,1,0.2
			l3.3,5.3c0.2,0.3,0.1,0.8-0.2,1C33,10.6,32.9,10.6,32.8,10.6z"/>
	</g>
	<g id="XMLID_500_" class="st1">
		<path id="XMLID_56_" class="st2" d="M31.9,35H4.8C3.2,35,2,33.7,2,32V5c0-1.7,1.2-3,2.8-3H27c0.6,0,1,0.4,1,1v9h6c0.6,0,1,0.4,1,1
			v19C35,33.7,33.6,35,31.9,35z M4.8,4C4.1,4,4,4.7,4,5v27c0,0.3,0.1,1,0.8,1h27.2c0.6,0,1.1-0.4,1.1-1V14h-6c-0.6,0-1-0.4-1-1V4
			H4.8z"/>
	</g>
</g>
<g id="XMLID_501_">
	<g id="XMLID_503_">
		<g id="XMLID_513_">
			<path id="XMLID_71_" class="st2" d="M21.4,20.6c-5,0-9.1-4.1-9.1-9.2s4.1-9.2,9.1-9.2c5,0,9.1,4.1,9.1,9.2S26.4,20.6,21.4,20.6z
				 M21.4,4.2c-3.9,0-7.1,3.2-7.1,7.2s3.2,7.2,7.1,7.2c3.9,0,7.1-3.2,7.1-7.2S25.3,4.2,21.4,4.2z"/>
		</g>
		<g id="XMLID_512_">
			<path id="XMLID_69_" class="st2" d="M9,33.6c-0.6,0-1-0.4-1-1c0-7.7,6.2-14.1,13.9-14.1c0.6,0,1,0.4,1,1s-0.4,1-1,1
				C15.4,20.6,10,26,10,32.6C10,33.2,9.6,33.6,9,33.6z"/>
		</g>
		<g id="XMLID_511_">
			<path id="XMLID_68_" class="st2" d="M34.8,33.6c-0.6,0-1-0.4-1-1c0-4.2-2.3-8.1-5.9-10.2c-0.5-0.3-0.6-0.9-0.4-1.4
				c0.3-0.5,0.9-0.6,1.4-0.4c4.2,2.5,6.9,7.1,6.9,12C35.8,33.2,35.3,33.6,34.8,33.6z"/>
		</g>
		<g id="XMLID_505_">
			<g id="XMLID_507_">
				<path id="XMLID_67_" class="st2" d="M12.5,20.4c-0.1,0-0.1,0-0.2,0c-4.3-0.8-7.4-4.6-7.4-9C4.9,6.3,9,2.2,14,2.2
					c0.6,0,1,0.4,1,1s-0.4,1-1,1c-3.9,0-7.1,3.2-7.1,7.2c0,3.5,2.4,6.4,5.8,7.1c0.5,0.1,0.9,0.6,0.8,1.2
					C13.4,20.1,13,20.4,12.5,20.4z"/>
			</g>
			<g id="XMLID_506_">
				<path id="XMLID_66_" class="st2" d="M1.6,33.6c-0.6,0-1-0.4-1-1c0-6.9,5.1-13.1,11.6-14.2c0.5-0.1,1.1,0.3,1.1,0.8
					c0.1,0.5-0.3,1.1-0.8,1.1c-5.6,0.9-9.9,6.3-9.9,12.2C2.6,33.2,2.1,33.6,1.6,33.6z"/>
			</g>
		</g>
	</g>
	<g id="XMLID_502_">
		<path class="st3" d="M12.5,19.9"/>
	</g>
</g>
</svg>
