<?xml version="1.0" encoding="utf-8"?>
<!-- Generator: Adobe Illustrator 19.0.0, SVG Export Plug-In . SVG Version: 6.00 Build 0)  -->
<svg version="1.1" id="图层_1" xmlns="http://www.w3.org/2000/svg" xmlns:xlink="http://www.w3.org/1999/xlink" x="0px" y="0px"
	 viewBox="0 0 18 18" style="enable-background:new 0 0 18 18;" xml:space="preserve">
<style type="text/css">
	.st0{display:none;}
	.st1{display:inline;}
	.st2{fill:#272728;}
	.st3{fill:none;stroke:#272728;stroke-width:2;stroke-linecap:round;stroke-linejoin:round;stroke-miterlimit:10;}
	.st4{fill:#F1BE1C;}
	.st5{display:inline;fill:#F1BE1C;}
	.st6{fill:#FFFFFF;}
	.st7{fill:#282828;}
	.st8{display:inline;fill:#272636;}
	.st9{fill:#9B9B9B;}
</style>
<g id="XMLID_137_" class="st0">
	<g id="XMLID_149_" class="st1">
		<g id="XMLID_366_">
			<path id="XMLID_6_" class="st2" d="M3,30.4H-7.4c-1.5,0-2.8-1.3-2.8-2.8V16.4c0-0.6,0.4-1,1-1s1,0.4,1,1v11.1
				c0,0.4,0.4,0.8,0.8,0.8H3c0.6,0,1,0.4,1,1S3.5,30.4,3,30.4z"/>
		</g>
		<g id="XMLID_150_">
			<path id="XMLID_5_" class="st2" d="M-9.2,5.4c-0.6,0-1-0.4-1-1V-6c0-1.5,1.3-2.8,2.8-2.8H2.9c0.6,0,1,0.4,1,1s-0.4,1-1,1H-7.4
				c-0.4,0-0.8,0.4-0.8,0.8V4.4C-8.2,5-8.6,5.4-9.2,5.4z"/>
		</g>
	</g>
	<g id="XMLID_143_" class="st1">
		<g id="XMLID_145_">
			<path id="XMLID_4_" class="st2" d="M26.2,30.4H15.8c-0.6,0-1-0.4-1-1s0.4-1,1-1h10.4c0.4,0,0.8-0.4,0.8-0.8V16.4c0-0.6,0.4-1,1-1
				s1,0.4,1,1v11.1C28.9,29.1,27.7,30.4,26.2,30.4z"/>
		</g>
		<g id="XMLID_144_">
			<path id="XMLID_7_" class="st2" d="M27.9,5.4c-0.6,0-1-0.4-1-1V-6c0-0.4-0.4-0.8-0.8-0.8H15.8c-0.6,0-1-0.4-1-1s0.4-1,1-1h10.3
				c1.5,0,2.8,1.3,2.8,2.8V4.4C28.9,5,28.5,5.4,27.9,5.4z"/>
		</g>
	</g>
	<g id="XMLID_141_" class="st1">
		<path id="XMLID_3_" class="st2" d="M30,11h-40c-0.6,0-1-0.4-1-1s0.4-1,1-1h40c0.6,0,1,0.4,1,1S30.6,11,30,11z"/>
	</g>
</g>
<g id="XMLID_385_" class="st0">
	<g id="XMLID_407_" class="st1">
		<path id="XMLID_16_" class="st2" d="M-4.3,28.1l2.6-4.3c-5.7-2.9-9.1-7.9-9.1-13.3c0-8.8,9.1-15.9,20.3-15.9
			c11.2,0,20.3,7.1,20.3,15.9S20.8,26.4,9.5,26.4c-0.7,0-1.5,0-2.4-0.1L-4.3,28.1z M9.5-3.4C-0.6-3.4-8.8,2.8-8.8,10.5
			c0,4.9,3.4,9.4,9,11.9l1,0.5l-1.5,2.5L7,24.3l0.1,0c0.9,0.1,1.7,0.1,2.4,0.1c10.1,0,18.3-6.2,18.3-13.9C27.9,2.8,19.7-3.4,9.5-3.4
			z"/>
	</g>
	<g id="XMLID_395_" class="st1">
		<path id="XMLID_13_" class="st2" d="M-2,13.2c-1.6,0-2.8-1.3-2.8-2.8S-3.5,7.6-2,7.6s2.8,1.3,2.8,2.8S-0.4,13.2-2,13.2z M-2,9.6
			c-0.4,0-0.8,0.4-0.8,0.8c0,0.4,0.4,0.8,0.8,0.8s0.8-0.4,0.8-0.8C-1.2,10-1.5,9.6-2,9.6z"/>
	</g>
	<g id="XMLID_394_" class="st1">
		<path id="XMLID_10_" class="st2" d="M10,13.2c-1.6,0-2.8-1.3-2.8-2.8S8.5,7.6,10,7.6c1.6,0,2.8,1.3,2.8,2.8S11.6,13.2,10,13.2z
			 M10,9.6c-0.4,0-0.8,0.4-0.8,0.8c0,0.4,0.4,0.8,0.8,0.8c0.4,0,0.8-0.4,0.8-0.8C10.8,10,10.5,9.6,10,9.6z"/>
	</g>
	<g id="XMLID_386_" class="st1">
		<path id="XMLID_8_" class="st2" d="M22,13.2c-1.6,0-2.8-1.3-2.8-2.8s1.3-2.8,2.8-2.8s2.8,1.3,2.8,2.8S23.6,13.2,22,13.2z M22,9.6
			c-0.4,0-0.8,0.4-0.8,0.8c0,0.4,0.4,0.8,0.8,0.8s0.8-0.4,0.8-0.8C22.8,10,22.5,9.6,22,9.6z"/>
	</g>
</g>
<g id="XMLID_455_" class="st0">
	<g id="XMLID_458_" class="st1">
		<path id="XMLID_49_" class="st2" d="M27.5,12.2c-0.3,0-0.5-0.1-0.7-0.3L10.4-4.7L-6.1,11.9c-0.4,0.4-1,0.4-1.4,0
			c-0.4-0.4-0.4-1,0-1.4L9.7-6.8C9.9-7,10.2-7,10.4-7c0,0,0,0,0,0c0.3,0,0.5,0,0.7,0.2l17.1,17.2c0.4,0.4,0.4,1,0,1.4
			C28,12.1,27.7,12.2,27.5,12.2z"/>
	</g>
	<g id="XMLID_457_" class="st1">
		<path id="XMLID_48_" class="st2" d="M20,25.8H0.7c-1.7,0-3-1.3-3-3V10.2c0-0.6,0.4-1,1-1s1,0.4,1,1v12.7c0,0.6,0.4,1,1,1H20
			c0.6,0,1-0.4,1-1V10.2c0-0.6,0.4-1,1-1s1,0.4,1,1v12.7C23,24.5,21.7,25.8,20,25.8z"/>
	</g>
	<g id="XMLID_456_" class="st1">
		<path id="XMLID_45_" class="st2" d="M13,25.1H7.6c-0.4,0-0.8-0.3-0.8-0.8v-6.5c0-0.4,0.3-0.8,0.8-0.8H13c0.4,0,0.8,0.3,0.8,0.8
			v6.5C13.8,24.7,13.4,25.1,13,25.1z M8.4,23.6h3.9v-5H8.4V23.6z"/>
	</g>
</g>
<g id="XMLID_554_" class="st0">
	<g id="XMLID_467_" class="st1">
		<g id="XMLID_468_">
			<path id="XMLID_57_" class="st2" d="M13.8,25.4c-5.2,0-9.3-4.2-9.3-9.3s4.2-9.3,9.3-9.3s9.3,4.2,9.3,9.3S19,25.4,13.8,25.4z
				 M13.8,8.7c-4,0-7.3,3.3-7.3,7.3s3.3,7.3,7.3,7.3c4,0,7.3-3.3,7.3-7.3S17.9,8.7,13.8,8.7z"/>
		</g>
	</g>
	<g id="XMLID_465_" class="st1">
		<g id="XMLID_466_">
			<path id="XMLID_52_" class="st2" d="M6,27.3h-9.1c-1.8,0-3.3-1.5-3.3-3.3V2.5c0-0.6,0.4-1,1-1h29.8c0.6,0,1,0.4,1,1v6.7
				c0,0.6-0.4,1-1,1s-1-0.4-1-1V3.5H-4.4V24c0,0.7,0.6,1.3,1.3,1.3H6c0.6,0,1,0.4,1,1S6.5,27.3,6,27.3z"/>
		</g>
	</g>
	<g id="XMLID_462_" class="st1">
		<g id="XMLID_463_">
			<path id="XMLID_53_" class="st2" d="M24.5,3.6H-5.4c-0.4,0-0.8-0.2-0.9-0.6c-0.2-0.4-0.1-0.8,0.2-1.1l6.4-7.1
				C0.4-5.4,0.7-5.5,1-5.5h17.1c0.3,0,0.6,0.1,0.7,0.3l6.4,7.1c0.3,0.3,0.3,0.7,0.2,1.1C25.2,3.3,24.9,3.6,24.5,3.6z M-3.1,1.6h25.4
				l-4.6-5.1H1.4L-3.1,1.6z"/>
		</g>
	</g>
	<g id="XMLID_459_" class="st1">
		<g id="XMLID_460_">
			<path id="XMLID_51_" class="st2" d="M-2,11.4c-0.1,0-0.3,0-0.4-0.1C-2.8,11.1-3,10.8-3,10.4V3c0-0.6,0.4-1,1-1s1,0.4,1,1v5.2
				L0.4,7c0.4-0.3,0.9-0.3,1.3,0L3,8.2V3c0-0.6,0.4-1,1-1s1,0.4,1,1v7.3c0,0.4-0.2,0.7-0.6,0.9c-0.4,0.2-0.8,0.1-1.1-0.1L1,9.1
				l-2.4,2C-1.5,11.3-1.8,11.4-2,11.4z"/>
		</g>
	</g>
	<g id="XMLID_521_" class="st1">
		<g id="XMLID_524_">
			<path id="XMLID_185_" class="st3" d="M23.7,27"/>
		</g>
		<g id="XMLID_523_">
			<path id="XMLID_50_" class="st2" d="M23.7,27.2c-0.2,0-0.5-0.1-0.7-0.3l-3.8-3.5c-0.4-0.4-0.4-1-0.1-1.4c0.4-0.4,1-0.4,1.4-0.1
				l3.8,3.5c0.4,0.4,0.4,1,0.1,1.4C24.2,27.1,24,27.2,23.7,27.2z"/>
		</g>
		<g id="XMLID_522_">
			<path id="XMLID_181_" class="st3" d="M19.1,22.7"/>
		</g>
	</g>
</g>
<g id="XMLID_555_" class="st0">
	<g id="XMLID_518_" class="st1">
		<path id="XMLID_65_" class="st2" d="M21,11H0c-0.6,0-1-0.4-1-1s0.4-1,1-1h21c0.6,0,1,0.4,1,1S21.6,11,21,11z"/>
	</g>
	<g id="XMLID_517_" class="st1">
		<path id="XMLID_64_" class="st2" d="M21,17H0c-0.6,0-1-0.4-1-1s0.4-1,1-1h21c0.6,0,1,0.4,1,1S21.6,17,21,17z"/>
	</g>
	<g id="XMLID_516_" class="st1">
		<path id="XMLID_63_" class="st2" d="M21,23H0c-0.6,0-1-0.4-1-1s0.4-1,1-1h21c0.6,0,1,0.4,1,1S21.6,23,21,23z"/>
	</g>
	<g id="XMLID_515_" class="st1">
		<path id="XMLID_62_" class="st2" d="M24.8,3.6c-0.2,0-0.5-0.1-0.6-0.3L20.8-2c-0.2-0.3-0.1-0.8,0.2-1c0.4-0.2,0.8-0.1,1,0.2
			l3.3,5.3c0.2,0.3,0.1,0.8-0.2,1C25,3.6,24.9,3.6,24.8,3.6z"/>
	</g>
	<g id="XMLID_500_" class="st1">
		<path id="XMLID_56_" class="st2" d="M23.9,28H-3.2C-4.8,28-6,26.7-6,25V-2c0-1.7,1.2-3,2.8-3H19c0.6,0,1,0.4,1,1v9h6
			c0.6,0,1,0.4,1,1v19C27,26.7,25.6,28,23.9,28z M-3.2-3C-3.9-3-4-2.3-4-2v27c0,0.3,0.1,1,0.8,1h27.2c0.6,0,1.1-0.4,1.1-1V7h-6
			c-0.6,0-1-0.4-1-1v-9H-3.2z"/>
	</g>
</g>
<g id="XMLID_501_" class="st0">
	<g id="XMLID_503_" class="st1">
		<g id="XMLID_513_">
			<path id="XMLID_71_" class="st2" d="M13.4,13.6c-5,0-9.1-4.1-9.1-9.2s4.1-9.2,9.1-9.2c5,0,9.1,4.1,9.1,9.2S18.4,13.6,13.4,13.6z
				 M13.4-2.8c-3.9,0-7.1,3.2-7.1,7.2s3.2,7.2,7.1,7.2c3.9,0,7.1-3.2,7.1-7.2S17.3-2.8,13.4-2.8z"/>
		</g>
		<g id="XMLID_512_">
			<path id="XMLID_69_" class="st2" d="M1,26.6c-0.6,0-1-0.4-1-1c0-7.7,6.2-14.1,13.9-14.1c0.6,0,1,0.4,1,1s-0.4,1-1,1
				C7.4,13.6,2,19,2,25.6C2,26.2,1.6,26.6,1,26.6z"/>
		</g>
		<g id="XMLID_511_">
			<path id="XMLID_68_" class="st2" d="M26.8,26.6c-0.6,0-1-0.4-1-1c0-4.2-2.3-8.1-5.9-10.2c-0.5-0.3-0.6-0.9-0.4-1.4
				c0.3-0.5,0.9-0.6,1.4-0.4c4.2,2.5,6.9,7.1,6.9,12C27.8,26.2,27.3,26.6,26.8,26.6z"/>
		</g>
		<g id="XMLID_505_">
			<g id="XMLID_507_">
				<path id="XMLID_67_" class="st2" d="M4.5,13.4c-0.1,0-0.1,0-0.2,0c-4.3-0.8-7.4-4.6-7.4-9C-3.1-0.7,1-4.8,6-4.8c0.6,0,1,0.4,1,1
					s-0.4,1-1,1c-3.9,0-7.1,3.2-7.1,7.2c0,3.5,2.4,6.4,5.8,7.1c0.5,0.1,0.9,0.6,0.8,1.2C5.4,13.1,5,13.4,4.5,13.4z"/>
			</g>
			<g id="XMLID_506_">
				<path id="XMLID_66_" class="st2" d="M-6.4,26.6c-0.6,0-1-0.4-1-1c0-6.9,5.1-13.1,11.6-14.2c0.5-0.1,1.1,0.3,1.1,0.8
					c0.1,0.5-0.3,1.1-0.8,1.1c-5.6,0.9-9.9,6.3-9.9,12.2C-5.4,26.2-5.9,26.6-6.4,26.6z"/>
			</g>
		</g>
	</g>
	<g id="XMLID_502_" class="st1">
		<path id="XMLID_148_" class="st3" d="M4.5,12.9"/>
	</g>
</g>
<g id="XMLID_99_" class="st0">
	<g id="XMLID_960_" class="st1">
		<polygon id="XMLID_1015_" class="st4" points="9.4,-4 24.4,11 26.5,11 9.4,-6.3 -7.8,11 -5.5,11 		"/>
		<polygon id="XMLID_1016_" class="st4" points="23,11.2 9.4,-2.4 -4.1,11.2 		"/>
	</g>
	<path id="XMLID_98_" class="st5" d="M-2,10v12.8c0,1.1,0.6,2.2,1.7,2.2H7v-7h5v7h7c1.1,0,2-1.1,2-2.2V10H-2z"/>
</g>
<g id="XMLID_100_" class="st0">
	<g id="XMLID_982_" class="st1">
		<path id="XMLID_983_" class="st4" d="M6,25.3h-9.1c-1.3,0-2.3-1-2.3-2.3V2.5h29.8v20.8c0,1.1-0.9,2-2,2H6z"/>
	</g>
	<g id="XMLID_979_" class="st1">
		<path id="XMLID_980_" class="st4" d="M24.5,1.6H-5.4L1-5.5h17.1L24.5,1.6z"/>
	</g>
	<g id="XMLID_977_" class="st1">
		<polyline id="XMLID_978_" class="st6" points="4,2 4,9.3 1,6.8 -2,9.4 -2,2 		"/>
	</g>
	<g id="XMLID_988_" class="st1">
		<path id="XMLID_989_" class="st6" d="M13.8,23.4c-4.6,0-8.3-3.7-8.3-8.3s3.7-8.3,8.3-8.3s8.3,3.7,8.3,8.3S18.4,23.4,13.8,23.4z"/>
	</g>
	<g id="XMLID_984_" class="st1">
		<g id="XMLID_987_">
			<path id="XMLID_381_" class="st6" d="M23.5,25.1"/>
		</g>
		<g id="XMLID_986_">
			<path id="XMLID_374_" class="st6" d="M23.4,25.3c-0.2,0-0.5-0.1-0.7-0.3L19,21.5c-0.4-0.4-0.4-1-0.1-1.4c0.4-0.4,1-0.4,1.4-0.1
				l3.8,3.5c0.4,0.4,0.4,1,0.1,1.4C24,25.2,23.7,25.3,23.4,25.3z"/>
		</g>
		<g id="XMLID_985_">
			<path id="XMLID_377_" class="st6" d="M18.9,20.8"/>
		</g>
	</g>
</g>
<g id="XMLID_101_" class="st0">
	<path id="XMLID_954_" class="st5" d="M19,6V-4H-3.2C-4.3-4-5-3.1-5-2v27c0,1.1,0.7,2,1.8,2h27.2c1.1,0,2.1-0.9,2.1-2V6H19z"/>
	<g id="XMLID_958_" class="st1">
		<path id="XMLID_382_" class="st6" d="M20.7,11h-21c-0.6,0-1-0.4-1-1s0.4-1,1-1h21c0.6,0,1,0.4,1,1S21.3,11,20.7,11z"/>
	</g>
	<g id="XMLID_957_" class="st1">
		<path id="XMLID_379_" class="st6" d="M20.7,17h-21c-0.6,0-1-0.4-1-1s0.4-1,1-1h21c0.6,0,1,0.4,1,1S21.3,17,20.7,17z"/>
	</g>
	<g id="XMLID_956_" class="st1">
		<path id="XMLID_378_" class="st6" d="M20.7,23h-21c-0.6,0-1-0.4-1-1s0.4-1,1-1h21c0.6,0,1,0.4,1,1S21.3,23,20.7,23z"/>
	</g>
	<g id="XMLID_955_" class="st1">
		<path id="XMLID_383_" class="st4" d="M24.8,3.6c-0.2,0-0.5-0.1-0.6-0.3L20.8-2c-0.2-0.3-0.1-0.8,0.2-1c0.3-0.2,0.8-0.1,1,0.2
			l3.3,5.3c0.2,0.3,0.1,0.8-0.2,1C25,3.6,24.9,3.6,24.8,3.6z"/>
	</g>
</g>
<g id="XMLID_31_" class="st0">
	<g id="XMLID_576_" class="st1">
		<path id="XMLID_37_" class="st7" d="M22,22H-0.4c-0.5,0-0.9-0.4-1-0.8L-5.5-6H-12c-0.6,0-1-0.4-1-1s0.4-1,1-1h7.4
			c0.5,0,0.9,0.4,1,0.9L0.5,20H22c0.6,0,1,0.4,1,1S22.6,22,22,22z"/>
	</g>
	<g id="XMLID_34_" class="st1">
		<path id="XMLID_36_" class="st7" d="M22,18H0c-0.6,0-1-0.4-1-1s0.4-1,1-1h21.2l4.1-16.2L2.4,0c0,0,0,0,0,0c-0.6,0-1-0.6-1-1.2
			c0-0.6,0.4-0.9,1-0.9L26.6-2c0,0,0,0,0,0c0.3,0,0.6-0.1,0.8,0.2c0.2,0.2,0.3,0.5,0.2,0.8L23,17.3C22.9,17.7,22.5,18,22,18z"/>
	</g>
	<g id="XMLID_33_" class="st1">
		<circle class="st7" cx="2.4" cy="27.5" r="2.2"/>
	</g>
	<g id="XMLID_32_" class="st1">
		<circle class="st7" cx="18.4" cy="27.5" r="2.2"/>
	</g>
</g>
<g id="XMLID_578_" class="st0">
	<path id="XMLID_91_" class="st8" d="M20.7,13.1c0.1,0.1,0.3,0.2,0.4,0.3c0.9,0.7,1.2,1.1,1.2,1.1h0l0,0l0,0c0,0,0.1,0.1,0.1,0.2
		c0,0,0.1,0.1,0.1,0.1c0,0,0,0,0,0.1c0,0,0,0.1,0.1,0.1l0.2,0.3v0c0.4,0.7,0.1,1.7-0.1,2.1c-0.4,0.8-1.1,1.7-1.7,2.2
		c-1.1,1-2.7,2.2-4.6,2.2c-0.2,0-0.4,0-0.6,0c-1.4-0.2-3.6-1-5.9-2.3c-2.6-1.4-5-3.2-6.9-5c-1.9-1.8-3.8-4.2-5.3-6.6
		c-1.4-2.2-2.3-4.3-2.5-5.7c-0.1-0.9,0.1-1.9,0.6-2.9c0.5-0.9,1.2-1.7,2.1-2.4C-2-3.1-2-3.1-1.9-3.2c0.7-0.6,1.3-1,2.2-1.4
		c0.3-0.1,0.7-0.2,1-0.2c0.3,0,0.6,0.1,0.9,0.2l0,0c0.1,0.1,0.3,0.2,0.4,0.2c0.2,0.1,1.1,0.6,2.1,1.9C5-2.1,5.5-1.4,5.9-0.7
		c0.6,1.1,1,2,1,2l0,0L7,1.5c0.3,0.7,0.1,1.4-0.4,1.8c0,0-0.1,0.1-0.1,0.1l0,0l0,0c0,0-0.1,0.1-0.1,0.1C6.3,3.7,6.2,3.7,6.2,3.7l0,0
		C5.9,3.9,5.7,4,5.6,4.1c-0.1,0-0.2,0.1-0.4,0.2l0,0c-0.3,0.2-0.6,0.3-1,0.5C4,4.9,3.7,5,3.4,5.1c-0.5,0.3-0.5,1-0.4,1.2
		C3.6,7.8,4.7,9.2,6.6,11c1.7,1.6,3.3,2.6,4.7,3.4c0.2,0.1,0.3,0.1,0.5,0.1c0.5,0,1-0.4,1.2-0.8c0.2-0.3,0.3-0.6,0.4-0.9
		c0.1-0.2,0.2-0.4,0.3-0.6l0,0c0.2-0.4,0.4-0.7,0.5-0.9c0.1-0.1,0.2-0.2,0.2-0.3c0.2-0.3,0.5-0.5,0.9-0.7c0.2-0.1,0.4-0.1,0.7-0.1
		c0.3,0,0.6,0.1,0.8,0.2l0.6,0.3l0,0c0,0,0.1,0.1,0.1,0.1c0.1,0,0.2,0.1,0.3,0.2c0.2,0.1,0.6,0.4,1,0.6c0.1,0,0.1,0.1,0.2,0.1
		 M15.4,11.9c0,0.1-0.3,0.3-0.6,0.9c-0.1,0.2-0.2,0.4-0.3,0.6c-0.1,0.3-0.3,0.6-0.5,0.9c-0.4,0.7-1.2,1.4-2.2,1.4
		c-0.4,0-0.8-0.1-1.1-0.3c-1.4-0.8-3.2-1.9-4.9-3.6c-2-1.9-3.2-3.5-3.9-5C1.6,6.4,1.6,5.9,1.7,5.4C1.9,4.8,2.3,4.3,2.8,4
		c0.4-0.2,0.7-0.3,1-0.4c0.3-0.1,0.5-0.2,0.8-0.4C4.8,3.1,4.9,3.1,5,3c0.1-0.1,0.2-0.1,0.5-0.3c0,0,0,0,0.1,0c0.1,0,0.1-0.1,0.1-0.1
		c0,0,0,0,0.1-0.1l0,0C5.9,2.4,5.9,2.2,5.9,2l0,0L5.8,1.8c-0.1-0.1-0.4-1-1-1.9C4.5-0.6,4.1-1.2,3.7-1.8C2.8-2.9,2.1-3.3,2-3.3l0,0
		c-0.1,0-0.3-0.1-0.3-0.2C1.6-3.5,1.4-3.6,1.3-3.6c-0.2,0-0.3,0-0.5,0.1l0,0C0-3.2-0.5-2.8-1.1-2.2c-0.1,0-0.1,0.1-0.2,0.1
		c-1.6,1.3-2.5,2.9-2.3,4.2c0.2,1.2,1,3.1,2.3,5.2c1.4,2.3,3.2,4.6,5.1,6.3c1.8,1.8,4.2,3.5,6.7,4.8c2.2,1.2,4.2,2,5.5,2.2
		c0.2,0,0.3,0,0.5,0c1.2,0,2.4-0.6,3.8-1.9c0.5-0.4,1.1-1.2,1.4-1.8c0.2-0.4,0.2-0.9,0.1-1.1l-0.1-0.2v0l0,0c0-0.1-0.1-0.2-0.2-0.3
		c0,0-0.3-0.4-1.1-1c-0.7-0.6-1.6-1.2-2.2-1.6c-0.7-0.5-1.2-0.8-1.3-0.8l-0.6-0.3c0,0-0.1,0-0.3,0c-0.1,0-0.2,0-0.3,0
		c-0.1,0-0.3,0.2-0.3,0.2L15.4,11.9L15.4,11.9z M15.4,11.9"/>
</g>
<g id="XMLID_552_" class="st0">
	<path id="XMLID_109_" class="st8" d="M-3-3v24h24V-3H-3L-3-3z M19.9,8h-1v2h1v9.9l0,0h-9.8v-1h-2v1h-10V10h1V8h-1V-2h10v1h2v-1h9.8
		V8L19.9,8z M19.9,8"/>
	<path id="XMLID_577_" class="st8" d="M7.6,4.5H6.4L3.1,9v1.4h3.5v3h1v-3h1.5v-1H7.6V4.5L7.6,4.5z M6.6,9.4H4.1l0,0l2.5-3.6V9.4
		L6.6,9.4z M6.6,9.4"/>
	<path id="XMLID_553_" class="st8" d="M10.2,7.8c0.2,0.3,0.5,0.6,0.9,0.8v0c-0.5,0.2-0.8,0.5-1,0.9c-0.2,0.4-0.4,0.8-0.4,1.3
		c0,0.4,0.1,0.7,0.2,1c0.1,0.3,0.3,0.6,0.5,0.8c0.2,0.2,0.5,0.4,0.9,0.5c0.3,0.1,0.7,0.2,1.1,0.2c0.8,0,1.4-0.2,1.9-0.7
		c0.5-0.5,0.8-1.1,0.8-1.8c0-0.5-0.1-1-0.4-1.3c-0.2-0.3-0.6-0.6-1.1-0.9v0c0.4-0.2,0.7-0.5,0.9-0.9c0.2-0.4,0.3-0.8,0.3-1.1
		c0-0.6-0.2-1.2-0.7-1.6c-0.5-0.4-1.1-0.6-1.8-0.6c-0.7,0-1.3,0.2-1.8,0.6c-0.5,0.4-0.7,1-0.7,1.6C9.9,7.2,10,7.5,10.2,7.8L10.2,7.8
		z M13.7,10.1c0.1,0.2,0.2,0.5,0.2,0.8c0,0.5-0.1,0.9-0.4,1.2c-0.3,0.3-0.4,0.4-0.9,0.4c-0.5,0-1.1-0.1-1.4-0.5
		c-0.3-0.3-0.5-0.8-0.5-1.3c0-0.4,0.1-0.8,0.2-1.1c0.2-0.3,0.4-0.6,0.7-0.8c0.3,0.1,0.5,0.2,0.7,0.3c0.2,0.1,0.4,0.2,0.5,0.2
		C13.4,9.7,13.6,9.9,13.7,10.1L13.7,10.1z M11.4,5.6c0.3-0.2,0.6-0.3,1-0.3c0.4,0,0.8,0.1,1,0.4c0.2,0.3,0.4,0.6,0.4,1
		c0,0.4-0.1,0.7-0.2,0.9c-0.1,0.3-0.3,0.5-0.7,0.8c-0.2-0.1-0.4-0.2-0.6-0.3c-0.2-0.1-0.4-0.2-0.5-0.3c-0.3-0.2-0.5-0.3-0.6-0.5
		C11.1,7.1,11,6.9,11,6.6C11,6.2,11.1,5.9,11.4,5.6L11.4,5.6z M11.4,5.6"/>
</g>
<g id="XMLID_536_" class="st0">
	<path id="XMLID_548_" class="st8" d="M4.4-0.6C3.7,2.3,2.6,4.9,1.1,7.2C1.2,7.6,1.3,8,1.5,8.5C2,7.8,2.5,7,3,6.2V15h1.2V3.7
		c0.5-1.3,1-2.6,1.4-3.9L4.4-0.6L4.4-0.6z M4.4-0.6"/>
	<path id="XMLID_544_" class="st8" d="M15.6,0.1H6.7v5.5h8.9V0.1L15.6,0.1z M14.3,4.4H7.9V1.2h6.5V4.4L14.3,4.4z M14.3,4.4"/>
	<path id="XMLID_541_" class="st8" d="M12.6,8.7H17V7.7h-5.3V6h-1.2v1.7H5.2v1.1h4.2c-1.1,1.8-2.6,3.3-4.7,4.4
		c0.3,0.3,0.6,0.6,0.9,0.9c2-1.2,3.7-3,4.9-5.2V15h1.2V8.9c1,2.1,2.5,3.7,4.6,4.8c0.2-0.4,0.5-0.7,0.7-0.9
		C15.2,11.9,13.7,10.5,12.6,8.7L12.6,8.7z M12.6,8.7"/>
	<path id="XMLID_537_" class="st8" d="M20.5-1.6C15.2-3,9.1-3,9-3C9-3,2.8-3-2.4-1.6L-3-1.5L-3,9c0,0.2,0.2,2.3,1.7,4.7
		c0.9,1.5,2.1,2.8,3.6,3.9c1.8,1.4,4,2.5,6.5,3.3L9,21l0.2-0.1c2.5-0.8,4.7-1.9,6.5-3.3c1.5-1.1,2.6-2.4,3.6-3.9
		C20.8,11.3,21,9.3,21,9l0-10.5L20.5-1.6L20.5-1.6z M18.1,13c-0.8,1.3-1.9,2.5-3.2,3.5c-1.6,1.2-3.6,2.2-5.9,3
		c-2.3-0.7-4.3-1.7-5.9-3c-1.3-1-2.4-2.2-3.2-3.5c-1.3-2.2-1.5-4-1.5-4.2v-9.2C3.4-1.6,9-1.6,9-1.6c0.1,0,5.6,0,10.6,1.2l0,9.3
		C19.6,9,19.4,10.8,18.1,13L18.1,13z M18.1,13"/>
</g>
<g id="XMLID_499_" class="st0">
	<path id="XMLID_530_" class="st8" d="M-3-3v24h24V-3H-3L-3-3z M19.9,19.9H-1.9V-2h21.9V19.9L19.9,19.9z M19.9,19.9"/>
	<path id="XMLID_527_" class="st8" d="M4.1,16.4l-1.5-1.5h12.9l-1.5,1.5h1.5l2-2l0,0l-2-2h-1.5l1.5,1.5H2.6l1.5-1.5H2.6l-2,2l0,0
		l2,2H4.1z M4.1,16.4"/>
	<path id="XMLID_510_" class="st8" d="M8.5,9.5H7V1.4H6.1c0,0.6,0,1.5-1.4,1.5v0.9h1.4v5.7H4.6v0.9h3.9V9.5L8.5,9.5z M8.5,9.5"/>
	<path id="XMLID_504_" class="st8" d="M11.9,4.6h-1.4V2.3h4.1V1.4h-5v4h1.8c3,0,3.1,4.1,0,4.1H9.7v0.9h2.3
		C15.6,10.4,15.4,4.6,11.9,4.6L11.9,4.6z M11.9,4.6"/>
</g>
<polyline id="XMLID_124_" class="st9" points="15.8,6 9,14.8 2.2,6 "/>
</svg>
