<?xml version="1.0" encoding="utf-8"?>
<!-- Generator: Adobe Illustrator 19.0.0, SVG Export Plug-In . SVG Version: 6.00 Build 0)  -->
<svg version="1.1" id="图层_1" xmlns="http://www.w3.org/2000/svg" xmlns:xlink="http://www.w3.org/1999/xlink" x="0px" y="0px"
	 viewBox="0 0 48 48" style="enable-background:new 0 0 48 48;" xml:space="preserve">
<style type="text/css">
	.st0{display:none;}
	.st1{display:inline;}
	.st2{fill:#282828;}
	.st3{fill:none;stroke:#282828;stroke-width:2;stroke-linecap:round;stroke-linejoin:round;stroke-miterlimit:10;}
</style>
<g id="XMLID_137_" class="st0">
	<g id="XMLID_149_" class="st1">
		<g id="XMLID_366_">
			<path id="XMLID_6_" class="st2" d="M17,43.4H6.6c-1.5,0-2.8-1.3-2.8-2.8V29.4c0-0.6,0.4-1,1-1s1,0.4,1,1v11.1
				c0,0.4,0.4,0.8,0.8,0.8H17c0.6,0,1,0.4,1,1S17.5,43.4,17,43.4z"/>
		</g>
		<g id="XMLID_150_">
			<path id="XMLID_5_" class="st2" d="M4.8,18.4c-0.6,0-1-0.4-1-1V7c0-1.5,1.3-2.8,2.8-2.8h10.3c0.6,0,1,0.4,1,1s-0.4,1-1,1H6.6
				C6.2,6.2,5.8,6.5,5.8,7v10.5C5.8,18,5.4,18.4,4.8,18.4z"/>
		</g>
	</g>
	<g id="XMLID_143_" class="st1">
		<g id="XMLID_145_">
			<path id="XMLID_4_" class="st2" d="M40.2,43.4H29.8c-0.6,0-1-0.4-1-1s0.4-1,1-1h10.4c0.4,0,0.8-0.4,0.8-0.8V29.4c0-0.6,0.4-1,1-1
				s1,0.4,1,1v11.1C42.9,42.1,41.7,43.4,40.2,43.4z"/>
		</g>
		<g id="XMLID_144_">
			<path id="XMLID_3_" class="st2" d="M41.9,18.4c-0.6,0-1-0.4-1-1V7c0-0.4-0.4-0.8-0.8-0.8H29.8c-0.6,0-1-0.4-1-1s0.4-1,1-1h10.3
				c1.5,0,2.8,1.3,2.8,2.8v10.5C42.9,18,42.5,18.4,41.9,18.4z"/>
		</g>
	</g>
	<g id="XMLID_141_" class="st1">
		<path id="XMLID_2_" class="st2" d="M44,24H4c-0.6,0-1-0.4-1-1s0.4-1,1-1h40c0.6,0,1,0.4,1,1S44.6,24,44,24z"/>
	</g>
</g>
<g id="XMLID_385_">
	<g id="XMLID_407_">
		<path id="XMLID_16_" class="st2" d="M9.7,41.1l2.6-4.3c-5.7-2.9-9.1-7.9-9.1-13.3c0-8.8,9.1-15.9,20.3-15.9
			c11.2,0,20.3,7.1,20.3,15.9s-9.1,15.9-20.3,15.9c-0.7,0-1.5,0-2.4-0.1L9.7,41.1z M23.5,9.6c-10.1,0-18.3,6.2-18.3,13.9
			c0,4.9,3.4,9.4,9,11.9l1,0.5l-1.5,2.5l7.4-1.2l0.1,0c0.9,0.1,1.7,0.1,2.4,0.1c10.1,0,18.3-6.2,18.3-13.9
			C41.9,15.8,33.7,9.6,23.5,9.6z"/>
	</g>
	<g id="XMLID_395_">
		<path id="XMLID_13_" class="st2" d="M12,26.2c-1.6,0-2.8-1.3-2.8-2.8s1.3-2.8,2.8-2.8s2.8,1.3,2.8,2.8S13.6,26.2,12,26.2z
			 M12,22.6c-0.4,0-0.8,0.4-0.8,0.8c0,0.4,0.4,0.8,0.8,0.8s0.8-0.4,0.8-0.8C12.8,23,12.5,22.6,12,22.6z"/>
	</g>
	<g id="XMLID_394_">
		<path id="XMLID_10_" class="st2" d="M24,26.2c-1.6,0-2.8-1.3-2.8-2.8s1.3-2.8,2.8-2.8c1.6,0,2.8,1.3,2.8,2.8S25.6,26.2,24,26.2z
			 M24,22.6c-0.4,0-0.8,0.4-0.8,0.8c0,0.4,0.4,0.8,0.8,0.8c0.4,0,0.8-0.4,0.8-0.8C24.8,23,24.5,22.6,24,22.6z"/>
	</g>
	<g id="XMLID_386_">
		<path id="XMLID_7_" class="st2" d="M36,26.2c-1.6,0-2.8-1.3-2.8-2.8s1.3-2.8,2.8-2.8s2.8,1.3,2.8,2.8S37.6,26.2,36,26.2z M36,22.6
			c-0.4,0-0.8,0.4-0.8,0.8c0,0.4,0.4,0.8,0.8,0.8s0.8-0.4,0.8-0.8C36.8,23,36.5,22.6,36,22.6z"/>
	</g>
</g>
<g id="XMLID_455_" class="st0">
	<g id="XMLID_458_" class="st1">
		<path id="XMLID_49_" class="st2" d="M41.5,25.2c-0.3,0-0.5-0.1-0.7-0.3L24.4,8.3L7.9,24.9c-0.4,0.4-1,0.4-1.4,0
			c-0.4-0.4-0.4-1,0-1.4L23.7,6.2C23.9,6,24.2,6,24.4,6c0,0,0,0,0,0c0.3,0,0.5,0,0.7,0.2l17.1,17.2c0.4,0.4,0.4,1,0,1.4
			C42,25.1,41.7,25.2,41.5,25.2z"/>
	</g>
	<g id="XMLID_457_" class="st1">
		<path id="XMLID_48_" class="st2" d="M34,38.8H14.7c-1.7,0-3-1.3-3-3V23.2c0-0.6,0.4-1,1-1s1,0.4,1,1v12.7c0,0.6,0.4,1,1,1H34
			c0.6,0,1-0.4,1-1V23.2c0-0.6,0.4-1,1-1s1,0.4,1,1v12.7C37,37.5,35.7,38.8,34,38.8z"/>
	</g>
	<g id="XMLID_456_" class="st1">
		<path id="XMLID_45_" class="st2" d="M27,38.1h-5.4c-0.4,0-0.8-0.3-0.8-0.8v-6.5c0-0.4,0.3-0.8,0.8-0.8H27c0.4,0,0.8,0.3,0.8,0.8
			v6.5C27.8,37.7,27.4,38.1,27,38.1z M22.4,36.6h3.9v-5h-3.9V36.6z"/>
	</g>
</g>
<g id="XMLID_554_" class="st0">
	<g id="XMLID_467_" class="st1">
		<g id="XMLID_468_">
			<path id="XMLID_57_" class="st2" d="M27.8,38.4c-5.2,0-9.3-4.2-9.3-9.3s4.2-9.3,9.3-9.3s9.3,4.2,9.3,9.3S33,38.4,27.8,38.4z
				 M27.8,21.7c-4,0-7.3,3.3-7.3,7.3s3.3,7.3,7.3,7.3c4,0,7.3-3.3,7.3-7.3S31.9,21.7,27.8,21.7z"/>
		</g>
	</g>
	<g id="XMLID_465_" class="st1">
		<g id="XMLID_466_">
			<path id="XMLID_52_" class="st2" d="M20,40.3h-9.1c-1.8,0-3.3-1.5-3.3-3.3V15.5c0-0.6,0.4-1,1-1h29.8c0.6,0,1,0.4,1,1v6.7
				c0,0.6-0.4,1-1,1s-1-0.4-1-1v-5.7H9.6V37c0,0.7,0.6,1.3,1.3,1.3H20c0.6,0,1,0.4,1,1S20.5,40.3,20,40.3z"/>
		</g>
	</g>
	<g id="XMLID_462_" class="st1">
		<g id="XMLID_463_">
			<path id="XMLID_53_" class="st2" d="M38.5,16.6H8.6c-0.4,0-0.8-0.2-0.9-0.6c-0.2-0.4-0.1-0.8,0.2-1.1l6.4-7.1
				c0.2-0.2,0.5-0.3,0.7-0.3h17.1c0.3,0,0.6,0.1,0.7,0.3l6.4,7.1c0.3,0.3,0.3,0.7,0.2,1.1C39.2,16.3,38.9,16.6,38.5,16.6z
				 M10.9,14.6h25.4l-4.6-5.1H15.4L10.9,14.6z"/>
		</g>
	</g>
	<g id="XMLID_459_" class="st1">
		<g id="XMLID_460_">
			<path id="XMLID_51_" class="st2" d="M12,24.4c-0.1,0-0.3,0-0.4-0.1c-0.4-0.2-0.6-0.5-0.6-0.9V16c0-0.6,0.4-1,1-1s1,0.4,1,1v5.2
				l1.4-1.2c0.4-0.3,0.9-0.3,1.3,0l1.3,1.1V16c0-0.6,0.4-1,1-1s1,0.4,1,1v7.3c0,0.4-0.2,0.7-0.6,0.9c-0.4,0.2-0.8,0.1-1.1-0.1
				l-2.3-2l-2.4,2C12.5,24.3,12.2,24.4,12,24.4z"/>
		</g>
	</g>
	<g id="XMLID_521_" class="st1">
		<g id="XMLID_524_">
			<path class="st3" d="M37.7,40"/>
		</g>
		<g id="XMLID_523_">
			<path id="XMLID_50_" class="st2" d="M37.7,40.2c-0.2,0-0.5-0.1-0.7-0.3l-3.8-3.5c-0.4-0.4-0.4-1-0.1-1.4c0.4-0.4,1-0.4,1.4-0.1
				l3.8,3.5c0.4,0.4,0.4,1,0.1,1.4C38.2,40.1,38,40.2,37.7,40.2z"/>
		</g>
		<g id="XMLID_522_">
			<path class="st3" d="M33.1,35.7"/>
		</g>
	</g>
</g>
<g id="XMLID_555_" class="st0">
	<g id="XMLID_518_" class="st1">
		<path id="XMLID_65_" class="st2" d="M35,24H14c-0.6,0-1-0.4-1-1s0.4-1,1-1h21c0.6,0,1,0.4,1,1S35.6,24,35,24z"/>
	</g>
	<g id="XMLID_517_" class="st1">
		<path id="XMLID_64_" class="st2" d="M35,30H14c-0.6,0-1-0.4-1-1s0.4-1,1-1h21c0.6,0,1,0.4,1,1S35.6,30,35,30z"/>
	</g>
	<g id="XMLID_516_" class="st1">
		<path id="XMLID_63_" class="st2" d="M35,36H14c-0.6,0-1-0.4-1-1s0.4-1,1-1h21c0.6,0,1,0.4,1,1S35.6,36,35,36z"/>
	</g>
	<g id="XMLID_515_" class="st1">
		<path id="XMLID_62_" class="st2" d="M38.8,16.6c-0.2,0-0.5-0.1-0.6-0.3L34.8,11c-0.2-0.3-0.1-0.8,0.2-1c0.4-0.2,0.8-0.1,1,0.2
			l3.3,5.3c0.2,0.3,0.1,0.8-0.2,1C39,16.6,38.9,16.6,38.8,16.6z"/>
	</g>
	<g id="XMLID_500_" class="st1">
		<path id="XMLID_56_" class="st2" d="M37.9,41H10.8C9.2,41,8,39.7,8,38V11c0-1.7,1.2-3,2.8-3H33c0.6,0,1,0.4,1,1v9h6
			c0.6,0,1,0.4,1,1v19C41,39.7,39.6,41,37.9,41z M10.8,10c-0.7,0-0.8,0.7-0.8,1v27c0,0.3,0.1,1,0.8,1h27.2c0.6,0,1.1-0.4,1.1-1V20
			h-6c-0.6,0-1-0.4-1-1v-9H10.8z"/>
	</g>
</g>
<g id="XMLID_501_" class="st0">
	<g id="XMLID_503_" class="st1">
		<g id="XMLID_513_">
			<path id="XMLID_71_" class="st2" d="M27.4,26.6c-5,0-9.1-4.1-9.1-9.2s4.1-9.2,9.1-9.2c5,0,9.1,4.1,9.1,9.2S32.4,26.6,27.4,26.6z
				 M27.4,10.2c-3.9,0-7.1,3.2-7.1,7.2s3.2,7.2,7.1,7.2c3.9,0,7.1-3.2,7.1-7.2S31.3,10.2,27.4,10.2z"/>
		</g>
		<g id="XMLID_512_">
			<path id="XMLID_69_" class="st2" d="M15,39.6c-0.6,0-1-0.4-1-1c0-7.7,6.2-14.1,13.9-14.1c0.6,0,1,0.4,1,1s-0.4,1-1,1
				C21.4,26.6,16,32,16,38.6C16,39.2,15.6,39.6,15,39.6z"/>
		</g>
		<g id="XMLID_511_">
			<path id="XMLID_68_" class="st2" d="M40.8,39.6c-0.6,0-1-0.4-1-1c0-4.2-2.3-8.1-5.9-10.2c-0.5-0.3-0.6-0.9-0.4-1.4
				c0.3-0.5,0.9-0.6,1.4-0.4c4.2,2.5,6.9,7.1,6.9,12C41.8,39.2,41.3,39.6,40.8,39.6z"/>
		</g>
		<g id="XMLID_505_">
			<g id="XMLID_507_">
				<path id="XMLID_67_" class="st2" d="M18.5,26.4c-0.1,0-0.1,0-0.2,0c-4.3-0.8-7.4-4.6-7.4-9c0-5.1,4.1-9.2,9.1-9.2
					c0.6,0,1,0.4,1,1s-0.4,1-1,1c-3.9,0-7.1,3.2-7.1,7.2c0,3.5,2.4,6.4,5.8,7.1c0.5,0.1,0.9,0.6,0.8,1.2
					C19.4,26.1,19,26.4,18.5,26.4z"/>
			</g>
			<g id="XMLID_506_">
				<path id="XMLID_66_" class="st2" d="M7.6,39.6c-0.6,0-1-0.4-1-1c0-6.9,5.1-13.1,11.6-14.2c0.5-0.1,1.1,0.3,1.1,0.8
					c0.1,0.5-0.3,1.1-0.8,1.1c-5.6,0.9-9.9,6.3-9.9,12.2C8.6,39.2,8.1,39.6,7.6,39.6z"/>
			</g>
		</g>
	</g>
	<g id="XMLID_502_" class="st1">
		<path class="st3" d="M18.5,25.9"/>
	</g>
</g>
</svg>
