<?xml version="1.0" encoding="utf-8"?>
<!-- Generator: Adobe Illustrator 19.0.0, SVG Export Plug-In . SVG Version: 6.00 Build 0)  -->
<svg version="1.1" id="图层_1" xmlns="http://www.w3.org/2000/svg" xmlns:xlink="http://www.w3.org/1999/xlink" x="0px" y="0px"
	 viewBox="0 0 182 182" style="enable-background:new 0 0 182 182;" xml:space="preserve">
<style type="text/css">
	.st0{display:none;}
	.st1{display:inline;}
	.st2{fill:#272728;}
	.st3{fill:none;stroke:#272728;stroke-width:2;stroke-linecap:round;stroke-linejoin:round;stroke-miterlimit:10;}
	.st4{fill:#F1BE1C;}
	.st5{display:inline;fill:#F1BE1C;}
	.st6{fill:#FFFFFF;}
	.st7{fill:#282828;}
	.st8{display:inline;fill:#FB5B46;}
	.st9{display:inline;fill:#282828;}
	.st10{fill:#F5DEFF;}
	.st11{fill:#FFAEFF;}
	.st12{fill:#F9D4FC;}
	.st13{fill:#D2EFFF;}
	.st14{fill:#92D8FF;}
	.st15{fill:#31AEFA;}
	.st16{fill:#F7EDB2;}
	.st17{fill:#FCC505;}
	.st18{fill:#E1F2AA;}
	.st19{fill:#C0E005;}
	.st20{display:inline;fill:#FCC505;}
	.st21{fill:#AAD093;}
	.st22{fill:#9BBB85;}
	.st23{fill:none;}
	.st24{fill:#86A370;}
</style>
<g id="XMLID_137_" class="st0">
	<g id="XMLID_149_" class="st1">
		<g id="XMLID_366_">
			<path id="XMLID_6_" class="st2" d="M85,112.4H74.6c-1.5,0-2.8-1.3-2.8-2.8V98.4c0-0.6,0.4-1,1-1s1,0.4,1,1v11.1
				c0,0.4,0.4,0.8,0.8,0.8H85c0.6,0,1,0.4,1,1S85.5,112.4,85,112.4z"/>
		</g>
		<g id="XMLID_150_">
			<path id="XMLID_5_" class="st2" d="M72.8,87.4c-0.6,0-1-0.4-1-1V76c0-1.5,1.3-2.8,2.8-2.8h10.3c0.6,0,1,0.4,1,1s-0.4,1-1,1H74.6
				c-0.4,0-0.8,0.4-0.8,0.8v10.5C73.8,87,73.4,87.4,72.8,87.4z"/>
		</g>
	</g>
	<g id="XMLID_143_" class="st1">
		<g id="XMLID_145_">
			<path id="XMLID_4_" class="st2" d="M108.2,112.4H97.8c-0.6,0-1-0.4-1-1s0.4-1,1-1h10.4c0.4,0,0.8-0.4,0.8-0.8V98.4
				c0-0.6,0.4-1,1-1s1,0.4,1,1v11.1C110.9,111.1,109.7,112.4,108.2,112.4z"/>
		</g>
		<g id="XMLID_144_">
			<path id="XMLID_3_" class="st2" d="M109.9,87.4c-0.6,0-1-0.4-1-1V76c0-0.4-0.4-0.8-0.8-0.8H97.8c-0.6,0-1-0.4-1-1s0.4-1,1-1h10.3
				c1.5,0,2.8,1.3,2.8,2.8v10.5C110.9,87,110.5,87.4,109.9,87.4z"/>
		</g>
	</g>
	<g id="XMLID_141_" class="st1">
		<path id="XMLID_2_" class="st2" d="M112,93H72c-0.6,0-1-0.4-1-1s0.4-1,1-1h40c0.6,0,1,0.4,1,1S112.6,93,112,93z"/>
	</g>
</g>
<g id="XMLID_385_" class="st0">
	<g id="XMLID_407_" class="st1">
		<path id="XMLID_16_" class="st2" d="M77.7,110.1l2.6-4.3c-5.7-2.9-9.1-7.9-9.1-13.3c0-8.8,9.1-15.9,20.3-15.9
			c11.2,0,20.3,7.1,20.3,15.9s-9.1,15.9-20.3,15.9c-0.7,0-1.5,0-2.4-0.1L77.7,110.1z M91.5,78.6c-10.1,0-18.3,6.2-18.3,13.9
			c0,4.9,3.4,9.4,9,11.9l1,0.5l-1.5,2.5l7.4-1.2l0.1,0c0.9,0.1,1.7,0.1,2.4,0.1c10.1,0,18.3-6.2,18.3-13.9
			C109.9,84.8,101.7,78.6,91.5,78.6z"/>
	</g>
	<g id="XMLID_395_" class="st1">
		<path id="XMLID_13_" class="st2" d="M80,95.2c-1.6,0-2.8-1.3-2.8-2.8s1.3-2.8,2.8-2.8s2.8,1.3,2.8,2.8S81.6,95.2,80,95.2z
			 M80,91.6c-0.4,0-0.8,0.4-0.8,0.8c0,0.4,0.4,0.8,0.8,0.8s0.8-0.4,0.8-0.8C80.8,92,80.5,91.6,80,91.6z"/>
	</g>
	<g id="XMLID_394_" class="st1">
		<path id="XMLID_10_" class="st2" d="M92,95.2c-1.6,0-2.8-1.3-2.8-2.8s1.3-2.8,2.8-2.8c1.6,0,2.8,1.3,2.8,2.8S93.6,95.2,92,95.2z
			 M92,91.6c-0.4,0-0.8,0.4-0.8,0.8c0,0.4,0.4,0.8,0.8,0.8c0.4,0,0.8-0.4,0.8-0.8C92.8,92,92.5,91.6,92,91.6z"/>
	</g>
	<g id="XMLID_386_" class="st1">
		<path id="XMLID_7_" class="st2" d="M104,95.2c-1.6,0-2.8-1.3-2.8-2.8s1.3-2.8,2.8-2.8s2.8,1.3,2.8,2.8S105.6,95.2,104,95.2z
			 M104,91.6c-0.4,0-0.8,0.4-0.8,0.8c0,0.4,0.4,0.8,0.8,0.8s0.8-0.4,0.8-0.8C104.8,92,104.5,91.6,104,91.6z"/>
	</g>
</g>
<g id="XMLID_455_" class="st0">
	<g id="XMLID_458_" class="st1">
		<path id="XMLID_49_" class="st2" d="M109.5,94.2c-0.3,0-0.5-0.1-0.7-0.3L92.4,77.3L75.9,93.9c-0.4,0.4-1,0.4-1.4,0
			c-0.4-0.4-0.4-1,0-1.4l17.2-17.2c0.2-0.2,0.4-0.2,0.7-0.2c0,0,0,0,0,0c0.3,0,0.5,0,0.7,0.2l17.1,17.2c0.4,0.4,0.4,1,0,1.4
			C110,94.1,109.7,94.2,109.5,94.2z"/>
	</g>
	<g id="XMLID_457_" class="st1">
		<path id="XMLID_48_" class="st2" d="M102,107.8H82.7c-1.7,0-3-1.3-3-3V92.2c0-0.6,0.4-1,1-1s1,0.4,1,1v12.7c0,0.6,0.4,1,1,1H102
			c0.6,0,1-0.4,1-1V92.2c0-0.6,0.4-1,1-1s1,0.4,1,1v12.7C105,106.5,103.7,107.8,102,107.8z"/>
	</g>
	<g id="XMLID_456_" class="st1">
		<path id="XMLID_45_" class="st2" d="M95,107.1h-5.4c-0.4,0-0.8-0.3-0.8-0.8v-6.5c0-0.4,0.3-0.8,0.8-0.8H95c0.4,0,0.8,0.3,0.8,0.8
			v6.5C95.8,106.7,95.4,107.1,95,107.1z M90.4,105.6h3.9v-5h-3.9V105.6z"/>
	</g>
</g>
<g id="XMLID_554_" class="st0">
	<g id="XMLID_467_" class="st1">
		<g id="XMLID_468_">
			<path id="XMLID_57_" class="st2" d="M95.8,107.4c-5.2,0-9.3-4.2-9.3-9.3s4.2-9.3,9.3-9.3s9.3,4.2,9.3,9.3S101,107.4,95.8,107.4z
				 M95.8,90.7c-4,0-7.3,3.3-7.3,7.3s3.3,7.3,7.3,7.3c4,0,7.3-3.3,7.3-7.3S99.9,90.7,95.8,90.7z"/>
		</g>
	</g>
	<g id="XMLID_465_" class="st1">
		<g id="XMLID_466_">
			<path id="XMLID_52_" class="st2" d="M88,109.3h-9.1c-1.8,0-3.3-1.5-3.3-3.3V84.5c0-0.6,0.4-1,1-1h29.8c0.6,0,1,0.4,1,1v6.7
				c0,0.6-0.4,1-1,1s-1-0.4-1-1v-5.7H77.6V106c0,0.7,0.6,1.3,1.3,1.3H88c0.6,0,1,0.4,1,1S88.5,109.3,88,109.3z"/>
		</g>
	</g>
	<g id="XMLID_462_" class="st1">
		<g id="XMLID_463_">
			<path id="XMLID_53_" class="st2" d="M106.5,85.6H76.6c-0.4,0-0.8-0.2-0.9-0.6c-0.2-0.4-0.1-0.8,0.2-1.1l6.4-7.1
				c0.2-0.2,0.5-0.3,0.7-0.3h17.1c0.3,0,0.6,0.1,0.7,0.3l6.4,7.1c0.3,0.3,0.3,0.7,0.2,1.1C107.2,85.3,106.9,85.6,106.5,85.6z
				 M78.9,83.6h25.4l-4.6-5.1H83.4L78.9,83.6z"/>
		</g>
	</g>
	<g id="XMLID_459_" class="st1">
		<g id="XMLID_460_">
			<path id="XMLID_51_" class="st2" d="M80,93.4c-0.1,0-0.3,0-0.4-0.1c-0.4-0.2-0.6-0.5-0.6-0.9V85c0-0.6,0.4-1,1-1s1,0.4,1,1v5.2
				l1.4-1.2c0.4-0.3,0.9-0.3,1.3,0l1.3,1.1V85c0-0.6,0.4-1,1-1s1,0.4,1,1v7.3c0,0.4-0.2,0.7-0.6,0.9c-0.4,0.2-0.8,0.1-1.1-0.1
				l-2.3-2l-2.4,2C80.5,93.3,80.2,93.4,80,93.4z"/>
		</g>
	</g>
	<g id="XMLID_521_" class="st1">
		<g id="XMLID_524_">
			<path id="XMLID_185_" class="st3" d="M105.7,109"/>
		</g>
		<g id="XMLID_523_">
			<path id="XMLID_50_" class="st2" d="M105.7,109.2c-0.2,0-0.5-0.1-0.7-0.3l-3.8-3.5c-0.4-0.4-0.4-1-0.1-1.4c0.4-0.4,1-0.4,1.4-0.1
				l3.8,3.5c0.4,0.4,0.4,1,0.1,1.4C106.2,109.1,106,109.2,105.7,109.2z"/>
		</g>
		<g id="XMLID_522_">
			<path id="XMLID_181_" class="st3" d="M101.1,104.7"/>
		</g>
	</g>
</g>
<g id="XMLID_555_" class="st0">
	<g id="XMLID_518_" class="st1">
		<path id="XMLID_65_" class="st2" d="M103,93H82c-0.6,0-1-0.4-1-1s0.4-1,1-1h21c0.6,0,1,0.4,1,1S103.6,93,103,93z"/>
	</g>
	<g id="XMLID_517_" class="st1">
		<path id="XMLID_64_" class="st2" d="M103,99H82c-0.6,0-1-0.4-1-1s0.4-1,1-1h21c0.6,0,1,0.4,1,1S103.6,99,103,99z"/>
	</g>
	<g id="XMLID_516_" class="st1">
		<path id="XMLID_63_" class="st2" d="M103,105H82c-0.6,0-1-0.4-1-1s0.4-1,1-1h21c0.6,0,1,0.4,1,1S103.6,105,103,105z"/>
	</g>
	<g id="XMLID_515_" class="st1">
		<path id="XMLID_62_" class="st2" d="M106.8,85.6c-0.2,0-0.5-0.1-0.6-0.3l-3.3-5.3c-0.2-0.3-0.1-0.8,0.2-1c0.4-0.2,0.8-0.1,1,0.2
			l3.3,5.3c0.2,0.3,0.1,0.8-0.2,1C107,85.6,106.9,85.6,106.8,85.6z"/>
	</g>
	<g id="XMLID_500_" class="st1">
		<path id="XMLID_56_" class="st2" d="M105.9,110H78.8c-1.6,0-2.8-1.3-2.8-3V80c0-1.7,1.2-3,2.8-3H101c0.6,0,1,0.4,1,1v9h6
			c0.6,0,1,0.4,1,1v19C109,108.7,107.6,110,105.9,110z M78.8,79c-0.7,0-0.8,0.7-0.8,1v27c0,0.3,0.1,1,0.8,1h27.2
			c0.6,0,1.1-0.4,1.1-1V89h-6c-0.6,0-1-0.4-1-1v-9H78.8z"/>
	</g>
</g>
<g id="XMLID_501_" class="st0">
	<g id="XMLID_503_" class="st1">
		<g id="XMLID_513_">
			<path id="XMLID_71_" class="st2" d="M95.4,95.6c-5,0-9.1-4.1-9.1-9.2s4.1-9.2,9.1-9.2c5,0,9.1,4.1,9.1,9.2S100.4,95.6,95.4,95.6z
				 M95.4,79.2c-3.9,0-7.1,3.2-7.1,7.2s3.2,7.2,7.1,7.2c3.9,0,7.1-3.2,7.1-7.2S99.3,79.2,95.4,79.2z"/>
		</g>
		<g id="XMLID_512_">
			<path id="XMLID_69_" class="st2" d="M83,108.6c-0.6,0-1-0.4-1-1c0-7.7,6.2-14.1,13.9-14.1c0.6,0,1,0.4,1,1s-0.4,1-1,1
				c-6.5,0-11.9,5.4-11.9,12.1C84,108.2,83.6,108.6,83,108.6z"/>
		</g>
		<g id="XMLID_511_">
			<path id="XMLID_68_" class="st2" d="M108.8,108.6c-0.6,0-1-0.4-1-1c0-4.2-2.3-8.1-5.9-10.2c-0.5-0.3-0.6-0.9-0.4-1.4
				c0.3-0.5,0.9-0.6,1.4-0.4c4.2,2.5,6.9,7.1,6.9,12C109.8,108.2,109.3,108.6,108.8,108.6z"/>
		</g>
		<g id="XMLID_505_">
			<g id="XMLID_507_">
				<path id="XMLID_67_" class="st2" d="M86.5,95.4c-0.1,0-0.1,0-0.2,0c-4.3-0.8-7.4-4.6-7.4-9c0-5.1,4.1-9.2,9.1-9.2
					c0.6,0,1,0.4,1,1s-0.4,1-1,1c-3.9,0-7.1,3.2-7.1,7.2c0,3.5,2.4,6.4,5.8,7.1c0.5,0.1,0.9,0.6,0.8,1.2
					C87.4,95.1,87,95.4,86.5,95.4z"/>
			</g>
			<g id="XMLID_506_">
				<path id="XMLID_66_" class="st2" d="M75.6,108.6c-0.6,0-1-0.4-1-1c0-6.9,5.1-13.1,11.6-14.2c0.5-0.1,1.1,0.3,1.1,0.8
					c0.1,0.5-0.3,1.1-0.8,1.1c-5.6,0.9-9.9,6.3-9.9,12.2C76.6,108.2,76.1,108.6,75.6,108.6z"/>
			</g>
		</g>
	</g>
	<g id="XMLID_502_" class="st1">
		<path id="XMLID_148_" class="st3" d="M86.5,94.9"/>
	</g>
</g>
<g id="XMLID_99_" class="st0">
	<g id="XMLID_960_" class="st1">
		<polygon id="XMLID_1015_" class="st4" points="91.4,78 106.4,93 108.5,93 91.4,75.7 74.2,93 76.5,93 		"/>
		<polygon id="XMLID_1016_" class="st4" points="105,93.2 91.4,79.6 77.9,93.2 		"/>
	</g>
	<path id="XMLID_98_" class="st5" d="M80,92v12.8c0,1.1,0.6,2.2,1.7,2.2H89v-7h5v7h7c1.1,0,2-1.1,2-2.2V92H80z"/>
</g>
<g id="XMLID_100_" class="st0">
	<g id="XMLID_982_" class="st1">
		<path id="XMLID_983_" class="st4" d="M88,107.3h-9.1c-1.3,0-2.3-1-2.3-2.3V84.5h29.8v20.8c0,1.1-0.9,2-2,2H88z"/>
	</g>
	<g id="XMLID_979_" class="st1">
		<path id="XMLID_980_" class="st4" d="M106.5,83.6H76.6l6.4-7.1h17.1L106.5,83.6z"/>
	</g>
	<g id="XMLID_977_" class="st1">
		<polyline id="XMLID_978_" class="st6" points="86,84 86,91.3 83,88.8 80,91.4 80,84 		"/>
	</g>
	<g id="XMLID_988_" class="st1">
		<path id="XMLID_989_" class="st6" d="M95.8,105.4c-4.6,0-8.3-3.7-8.3-8.3s3.7-8.3,8.3-8.3c4.6,0,8.3,3.7,8.3,8.3
			S100.4,105.4,95.8,105.4z"/>
	</g>
	<g id="XMLID_984_" class="st1">
		<g id="XMLID_987_">
			<path id="XMLID_381_" class="st6" d="M105.5,107.1"/>
		</g>
		<g id="XMLID_986_">
			<path id="XMLID_374_" class="st6" d="M105.4,107.3c-0.2,0-0.5-0.1-0.7-0.3l-3.8-3.5c-0.4-0.4-0.4-1-0.1-1.4
				c0.4-0.4,1-0.4,1.4-0.1l3.8,3.5c0.4,0.4,0.4,1,0.1,1.4C106,107.2,105.7,107.3,105.4,107.3z"/>
		</g>
		<g id="XMLID_985_">
			<path id="XMLID_377_" class="st6" d="M100.9,102.8"/>
		</g>
	</g>
</g>
<g id="XMLID_101_" class="st0">
	<path id="XMLID_954_" class="st5" d="M101,88V78H78.8c-1.1,0-1.8,0.9-1.8,2v27c0,1.1,0.7,2,1.8,2h27.2c1.1,0,2.1-0.9,2.1-2V88H101z
		"/>
	<g id="XMLID_958_" class="st1">
		<path id="XMLID_382_" class="st6" d="M102.7,93h-21c-0.6,0-1-0.4-1-1s0.4-1,1-1h21c0.6,0,1,0.4,1,1S103.3,93,102.7,93z"/>
	</g>
	<g id="XMLID_957_" class="st1">
		<path id="XMLID_379_" class="st6" d="M102.7,99h-21c-0.6,0-1-0.4-1-1s0.4-1,1-1h21c0.6,0,1,0.4,1,1S103.3,99,102.7,99z"/>
	</g>
	<g id="XMLID_956_" class="st1">
		<path id="XMLID_378_" class="st6" d="M102.7,105h-21c-0.6,0-1-0.4-1-1s0.4-1,1-1h21c0.6,0,1,0.4,1,1S103.3,105,102.7,105z"/>
	</g>
	<g id="XMLID_955_" class="st1">
		<path id="XMLID_383_" class="st4" d="M106.8,85.6c-0.2,0-0.5-0.1-0.6-0.3l-3.3-5.3c-0.2-0.3-0.1-0.8,0.2-1c0.3-0.2,0.8-0.1,1,0.2
			l3.3,5.3c0.2,0.3,0.1,0.8-0.2,1C107,85.6,106.9,85.6,106.8,85.6z"/>
	</g>
</g>
<g id="XMLID_482_" class="st0">
	<g id="XMLID_487_" class="st1">
		<path id="XMLID_488_" class="st7" d="M91.1,107.8l-0.9-0.5l0.8-1.5c0.9-1.5,0.9-1.7,2.2-3.1c3.5-4,8.2-8.6,8.3-8.7l3.5-3.7
			c1.5-1.9,1.8-4.1,1.8-6.2c0-4.3-4.4-7.5-8.4-7.5c-4,0-7.1,3.1-7.2,7.2l-0.5,0l-0.5,0c-0.2-4.1-3.3-7.2-7.2-7.2
			c-4,0-8.4,3.2-8.4,7.5c0,2.1,0.2,4.2,1.8,6.2l3.5,3.7l0,0c0,0,0.8,0.8,2.1,2.1l-0.7,0.7c-1.2-1.3-2.1-2.1-2.1-2.1L75.6,91
			c-1.8-2.2-2-4.6-2-6.9c0-4.9,5-8.5,9.4-8.5c3.6,0,6.6,2.2,7.8,5.5c1.1-3.3,4.1-5.5,7.8-5.5c4.4,0,9.4,3.7,9.4,8.5
			c0,2.3-0.2,4.6-2,6.9l-3.5,3.8c-0.1,0.1-4.8,4.7-8.3,8.6c-1.2,1.3-1.2,1.4-2.1,2.9L91.1,107.8z"/>
	</g>
	<g id="XMLID_483_" class="st1">
		<g id="XMLID_484_">
			<path id="XMLID_485_" class="st7" d="M82.1,100.2h4.6v-4.6h1v4.6h4.6v0.8h-4.6v5.1h-1V101h-4.6V100.2z"/>
		</g>
	</g>
</g>
<g id="XMLID_489_" class="st0">
	<path id="XMLID_490_" class="st8" d="M98.5,76.1c-4.3,0-7.6,3.4-7.7,7.6c0-0.4,0-0.7,0-1.1c0,0.4,0,0.7,0,1.1
		c-0.2-4.3-3.4-7.6-7.7-7.6c-4.4,0-8.9,3.6-8.9,8c0,2.1,0.2,4.4,1.9,6.5l3.5,3.7c0,0,4.7,4.5,8.3,8.5c1.5,1.7,1.2,1.2,3,4.2h0h0
		c1.7-3,1.5-2.5,3-4.2c3.5-4,8.3-8.5,8.3-8.5l3.5-3.7c1.7-2.1,1.9-4.4,1.9-6.5C107.3,79.7,102.9,76.1,98.5,76.1z"/>
</g>
<g id="XMLID_425_" class="st0">
	<path id="XMLID_70_" class="st9" d="M99.1,107.5c-0.2,0-0.4-0.1-0.5-0.2L82.4,91.1c-0.1-0.1-0.2-0.3-0.2-0.5c0-0.2,0.1-0.4,0.2-0.5
		l16.2-16c0.3-0.3,0.8-0.3,1.1,0c0.3,0.3,0.3,0.8,0,1.1L84,90.5l15.7,15.7c0.3,0.3,0.3,0.8,0,1.1C99.5,107.4,99.3,107.5,99.1,107.5z
		"/>
</g>
<g id="XMLID_44_" class="st0">
	<path id="XMLID_74_" class="st8" d="M98.5,76.1c-4.3,0-7.6,3.4-7.7,7.6c0-0.4,0-0.7,0-1.1c0,0.4,0,0.7,0,1.1
		c-0.2-4.3-3.4-7.6-7.7-7.6c-4.4,0-8.9,3.6-8.9,8c0,2.1,0.2,4.4,1.9,6.5l3.5,3.7c0,0,4.7,4.5,8.3,8.5c1.5,1.7,1.2,1.2,3,4.2h0h0
		c1.7-3,1.5-2.5,3-4.2c3.5-4,8.3-8.5,8.3-8.5l3.5-3.7c1.7-2.1,1.9-4.4,1.9-6.5C107.3,79.7,102.9,76.1,98.5,76.1z"/>
</g>
<g id="XMLID_433_" class="st0">
	<g id="XMLID_435_" class="st1">
		<path id="XMLID_77_" class="st7" d="M102.5,104c-0.1,0-0.3,0-0.4-0.1L78.8,80.5c-0.2-0.2-0.2-0.5,0-0.7s0.5-0.2,0.7,0l23.3,23.3
			c0.2,0.2,0.2,0.5,0,0.7C102.8,104,102.7,104,102.5,104z"/>
	</g>
	<g id="XMLID_434_" class="st1">
		<path id="XMLID_76_" class="st7" d="M79.2,103.3c-0.1,0-0.3,0-0.4-0.1c-0.2-0.2-0.2-0.5,0-0.7l23.3-23.3c0.2-0.2,0.5-0.2,0.7,0
			s0.2,0.5,0,0.7l-23.3,23.3C79.4,103.3,79.3,103.3,79.2,103.3z"/>
	</g>
</g>
<g id="XMLID_450_" class="st0">
	<g id="XMLID_452_" class="st1">
		<path id="XMLID_94_" class="st7" d="M90.8,99.9c-7.8,0-14.9-6.3-14.9-8.7c0-2.1,6.7-8.5,14.9-8.5c8.2,0,14.9,6.9,14.9,8.5
			C105.7,93.3,98.8,99.9,90.8,99.9z M90.8,84.2c-7.5,0-13.3,5.9-13.5,7.1c0,1.2,5.7,7.2,13.5,7.2c7.3,0,13.2-5.9,13.5-7.2
			C103.8,90.1,98,84.2,90.8,84.2z"/>
	</g>
	<g id="XMLID_451_" class="st1">
		<path id="XMLID_91_" class="st7" d="M91,96.7c-3,0-5.5-2.5-5.5-5.5c0-3,2.5-5.5,5.5-5.5s5.5,2.5,5.5,5.5
			C96.5,94.2,94,96.7,91,96.7z M91,87.1c-2.2,0-4.1,1.8-4.1,4.1s1.8,4.1,4.1,4.1c2.2,0,4.1-1.8,4.1-4.1S93.2,87.1,91,87.1z"/>
	</g>
</g>
<g id="XMLID_454_" class="st0">
	<g id="XMLID_428_" class="st1">
		<g id="XMLID_429_">
			<path class="st7" d="M98.4,99.7c-5.1,5.3-13.6,5.5-18.9,0.4c-5.3-5.1-5.5-13.6-0.4-18.9s13.6-5.5,18.9-0.4
				C103.4,85.9,103.5,94.4,98.4,99.7z M80.6,82.5c-4.4,4.5-4.2,11.7,0.3,16.1s11.7,4.2,16.1-0.3c4.4-4.5,4.2-11.7-0.3-16.1
				S85,78,80.6,82.5z"/>
		</g>
	</g>
	<g id="XMLID_423_" class="st1">
		<path id="XMLID_97_" class="st7" d="M105.9,105.9c-0.2,0-0.4-0.1-0.6-0.2l-7.4-6.1c-0.4-0.4-0.5-1-0.1-1.4c0.3-0.4,1-0.5,1.4-0.1
			l7.4,6.1c0.4,0.4,0.5,1,0.1,1.4C106.5,105.7,106.2,105.9,105.9,105.9z"/>
	</g>
</g>
<g id="XMLID_421_" class="st0">
	<path id="XMLID_115_" class="st9" d="M84.8,104.7c-0.2,0-0.3-0.1-0.4-0.2c-0.2-0.2-0.2-0.6,0-0.9l13.1-13.1L84.4,77.7
		c-0.2-0.2-0.2-0.6,0-0.9c0.2-0.2,0.6-0.2,0.9,0l13.5,13.3c0.1,0.1,0.2,0.3,0.2,0.4c0,0.2-0.1,0.3-0.2,0.4l-13.5,13.5
		C85.1,104.7,85,104.7,84.8,104.7z"/>
</g>
<g id="XMLID_418_" class="st0">
	<path id="XMLID_129_" class="st9" d="M91.3,97c-0.1,0-0.3-0.3-0.4-0.4L79.7,85.3c-0.2-0.2-0.2-0.6,0-0.8s0.5-0.2,0.7,0l10.8,10.8
		L102,84.5c0.2-0.2,0.5-0.2,0.7,0c0.2,0.2,0.2,0.5,0,0.7l-11,11.4C91.5,96.7,91.4,97,91.3,97C91.3,97,91.3,97,91.3,97z"/>
</g>
<g id="XMLID_571_" class="st0">
	<g id="XMLID_564_" class="st1">
		<path id="XMLID_152_" class="st7" d="M101,92H82c-0.3,0-0.5-0.2-0.5-0.5S81.7,91,82,91h19c0.3,0,0.5,0.2,0.5,0.5S101.3,92,101,92z
			"/>
	</g>
	<g id="XMLID_572_" class="st1">
		<path id="XMLID_151_" class="st7" d="M91.5,101.5c-0.3,0-0.5-0.2-0.5-0.5V82c0-0.3,0.2-0.5,0.5-0.5S92,81.7,92,82v19
			C92,101.3,91.8,101.5,91.5,101.5z"/>
	</g>
</g>
<g id="XMLID_448_" class="st0">
	<g id="XMLID_147_" class="st1">
		<path id="XMLID_157_" class="st7" d="M90.7,97.3c-5.4,0-10.2-4.3-10.2-6c0-1.4,4.6-5.8,10.2-5.8c5.6,0,10.2,4.7,10.2,5.8
			C101,92.8,96.2,97.3,90.7,97.3z M90.7,86.5c-5.1,0-9.1,4-9.2,4.8c0,0.8,3.9,5,9.2,5c5,0,9-4.1,9.2-5
			C99.7,90.6,95.7,86.5,90.7,86.5z"/>
	</g>
	<g id="XMLID_447_" class="st1">
		<path id="XMLID_154_" class="st7" d="M90.9,95.1c-2.1,0-3.8-1.7-3.8-3.8s1.7-3.8,3.8-3.8c2.1,0,3.8,1.7,3.8,3.8S93,95.1,90.9,95.1
			z M90.9,88.5c-1.5,0-2.8,1.2-2.8,2.8c0,1.5,1.2,2.8,2.8,2.8s2.8-1.2,2.8-2.8C93.7,89.8,92.4,88.5,90.9,88.5z"/>
	</g>
</g>
<g id="XMLID_439_" class="st0">
	<path id="XMLID_173_" class="st9" d="M91.6,95c-0.1,0-0.3,0-0.4-0.1l-8-7.9c-0.2-0.2-0.2-0.5,0-0.7s0.5-0.2,0.7,0l7.6,7.6l7.5-7.6
		c0.2-0.2,0.5-0.2,0.7,0c0.2,0.2,0.2,0.5,0,0.7L92,94.9C91.9,95,91.8,95,91.6,95C91.6,95,91.6,95,91.6,95z"/>
</g>
<g id="XMLID_561_" class="st0">
	<g id="XMLID_408_" class="st1">
		<g id="XMLID_388_">
			<path id="XMLID_189_" class="st10" d="M91.6,127.7c-20.4,0-37-16.6-37-37s16.6-37,37-37s37,16.6,37,37S112,127.7,91.6,127.7z
				 M91.6,55.7c-19.3,0-35,15.7-35,35c0,19.3,15.7,35,35,35c19.3,0,35-15.7,35-35C126.6,71.4,110.9,55.7,91.6,55.7z"/>
		</g>
		<g id="XMLID_400_">
			<path class="st10" d="M55.6,89.3c0,0,13,21.5,37.9,14.5s32.5-2.8,32.5-2.8s-9.1,29.9-40.5,25.3C56.5,122,55.6,89.3,55.6,89.3z"/>
		</g>
	</g>
	<g id="XMLID_396_" class="st1">
		<g id="XMLID_399_">
			<path class="st11" d="M100.6,65.7c0,0-6.1,10.1-8.6,10.3c-3.1,0-8.2-10.6-8.2-10.6l-3.6,0.9L87,81.2V84h5.4H96v-2.8l7.7-14.9
				L100.6,65.7z"/>
		</g>
		<g id="XMLID_398_">
			<rect x="87.1" y="81.2" class="st12" width="9" height="2.8"/>
		</g>
		<g id="XMLID_397_">
			<path class="st11" d="M88,87c-2.4,6-13,22.1-15.3,26.6c-0.4,0.7,7.1-0.4,8.5,0.1s8.3,4.8,12.3,3.6c5.9-1.8,13-4.1,19-4.9
				c1.7-0.2-12-14.4-16.7-25.4H88z"/>
		</g>
	</g>
</g>
<g id="XMLID_560_" class="st0">
	<g id="XMLID_401_" class="st1">
		<path id="XMLID_193_" class="st13" d="M90.5,128.2c-20.4,0-37-16.6-37-37c0-20.4,16.6-37,37-37c20.4,0,37,16.6,37,37
			C127.5,111.6,110.9,128.2,90.5,128.2z M90.5,56.2c-19.3,0-35,15.7-35,35s15.7,35,35,35s35-15.7,35-35S109.8,56.2,90.5,56.2z"/>
	</g>
	<g id="XMLID_188_" class="st1">
		<path class="st13" d="M125.7,98.9c-4,13.7-15.2,28.9-40.8,27.4c-16.2-2.2-25.9-16.2-29.5-27.4"/>
	</g>
	<g id="XMLID_404_" class="st1">
		<g id="XMLID_412_">
			<path class="st14" d="M104.6,117.3l-3-53.3l-10.8,4h-0.4l-10.8-3.8l-2.8,53.2c0,0,4.5,2.7,13.6,2.7
				C100.6,120.1,104.6,117.3,104.6,117.3z"/>
		</g>
		<g id="XMLID_403_">
			<polygon class="st15" points="91.7,77 90.2,77 90.1,77 88.7,77 82.9,107.8 90.2,115.6 97.5,107.9 			"/>
		</g>
		<g id="XMLID_402_">
			<path class="st15" d="M91.6,71h-1.3h-0.1h-1.3c-2.5,4-1.9,2.7-1.9,2.7l2,2.3h1.3h1.3l2-2.3C93.4,73.7,94,75,91.6,71z"/>
		</g>
	</g>
</g>
<g id="XMLID_559_" class="st0">
	<g id="XMLID_409_" class="st1">
		<path id="XMLID_196_" class="st16" d="M91,128c-20.4,0-37-16.6-37-37c0-20.4,16.6-37,37-37s37,16.6,37,37
			C128,111.4,111.4,128,91,128z M91,56c-19.3,0-35,15.7-35,35s15.7,35,35,35c19.3,0,35-15.7,35-35S110.3,56,91,56z"/>
	</g>
	<g id="XMLID_413_" class="st1">
		<path class="st16" d="M86.3,63.3c0,0,4.9,1.2,8.2,6.6c2.8,4.5,6.8,14-5.6,16.6c-12.3,2.6-2.3,15.8-2.3,15.8s6.4,1.4,8.8,4.8
			s-17.4,6.1-17.4,6.1l-3.9-11.4C74.2,101.7,75,64.2,86.3,63.3z"/>
	</g>
	<g id="XMLID_411_" class="st1">
		<path class="st16" d="M86.7,106c-8.3,7.4-30.3-7.3-30.3-7.3c2,15.8,20.5,28.1,34.6,28.1c11.6,0,21.8-5.8,28.3-13.8h0c0,0,0,0,0,0
			c1-1.3,3.6-3.6,4.1-6.1C124.8,99.4,105.6,89.3,86.7,106z"/>
	</g>
	<g id="XMLID_410_" class="st1">
		<path class="st17" d="M84.3,61c0,0-16.8,1.9-14.6,21s-0.5,32.2-4.9,34.2c7.2,1.3,18.9-12.3,19.5-43.3C86.7,61.2,86.7,61,86.7,61
			H84.3z"/>
	</g>
</g>
<g id="XMLID_557_" class="st0">
	<g id="XMLID_414_" class="st1">
		<path id="XMLID_199_" class="st18" d="M90.7,127.7c-20.4,0-37-16.6-37-37s16.6-37,37-37s37,16.6,37,37S111.1,127.7,90.7,127.7z
			 M90.7,55.7c-19.3,0-35,15.7-35,35c0,19.3,15.7,35,35,35c19.3,0,35-15.7,35-35C125.7,71.4,110,55.7,90.7,55.7z"/>
	</g>
	<g id="XMLID_417_" class="st1">
		<path class="st18" d="M126.7,94.1c0,0-0.5,4.9-1.9,8.2c-6.2,14-16.1,23.2-30.9,24.3c-19.7,1.5-35.2-13-38.4-28.7
			c-0.9-4.2,7.9,9.2,14.6,5.3c10.1-6,12.6,3.2,17.5-0.9c5.2-4.3,9.5-2.9,13.4,0.6c3.6,3.2,6.5-4.7,13.1-1.5
			C120.2,104.4,126.8,91.2,126.7,94.1z"/>
	</g>
	<g id="XMLID_416_" class="st1">
		<path class="st19" d="M109.3,76.3l-5.4-7.3c0,0-4.7-2.4-6.9-2.2c-1-0.1-2,5.2-4.6,5.2c-0.4,0-0.5,0-0.6,0c0,0,0,0,0,0c0,0,0,0,0,0
			c-0.1,0-0.2,0-0.6,0c-2.6,0-3.6-5.2-4.6-5.2c-2.3-0.1-6.9,2.3-6.9,2.3l-5.4,7.2l5.1,3.8l1.4-2.1c0,0-0.8,13.9-0.4,14.5
			s11.5,3.1,11.5,3.1s11.1-2.5,11.5-3.1S102.8,78,102.8,78l1.4,2.1L109.3,76.3z"/>
	</g>
	<g id="XMLID_415_" class="st1">
		<polygon class="st6" points="92.1,75.3 93.7,78.5 97.2,79 94.7,81.5 95.3,85 92.1,83.4 89,85 89.6,81.5 87.1,79 90.6,78.5 		"/>
	</g>
	<g id="XMLID_419_" class="st1">
		<polygon class="st19" points="81,98 103,98 103,115 95.7,115 92.1,103.8 87.1,115 81,115 		"/>
	</g>
</g>
<g id="XMLID_218_" class="st0">
	<g id="XMLID_215_" class="st1">
		<polygon id="XMLID_217_" class="st17" points="90.4,76 105.4,91 107.5,91 90.4,73.7 73.2,91 75.5,91 		"/>
		<polygon id="XMLID_216_" class="st17" points="104,91.2 90.4,77.6 76.9,91.2 		"/>
	</g>
	<path id="XMLID_214_" class="st20" d="M79,90v12.8c0,1.1,0.6,2.2,1.7,2.2H88v-7h5v7h7c1.1,0,2-1.1,2-2.2V90H79z"/>
</g>
<g id="XMLID_744_">
	<path id="XMLID_745_" class="st21" d="M91,9.9c-45.8,0-83,37.2-83,83c0,45.8,37.2,83,83,83c45.8,0,83-37.2,83-83
		C174,47.2,136.8,9.9,91,9.9z"/>
</g>
<g id="XMLID_742_">
	<polygon id="XMLID_743_" class="st22" points="107.7,43.8 107.4,138.1 119.3,60.1 109,43.5 	"/>
</g>
<path id="XMLID_249_" class="st23" d="M82.7,131.8l39.7-1.5l0.6-74.8l43.8,70.9c4.5-10.3,7.1-21.6,7.1-33.5c0-45.8-37.2-83-83-83
	c-45.8,0-83,37.2-83,83c0,39.7,28.1,73,65.4,81.1L48,132.5L82.7,131.8z"/>
<path id="XMLID_250_" class="st22" d="M166.9,126.4l-43.8-70.9l-0.6,74.8l-39.7,1.5L48,132.5l25.4,41.6c5.7,1.2,11.5,1.9,17.6,1.9
	C124.8,175.9,154,155.6,166.9,126.4z"/>
<g id="XMLID_735_">
	<polygon id="XMLID_736_" class="st24" points="98.7,49.3 98.7,45.6 106,48.2 106,50.7 104.8,51.2 	"/>
</g>
<g id="XMLID_733_">
	<polygon id="XMLID_734_" class="st24" points="88.3,48.9 92.2,46.7 92.3,50.8 88.3,52.3 	"/>
</g>
<g id="XMLID_731_">
	<polygon id="XMLID_732_" class="st24" points="82.8,51.8 85.8,50.2 85.8,53.3 82.8,54.7 	"/>
</g>
<g id="XMLID_729_">
	<polyline id="XMLID_730_" class="st6" points="80.8,52.3 48,76.6 48,130.4 48,130.4 48,132.5 80.7,132.5 80.9,132.5 80.9,132.5 
		124.5,132.5 124.5,126 123.1,126 123.1,55.5 109,49.7 109,126 107.9,126 107.9,49.9 109,49.3 109,43.5 96.2,38 96.2,54.9 95,55.4 
		95,38.2 80.9,46.8 80.9,52.5 	"/>
</g>
<g id="XMLID_727_">
	<polygon id="XMLID_728_" class="st24" points="54.4,130 49.6,130.2 49.6,121.1 54.4,119 	"/>
</g>
<g id="XMLID_725_">
	<polygon id="XMLID_726_" class="st24" points="54.5,107.3 49.6,110.1 49.8,103.5 54.5,100.2 	"/>
</g>
<g id="XMLID_723_">
	<polygon id="XMLID_724_" class="st24" points="59.3,96.9 65.3,92.7 65.3,101.7 59.1,105.2 	"/>
</g>
<g id="XMLID_720_">
	<polygon id="XMLID_721_" class="st24" points="65.6,129.8 59.2,130 59.2,117.3 65.6,114.4 	"/>
</g>
<g id="XMLID_718_">
	<polygon id="XMLID_719_" class="st24" points="77.7,129.3 70.9,129.6 70.9,112.9 77.7,109.8 	"/>
</g>
<g id="XMLID_716_">
	<polygon id="XMLID_717_" class="st24" points="78,95.3 70.8,99.3 70.8,89 78,84.1 	"/>
</g>
<g id="XMLID_714_">
	<path id="XMLID_715_" class="st24" d="M92.3,54.1v2.6l-4,1.7v-2.6C89.6,55.2,90.9,54.6,92.3,54.1z"/>
</g>
<g id="XMLID_712_">
	<path id="XMLID_713_" class="st24" d="M82.8,58.4c1-0.5,2.1-1,3.1-1.4v2.4l-3.1,1.3V58.4z"/>
</g>
<g id="XMLID_710_">
	<polygon id="XMLID_711_" class="st24" points="84.2,65.7 86,64.9 86,68.1 84.2,68.7 	"/>
</g>
<g id="XMLID_708_">
	<path id="XMLID_709_" class="st24" d="M84.3,72c0.6-0.2,1.2-0.4,1.8-0.7v3.2c-0.6,0.2-1.2,0.4-1.8,0.6V72z"/>
</g>
<g id="XMLID_706_">
	<path id="XMLID_707_" class="st24" d="M84.3,78.3c0.6-0.2,1.2-0.4,1.8-0.6v3.2c-0.6,0.2-1.2,0.3-1.8,0.5V78.3z"/>
</g>
<g id="XMLID_704_">
	<path id="XMLID_705_" class="st24" d="M84.3,84.6c0.6-0.2,1.2-0.4,1.8-0.6v3.2c-0.6,0.1-1.2,0.3-1.8,0.5V84.6z"/>
</g>
<g id="XMLID_702_">
	<path id="XMLID_703_" class="st24" d="M84.3,91c0.6-0.2,1.2-0.3,1.8-0.5v3.2c-0.6,0.1-1.2,0.3-1.8,0.4V91z"/>
</g>
<g id="XMLID_700_">
	<path id="XMLID_701_" class="st24" d="M84.3,97.3c0.6-0.2,1.2-0.3,1.8-0.5v3.2c-0.6,0.1-1.2,0.2-1.8,0.3V97.3z"/>
</g>
<g id="XMLID_698_">
	<path id="XMLID_699_" class="st24" d="M84.3,103.6c0.6-0.1,1.2-0.3,1.8-0.4v3.2c-0.6,0.1-1.2,0.2-1.8,0.3V103.6z"/>
</g>
<g id="XMLID_696_">
	<path id="XMLID_697_" class="st24" d="M84.3,109.9c0.6-0.1,1.2-0.2,1.8-0.3v3.2c-0.6,0.1-1.2,0.2-1.8,0.2V109.9z"/>
</g>
<g id="XMLID_694_">
	<path id="XMLID_695_" class="st24" d="M84.3,116.3l1.8-0.3v3.2c-0.6,0.1-1.2,0.1-1.8,0.2V116.3z"/>
</g>
<g id="XMLID_692_">
	<path id="XMLID_693_" class="st24" d="M86.2,125.5c-0.6,0-1.2,0.1-1.8,0.1v-3c0.6-0.1,1.2-0.2,1.8-0.2V125.5z"/>
</g>
<g id="XMLID_690_">
	<polygon id="XMLID_691_" class="st24" points="88.2,64.1 90.3,63.3 90.3,66.6 88.2,67.4 	"/>
</g>
<g id="XMLID_688_">
	<path id="XMLID_689_" class="st24" d="M88.2,70.6c0.7-0.3,1.4-0.5,2.1-0.8v3.4c-0.7,0.2-1.4,0.4-2.1,0.7V70.6z"/>
</g>
<g id="XMLID_686_">
	<path id="XMLID_687_" class="st24" d="M88.2,77c0.7-0.2,1.4-0.5,2.1-0.7v3.4c-0.7,0.2-1.4,0.4-2.1,0.6V77z"/>
</g>
<g id="XMLID_684_">
	<path id="XMLID_685_" class="st24" d="M88.2,83.4l2.1-0.7v3.4c-0.7,0.2-1.4,0.3-2.1,0.5V83.4z"/>
</g>
<g id="XMLID_682_">
	<path id="XMLID_683_" class="st24" d="M88.2,89.9c0.7-0.2,1.4-0.4,2.1-0.6v3.4l-2.1,0.5V89.9z"/>
</g>
<g id="XMLID_680_">
	<polygon id="XMLID_681_" class="st24" points="88.2,96.3 90.3,95.8 90.3,99.1 88.2,99.5 	"/>
</g>
<g id="XMLID_678_">
	<path id="XMLID_679_" class="st24" d="M88.2,102.7c0.7-0.2,1.4-0.3,2.1-0.5v3.4c-0.7,0.1-1.4,0.2-2.1,0.3V102.7z"/>
</g>
<g id="XMLID_676_">
	<path id="XMLID_677_" class="st24" d="M88.2,109.2c0.7-0.1,1.4-0.3,2.1-0.4v3.4c-0.7,0.1-1.4,0.2-2.1,0.3V109.2z"/>
</g>
<g id="XMLID_674_">
	<path id="XMLID_675_" class="st24" d="M90.3,115.3v3.4c-0.7,0.1-1.4,0.1-2.1,0.2v-3.2C88.9,115.5,89.6,115.4,90.3,115.3z"/>
</g>
<g id="XMLID_672_">
	<path id="XMLID_673_" class="st24" d="M90.3,125.2c-0.7,0-1.4,0.1-2.1,0.1V122c0.7-0.1,1.4-0.2,2.1-0.3V125.2z"/>
</g>
<g id="XMLID_670_">
	<path id="XMLID_671_" class="st24" d="M95.6,124.7c-1,0.1-1.9,0.1-2.9,0.2v-3.5c1-0.1,1.9-0.3,2.9-0.4V124.7z"/>
</g>
<g id="XMLID_668_">
	<path id="XMLID_669_" class="st24" d="M95.6,118.1c-1,0.1-1.9,0.2-2.9,0.3v-3.5c1-0.2,1.9-0.3,2.9-0.5V118.1z"/>
</g>
<g id="XMLID_666_">
	<path id="XMLID_667_" class="st24" d="M95.6,111.4c-1,0.1-1.9,0.2-2.9,0.4v-3.5c1-0.2,1.9-0.4,2.9-0.6V111.4z"/>
</g>
<g id="XMLID_664_">
	<path id="XMLID_665_" class="st24" d="M95.6,104.7c-1,0.2-1.9,0.3-2.9,0.5v-3.5c1-0.2,1.9-0.4,2.9-0.6V104.7z"/>
</g>
<g id="XMLID_662_">
	<path id="XMLID_663_" class="st24" d="M95.6,98.1c-1,0.2-1.9,0.4-2.9,0.5v-3.5c1-0.2,1.9-0.5,2.9-0.7V98.1z"/>
</g>
<g id="XMLID_660_">
	<path id="XMLID_661_" class="st24" d="M95.6,91.4c-1,0.2-1.9,0.4-2.9,0.6v-3.5c1-0.3,1.9-0.5,2.9-0.8V91.4z"/>
</g>
<g id="XMLID_658_">
	<path id="XMLID_659_" class="st24" d="M95.6,84.8c-1,0.2-1.9,0.5-2.9,0.7V82c1-0.3,1.9-0.6,2.9-0.9V84.8z"/>
</g>
<g id="XMLID_656_">
	<path id="XMLID_657_" class="st24" d="M95.7,78.1c-1,0.3-1.9,0.5-2.9,0.8v-3.5c1-0.3,1.9-0.7,2.9-1V78.1z"/>
</g>
<g id="XMLID_654_">
	<path id="XMLID_655_" class="st24" d="M95.7,71.4c-1,0.3-1.9,0.6-2.9,0.9v-3.5c1-0.4,1.9-0.7,2.9-1.1V71.4z"/>
</g>
<g id="XMLID_652_">
	<polygon id="XMLID_653_" class="st24" points="95.7,64.8 92.8,65.8 92.8,62.3 95.7,61.1 	"/>
</g>
<g id="XMLID_650_">
	<path id="XMLID_651_" class="st24" d="M121.3,124.8c-3.4,0.1-6.9,0.1-10.3,0.2v-3.5c3.4,0.1,6.9,0.2,10.3,0.3V124.8z"/>
</g>
<g id="XMLID_648_">
	<path id="XMLID_649_" class="st24" d="M121.3,116.3c-3.4-0.1-6.9-0.3-10.3-0.4v-3.5c3.4,0.3,6.9,0.6,10.3,0.9V116.3z"/>
</g>
<g id="XMLID_646_">
	<path id="XMLID_647_" class="st24" d="M121.3,107.7c-3.4-0.3-6.9-0.6-10.3-1v-3.5c3.4,0.5,6.9,0.9,10.3,1.4V107.7z"/>
</g>
<g id="XMLID_644_">
	<path id="XMLID_645_" class="st24" d="M121.3,99.2c-3.4-0.5-6.9-1-10.3-1.5v-3.5c3.4,0.6,6.9,1.3,10.3,1.9V99.2z"/>
</g>
<g id="XMLID_642_">
	<path id="XMLID_643_" class="st24" d="M121.3,90.7c-3.4-0.7-6.9-1.4-10.3-2.1v-3.5c3.4,0.8,6.9,1.6,10.3,2.4V90.7z"/>
</g>
<g id="XMLID_640_">
	<path id="XMLID_641_" class="st24" d="M121.3,82.1c-3.4-0.9-6.9-1.8-10.3-2.6v-3.5c3.4,1,6.9,2,10.3,3V82.1z"/>
</g>
<g id="XMLID_638_">
	<path id="XMLID_639_" class="st24" d="M121.3,73.6c-3.4-1.1-6.9-2.1-10.3-3.2v-3.5c3.4,1.2,6.9,2.3,10.3,3.5V73.6z"/>
</g>
<g id="XMLID_636_">
	<polygon id="XMLID_637_" class="st24" points="121.3,65 111,61.3 111,57.7 121.3,61.8 	"/>
</g>
<g id="XMLID_626_">
	<g id="XMLID_634_">
		<polygon id="XMLID_635_" class="st24" points="59.3,96.9 65.3,92.7 65.3,101.7 59.1,105.2 		"/>
	</g>
	<g id="XMLID_632_">
		<polygon id="XMLID_633_" class="st24" points="65.6,129.8 59.2,130 59.2,117.3 65.6,114.4 		"/>
	</g>
	<g id="XMLID_630_">
		<polygon id="XMLID_631_" class="st24" points="77.7,129.3 70.9,129.6 70.9,112.9 77.7,109.8 		"/>
	</g>
	<g id="XMLID_627_">
		<polygon id="XMLID_628_" class="st24" points="78,95.3 70.8,99.3 70.8,89 78,84.1 		"/>
	</g>
</g>
<g id="XMLID_586_">
	<path id="XMLID_622_" class="st24" d="M102.1,47.5H101c0.1,0.1,0.4,0.2,0.9,0.4c-0.1,0.1-0.2,0.3-0.4,0.6h0.8v0.9h-1.6v0.5h1.4v0.9
		h-1.4v1.9c0,0.2-0.1,0.4-0.2,0.6c-0.1,0.1-0.3,0.2-0.4,0.3s-0.5,0.1-1,0.1c0-0.3-0.1-0.6-0.2-0.9l-0.2,0.4
		c-0.2-0.1-0.5-0.3-0.9-0.4c0.3-0.5,0.5-1.1,0.7-1.8l0.9,0.3c-0.1,0.5-0.3,1-0.5,1.4c0.1,0,0.3,0,0.4,0c0.2,0,0.3-0.1,0.3-0.4v-1.5
		h-1.5v-0.9h1.5v-0.5h-1.6v-0.9h0.9c-0.1-0.2-0.2-0.4-0.3-0.6l0.9-0.4c0.2,0.4,0.4,0.7,0.5,1h0.4c0.3-0.4,0.4-0.8,0.5-1h-2.7v-0.9
		h1.4c-0.1-0.2-0.1-0.4-0.2-0.5l1.1-0.2c0.1,0.2,0.2,0.5,0.2,0.7h1.3V47.5z M106,49.6h-0.6v4.2h-1.1v-4.2h-0.7V50
		c0,1.7-0.4,3-1.1,3.9c-0.4-0.3-0.7-0.6-1-0.8c0.3-0.3,0.5-0.6,0.7-1l-0.8,0.5c-0.2-0.4-0.4-0.8-0.6-1.2l0.8-0.4
		c0.2,0.3,0.4,0.6,0.7,1.1c0.2-0.5,0.3-1.2,0.3-1.9v-3.6c1.2-0.1,2.2-0.3,3-0.6l0.5,1c-0.7,0.2-1.5,0.3-2.4,0.4v1.1h2.4V49.6z"/>
	<path id="XMLID_614_" class="st24" d="M98.7,58.4c0.3,0.1,0.6,0.2,0.9,0.3c-0.1,0.8-0.3,1.9-0.6,3.1c-0.3-0.1-0.7-0.2-1-0.3
		C98.3,60.9,98.5,59.8,98.7,58.4z M98.7,56.2c0.5,0.4,0.8,0.7,1.1,0.9l-0.7,0.8c-0.4-0.4-0.7-0.7-1-1L98.7,56.2z M99.6,59.8h1.2
		v-0.4h-1V56h1v-0.4h-1.2v-0.5L99,55.7c-0.3-0.3-0.6-0.7-0.9-1l0.6-0.6c0.4,0.3,0.7,0.6,0.9,0.8v-0.2h1.2V54h0.9v0.7h1.1v0.9h-1.1
		V56h0.9v3.4h-0.9v0.4h1.1v0.7c0.2-0.6,0.2-1.3,0.2-2.1v-4.1h2.6V61c0,0.6-0.3,0.9-0.8,0.9c-0.3,0-0.6,0-0.9,0
		c-0.1-0.3-0.1-0.6-0.2-0.9c0.2,0,0.4,0,0.7,0c0.2,0,0.3-0.1,0.3-0.3v-1.4H104c0,1.2-0.3,2.2-0.6,2.8c-0.3-0.2-0.6-0.4-0.9-0.6
		c0.1-0.2,0.3-0.5,0.4-0.8h-1v1.2h-0.9v-1.2h-1.2V59.8z M101.9,56.8h-1.2v0.5h1.2V56.8z M101.9,58.5V58h-1.2v0.5H101.9z M104.8,55.2
		H104v1.1h0.8V55.2z M104,58.3h0.8v-1.2H104V58.3z"/>
	<path id="XMLID_609_" class="st24" d="M98,64h1.6v-0.8h-1.3v-0.9h1.3v-0.8h1v0.8h0.8V63c0.2-0.3,0.4-0.5,0.5-0.8l0.8,0.5v-0.8h3.1
		v0.8c-0.3,0.8-0.5,1.5-0.8,2.2c0.6,0.6,0.9,1.4,0.9,2.2c0,0.4-0.1,0.8-0.3,1c-0.2,0.3-0.7,0.4-1.5,0.4c0-0.4-0.1-0.8-0.2-1.2
		c0.2,0,0.4,0,0.5,0c0.3,0,0.5-0.1,0.5-0.4c0-0.7-0.3-1.3-0.9-1.9c0.3-0.7,0.6-1.4,0.8-2.1h-1v6.6h-1v-6.6c-0.3,0.5-0.6,0.9-0.9,1.3
		h0.7v0.9h-1.5c-0.2,0.2-0.4,0.4-0.6,0.6h1.8v3.9h-1V69h-1.6v0.3h-1v-2.6c-0.2,0.1-0.4,0.2-0.6,0.3c0-0.4-0.1-0.8-0.1-1.1
		c0.6-0.3,1.2-0.7,1.7-1.1H98V64z M101.3,66.3h-1.6v0.6h1.6V66.3z M99.7,68.2h1.6v-0.6h-1.6V68.2z M101.3,63.2h-0.7V64
		C100.9,63.7,101.1,63.5,101.3,63.2z"/>
	<path id="XMLID_605_" class="st24" d="M100.2,71.3l0.7,1.5c0.2-0.5,0.4-1,0.6-1.5l0.5,0.2l0.4-0.2l0.6,1.4c0.2-0.5,0.4-1,0.6-1.5
		l0.9,0.4c-0.3,0.8-0.6,1.6-0.9,2.3l0.8,1.9l-0.9,0.4l-0.5-1.2c-0.3,0.5-0.5,1-0.8,1.5c-0.1-0.1-0.2-0.2-0.4-0.3l-0.4,0.2l-0.6-1.5
		c-0.3,0.6-0.6,1.1-1,1.6c-0.1-0.1-0.3-0.3-0.5-0.4v1.3h-1.1V70h7.3v6.2c0,0.4-0.1,0.7-0.2,1s-0.4,0.4-0.7,0.4s-0.8,0.1-1.6,0.1
		c-0.1-0.4-0.2-0.8-0.2-1.1c0.4,0,0.8,0.1,1.2,0.1c0.3,0,0.5-0.2,0.5-0.5v-5h-5.1v0.7L100.2,71.3z M99.4,71.9v3.7
		c0.3-0.5,0.6-1.1,0.9-1.7C100,73.2,99.7,72.5,99.4,71.9z M102,72.6c-0.2,0.5-0.4,0.9-0.6,1.4l0.6,1.2c0.2-0.4,0.4-0.8,0.6-1.2
		L102,72.6z"/>
	<path id="XMLID_598_" class="st24" d="M99.2,80.4c0.2,0,0.4,0,0.5,0c0.2-0.4,0.4-0.8,0.6-1.2l0.9,0.4c-0.5,0.9-1.1,1.9-1.7,2.8
		c0.4-0.1,0.8-0.1,1.3-0.2c0,0.4-0.1,0.7-0.1,1c-1.1,0.1-1.9,0.3-2.3,0.4l-0.3-0.9c0.3-0.3,0.6-0.7,1-1.4c-0.3,0-0.6,0-0.8,0.1
		L98,80.5c0.4-0.5,0.8-1.3,1.4-2.6l1,0.4C100,79,99.6,79.7,99.2,80.4z M98.2,85.4L98,84.2c0.7-0.1,1.7-0.2,3-0.4c0,0.4,0,0.8,0,1.1
		C99.8,85.1,98.9,85.2,98.2,85.4z M101.1,80.1c0.6-0.7,1.1-1.4,1.5-2.2l1.1,0.2c-0.1,0.2-0.2,0.4-0.4,0.6h2.3v1
		c-0.3,0.6-0.7,1.1-1.3,1.5c0.5,0.2,1,0.3,1.6,0.4c-0.1,0.4-0.2,0.7-0.2,1c-1-0.2-1.7-0.5-2.4-0.8c-0.7,0.3-1.4,0.6-2.3,0.8
		c-0.1-0.4-0.3-0.7-0.4-1c0.7-0.1,1.3-0.3,1.8-0.5c-0.2-0.2-0.4-0.4-0.5-0.6c-0.1,0.1-0.2,0.2-0.3,0.3
		C101.5,80.7,101.3,80.4,101.1,80.1z M101.3,85.8v-3.2h4.1v3.2h-1v-0.4h-2.1v0.4H101.3z M104.4,83.6h-2.1v0.9h2.1V83.6z M102.7,79.6
		c0,0.1-0.1,0.1-0.2,0.2c0.2,0.3,0.5,0.6,0.8,0.8c0.4-0.3,0.8-0.6,1-1H102.7z"/>
	<path id="XMLID_594_" class="st24" d="M98,87.6h0.8v-1.4h1v1.4h0.6v1h-0.6v1.2c0.2-0.1,0.4-0.1,0.6-0.2c0,0.4,0,0.8,0,1.1l-0.6,0.2
		V93c0,0.3-0.1,0.5-0.2,0.7c-0.1,0.2-0.3,0.3-0.6,0.3c-0.3,0-0.6,0-0.9,0c0-0.3-0.1-0.7-0.2-1h0.6c0.1,0,0.2-0.1,0.2-0.3v-1.5
		l-0.8,0.2L98,90.2l0.8-0.2v-1.4H98V87.6z M101.9,86.3v2.3h0.9v1.1h-0.9v2.7c0.3-0.1,0.6-0.3,0.8-0.4c0,0.5,0,0.8,0.1,1.1
		c-1,0.4-1.6,0.7-1.8,0.9l-0.6-0.9c0.3-0.2,0.4-0.5,0.4-0.9v-5.8H101.9z M105.2,87.6l0.7,0.9c-0.6,0.6-1.2,1.2-1.9,1.8v2.2
		c0,0.2,0.1,0.3,0.3,0.3h0.2c0.1,0,0.2-0.1,0.2-0.2c0.1-0.1,0.1-0.7,0.2-1.8l1,0.3c-0.1,0.7-0.1,1.3-0.2,1.6
		c-0.1,0.3-0.2,0.6-0.4,0.8c-0.2,0.2-0.5,0.3-0.8,0.3h-0.5c-0.8,0-1.1-0.4-1.1-1.2v-6.4h1.1v2.6C104.4,88.5,104.8,88.1,105.2,87.6z"
		/>
	<path id="XMLID_590_" class="st24" d="M105.1,98.5c-0.4,0.7-0.9,1.3-1.6,1.9c0.6,0.3,1.4,0.5,2.4,0.6c-0.2,0.4-0.5,0.8-0.7,1.2
		c-1.1-0.2-2-0.6-2.8-1.1c-0.8,0.5-1.7,0.9-2.8,1.2c-0.2-0.4-0.4-0.7-0.6-1c0.9-0.3,1.7-0.5,2.4-0.9c-0.4-0.4-0.7-0.8-1.1-1.3
		c-0.6,1-1.3,1.8-2.1,2.5c-0.1-0.5-0.2-0.9-0.4-1.3c1-1,1.8-2.1,2.3-3.4h-2v-1c0.1-0.4,0.3-0.9,0.4-1.4l1.1,0.1
		c-0.1,0.3-0.2,0.7-0.3,1.2h1.2c0.1-0.5,0.2-1,0.4-1.6l1.2,0.1l-0.3,1.5h2.2c-0.3-0.3-0.6-0.6-0.9-0.9l0.7-0.7
		c0.5,0.4,0.9,0.7,1.3,1l-0.5,0.5h1.4v1h-4.4c-0.1,0.2-0.2,0.5-0.3,0.7h3.9V98.5z M102.5,99.8c0.6-0.4,1-0.8,1.3-1.3h-2.4
		C101.7,99,102,99.4,102.5,99.8z"/>
	<path id="XMLID_587_" class="st24" d="M103,107.8c0,0.7-0.3,1.1-0.8,1.1c-0.2,0-0.5,0-0.8,0c0-0.1-0.1-0.3-0.1-0.5
		c-0.1,0.8-0.3,1.5-0.7,2c-0.3-0.3-0.6-0.6-0.8-0.8c0.2-0.3,0.3-0.6,0.4-1c-0.7,0.2-1.3,0.4-2.1,0.7l-0.2-1.2
		c0.3-0.1,0.5-0.1,0.8-0.2v-2.5h-0.6v-1h0.6v-1.9h1v1.9h0.6v1h-0.6v2.2c0.2-0.1,0.4-0.1,0.5-0.2c0,0.3,0,0.7,0,1.1
		c0.2-0.6,0.3-1.3,0.3-2.1v-2.7h2.7c0-0.4,0-0.8,0-1.3h1c0,0.5,0,0.9,0,1.3h0.8c-0.2-0.3-0.5-0.6-0.7-0.9l0.7-0.4
		c0.3,0.3,0.6,0.6,0.8,1l-0.6,0.4h0.8v1h-1.8c0,0.8,0.1,1.5,0.1,2.1c0.2-0.5,0.5-1,0.6-1.5l1,0.5c-0.4,1-0.9,1.8-1.4,2.6
		c0.1,0.5,0.3,0.8,0.4,0.8c0.1,0,0.2-0.5,0.3-1.4c0.3,0.2,0.6,0.3,0.9,0.4c-0.1,0.7-0.2,1.2-0.3,1.6c-0.1,0.4-0.4,0.6-0.8,0.6
		c-0.5,0-0.9-0.3-1.1-1c-0.4,0.4-0.7,0.8-1.1,1.1c-0.2-0.3-0.5-0.6-0.7-0.8c0.5-0.4,1-0.9,1.5-1.5c-0.1-0.8-0.2-1.9-0.3-3.4h-1.8
		v0.9h1.6C103,106.3,103,107,103,107.8z M101.4,108c0.1,0,0.2,0,0.3,0c0.2,0,0.4-0.1,0.4-0.4c0-0.3,0-0.6,0-1h-0.6
		C101.4,107.2,101.4,107.6,101.4,108z"/>
</g>
<g id="XMLID_584_">
	<polygon id="XMLID_585_" class="st24" points="54.5,86.5 49.6,89.3 49.8,82.7 54.5,79.4 	"/>
</g>
<g id="XMLID_582_">
	<polygon id="XMLID_583_" class="st24" points="59.3,76.1 65.3,71.9 65.3,80.9 59.1,84.4 	"/>
</g>
<g id="XMLID_580_">
	<polygon id="XMLID_581_" class="st24" points="78,74.5 70.8,78.5 70.8,68.2 78,63.3 	"/>
</g>
</svg>
