<?xml version="1.0" encoding="utf-8"?>
<!-- Generator: Adobe Illustrator 19.0.0, SVG Export Plug-In . SVG Version: 6.00 Build 0)  -->
<svg version="1.1" id="图层_1" xmlns="http://www.w3.org/2000/svg" xmlns:xlink="http://www.w3.org/1999/xlink" x="0px" y="0px"
	 viewBox="0 0 52 52" style="enable-background:new 0 0 52 52;" xml:space="preserve">
<style type="text/css">
	.st0{display:none;}
	.st1{display:inline;}
	.st2{fill:#272728;}
	.st3{fill:none;stroke:#272728;stroke-width:2;stroke-linecap:round;stroke-linejoin:round;stroke-miterlimit:10;}
	.st4{fill:#F1BE1C;}
	.st5{display:inline;fill:#F1BE1C;}
	.st6{fill:#FFFFFF;}
	.st7{display:inline;fill:#FB5B46;}
	.st8{fill:#C1C1C1;}
</style>
<g id="XMLID_137_" class="st0">
	<g id="XMLID_149_" class="st1">
		<g id="XMLID_366_">
			<path id="XMLID_6_" class="st2" d="M20,47.4H9.6c-1.5,0-2.8-1.3-2.8-2.8V33.4c0-0.6,0.4-1,1-1s1,0.4,1,1v11.1
				c0,0.4,0.4,0.8,0.8,0.8H20c0.6,0,1,0.4,1,1S20.5,47.4,20,47.4z"/>
		</g>
		<g id="XMLID_150_">
			<path id="XMLID_5_" class="st2" d="M7.8,22.4c-0.6,0-1-0.4-1-1V11c0-1.5,1.3-2.8,2.8-2.8h10.3c0.6,0,1,0.4,1,1s-0.4,1-1,1H9.6
				c-0.4,0-0.8,0.4-0.8,0.8v10.5C8.8,22,8.4,22.4,7.8,22.4z"/>
		</g>
	</g>
	<g id="XMLID_143_" class="st1">
		<g id="XMLID_145_">
			<path id="XMLID_4_" class="st2" d="M43.2,47.4H32.8c-0.6,0-1-0.4-1-1s0.4-1,1-1h10.4c0.4,0,0.8-0.4,0.8-0.8V33.4c0-0.6,0.4-1,1-1
				s1,0.4,1,1v11.1C45.9,46.1,44.7,47.4,43.2,47.4z"/>
		</g>
		<g id="XMLID_144_">
			<path id="XMLID_7_" class="st2" d="M44.9,22.4c-0.6,0-1-0.4-1-1V11c0-0.4-0.4-0.8-0.8-0.8H32.8c-0.6,0-1-0.4-1-1s0.4-1,1-1h10.3
				c1.5,0,2.8,1.3,2.8,2.8v10.5C45.9,22,45.5,22.4,44.9,22.4z"/>
		</g>
	</g>
	<g id="XMLID_141_" class="st1">
		<path id="XMLID_3_" class="st2" d="M47,28H7c-0.6,0-1-0.4-1-1s0.4-1,1-1h40c0.6,0,1,0.4,1,1S47.6,28,47,28z"/>
	</g>
</g>
<g id="XMLID_385_" class="st0">
	<g id="XMLID_407_" class="st1">
		<path id="XMLID_16_" class="st2" d="M12.7,45.1l2.6-4.3c-5.7-2.9-9.1-7.9-9.1-13.3c0-8.8,9.1-15.9,20.3-15.9
			c11.2,0,20.3,7.1,20.3,15.9s-9.1,15.9-20.3,15.9c-0.7,0-1.5,0-2.4-0.1L12.7,45.1z M26.5,13.6c-10.1,0-18.3,6.2-18.3,13.9
			c0,4.9,3.4,9.4,9,11.9l1,0.5l-1.5,2.5l7.4-1.2l0.1,0c0.9,0.1,1.7,0.1,2.4,0.1c10.1,0,18.3-6.2,18.3-13.9
			C44.9,19.8,36.7,13.6,26.5,13.6z"/>
	</g>
	<g id="XMLID_395_" class="st1">
		<path id="XMLID_13_" class="st2" d="M15,30.2c-1.6,0-2.8-1.3-2.8-2.8s1.3-2.8,2.8-2.8s2.8,1.3,2.8,2.8S16.6,30.2,15,30.2z
			 M15,26.6c-0.4,0-0.8,0.4-0.8,0.8c0,0.4,0.4,0.8,0.8,0.8s0.8-0.4,0.8-0.8C15.8,27,15.5,26.6,15,26.6z"/>
	</g>
	<g id="XMLID_394_" class="st1">
		<path id="XMLID_10_" class="st2" d="M27,30.2c-1.6,0-2.8-1.3-2.8-2.8s1.3-2.8,2.8-2.8c1.6,0,2.8,1.3,2.8,2.8S28.6,30.2,27,30.2z
			 M27,26.6c-0.4,0-0.8,0.4-0.8,0.8c0,0.4,0.4,0.8,0.8,0.8c0.4,0,0.8-0.4,0.8-0.8C27.8,27,27.5,26.6,27,26.6z"/>
	</g>
	<g id="XMLID_386_" class="st1">
		<path id="XMLID_8_" class="st2" d="M39,30.2c-1.6,0-2.8-1.3-2.8-2.8s1.3-2.8,2.8-2.8s2.8,1.3,2.8,2.8S40.6,30.2,39,30.2z M39,26.6
			c-0.4,0-0.8,0.4-0.8,0.8c0,0.4,0.4,0.8,0.8,0.8s0.8-0.4,0.8-0.8C39.8,27,39.5,26.6,39,26.6z"/>
	</g>
</g>
<g id="XMLID_455_" class="st0">
	<g id="XMLID_458_" class="st1">
		<path id="XMLID_49_" class="st2" d="M44.5,29.2c-0.3,0-0.5-0.1-0.7-0.3L27.4,12.3L10.9,28.9c-0.4,0.4-1,0.4-1.4,0
			c-0.4-0.4-0.4-1,0-1.4l17.2-17.2c0.2-0.2,0.4-0.2,0.7-0.2c0,0,0,0,0,0c0.3,0,0.5,0,0.7,0.2l17.1,17.2c0.4,0.4,0.4,1,0,1.4
			C45,29.1,44.7,29.2,44.5,29.2z"/>
	</g>
	<g id="XMLID_457_" class="st1">
		<path id="XMLID_48_" class="st2" d="M37,42.8H17.7c-1.7,0-3-1.3-3-3V27.2c0-0.6,0.4-1,1-1s1,0.4,1,1v12.7c0,0.6,0.4,1,1,1H37
			c0.6,0,1-0.4,1-1V27.2c0-0.6,0.4-1,1-1s1,0.4,1,1v12.7C40,41.5,38.7,42.8,37,42.8z"/>
	</g>
	<g id="XMLID_456_" class="st1">
		<path id="XMLID_45_" class="st2" d="M30,42.1h-5.4c-0.4,0-0.8-0.3-0.8-0.8v-6.5c0-0.4,0.3-0.8,0.8-0.8H30c0.4,0,0.8,0.3,0.8,0.8
			v6.5C30.8,41.7,30.4,42.1,30,42.1z M25.4,40.6h3.9v-5h-3.9V40.6z"/>
	</g>
</g>
<g id="XMLID_554_" class="st0">
	<g id="XMLID_467_" class="st1">
		<g id="XMLID_468_">
			<path id="XMLID_57_" class="st2" d="M30.8,42.4c-5.2,0-9.3-4.2-9.3-9.3s4.2-9.3,9.3-9.3s9.3,4.2,9.3,9.3S36,42.4,30.8,42.4z
				 M30.8,25.7c-4,0-7.3,3.3-7.3,7.3s3.3,7.3,7.3,7.3c4,0,7.3-3.3,7.3-7.3S34.9,25.7,30.8,25.7z"/>
		</g>
	</g>
	<g id="XMLID_465_" class="st1">
		<g id="XMLID_466_">
			<path id="XMLID_52_" class="st2" d="M23,44.3h-9.1c-1.8,0-3.3-1.5-3.3-3.3V19.5c0-0.6,0.4-1,1-1h29.8c0.6,0,1,0.4,1,1v6.7
				c0,0.6-0.4,1-1,1s-1-0.4-1-1v-5.7H12.6V41c0,0.7,0.6,1.3,1.3,1.3H23c0.6,0,1,0.4,1,1S23.5,44.3,23,44.3z"/>
		</g>
	</g>
	<g id="XMLID_462_" class="st1">
		<g id="XMLID_463_">
			<path id="XMLID_53_" class="st2" d="M41.5,20.6H11.6c-0.4,0-0.8-0.2-0.9-0.6c-0.2-0.4-0.1-0.8,0.2-1.1l6.4-7.1
				c0.2-0.2,0.5-0.3,0.7-0.3h17.1c0.3,0,0.6,0.1,0.7,0.3l6.4,7.1c0.3,0.3,0.3,0.7,0.2,1.1C42.2,20.3,41.9,20.6,41.5,20.6z
				 M13.9,18.6h25.4l-4.6-5.1H18.4L13.9,18.6z"/>
		</g>
	</g>
	<g id="XMLID_459_" class="st1">
		<g id="XMLID_460_">
			<path id="XMLID_51_" class="st2" d="M15,28.4c-0.1,0-0.3,0-0.4-0.1c-0.4-0.2-0.6-0.5-0.6-0.9V20c0-0.6,0.4-1,1-1s1,0.4,1,1v5.2
				l1.4-1.2c0.4-0.3,0.9-0.3,1.3,0l1.3,1.1V20c0-0.6,0.4-1,1-1s1,0.4,1,1v7.3c0,0.4-0.2,0.7-0.6,0.9c-0.4,0.2-0.8,0.1-1.1-0.1
				l-2.3-2l-2.4,2C15.5,28.3,15.2,28.4,15,28.4z"/>
		</g>
	</g>
	<g id="XMLID_521_" class="st1">
		<g id="XMLID_524_">
			<path id="XMLID_185_" class="st3" d="M40.7,44"/>
		</g>
		<g id="XMLID_523_">
			<path id="XMLID_50_" class="st2" d="M40.7,44.2c-0.2,0-0.5-0.1-0.7-0.3l-3.8-3.5c-0.4-0.4-0.4-1-0.1-1.4c0.4-0.4,1-0.4,1.4-0.1
				l3.8,3.5c0.4,0.4,0.4,1,0.1,1.4C41.2,44.1,41,44.2,40.7,44.2z"/>
		</g>
		<g id="XMLID_522_">
			<path id="XMLID_181_" class="st3" d="M36.1,39.7"/>
		</g>
	</g>
</g>
<g id="XMLID_555_" class="st0">
	<g id="XMLID_518_" class="st1">
		<path id="XMLID_65_" class="st2" d="M38,28H17c-0.6,0-1-0.4-1-1s0.4-1,1-1h21c0.6,0,1,0.4,1,1S38.6,28,38,28z"/>
	</g>
	<g id="XMLID_517_" class="st1">
		<path id="XMLID_64_" class="st2" d="M38,34H17c-0.6,0-1-0.4-1-1s0.4-1,1-1h21c0.6,0,1,0.4,1,1S38.6,34,38,34z"/>
	</g>
	<g id="XMLID_516_" class="st1">
		<path id="XMLID_63_" class="st2" d="M38,40H17c-0.6,0-1-0.4-1-1s0.4-1,1-1h21c0.6,0,1,0.4,1,1S38.6,40,38,40z"/>
	</g>
	<g id="XMLID_515_" class="st1">
		<path id="XMLID_62_" class="st2" d="M41.8,20.6c-0.2,0-0.5-0.1-0.6-0.3L37.8,15c-0.2-0.3-0.1-0.8,0.2-1c0.4-0.2,0.8-0.1,1,0.2
			l3.3,5.3c0.2,0.3,0.1,0.8-0.2,1C42,20.6,41.9,20.6,41.8,20.6z"/>
	</g>
	<g id="XMLID_500_" class="st1">
		<path id="XMLID_56_" class="st2" d="M40.9,45H13.8c-1.6,0-2.8-1.3-2.8-3V15c0-1.7,1.2-3,2.8-3H36c0.6,0,1,0.4,1,1v9h6
			c0.6,0,1,0.4,1,1v19C44,43.7,42.6,45,40.9,45z M13.8,14c-0.7,0-0.8,0.7-0.8,1v27c0,0.3,0.1,1,0.8,1h27.2c0.6,0,1.1-0.4,1.1-1V24
			h-6c-0.6,0-1-0.4-1-1v-9H13.8z"/>
	</g>
</g>
<g id="XMLID_501_" class="st0">
	<g id="XMLID_503_" class="st1">
		<g id="XMLID_513_">
			<path id="XMLID_71_" class="st2" d="M30.4,30.6c-5,0-9.1-4.1-9.1-9.2s4.1-9.2,9.1-9.2c5,0,9.1,4.1,9.1,9.2S35.4,30.6,30.4,30.6z
				 M30.4,14.2c-3.9,0-7.1,3.2-7.1,7.2s3.2,7.2,7.1,7.2c3.9,0,7.1-3.2,7.1-7.2S34.3,14.2,30.4,14.2z"/>
		</g>
		<g id="XMLID_512_">
			<path id="XMLID_69_" class="st2" d="M18,43.6c-0.6,0-1-0.4-1-1c0-7.7,6.2-14.1,13.9-14.1c0.6,0,1,0.4,1,1s-0.4,1-1,1
				C24.4,30.6,19,36,19,42.6C19,43.2,18.6,43.6,18,43.6z"/>
		</g>
		<g id="XMLID_511_">
			<path id="XMLID_68_" class="st2" d="M43.8,43.6c-0.6,0-1-0.4-1-1c0-4.2-2.3-8.1-5.9-10.2c-0.5-0.3-0.6-0.9-0.4-1.4
				c0.3-0.5,0.9-0.6,1.4-0.4c4.2,2.5,6.9,7.1,6.9,12C44.8,43.2,44.3,43.6,43.8,43.6z"/>
		</g>
		<g id="XMLID_505_">
			<g id="XMLID_507_">
				<path id="XMLID_67_" class="st2" d="M21.5,30.4c-0.1,0-0.1,0-0.2,0c-4.3-0.8-7.4-4.6-7.4-9c0-5.1,4.1-9.2,9.1-9.2
					c0.6,0,1,0.4,1,1s-0.4,1-1,1c-3.9,0-7.1,3.2-7.1,7.2c0,3.5,2.4,6.4,5.8,7.1c0.5,0.1,0.9,0.6,0.8,1.2
					C22.4,30.1,22,30.4,21.5,30.4z"/>
			</g>
			<g id="XMLID_506_">
				<path id="XMLID_66_" class="st2" d="M10.6,43.6c-0.6,0-1-0.4-1-1c0-6.9,5.1-13.1,11.6-14.2c0.5-0.1,1.1,0.3,1.1,0.8
					c0.1,0.5-0.3,1.1-0.8,1.1c-5.6,0.9-9.9,6.3-9.9,12.2C11.6,43.2,11.1,43.6,10.6,43.6z"/>
			</g>
		</g>
	</g>
	<g id="XMLID_502_" class="st1">
		<path id="XMLID_148_" class="st3" d="M21.5,29.9"/>
	</g>
</g>
<g id="XMLID_99_" class="st0">
	<g id="XMLID_960_" class="st1">
		<polygon id="XMLID_1015_" class="st4" points="26.4,13 41.4,28 43.5,28 26.4,10.7 9.2,28 11.5,28 		"/>
		<polygon id="XMLID_1016_" class="st4" points="40,28.2 26.4,14.6 12.9,28.2 		"/>
	</g>
	<path id="XMLID_98_" class="st5" d="M15,27v12.8c0,1.1,0.6,2.2,1.7,2.2H24v-7h5v7h7c1.1,0,2-1.1,2-2.2V27H15z"/>
</g>
<g id="XMLID_100_" class="st0">
	<g id="XMLID_982_" class="st1">
		<path id="XMLID_983_" class="st4" d="M23,42.3h-9.1c-1.3,0-2.3-1-2.3-2.3V19.5h29.8v20.8c0,1.1-0.9,2-2,2H23z"/>
	</g>
	<g id="XMLID_979_" class="st1">
		<path id="XMLID_980_" class="st4" d="M41.5,18.6H11.6l6.4-7.1h17.1L41.5,18.6z"/>
	</g>
	<g id="XMLID_977_" class="st1">
		<polyline id="XMLID_978_" class="st6" points="21,19 21,26.3 18,23.8 15,26.4 15,19 		"/>
	</g>
	<g id="XMLID_988_" class="st1">
		<path id="XMLID_989_" class="st6" d="M30.8,40.4c-4.6,0-8.3-3.7-8.3-8.3s3.7-8.3,8.3-8.3s8.3,3.7,8.3,8.3S35.4,40.4,30.8,40.4z"/>
	</g>
	<g id="XMLID_984_" class="st1">
		<g id="XMLID_987_">
			<path id="XMLID_381_" class="st6" d="M40.5,42.1"/>
		</g>
		<g id="XMLID_986_">
			<path id="XMLID_374_" class="st6" d="M40.4,42.3c-0.2,0-0.5-0.1-0.7-0.3L36,38.5c-0.4-0.4-0.4-1-0.1-1.4c0.4-0.4,1-0.4,1.4-0.1
				l3.8,3.5c0.4,0.4,0.4,1,0.1,1.4C41,42.2,40.7,42.3,40.4,42.3z"/>
		</g>
		<g id="XMLID_985_">
			<path id="XMLID_377_" class="st6" d="M35.9,37.8"/>
		</g>
	</g>
</g>
<g id="XMLID_101_" class="st0">
	<path id="XMLID_954_" class="st5" d="M36,23V13H13.8c-1.1,0-1.8,0.9-1.8,2v27c0,1.1,0.7,2,1.8,2h27.2c1.1,0,2.1-0.9,2.1-2V23H36z"
		/>
	<g id="XMLID_958_" class="st1">
		<path id="XMLID_382_" class="st6" d="M37.7,28h-21c-0.6,0-1-0.4-1-1s0.4-1,1-1h21c0.6,0,1,0.4,1,1S38.3,28,37.7,28z"/>
	</g>
	<g id="XMLID_957_" class="st1">
		<path id="XMLID_379_" class="st6" d="M37.7,34h-21c-0.6,0-1-0.4-1-1s0.4-1,1-1h21c0.6,0,1,0.4,1,1S38.3,34,37.7,34z"/>
	</g>
	<g id="XMLID_956_" class="st1">
		<path id="XMLID_378_" class="st6" d="M37.7,40h-21c-0.6,0-1-0.4-1-1s0.4-1,1-1h21c0.6,0,1,0.4,1,1S38.3,40,37.7,40z"/>
	</g>
	<g id="XMLID_955_" class="st1">
		<path id="XMLID_383_" class="st4" d="M41.8,20.6c-0.2,0-0.5-0.1-0.6-0.3L37.8,15c-0.2-0.3-0.1-0.8,0.2-1c0.3-0.2,0.8-0.1,1,0.2
			l3.3,5.3c0.2,0.3,0.1,0.8-0.2,1C42,20.6,41.9,20.6,41.8,20.6z"/>
	</g>
</g>
<g id="XMLID_1237_" class="st0">
	<path id="XMLID_1238_" class="st7" d="M33.1,13.1c-3.7,0-6.5,2.9-6.7,6.6c0-0.3,0-0.6,0-1c0,0.3,0,0.6,0,1c-0.2-3.7-3-6.6-6.7-6.6
		c-3.8,0-7.6,3.1-7.6,6.9c0,1.8,0.2,3.8,1.6,5.6l3,3.2c0,0,4.1,4,7.1,7.5c1.3,1.5,1,0.8,2.5,3.8h0h0c1.5-3,1.3-2.3,2.5-3.8
		c3-3.5,7.1-7.4,7.1-7.4l3-3.2c1.5-1.8,1.6-3.8,1.6-5.6C40.7,16.2,36.9,13.1,33.1,13.1z"/>
</g>
<g id="XMLID_1259_">
	<g id="XMLID_1262_">
		<path id="XMLID_78_" class="st8" d="M42.6,49.7H9.1c-3.3,0-6-2.7-6-6V9.2c0-3.3,2.7-6,6-6h22.2c0.6,0,1,0.4,1,1s-0.4,1-1,1H9.1
			c-2.2,0-4,1.8-4,4v34.5c0,2.2,1.8,4,4,4h33.5c2.2,0,4-1.8,4-4V22.6c0-0.6,0.4-1,1-1s1,0.4,1,1v21.1C48.6,47,45.9,49.7,42.6,49.7z"
			/>
	</g>
	<g id="XMLID_1298_">
		<g id="XMLID_1299_">
			<path id="XMLID_44_" class="st8" d="M23,32c-0.2,0,1.4-3,1.8-3.4L46.5,3.6c0.4-0.4,1-0.4,1.4-0.1c0.4,0.4,0.4,1,0.1,1.4L26.2,30
				C26,30.2,23.2,32,23,32z"/>
			<path id="XMLID_74_" class="st8" d="M23,33h-0.3l-0.2-0.5c-0.3-0.7,1.9-4,1.9-4L46.1,3.3c0.3-0.3,0.6-0.5,1-0.5
				c0.4,0,0.8,0.1,1.1,0.4c0.3,0.3,0.5,0.6,0.5,1c0,0.4-0.1,0.8-0.4,1.1L26.6,30.6C26.5,30.7,23.5,33,23,33z M47.3,4
				C47.2,4,47.2,4,47.3,4c-0.2,0-0.3-0.1-0.4,0l-21.7,25C25,29.2,24.4,30.2,24,31c0.8-0.5,1.7-1.1,1.9-1.3L47.6,4.6
				c0.1-0.1,0.1-0.2,0.1-0.4c0-0.1-0.1-0.1-0.2-0.2C47.5,3.9,47.4,4,47.3,4z"/>
		</g>
	</g>
	<g id="XMLID_1281_">
		<path id="XMLID_70_" class="st8" d="M39,38H11c-0.3,0-0.5-0.2-0.5-0.5S10.7,37,11,37h28c0.3,0,0.5,0.2,0.5,0.5S39.3,38,39,38z"/>
	</g>
</g>
</svg>
