<?xml version="1.0" encoding="utf-8"?>
<!-- Generator: Adobe Illustrator 19.0.0, SVG Export Plug-In . SVG Version: 6.00 Build 0)  -->
<svg version="1.1" id="图层_1" xmlns="http://www.w3.org/2000/svg" xmlns:xlink="http://www.w3.org/1999/xlink" x="0px" y="0px"
	 viewBox="0 0 180 180" style="enable-background:new 0 0 180 180;" xml:space="preserve">
<style type="text/css">
	.st0{display:none;}
	.st1{display:inline;}
	.st2{fill:#272728;}
	.st3{fill:none;stroke:#272728;stroke-width:2;stroke-linecap:round;stroke-linejoin:round;stroke-miterlimit:10;}
	.st4{fill:#F1BE1C;}
	.st5{display:inline;fill:#F1BE1C;}
	.st6{fill:#FFFFFF;}
	.st7{display:inline;fill:#FB5B46;}
	.st8{fill:#515151;}
</style>
<g id="XMLID_137_" class="st0">
	<g id="XMLID_149_" class="st1">
		<g id="XMLID_366_">
			<path id="XMLID_6_" class="st2" d="M84,111.4H73.6c-1.5,0-2.8-1.3-2.8-2.8V97.4c0-0.6,0.4-1,1-1s1,0.4,1,1v11.1
				c0,0.4,0.4,0.8,0.8,0.8H84c0.6,0,1,0.4,1,1S84.5,111.4,84,111.4z"/>
		</g>
		<g id="XMLID_150_">
			<path id="XMLID_5_" class="st2" d="M71.8,86.4c-0.6,0-1-0.4-1-1V75c0-1.5,1.3-2.8,2.8-2.8h10.3c0.6,0,1,0.4,1,1s-0.4,1-1,1H73.6
				c-0.4,0-0.8,0.4-0.8,0.8v10.5C72.8,86,72.4,86.4,71.8,86.4z"/>
		</g>
	</g>
	<g id="XMLID_143_" class="st1">
		<g id="XMLID_145_">
			<path id="XMLID_4_" class="st2" d="M107.2,111.4H96.8c-0.6,0-1-0.4-1-1s0.4-1,1-1h10.4c0.4,0,0.8-0.4,0.8-0.8V97.4
				c0-0.6,0.4-1,1-1s1,0.4,1,1v11.1C109.9,110.1,108.7,111.4,107.2,111.4z"/>
		</g>
		<g id="XMLID_144_">
			<path id="XMLID_7_" class="st2" d="M108.9,86.4c-0.6,0-1-0.4-1-1V75c0-0.4-0.4-0.8-0.8-0.8H96.8c-0.6,0-1-0.4-1-1s0.4-1,1-1h10.3
				c1.5,0,2.8,1.3,2.8,2.8v10.5C109.9,86,109.5,86.4,108.9,86.4z"/>
		</g>
	</g>
	<g id="XMLID_141_" class="st1">
		<path id="XMLID_3_" class="st2" d="M111,92H71c-0.6,0-1-0.4-1-1s0.4-1,1-1h40c0.6,0,1,0.4,1,1S111.6,92,111,92z"/>
	</g>
</g>
<g id="XMLID_385_" class="st0">
	<g id="XMLID_407_" class="st1">
		<path id="XMLID_16_" class="st2" d="M76.7,109.1l2.6-4.3c-5.7-2.9-9.1-7.9-9.1-13.3c0-8.8,9.1-15.9,20.3-15.9
			c11.2,0,20.3,7.1,20.3,15.9s-9.1,15.9-20.3,15.9c-0.7,0-1.5,0-2.4-0.1L76.7,109.1z M90.5,77.6c-10.1,0-18.3,6.2-18.3,13.9
			c0,4.9,3.4,9.4,9,11.9l1,0.5l-1.5,2.5l7.4-1.2l0.1,0c0.9,0.1,1.7,0.1,2.4,0.1c10.1,0,18.3-6.2,18.3-13.9
			C108.9,83.8,100.7,77.6,90.5,77.6z"/>
	</g>
	<g id="XMLID_395_" class="st1">
		<path id="XMLID_13_" class="st2" d="M79,94.2c-1.6,0-2.8-1.3-2.8-2.8s1.3-2.8,2.8-2.8s2.8,1.3,2.8,2.8S80.6,94.2,79,94.2z
			 M79,90.6c-0.4,0-0.8,0.4-0.8,0.8c0,0.4,0.4,0.8,0.8,0.8s0.8-0.4,0.8-0.8C79.8,91,79.5,90.6,79,90.6z"/>
	</g>
	<g id="XMLID_394_" class="st1">
		<path id="XMLID_10_" class="st2" d="M91,94.2c-1.6,0-2.8-1.3-2.8-2.8s1.3-2.8,2.8-2.8c1.6,0,2.8,1.3,2.8,2.8S92.6,94.2,91,94.2z
			 M91,90.6c-0.4,0-0.8,0.4-0.8,0.8c0,0.4,0.4,0.8,0.8,0.8c0.4,0,0.8-0.4,0.8-0.8C91.8,91,91.5,90.6,91,90.6z"/>
	</g>
	<g id="XMLID_386_" class="st1">
		<path id="XMLID_8_" class="st2" d="M103,94.2c-1.6,0-2.8-1.3-2.8-2.8s1.3-2.8,2.8-2.8s2.8,1.3,2.8,2.8S104.6,94.2,103,94.2z
			 M103,90.6c-0.4,0-0.8,0.4-0.8,0.8c0,0.4,0.4,0.8,0.8,0.8s0.8-0.4,0.8-0.8C103.8,91,103.5,90.6,103,90.6z"/>
	</g>
</g>
<g id="XMLID_455_" class="st0">
	<g id="XMLID_458_" class="st1">
		<path id="XMLID_49_" class="st2" d="M108.5,93.2c-0.3,0-0.5-0.1-0.7-0.3L91.4,76.3L74.9,92.9c-0.4,0.4-1,0.4-1.4,0
			c-0.4-0.4-0.4-1,0-1.4l17.2-17.2c0.2-0.2,0.4-0.2,0.7-0.2c0,0,0,0,0,0c0.3,0,0.5,0,0.7,0.2l17.1,17.2c0.4,0.4,0.4,1,0,1.4
			C109,93.1,108.7,93.2,108.5,93.2z"/>
	</g>
	<g id="XMLID_457_" class="st1">
		<path id="XMLID_48_" class="st2" d="M101,106.8H81.7c-1.7,0-3-1.3-3-3V91.2c0-0.6,0.4-1,1-1s1,0.4,1,1v12.7c0,0.6,0.4,1,1,1H101
			c0.6,0,1-0.4,1-1V91.2c0-0.6,0.4-1,1-1s1,0.4,1,1v12.7C104,105.5,102.7,106.8,101,106.8z"/>
	</g>
	<g id="XMLID_456_" class="st1">
		<path id="XMLID_45_" class="st2" d="M94,106.1h-5.4c-0.4,0-0.8-0.3-0.8-0.8v-6.5c0-0.4,0.3-0.8,0.8-0.8H94c0.4,0,0.8,0.3,0.8,0.8
			v6.5C94.8,105.7,94.4,106.1,94,106.1z M89.4,104.6h3.9v-5h-3.9V104.6z"/>
	</g>
</g>
<g id="XMLID_554_" class="st0">
	<g id="XMLID_467_" class="st1">
		<g id="XMLID_468_">
			<path id="XMLID_57_" class="st2" d="M94.8,106.4c-5.2,0-9.3-4.2-9.3-9.3s4.2-9.3,9.3-9.3s9.3,4.2,9.3,9.3S100,106.4,94.8,106.4z
				 M94.8,89.7c-4,0-7.3,3.3-7.3,7.3s3.3,7.3,7.3,7.3c4,0,7.3-3.3,7.3-7.3S98.9,89.7,94.8,89.7z"/>
		</g>
	</g>
	<g id="XMLID_465_" class="st1">
		<g id="XMLID_466_">
			<path id="XMLID_52_" class="st2" d="M87,108.3h-9.1c-1.8,0-3.3-1.5-3.3-3.3V83.5c0-0.6,0.4-1,1-1h29.8c0.6,0,1,0.4,1,1v6.7
				c0,0.6-0.4,1-1,1s-1-0.4-1-1v-5.7H76.6V105c0,0.7,0.6,1.3,1.3,1.3H87c0.6,0,1,0.4,1,1S87.5,108.3,87,108.3z"/>
		</g>
	</g>
	<g id="XMLID_462_" class="st1">
		<g id="XMLID_463_">
			<path id="XMLID_53_" class="st2" d="M105.5,84.6H75.6c-0.4,0-0.8-0.2-0.9-0.6c-0.2-0.4-0.1-0.8,0.2-1.1l6.4-7.1
				c0.2-0.2,0.5-0.3,0.7-0.3h17.1c0.3,0,0.6,0.1,0.7,0.3l6.4,7.1c0.3,0.3,0.3,0.7,0.2,1.1C106.2,84.3,105.9,84.6,105.5,84.6z
				 M77.9,82.6h25.4l-4.6-5.1H82.4L77.9,82.6z"/>
		</g>
	</g>
	<g id="XMLID_459_" class="st1">
		<g id="XMLID_460_">
			<path id="XMLID_51_" class="st2" d="M79,92.4c-0.1,0-0.3,0-0.4-0.1c-0.4-0.2-0.6-0.5-0.6-0.9V84c0-0.6,0.4-1,1-1s1,0.4,1,1v5.2
				l1.4-1.2c0.4-0.3,0.9-0.3,1.3,0l1.3,1.1V84c0-0.6,0.4-1,1-1s1,0.4,1,1v7.3c0,0.4-0.2,0.7-0.6,0.9c-0.4,0.2-0.8,0.1-1.1-0.1
				l-2.3-2l-2.4,2C79.5,92.3,79.2,92.4,79,92.4z"/>
		</g>
	</g>
	<g id="XMLID_521_" class="st1">
		<g id="XMLID_524_">
			<path id="XMLID_185_" class="st3" d="M104.7,108"/>
		</g>
		<g id="XMLID_523_">
			<path id="XMLID_50_" class="st2" d="M104.7,108.2c-0.2,0-0.5-0.1-0.7-0.3l-3.8-3.5c-0.4-0.4-0.4-1-0.1-1.4c0.4-0.4,1-0.4,1.4-0.1
				l3.8,3.5c0.4,0.4,0.4,1,0.1,1.4C105.2,108.1,105,108.2,104.7,108.2z"/>
		</g>
		<g id="XMLID_522_">
			<path id="XMLID_181_" class="st3" d="M100.1,103.7"/>
		</g>
	</g>
</g>
<g id="XMLID_555_" class="st0">
	<g id="XMLID_518_" class="st1">
		<path id="XMLID_65_" class="st2" d="M102,92H81c-0.6,0-1-0.4-1-1s0.4-1,1-1h21c0.6,0,1,0.4,1,1S102.6,92,102,92z"/>
	</g>
	<g id="XMLID_517_" class="st1">
		<path id="XMLID_64_" class="st2" d="M102,98H81c-0.6,0-1-0.4-1-1s0.4-1,1-1h21c0.6,0,1,0.4,1,1S102.6,98,102,98z"/>
	</g>
	<g id="XMLID_516_" class="st1">
		<path id="XMLID_63_" class="st2" d="M102,104H81c-0.6,0-1-0.4-1-1s0.4-1,1-1h21c0.6,0,1,0.4,1,1S102.6,104,102,104z"/>
	</g>
	<g id="XMLID_515_" class="st1">
		<path id="XMLID_62_" class="st2" d="M105.8,84.6c-0.2,0-0.5-0.1-0.6-0.3l-3.3-5.3c-0.2-0.3-0.1-0.8,0.2-1c0.4-0.2,0.8-0.1,1,0.2
			l3.3,5.3c0.2,0.3,0.1,0.8-0.2,1C106,84.6,105.9,84.6,105.8,84.6z"/>
	</g>
	<g id="XMLID_500_" class="st1">
		<path id="XMLID_56_" class="st2" d="M104.9,109H77.8c-1.6,0-2.8-1.3-2.8-3V79c0-1.7,1.2-3,2.8-3H100c0.6,0,1,0.4,1,1v9h6
			c0.6,0,1,0.4,1,1v19C108,107.7,106.6,109,104.9,109z M77.8,78c-0.7,0-0.8,0.7-0.8,1v27c0,0.3,0.1,1,0.8,1h27.2
			c0.6,0,1.1-0.4,1.1-1V88h-6c-0.6,0-1-0.4-1-1v-9H77.8z"/>
	</g>
</g>
<g id="XMLID_501_" class="st0">
	<g id="XMLID_503_" class="st1">
		<g id="XMLID_513_">
			<path id="XMLID_71_" class="st2" d="M94.4,94.6c-5,0-9.1-4.1-9.1-9.2s4.1-9.2,9.1-9.2c5,0,9.1,4.1,9.1,9.2S99.4,94.6,94.4,94.6z
				 M94.4,78.2c-3.9,0-7.1,3.2-7.1,7.2s3.2,7.2,7.1,7.2c3.9,0,7.1-3.2,7.1-7.2S98.3,78.2,94.4,78.2z"/>
		</g>
		<g id="XMLID_512_">
			<path id="XMLID_69_" class="st2" d="M82,107.6c-0.6,0-1-0.4-1-1c0-7.7,6.2-14.1,13.9-14.1c0.6,0,1,0.4,1,1s-0.4,1-1,1
				c-6.5,0-11.9,5.4-11.9,12.1C83,107.2,82.6,107.6,82,107.6z"/>
		</g>
		<g id="XMLID_511_">
			<path id="XMLID_68_" class="st2" d="M107.8,107.6c-0.6,0-1-0.4-1-1c0-4.2-2.3-8.1-5.9-10.2c-0.5-0.3-0.6-0.9-0.4-1.4
				c0.3-0.5,0.9-0.6,1.4-0.4c4.2,2.5,6.9,7.1,6.9,12C108.8,107.2,108.3,107.6,107.8,107.6z"/>
		</g>
		<g id="XMLID_505_">
			<g id="XMLID_507_">
				<path id="XMLID_67_" class="st2" d="M85.5,94.4c-0.1,0-0.1,0-0.2,0c-4.3-0.8-7.4-4.6-7.4-9c0-5.1,4.1-9.2,9.1-9.2
					c0.6,0,1,0.4,1,1s-0.4,1-1,1c-3.9,0-7.1,3.2-7.1,7.2c0,3.5,2.4,6.4,5.8,7.1c0.5,0.1,0.9,0.6,0.8,1.2
					C86.4,94.1,86,94.4,85.5,94.4z"/>
			</g>
			<g id="XMLID_506_">
				<path id="XMLID_66_" class="st2" d="M74.6,107.6c-0.6,0-1-0.4-1-1c0-6.9,5.1-13.1,11.6-14.2c0.5-0.1,1.1,0.3,1.1,0.8
					c0.1,0.5-0.3,1.1-0.8,1.1c-5.6,0.9-9.9,6.3-9.9,12.2C75.6,107.2,75.1,107.6,74.6,107.6z"/>
			</g>
		</g>
	</g>
	<g id="XMLID_502_" class="st1">
		<path id="XMLID_148_" class="st3" d="M85.5,93.9"/>
	</g>
</g>
<g id="XMLID_99_" class="st0">
	<g id="XMLID_960_" class="st1">
		<polygon id="XMLID_1015_" class="st4" points="90.4,77 105.4,92 107.5,92 90.4,74.7 73.2,92 75.5,92 		"/>
		<polygon id="XMLID_1016_" class="st4" points="104,92.2 90.4,78.6 76.9,92.2 		"/>
	</g>
	<path id="XMLID_98_" class="st5" d="M79,91v12.8c0,1.1,0.6,2.2,1.7,2.2H88v-7h5v7h7c1.1,0,2-1.1,2-2.2V91H79z"/>
</g>
<g id="XMLID_100_" class="st0">
	<g id="XMLID_982_" class="st1">
		<path id="XMLID_983_" class="st4" d="M87,106.3h-9.1c-1.3,0-2.3-1-2.3-2.3V83.5h29.8v20.8c0,1.1-0.9,2-2,2H87z"/>
	</g>
	<g id="XMLID_979_" class="st1">
		<path id="XMLID_980_" class="st4" d="M105.5,82.6H75.6l6.4-7.1h17.1L105.5,82.6z"/>
	</g>
	<g id="XMLID_977_" class="st1">
		<polyline id="XMLID_978_" class="st6" points="85,83 85,90.3 82,87.8 79,90.4 79,83 		"/>
	</g>
	<g id="XMLID_988_" class="st1">
		<path id="XMLID_989_" class="st6" d="M94.8,104.4c-4.6,0-8.3-3.7-8.3-8.3s3.7-8.3,8.3-8.3c4.6,0,8.3,3.7,8.3,8.3
			S99.4,104.4,94.8,104.4z"/>
	</g>
	<g id="XMLID_984_" class="st1">
		<g id="XMLID_987_">
			<path id="XMLID_381_" class="st6" d="M104.5,106.1"/>
		</g>
		<g id="XMLID_986_">
			<path id="XMLID_374_" class="st6" d="M104.4,106.3c-0.2,0-0.5-0.1-0.7-0.3l-3.8-3.5c-0.4-0.4-0.4-1-0.1-1.4
				c0.4-0.4,1-0.4,1.4-0.1l3.8,3.5c0.4,0.4,0.4,1,0.1,1.4C105,106.2,104.7,106.3,104.4,106.3z"/>
		</g>
		<g id="XMLID_985_">
			<path id="XMLID_377_" class="st6" d="M99.9,101.8"/>
		</g>
	</g>
</g>
<g id="XMLID_101_" class="st0">
	<path id="XMLID_954_" class="st5" d="M100,87V77H77.8c-1.1,0-1.8,0.9-1.8,2v27c0,1.1,0.7,2,1.8,2h27.2c1.1,0,2.1-0.9,2.1-2V87H100z
		"/>
	<g id="XMLID_958_" class="st1">
		<path id="XMLID_382_" class="st6" d="M101.7,92h-21c-0.6,0-1-0.4-1-1s0.4-1,1-1h21c0.6,0,1,0.4,1,1S102.3,92,101.7,92z"/>
	</g>
	<g id="XMLID_957_" class="st1">
		<path id="XMLID_379_" class="st6" d="M101.7,98h-21c-0.6,0-1-0.4-1-1s0.4-1,1-1h21c0.6,0,1,0.4,1,1S102.3,98,101.7,98z"/>
	</g>
	<g id="XMLID_956_" class="st1">
		<path id="XMLID_378_" class="st6" d="M101.7,104h-21c-0.6,0-1-0.4-1-1s0.4-1,1-1h21c0.6,0,1,0.4,1,1S102.3,104,101.7,104z"/>
	</g>
	<g id="XMLID_955_" class="st1">
		<path id="XMLID_383_" class="st4" d="M105.8,84.6c-0.2,0-0.5-0.1-0.6-0.3l-3.3-5.3c-0.2-0.3-0.1-0.8,0.2-1c0.3-0.2,0.8-0.1,1,0.2
			l3.3,5.3c0.2,0.3,0.1,0.8-0.2,1C106,84.6,105.9,84.6,105.8,84.6z"/>
	</g>
</g>
<g id="XMLID_1237_" class="st0">
	<path id="XMLID_1238_" class="st7" d="M97.1,77.1c-3.7,0-6.5,2.9-6.7,6.6c0-0.3,0-0.6,0-1c0,0.3,0,0.6,0,1c-0.2-3.7-3-6.6-6.7-6.6
		c-3.8,0-7.6,3.1-7.6,6.9c0,1.8,0.2,3.8,1.6,5.6l3,3.2c0,0,4.1,4,7.1,7.5c1.3,1.5,1,0.8,2.5,3.8h0h0c1.5-3,1.3-2.3,2.5-3.8
		c3-3.5,7.1-7.4,7.1-7.4l3-3.2c1.5-1.8,1.6-3.8,1.6-5.6C104.7,80.2,100.9,77.1,97.1,77.1z"/>
</g>
<g id="XMLID_1275_" class="st0">
	<g id="XMLID_1261_" class="st1">
		<path id="XMLID_33_" class="st8" d="M87.6,150.8c-33.8,0-61.3-27.5-61.3-61.3c0-33.8,27.5-61.3,61.3-61.3c12.2,0,23.9,3.5,34,10.3
			c1.8,1.2,2.3,3.7,1.1,5.5c-1.2,1.8-3.7,2.3-5.5,1.1c-8.8-5.8-19-8.9-29.5-8.9c-29.4,0-53.3,23.9-53.3,53.3
			c0,29.4,23.9,53.3,53.3,53.3c22.1,0,42.1-13.9,49.9-34.5c0.8-2.1,3.1-3.1,5.2-2.3c2.1,0.8,3.1,3.1,2.3,5.2
			C136.1,134.9,113,150.8,87.6,150.8z"/>
	</g>
	<g id="XMLID_1273_" class="st1">
		<path id="XMLID_32_" class="st8" d="M85.8,116.7c-1,0-2.1-0.4-2.8-1.2L49.9,82.2c-1.6-1.6-1.5-4.1,0-5.7c1.6-1.6,4.1-1.5,5.7,0
			l30.5,30.8l61.5-49.7c1.7-1.4,4.2-1.1,5.6,0.6c1.4,1.7,1.1,4.2-0.6,5.6l-64.3,51.9C87.6,116.4,86.7,116.7,85.8,116.7z"/>
	</g>
</g>
<g id="XMLID_1274_" class="st0">
	<g id="XMLID_1246_" class="st1">
		<path id="XMLID_81_" class="st8" d="M91.4,168.7c-44.3,0-80.3-36-80.3-80.3S47.1,8,91.4,8s80.3,36,80.3,80.3
			S135.7,168.7,91.4,168.7z M91.4,13c-41.5,0-75.3,33.8-75.3,75.3s33.8,75.3,75.3,75.3s75.3-33.8,75.3-75.3S133,13,91.4,13z"/>
	</g>
	<g id="XMLID_1256_" class="st1">
		<g id="XMLID_1253_">
			<path id="XMLID_78_" class="st8" d="M87.5,93.7c-15.4,0-27.9-12.5-27.9-27.9s12.5-27.9,27.9-27.9c15.4,0,27.9,12.5,27.9,27.9
				S102.8,93.7,87.5,93.7z M87.5,42.9c-12.6,0-22.9,10.3-22.9,22.9c0,12.6,10.3,22.9,22.9,22.9s22.9-10.3,22.9-22.9
				C110.3,53.2,100.1,42.9,87.5,42.9z"/>
		</g>
		<g id="XMLID_1255_">
			<path id="XMLID_77_" class="st8" d="M127,134.9c-1.4,0-2.5-1.1-2.5-2.5c0-7.5-2.1-14.7-6.2-21c-0.8-1.2-0.4-2.7,0.7-3.5
				c1.2-0.8,2.7-0.4,3.5,0.7c4.6,7,7,15.2,7,23.7C129.5,133.8,128.4,134.9,127,134.9z"/>
		</g>
		<g id="XMLID_1254_">
			<path id="XMLID_76_" class="st8" d="M45.1,134.9c-1.4,0-2.5-1.1-2.5-2.5c0-24,19.5-43.4,43.4-43.4c10.3,0,20.2,3.6,28,10.3
				c1.1,0.9,1.2,2.5,0.3,3.5s-2.5,1.2-3.5,0.3c-6.9-5.9-15.7-9.1-24.8-9.1c-21.2,0-38.4,17.2-38.4,38.4
				C47.6,133.8,46.5,134.9,45.1,134.9z"/>
		</g>
		<g id="XMLID_1252_">
			<path id="XMLID_75_" class="st8" d="M87.5,139C87.4,139,87.4,139,87.5,139c-0.8,0-1.4-0.5-1.9-1l-20.7-24.4
				c-0.9-1.1-0.8-2.7,0.3-3.6c1-0.9,2.6-0.8,3.5,0.3l18.9,22.2l48.4-50c1-1,2.5-1,3.5-0.1c1,1,1,2.5,0.1,3.5l-50.3,52.1
				C88.8,138.6,88.1,139,87.5,139z"/>
		</g>
	</g>
</g>
<g id="XMLID_1268_">
	<g id="XMLID_1264_">
		<path id="XMLID_86_" class="st8" d="M91.4,170c-44.3,0-80.3-36-80.3-80.3s36-80.3,80.3-80.3s80.3,36,80.3,80.3S135.7,170,91.4,170
			z M91.4,14.3c-41.5,0-75.3,33.8-75.3,75.3S49.9,165,91.4,165s75.3-33.8,75.3-75.3S133,14.3,91.4,14.3z"/>
	</g>
	<g id="XMLID_1265_">
		<g id="XMLID_1257_">
			<path id="XMLID_85_" class="st8" d="M136.2,137.4c-0.6,0-1.3-0.2-1.8-0.7L44.7,46.9c-1-1-1-2.6,0-3.5c1-1,2.6-1,3.5,0l89.8,89.8
				c1,1,1,2.6,0,3.5C137.5,137.1,136.9,137.4,136.2,137.4z"/>
		</g>
		<g id="XMLID_1266_">
			<path id="XMLID_84_" class="st8" d="M46.5,136.8c-0.6,0-1.3-0.2-1.8-0.7c-1-1-1-2.6,0-3.5l89.8-89.8c1-1,2.6-1,3.5,0
				c1,1,1,2.6,0,3.5L48.2,136C47.7,136.5,47.1,136.8,46.5,136.8z"/>
		</g>
	</g>
</g>
</svg>
