<?xml version="1.0" encoding="utf-8"?>
<!-- Generator: Adobe Illustrator 19.0.0, SVG Export Plug-In . SVG Version: 6.00 Build 0)  -->
<svg version="1.1" id="图层_1" xmlns="http://www.w3.org/2000/svg" xmlns:xlink="http://www.w3.org/1999/xlink" x="0px" y="0px"
	 viewBox="0 0 36 36" style="enable-background:new 0 0 36 36;" xml:space="preserve">
<style type="text/css">
	.st0{fill:#54B3E6;}
</style>
<path id="XMLID_2127_" class="st0" d="M29,29.8V10.4L16.4,25.9c-0.1,0.2-2.1,1.6-2.3,1.6c-0.2,0,1.2-2.3,1.4-2.6L29,8.9L25.4,5H7.9
	C7.3,5,5,5.1,5,6.7v23.1C5,30.6,6.4,32,7.9,32h19.4C29.1,32,29,30.4,29,29.8z M9.1,11h15c0.3,0,0.5,0.2,0.5,0.5S24.4,12,24.1,12h-15
	c-0.3,0-0.5-0.2-0.5-0.5S8.9,11,9.1,11z M9.1,15h11c0.3,0,0.5,0.2,0.5,0.5S20.4,16,20.1,16h-11c-0.3,0-0.5-0.2-0.5-0.5
	S8.9,15,9.1,15z M9.1,18h8c0.3,0,0.5,0.2,0.5,0.5S17.4,19,17.1,19h-8c-0.3,0-0.5-0.2-0.5-0.5S8.9,18,9.1,18z M11.1,26h-2
	c-0.3,0-0.5-0.2-0.5-0.5S8.9,25,9.1,25h2c0.3,0,0.5,0.2,0.5,0.5S11.4,26,11.1,26z M9.1,23c-0.3,0-0.5-0.2-0.5-0.5S8.9,22,9.1,22h5
	c0.3,0,0.5,0.2,0.5,0.5S14.4,23,14.1,23H9.1z"/>
</svg>
