<?xml version="1.0" encoding="utf-8"?>
<!-- Generator: Adobe Illustrator 19.0.0, SVG Export Plug-In . SVG Version: 6.00 Build 0)  -->
<svg version="1.1" id="图层_1" xmlns="http://www.w3.org/2000/svg" xmlns:xlink="http://www.w3.org/1999/xlink" x="0px" y="0px"
	 viewBox="0 0 280 280" style="enable-background:new 0 0 280 280;" xml:space="preserve">
<style type="text/css">
	.st0{fill:#F4F4F5;}
	.st1{fill:#F5CD2C;}
</style>
<g id="XMLID_1_">
	<g id="XMLID_2314_">
		<path id="XMLID_17_" class="st0" d="M180.4,193c-3,0-6.4-2.9-6.4-5.8v-9.9c0-2.8,3.4-5.3,6.4-5.3c0,0,64.4,0,82.8,0
			c17.3,0,15.1-23,4.8-23c-18.7,0-82.4,0-82.4,0c-3,0-5.5-2.3-5.5-5.1V134c0-2.8,2.6-4,5.5-4c0,0,44.4,0,59.8,0
			c18.3,0,20.3-32-2.2-32c-51.7,0-62.8,0-62.8,0c-3,0-10.6-2.1-10.6-4.9l-4.9-13c-4,0-69.1-0.2-99.4-0.2c-16.9,0-16,19.2-0.1,19.2
			c99.6,0,73.4,0,73.4,0c4,0,7.2,3.4,7.2,7.3v10.5c0,3.8-3.1,6.3-7.2,6.3c-124,0-97.9,0-104.2,0c-9.5,0-8.5,16-1.6,16
			c34.2,0,29.1,0,29.1,0c3,0,5.8,2.3,5.8,5.1v9.9c0,2.8-2.8,5-5.8,5.2c-38.8,2.8-58-6.2-58,20.1c0,25.3,0.1,32.8,33.1,32.8h204.2
			c11.7,0,14.5-19-3.5-19C218.9,193,180.4,193,180.4,193z"/>
	</g>
	<g id="XMLID_2307_">
		<path id="XMLID_4_" class="st1" d="M135.8,136.1c-20.5,0-37.2-16.7-37.2-37.2s16.7-37.2,37.2-37.2S173,78.4,173,98.9
			S156.3,136.1,135.8,136.1z M135.8,66.8c-17.7,0-32.2,14.4-32.2,32.2s14.4,32.2,32.2,32.2S168,116.7,168,98.9
			S153.6,66.8,135.8,66.8z"/>
	</g>
	<g id="XMLID_2215_">
		<path id="XMLID_3_" class="st1" d="M197.7,197.2c-1.4,0-2.5-1.1-2.5-2.5c0-32.3-26.3-58.6-58.6-58.6s-58.6,26.3-58.6,58.6
			c0,1.4-1.1,2.5-2.5,2.5s-2.5-1.1-2.5-2.5c0-35,28.5-63.6,63.6-63.6s63.6,28.5,63.6,63.6C200.2,196.1,199.1,197.2,197.7,197.2z"/>
	</g>
	<g id="XMLID_2217_">
		<path id="XMLID_2_" class="st1" d="M136.7,185.9c-0.1,0-0.1,0-0.2,0c-0.7,0-1.3-0.4-1.7-0.9l-24.2-28.4c-0.9-1.1-0.8-2.6,0.3-3.5
			c1-0.9,2.6-0.8,3.5,0.3l22.5,26.5l71-64.5c1-0.9,2.6-0.9,3.5,0.2c0.9,1,0.9,2.6-0.2,3.5l-72.9,66.2
			C137.9,185.7,137.3,185.9,136.7,185.9z"/>
	</g>
</g>
</svg>
