<?xml version="1.0" encoding="utf-8"?>
<!-- Generator: Adobe Illustrator 19.0.0, SVG Export Plug-In . SVG Version: 6.00 Build 0)  -->
<svg version="1.1" id="图层_1" xmlns="http://www.w3.org/2000/svg" xmlns:xlink="http://www.w3.org/1999/xlink" x="0px" y="0px"
	 viewBox="0 0 48 48" style="enable-background:new 0 0 48 48;" xml:space="preserve">
<style type="text/css">
	.st0{fill:#DED56C;}
</style>
<g id="XMLID_2165_">
	<g id="XMLID_2168_">
		<path id="XMLID_2181_" class="st0" d="M40.7,16.9c-0.1,0-0.2,0-0.2-0.1l-6-9c-0.1-0.1,0-0.3,0.1-0.3c0.1-0.1,0.3,0,0.3,0.1l6,9
			c0.1,0.1,0,0.3-0.1,0.3C40.8,16.9,40.7,16.9,40.7,16.9z"/>
	</g>
	<path id="XMLID_2192_" class="st0" d="M33,18V7H10.6C8.9,7,7,8.6,7,9.8v28.9c0,1.8,2.4,3.3,3.6,3.3h29.2c1.2,0,1.2-2,1.2-3.3V18H33
		z M11.3,12h15c0.3,0,0.5,0.2,0.5,0.5S26.5,13,26.3,13h-15c-0.3,0-0.5-0.2-0.5-0.5S11,12,11.3,12z M10.8,18.5c0-0.3,0.2-0.5,0.5-0.5
		h8c0.3,0,0.5,0.2,0.5,0.5S19.5,19,19.3,19h-8C11,19,10.8,18.8,10.8,18.5z M34,22.2L20.8,36.4l-8.5-7.2c-0.4-0.4-0.5-1-0.1-1.4
		c0.4-0.4,1-0.5,1.4-0.1l7,5.9l11.9-12.8c0.4-0.4,1-0.4,1.4-0.1C34.3,21.1,34.4,21.8,34,22.2z"/>
</g>
</svg>
