<?xml version="1.0" encoding="utf-8"?>
<!-- Generator: Adobe Illustrator 19.0.0, SVG Export Plug-In . SVG Version: 6.00 Build 0)  -->
<svg version="1.1" id="图层_1" xmlns="http://www.w3.org/2000/svg" xmlns:xlink="http://www.w3.org/1999/xlink" x="0px" y="0px"
	 viewBox="0 0 36 36" style="enable-background:new 0 0 36 36;" xml:space="preserve">
<style type="text/css">
	.st0{fill:#EB6A86;}
</style>
<g id="XMLID_2463_">
	<g id="XMLID_2467_">
		<path id="XMLID_2464_" class="st0" d="M34.1,30H2.4c-1,0-1.8-1.1-1.9-2c0-0.1,0-0.3,0.1-0.4c0.1-0.1,0.2-0.2,0.4-0.2
			c1.6,0,2.7-1.4,2.7-2.7c0-1.2-2.3-2.4-3.2-2.4C0.3,22.3,0,22,0,21.8v-0.9c0-0.3,0.3-0.5,0.6-0.5c0.8,0,2.9-1.2,2.9-2.4
			c0-1.3-2.1-2.4-2.9-2.4c-0.3,0-0.6-0.2-0.6-0.5V14c0-0.3,0.3-0.5,0.6-0.5c0.8,0,2.9-1.2,2.9-2.4s-2-2.4-2.8-2.4
			c-0.3,0-0.5-0.2-0.5-0.5c0-0.5,0.2-0.7,0.3-0.8C0.9,7,1.4,7,1.9,7.1C2.1,7.1,2.3,7,2.4,7h31.6c0.2,0,0.4,0.1,0.6,0.1
			C35.1,7,35.6,7,36,7.3c0.1,0.1,0.3,0.4,0.3,0.7c0,0.3-0.2,0.6-0.5,0.6c-0.8,0-2.8,1.2-2.8,2.4s1.9,2.4,2.7,2.4
			c0.3,0,0.4,0.2,0.4,0.5v0.9c0,0.3-0.1,0.5-0.4,0.5c-0.8,0-2.8,1.2-2.8,2.4c0,1.3,1.9,2.4,2.7,2.4c0.3,0,0.4,0.2,0.4,0.5v0.9
			c0,0.3-0.1,0.5-0.4,0.5c-0.8,0-3,1.2-3,2.4c0,1.4,1.3,2.6,2.8,2.7c0.3,0,0.5,0.3,0.5,0.5C35.9,28.9,35.1,30,34.1,30z M1.7,28.4
			C1.9,28.7,2.2,29,2.4,29h31.6c0.2,0,0.5-0.3,0.7-0.6c-1.7-0.4-3.2-1.9-3.2-3.7c0-1.7,2.4-3.1,3.4-3.4v0c-1-0.3-3.3-1.7-3.3-3.4
			s2.3-3.1,3.3-3.4v0c-1-0.3-3.2-1.8-3.2-3.6c0-1.2,1-1.9,2-2.9H2.7c1,1,1.8,1.8,1.8,2.9c0,1.7-1.5,3.2-3.5,3.6v0
			c2,0.3,3.3,1.7,3.3,3.4S3,21,1,21.3v0c2,0.3,3.7,1.7,3.7,3.4C4.7,26.3,3.6,28.1,1.7,28.4z"/>
	</g>
	<path id="XMLID_2472_" class="st0" d="M6,10v17h24V10H6z M24,19h-5v3.9c0,0.3-0.6,0.6-1,0.6c-0.5,0-1-0.3-1-0.6V19h-4.4
		c-0.2,0-0.4-0.3-0.4-0.5s0.2-0.5,0.4-0.5h5l-3.4-4.2c-0.1-0.2-0.4-0.7,0-0.9c0.2-0.1,0.5-0.1,0.8,0.3l3.4,4.5l3.3-4.1
		c0.1-0.2,0.6-0.8,1-0.6c0.3,0.2,0.4,0.3-0.1,0.9L19,18h5c0.2,0,0.4,0.3,0.4,0.5S24.2,19,24,19z"/>
</g>
</svg>
