<?xml version="1.0" encoding="utf-8"?>
<!-- Generator: Adobe Illustrator 19.0.0, SVG Export Plug-In . SVG Version: 6.00 Build 0)  -->
<svg version="1.1" id="图层_1" xmlns="http://www.w3.org/2000/svg" xmlns:xlink="http://www.w3.org/1999/xlink" x="0px" y="0px"
	 viewBox="0 0 22 22" style="enable-background:new 0 0 22 22;" xml:space="preserve">
<style type="text/css">
	.st0{display:none;}
	.st1{display:inline;}
	.st2{fill:#272728;}
	.st3{fill:none;stroke:#272728;stroke-width:2;stroke-linecap:round;stroke-linejoin:round;stroke-miterlimit:10;}
	.st4{fill:#F1BE1C;}
	.st5{display:inline;fill:#F1BE1C;}
	.st6{fill:#FFFFFF;}
	.st7{fill:#282828;}
	.st8{display:inline;fill:#272636;}
	.st9{display:none;fill:#9B9B9B;}
	.st10{display:none;fill:#FB5B46;}
	.st11{display:inline;fill:#282828;}
</style>
<g id="XMLID_137_" class="st0">
	<g id="XMLID_149_" class="st1">
		<g id="XMLID_366_">
			<path id="XMLID_6_" class="st2" d="M5,32.4H-5.4c-1.5,0-2.8-1.3-2.8-2.8V18.4c0-0.6,0.4-1,1-1s1,0.4,1,1v11.1
				c0,0.4,0.4,0.8,0.8,0.8H5c0.6,0,1,0.4,1,1S5.5,32.4,5,32.4z"/>
		</g>
		<g id="XMLID_150_">
			<path id="XMLID_5_" class="st2" d="M-7.2,7.4c-0.6,0-1-0.4-1-1V-4c0-1.5,1.3-2.8,2.8-2.8H4.9c0.6,0,1,0.4,1,1s-0.4,1-1,1H-5.4
				c-0.4,0-0.8,0.4-0.8,0.8V6.4C-6.2,7-6.6,7.4-7.2,7.4z"/>
		</g>
	</g>
	<g id="XMLID_143_" class="st1">
		<g id="XMLID_145_">
			<path id="XMLID_4_" class="st2" d="M28.2,32.4H17.8c-0.6,0-1-0.4-1-1s0.4-1,1-1h10.4c0.4,0,0.8-0.4,0.8-0.8V18.4c0-0.6,0.4-1,1-1
				s1,0.4,1,1v11.1C30.9,31.1,29.7,32.4,28.2,32.4z"/>
		</g>
		<g id="XMLID_144_">
			<path id="XMLID_7_" class="st2" d="M29.9,7.4c-0.6,0-1-0.4-1-1V-4c0-0.4-0.4-0.8-0.8-0.8H17.8c-0.6,0-1-0.4-1-1s0.4-1,1-1h10.3
				c1.5,0,2.8,1.3,2.8,2.8V6.4C30.9,7,30.5,7.4,29.9,7.4z"/>
		</g>
	</g>
	<g id="XMLID_141_" class="st1">
		<path id="XMLID_3_" class="st2" d="M32,13H-8c-0.6,0-1-0.4-1-1s0.4-1,1-1h40c0.6,0,1,0.4,1,1S32.6,13,32,13z"/>
	</g>
</g>
<g id="XMLID_385_" class="st0">
	<g id="XMLID_407_" class="st1">
		<path id="XMLID_16_" class="st2" d="M-2.3,30.1l2.6-4.3c-5.7-2.9-9.1-7.9-9.1-13.3c0-8.8,9.1-15.9,20.3-15.9
			c11.2,0,20.3,7.1,20.3,15.9s-9.1,15.9-20.3,15.9c-0.7,0-1.5,0-2.4-0.1L-2.3,30.1z M11.5-1.4C1.4-1.4-6.8,4.8-6.8,12.5
			c0,4.9,3.4,9.4,9,11.9l1,0.5l-1.5,2.5L9,26.3l0.1,0c0.9,0.1,1.7,0.1,2.4,0.1c10.1,0,18.3-6.2,18.3-13.9
			C29.9,4.8,21.7-1.4,11.5-1.4z"/>
	</g>
	<g id="XMLID_395_" class="st1">
		<path id="XMLID_13_" class="st2" d="M0,15.2c-1.6,0-2.8-1.3-2.8-2.8S-1.5,9.6,0,9.6s2.8,1.3,2.8,2.8S1.6,15.2,0,15.2z M0,11.6
			c-0.4,0-0.8,0.4-0.8,0.8c0,0.4,0.4,0.8,0.8,0.8s0.8-0.4,0.8-0.8C0.8,12,0.5,11.6,0,11.6z"/>
	</g>
	<g id="XMLID_394_" class="st1">
		<path id="XMLID_10_" class="st2" d="M12,15.2c-1.6,0-2.8-1.3-2.8-2.8s1.3-2.8,2.8-2.8c1.6,0,2.8,1.3,2.8,2.8S13.6,15.2,12,15.2z
			 M12,11.6c-0.4,0-0.8,0.4-0.8,0.8c0,0.4,0.4,0.8,0.8,0.8c0.4,0,0.8-0.4,0.8-0.8C12.8,12,12.5,11.6,12,11.6z"/>
	</g>
	<g id="XMLID_386_" class="st1">
		<path id="XMLID_8_" class="st2" d="M24,15.2c-1.6,0-2.8-1.3-2.8-2.8s1.3-2.8,2.8-2.8s2.8,1.3,2.8,2.8S25.6,15.2,24,15.2z M24,11.6
			c-0.4,0-0.8,0.4-0.8,0.8c0,0.4,0.4,0.8,0.8,0.8s0.8-0.4,0.8-0.8C24.8,12,24.5,11.6,24,11.6z"/>
	</g>
</g>
<g id="XMLID_455_" class="st0">
	<g id="XMLID_458_" class="st1">
		<path id="XMLID_49_" class="st2" d="M29.5,14.2c-0.3,0-0.5-0.1-0.7-0.3L12.4-2.7L-4.1,13.9c-0.4,0.4-1,0.4-1.4,0
			c-0.4-0.4-0.4-1,0-1.4L11.7-4.8C11.9-5,12.2-5,12.4-5c0,0,0,0,0,0c0.3,0,0.5,0,0.7,0.2l17.1,17.2c0.4,0.4,0.4,1,0,1.4
			C30,14.1,29.7,14.2,29.5,14.2z"/>
	</g>
	<g id="XMLID_457_" class="st1">
		<path id="XMLID_48_" class="st2" d="M22,27.8H2.7c-1.7,0-3-1.3-3-3V12.2c0-0.6,0.4-1,1-1s1,0.4,1,1v12.7c0,0.6,0.4,1,1,1H22
			c0.6,0,1-0.4,1-1V12.2c0-0.6,0.4-1,1-1s1,0.4,1,1v12.7C25,26.5,23.7,27.8,22,27.8z"/>
	</g>
	<g id="XMLID_456_" class="st1">
		<path id="XMLID_45_" class="st2" d="M15,27.1H9.6c-0.4,0-0.8-0.3-0.8-0.8v-6.5c0-0.4,0.3-0.8,0.8-0.8H15c0.4,0,0.8,0.3,0.8,0.8
			v6.5C15.8,26.7,15.4,27.1,15,27.1z M10.4,25.6h3.9v-5h-3.9V25.6z"/>
	</g>
</g>
<g id="XMLID_554_" class="st0">
	<g id="XMLID_467_" class="st1">
		<g id="XMLID_468_">
			<path id="XMLID_57_" class="st2" d="M15.8,27.4c-5.2,0-9.3-4.2-9.3-9.3s4.2-9.3,9.3-9.3s9.3,4.2,9.3,9.3S21,27.4,15.8,27.4z
				 M15.8,10.7c-4,0-7.3,3.3-7.3,7.3s3.3,7.3,7.3,7.3c4,0,7.3-3.3,7.3-7.3S19.9,10.7,15.8,10.7z"/>
		</g>
	</g>
	<g id="XMLID_465_" class="st1">
		<g id="XMLID_466_">
			<path id="XMLID_52_" class="st2" d="M8,29.3h-9.1c-1.8,0-3.3-1.5-3.3-3.3V4.5c0-0.6,0.4-1,1-1h29.8c0.6,0,1,0.4,1,1v6.7
				c0,0.6-0.4,1-1,1s-1-0.4-1-1V5.5H-2.4V26c0,0.7,0.6,1.3,1.3,1.3H8c0.6,0,1,0.4,1,1S8.5,29.3,8,29.3z"/>
		</g>
	</g>
	<g id="XMLID_462_" class="st1">
		<g id="XMLID_463_">
			<path id="XMLID_53_" class="st2" d="M26.5,5.6H-3.4c-0.4,0-0.8-0.2-0.9-0.6c-0.2-0.4-0.1-0.8,0.2-1.1l6.4-7.1
				C2.4-3.4,2.7-3.5,3-3.5h17.1c0.3,0,0.6,0.1,0.7,0.3l6.4,7.1c0.3,0.3,0.3,0.7,0.2,1.1C27.2,5.3,26.9,5.6,26.5,5.6z M-1.1,3.6h25.4
				l-4.6-5.1H3.4L-1.1,3.6z"/>
		</g>
	</g>
	<g id="XMLID_459_" class="st1">
		<g id="XMLID_460_">
			<path id="XMLID_51_" class="st2" d="M0,13.4c-0.1,0-0.3,0-0.4-0.1C-0.8,13.1-1,12.8-1,12.4V5c0-0.6,0.4-1,1-1s1,0.4,1,1v5.2
				L2.4,9c0.4-0.3,0.9-0.3,1.3,0L5,10.2V5c0-0.6,0.4-1,1-1s1,0.4,1,1v7.3c0,0.4-0.2,0.7-0.6,0.9c-0.4,0.2-0.8,0.1-1.1-0.1l-2.3-2
				l-2.4,2C0.5,13.3,0.2,13.4,0,13.4z"/>
		</g>
	</g>
	<g id="XMLID_521_" class="st1">
		<g id="XMLID_524_">
			<path id="XMLID_185_" class="st3" d="M25.7,29"/>
		</g>
		<g id="XMLID_523_">
			<path id="XMLID_50_" class="st2" d="M25.7,29.2c-0.2,0-0.5-0.1-0.7-0.3l-3.8-3.5c-0.4-0.4-0.4-1-0.1-1.4c0.4-0.4,1-0.4,1.4-0.1
				l3.8,3.5c0.4,0.4,0.4,1,0.1,1.4C26.2,29.1,26,29.2,25.7,29.2z"/>
		</g>
		<g id="XMLID_522_">
			<path id="XMLID_181_" class="st3" d="M21.1,24.7"/>
		</g>
	</g>
</g>
<g id="XMLID_555_" class="st0">
	<g id="XMLID_518_" class="st1">
		<path id="XMLID_65_" class="st2" d="M23,13H2c-0.6,0-1-0.4-1-1s0.4-1,1-1h21c0.6,0,1,0.4,1,1S23.6,13,23,13z"/>
	</g>
	<g id="XMLID_517_" class="st1">
		<path id="XMLID_64_" class="st2" d="M23,19H2c-0.6,0-1-0.4-1-1s0.4-1,1-1h21c0.6,0,1,0.4,1,1S23.6,19,23,19z"/>
	</g>
	<g id="XMLID_516_" class="st1">
		<path id="XMLID_63_" class="st2" d="M23,25H2c-0.6,0-1-0.4-1-1s0.4-1,1-1h21c0.6,0,1,0.4,1,1S23.6,25,23,25z"/>
	</g>
	<g id="XMLID_515_" class="st1">
		<path id="XMLID_62_" class="st2" d="M26.8,5.6c-0.2,0-0.5-0.1-0.6-0.3L22.8,0c-0.2-0.3-0.1-0.8,0.2-1c0.4-0.2,0.8-0.1,1,0.2
			l3.3,5.3c0.2,0.3,0.1,0.8-0.2,1C27,5.6,26.9,5.6,26.8,5.6z"/>
	</g>
	<g id="XMLID_500_" class="st1">
		<path id="XMLID_56_" class="st2" d="M25.9,30H-1.2C-2.8,30-4,28.7-4,27V0c0-1.7,1.2-3,2.8-3H21c0.6,0,1,0.4,1,1v9h6
			c0.6,0,1,0.4,1,1v19C29,28.7,27.6,30,25.9,30z M-1.2-1C-1.9-1-2-0.3-2,0v27c0,0.3,0.1,1,0.8,1h27.2c0.6,0,1.1-0.4,1.1-1V9h-6
			c-0.6,0-1-0.4-1-1v-9H-1.2z"/>
	</g>
</g>
<g id="XMLID_501_" class="st0">
	<g id="XMLID_503_" class="st1">
		<g id="XMLID_513_">
			<path id="XMLID_71_" class="st2" d="M15.4,15.6c-5,0-9.1-4.1-9.1-9.2s4.1-9.2,9.1-9.2c5,0,9.1,4.1,9.1,9.2S20.4,15.6,15.4,15.6z
				 M15.4-0.8c-3.9,0-7.1,3.2-7.1,7.2s3.2,7.2,7.1,7.2c3.9,0,7.1-3.2,7.1-7.2S19.3-0.8,15.4-0.8z"/>
		</g>
		<g id="XMLID_512_">
			<path id="XMLID_69_" class="st2" d="M3,28.6c-0.6,0-1-0.4-1-1c0-7.7,6.2-14.1,13.9-14.1c0.6,0,1,0.4,1,1s-0.4,1-1,1
				C9.4,15.6,4,21,4,27.6C4,28.2,3.6,28.6,3,28.6z"/>
		</g>
		<g id="XMLID_511_">
			<path id="XMLID_68_" class="st2" d="M28.8,28.6c-0.6,0-1-0.4-1-1c0-4.2-2.3-8.1-5.9-10.2c-0.5-0.3-0.6-0.9-0.4-1.4
				c0.3-0.5,0.9-0.6,1.4-0.4c4.2,2.5,6.9,7.1,6.9,12C29.8,28.2,29.3,28.6,28.8,28.6z"/>
		</g>
		<g id="XMLID_505_">
			<g id="XMLID_507_">
				<path id="XMLID_67_" class="st2" d="M6.5,15.4c-0.1,0-0.1,0-0.2,0c-4.3-0.8-7.4-4.6-7.4-9C-1.1,1.3,3-2.8,8-2.8c0.6,0,1,0.4,1,1
					s-0.4,1-1,1c-3.9,0-7.1,3.2-7.1,7.2c0,3.5,2.4,6.4,5.8,7.1c0.5,0.1,0.9,0.6,0.8,1.2C7.4,15.1,7,15.4,6.5,15.4z"/>
			</g>
			<g id="XMLID_506_">
				<path id="XMLID_66_" class="st2" d="M-4.4,28.6c-0.6,0-1-0.4-1-1c0-6.9,5.1-13.1,11.6-14.2c0.5-0.1,1.1,0.3,1.1,0.8
					c0.1,0.5-0.3,1.1-0.8,1.1c-5.6,0.9-9.9,6.3-9.9,12.2C-3.4,28.2-3.9,28.6-4.4,28.6z"/>
			</g>
		</g>
	</g>
	<g id="XMLID_502_" class="st1">
		<path id="XMLID_148_" class="st3" d="M6.5,14.9"/>
	</g>
</g>
<g id="XMLID_99_" class="st0">
	<g id="XMLID_960_" class="st1">
		<polygon id="XMLID_1015_" class="st4" points="11.4,-2 26.4,13 28.5,13 11.4,-4.3 -5.8,13 -3.5,13 		"/>
		<polygon id="XMLID_1016_" class="st4" points="25,13.2 11.4,-0.4 -2.1,13.2 		"/>
	</g>
	<path id="XMLID_98_" class="st5" d="M0,12v12.8C0,25.9,0.6,27,1.7,27H9v-7h5v7h7c1.1,0,2-1.1,2-2.2V12H0z"/>
</g>
<g id="XMLID_100_" class="st0">
	<g id="XMLID_982_" class="st1">
		<path id="XMLID_983_" class="st4" d="M8,27.3h-9.1c-1.3,0-2.3-1-2.3-2.3V4.5h29.8v20.8c0,1.1-0.9,2-2,2H8z"/>
	</g>
	<g id="XMLID_979_" class="st1">
		<path id="XMLID_980_" class="st4" d="M26.5,3.6H-3.4L3-3.5h17.1L26.5,3.6z"/>
	</g>
	<g id="XMLID_977_" class="st1">
		<polyline id="XMLID_978_" class="st6" points="6,4 6,11.3 3,8.8 0,11.4 0,4 		"/>
	</g>
	<g id="XMLID_988_" class="st1">
		<path id="XMLID_989_" class="st6" d="M15.8,25.4c-4.6,0-8.3-3.7-8.3-8.3s3.7-8.3,8.3-8.3s8.3,3.7,8.3,8.3S20.4,25.4,15.8,25.4z"/>
	</g>
	<g id="XMLID_984_" class="st1">
		<g id="XMLID_987_">
			<path id="XMLID_381_" class="st6" d="M25.5,27.1"/>
		</g>
		<g id="XMLID_986_">
			<path id="XMLID_374_" class="st6" d="M25.4,27.3c-0.2,0-0.5-0.1-0.7-0.3L21,23.5c-0.4-0.4-0.4-1-0.1-1.4c0.4-0.4,1-0.4,1.4-0.1
				l3.8,3.5c0.4,0.4,0.4,1,0.1,1.4C26,27.2,25.7,27.3,25.4,27.3z"/>
		</g>
		<g id="XMLID_985_">
			<path id="XMLID_377_" class="st6" d="M20.9,22.8"/>
		</g>
	</g>
</g>
<g id="XMLID_101_" class="st0">
	<path id="XMLID_954_" class="st5" d="M21,8V-2H-1.2C-2.3-2-3-1.1-3,0v27c0,1.1,0.7,2,1.8,2h27.2c1.1,0,2.1-0.9,2.1-2V8H21z"/>
	<g id="XMLID_958_" class="st1">
		<path id="XMLID_382_" class="st6" d="M22.7,13h-21c-0.6,0-1-0.4-1-1s0.4-1,1-1h21c0.6,0,1,0.4,1,1S23.3,13,22.7,13z"/>
	</g>
	<g id="XMLID_957_" class="st1">
		<path id="XMLID_379_" class="st6" d="M22.7,19h-21c-0.6,0-1-0.4-1-1s0.4-1,1-1h21c0.6,0,1,0.4,1,1S23.3,19,22.7,19z"/>
	</g>
	<g id="XMLID_956_" class="st1">
		<path id="XMLID_378_" class="st6" d="M22.7,25h-21c-0.6,0-1-0.4-1-1s0.4-1,1-1h21c0.6,0,1,0.4,1,1S23.3,25,22.7,25z"/>
	</g>
	<g id="XMLID_955_" class="st1">
		<path id="XMLID_383_" class="st4" d="M26.8,5.6c-0.2,0-0.5-0.1-0.6-0.3L22.8,0c-0.2-0.3-0.1-0.8,0.2-1c0.3-0.2,0.8-0.1,1,0.2
			l3.3,5.3c0.2,0.3,0.1,0.8-0.2,1C27,5.6,26.9,5.6,26.8,5.6z"/>
	</g>
</g>
<g id="XMLID_31_" class="st0">
	<g id="XMLID_576_" class="st1">
		<path id="XMLID_37_" class="st7" d="M24,24H1.6c-0.5,0-0.9-0.4-1-0.8L-3.5-4H-10c-0.6,0-1-0.4-1-1s0.4-1,1-1h7.4
			c0.5,0,0.9,0.4,1,0.9L2.5,22H24c0.6,0,1,0.4,1,1S24.6,24,24,24z"/>
	</g>
	<g id="XMLID_34_" class="st1">
		<path id="XMLID_36_" class="st7" d="M24,20H2c-0.6,0-1-0.4-1-1s0.4-1,1-1h21.2l4.1-16.2L4.4,2c0,0,0,0,0,0c-0.6,0-1-0.6-1-1.2
			c0-0.6,0.4-0.9,1-0.9L28.6,0c0,0,0,0,0,0c0.3,0,0.6-0.1,0.8,0.2c0.2,0.2,0.3,0.5,0.2,0.8L25,19.3C24.9,19.7,24.5,20,24,20z"/>
	</g>
	<g id="XMLID_33_" class="st1">
		<circle class="st7" cx="4.4" cy="29.5" r="2.2"/>
	</g>
	<g id="XMLID_32_" class="st1">
		<circle class="st7" cx="20.4" cy="29.5" r="2.2"/>
	</g>
</g>
<g id="XMLID_578_" class="st0">
	<path id="XMLID_91_" class="st8" d="M22.7,15.1c0.1,0.1,0.3,0.2,0.4,0.3c0.9,0.7,1.2,1.1,1.2,1.1h0l0,0l0,0c0,0,0.1,0.1,0.1,0.2
		c0,0,0.1,0.1,0.1,0.1c0,0,0,0,0,0.1c0,0,0,0.1,0.1,0.1l0.2,0.3v0c0.4,0.7,0.1,1.7-0.1,2.1c-0.4,0.8-1.1,1.7-1.7,2.2
		c-1.1,1-2.7,2.2-4.6,2.2c-0.2,0-0.4,0-0.6,0c-1.4-0.2-3.6-1-5.9-2.3c-2.6-1.4-5-3.2-6.9-5c-1.9-1.8-3.8-4.2-5.3-6.6
		c-1.4-2.2-2.3-4.3-2.5-5.7c-0.1-0.9,0.1-1.9,0.6-2.9c0.5-0.9,1.2-1.7,2.1-2.4C0-1.1,0-1.1,0.1-1.2c0.7-0.6,1.3-1,2.2-1.4
		c0.3-0.1,0.7-0.2,1-0.2c0.3,0,0.6,0.1,0.9,0.2l0,0c0.1,0.1,0.3,0.2,0.4,0.2c0.2,0.1,1.1,0.6,2.1,1.9C7-0.1,7.5,0.6,7.9,1.3
		c0.6,1.1,1,2,1,2l0,0L9,3.5c0.3,0.7,0.1,1.4-0.4,1.8c0,0-0.1,0.1-0.1,0.1l0,0l0,0c0,0-0.1,0.1-0.1,0.1C8.3,5.7,8.2,5.7,8.2,5.7l0,0
		C7.9,5.9,7.7,6,7.6,6.1c-0.1,0-0.2,0.1-0.4,0.2l0,0c-0.3,0.2-0.6,0.3-1,0.5C6,6.9,5.7,7,5.4,7.1c-0.5,0.3-0.5,1-0.4,1.2
		c0.6,1.4,1.8,2.8,3.6,4.6c1.7,1.6,3.3,2.6,4.7,3.4c0.2,0.1,0.3,0.1,0.5,0.1c0.5,0,1-0.4,1.2-0.8c0.2-0.3,0.3-0.6,0.4-0.9
		c0.1-0.2,0.2-0.4,0.3-0.6l0,0c0.2-0.4,0.4-0.7,0.5-0.9c0.1-0.1,0.2-0.2,0.2-0.3c0.2-0.3,0.5-0.5,0.9-0.7c0.2-0.1,0.4-0.1,0.7-0.1
		c0.3,0,0.6,0.1,0.8,0.2l0.6,0.3l0,0c0,0,0.1,0.1,0.1,0.1c0.1,0,0.2,0.1,0.3,0.2c0.2,0.1,0.6,0.4,1,0.6c0.1,0,0.1,0.1,0.2,0.1
		 M17.4,13.9c0,0.1-0.3,0.3-0.6,0.9c-0.1,0.2-0.2,0.4-0.3,0.6c-0.1,0.3-0.3,0.6-0.5,0.9c-0.4,0.7-1.2,1.4-2.2,1.4
		c-0.4,0-0.8-0.1-1.1-0.3c-1.4-0.8-3.2-1.9-4.9-3.6c-2-1.9-3.2-3.5-3.9-5C3.6,8.4,3.6,7.9,3.7,7.4C3.9,6.8,4.3,6.3,4.8,6
		c0.4-0.2,0.7-0.3,1-0.4c0.3-0.1,0.5-0.2,0.8-0.4C6.8,5.1,6.9,5.1,7,5c0.1-0.1,0.2-0.1,0.5-0.3c0,0,0,0,0.1,0c0.1,0,0.1-0.1,0.1-0.1
		c0,0,0,0,0.1-0.1l0,0C7.9,4.4,7.9,4.2,7.9,4l0,0L7.8,3.8c-0.1-0.1-0.4-1-1-1.9C6.5,1.4,6.1,0.8,5.7,0.2C4.8-0.9,4.1-1.3,4-1.3l0,0
		c-0.1,0-0.3-0.1-0.3-0.2C3.6-1.5,3.4-1.6,3.3-1.6c-0.2,0-0.3,0-0.5,0.1l0,0C2-1.2,1.5-0.8,0.9-0.2c-0.1,0-0.1,0.1-0.2,0.1
		c-1.6,1.3-2.5,2.9-2.3,4.2c0.2,1.2,1,3.1,2.3,5.2c1.4,2.3,3.2,4.6,5.1,6.3c1.8,1.8,4.2,3.5,6.7,4.8c2.2,1.2,4.2,2,5.5,2.2
		c0.2,0,0.3,0,0.5,0c1.2,0,2.4-0.6,3.8-1.9c0.5-0.4,1.1-1.2,1.4-1.8c0.2-0.4,0.2-0.9,0.1-1.1l-0.1-0.2v0l0,0c0-0.1-0.1-0.2-0.2-0.3
		c0,0-0.3-0.4-1.1-1c-0.7-0.6-1.6-1.2-2.2-1.6c-0.7-0.5-1.2-0.8-1.3-0.8l-0.6-0.3c0,0-0.1,0-0.3,0c-0.1,0-0.2,0-0.3,0
		c-0.1,0-0.3,0.2-0.3,0.2L17.4,13.9L17.4,13.9z M17.4,13.9"/>
</g>
<g id="XMLID_552_" class="st0">
	<path id="XMLID_109_" class="st8" d="M-1-1v24h24V-1H-1L-1-1z M21.9,10h-1v2h1v9.9l0,0h-9.8v-1h-2v1h-10V12h1v-2h-1V0h10v1h2V0h9.8
		V10L21.9,10z M21.9,10"/>
	<path id="XMLID_577_" class="st8" d="M9.6,6.5H8.4L5.1,11v1.4h3.5v3h1v-3h1.5v-1H9.6V6.5L9.6,6.5z M8.6,11.4H6.1l0,0l2.5-3.6V11.4
		L8.6,11.4z M8.6,11.4"/>
	<path id="XMLID_553_" class="st8" d="M12.2,9.8c0.2,0.3,0.5,0.6,0.9,0.8v0c-0.5,0.2-0.8,0.5-1,0.9c-0.2,0.4-0.4,0.8-0.4,1.3
		c0,0.4,0.1,0.7,0.2,1c0.1,0.3,0.3,0.6,0.5,0.8c0.2,0.2,0.5,0.4,0.9,0.5c0.3,0.1,0.7,0.2,1.1,0.2c0.8,0,1.4-0.2,1.9-0.7
		c0.5-0.5,0.8-1.1,0.8-1.8c0-0.5-0.1-1-0.4-1.3c-0.2-0.3-0.6-0.6-1.1-0.9v0c0.4-0.2,0.7-0.5,0.9-0.9c0.2-0.4,0.3-0.8,0.3-1.1
		c0-0.6-0.2-1.2-0.7-1.6c-0.5-0.4-1.1-0.6-1.8-0.6c-0.7,0-1.3,0.2-1.8,0.6c-0.5,0.4-0.7,1-0.7,1.6C11.9,9.2,12,9.5,12.2,9.8
		L12.2,9.8z M15.7,12.1c0.1,0.2,0.2,0.5,0.2,0.8c0,0.5-0.1,0.9-0.4,1.2c-0.3,0.3-0.4,0.4-0.9,0.4c-0.5,0-1.1-0.1-1.4-0.5
		c-0.3-0.3-0.5-0.8-0.5-1.3c0-0.4,0.1-0.8,0.2-1.1c0.2-0.3,0.4-0.6,0.7-0.8c0.3,0.1,0.5,0.2,0.7,0.3c0.2,0.1,0.4,0.2,0.5,0.2
		C15.4,11.7,15.6,11.9,15.7,12.1L15.7,12.1z M13.4,7.6c0.3-0.2,0.6-0.3,1-0.3c0.4,0,0.8,0.1,1,0.4c0.2,0.3,0.4,0.6,0.4,1
		c0,0.4-0.1,0.7-0.2,0.9c-0.1,0.3-0.3,0.5-0.7,0.8c-0.2-0.1-0.4-0.2-0.6-0.3c-0.2-0.1-0.4-0.2-0.5-0.3c-0.3-0.2-0.5-0.3-0.6-0.5
		C13.1,9.1,13,8.9,13,8.6C13,8.2,13.1,7.9,13.4,7.6L13.4,7.6z M13.4,7.6"/>
</g>
<g id="XMLID_536_" class="st0">
	<path id="XMLID_548_" class="st8" d="M6.4,1.4C5.7,4.3,4.6,6.9,3.1,9.2c0.1,0.4,0.3,0.9,0.5,1.3C4,9.8,4.5,9,5,8.2V17h1.2V5.7
		c0.5-1.3,1-2.6,1.4-3.9L6.4,1.4L6.4,1.4z M6.4,1.4"/>
	<path id="XMLID_544_" class="st8" d="M17.6,2.1H8.7v5.5h8.9V2.1L17.6,2.1z M16.3,6.4H9.9V3.2h6.5V6.4L16.3,6.4z M16.3,6.4"/>
	<path id="XMLID_541_" class="st8" d="M14.6,10.7H19V9.7h-5.3V8h-1.2v1.7H7.2v1.1h4.2c-1.1,1.8-2.6,3.3-4.7,4.4
		c0.3,0.3,0.6,0.6,0.9,0.9c2-1.2,3.7-3,4.9-5.2V17h1.2v-6.1c1,2.1,2.5,3.7,4.6,4.8c0.2-0.4,0.5-0.7,0.7-0.9
		C17.2,13.9,15.7,12.5,14.6,10.7L14.6,10.7z M14.6,10.7"/>
	<path id="XMLID_537_" class="st8" d="M22.5,0.4C17.2-1,11.1-1,11-1C11-1,4.8-1-0.4,0.4L-1,0.5L-1,11c0,0.2,0.2,2.3,1.7,4.7
		c0.9,1.5,2.1,2.8,3.6,3.9c1.8,1.4,4,2.5,6.5,3.3L11,23l0.2-0.1c2.5-0.8,4.7-1.9,6.5-3.3c1.5-1.1,2.6-2.4,3.6-3.9
		c1.5-2.4,1.7-4.5,1.7-4.7l0-10.5L22.5,0.4L22.5,0.4z M20.1,15c-0.8,1.3-1.9,2.5-3.2,3.5c-1.6,1.2-3.6,2.2-5.9,3
		c-2.3-0.7-4.3-1.7-5.9-3c-1.3-1-2.4-2.2-3.2-3.5c-1.3-2.2-1.5-4-1.5-4.2V1.6C5.4,0.4,11,0.4,11,0.4c0.1,0,5.6,0,10.6,1.2l0,9.3
		C21.6,11,21.4,12.8,20.1,15L20.1,15z M20.1,15"/>
</g>
<g id="XMLID_499_" class="st0">
	<path id="XMLID_530_" class="st8" d="M-1-1v24h24V-1H-1L-1-1z M21.9,21.9H0.1V0h21.9V21.9L21.9,21.9z M21.9,21.9"/>
	<path id="XMLID_527_" class="st8" d="M6.1,18.4l-1.5-1.5h12.9l-1.5,1.5h1.5l2-2l0,0l-2-2h-1.5l1.5,1.5H4.6l1.5-1.5H4.6l-2,2l0,0
		l2,2H6.1z M6.1,18.4"/>
	<path id="XMLID_510_" class="st8" d="M10.5,11.5H9V3.4H8.1c0,0.6,0,1.5-1.4,1.5v0.9h1.4v5.7H6.6v0.9h3.9V11.5L10.5,11.5z
		 M10.5,11.5"/>
	<path id="XMLID_504_" class="st8" d="M13.9,6.6h-1.4V4.3h4.1V3.4h-5v4h1.8c3,0,3.1,4.1,0,4.1h-1.8v0.9h2.3
		C17.6,12.4,17.4,6.6,13.9,6.6L13.9,6.6z M13.9,6.6"/>
</g>
<polyline id="XMLID_124_" class="st9" points="17.8,8 11,16.8 4.2,8 "/>
<path id="XMLID_1175_" class="st10" d="M11-6C1.7-6-6,1.6-6,11s7.6,17,17,17s17-7.6,17-17S20.4-6,11-6z M8.5,22.2l-9.8-9.7
	c-0.4-0.4-0.4-1,0-1.4s1-0.4,1.4,0l8.2,8.1L22.7,1.1c0.3-0.4,1-0.5,1.4-0.2c0.4,0.3,0.5,1,0.2,1.4L8.5,22.2z"/>
<g id="XMLID_159_" class="st0">
	<path id="XMLID_161_" class="st11" d="M4.4,20.6c-0.2,0-0.4-0.1-0.5-0.3c-0.2-0.3-0.2-0.7,0.1-0.9l11.7-8.7L4,2.5
		C3.7,2.3,3.7,1.9,3.9,1.6c0.2-0.3,0.6-0.3,0.9-0.1l12.4,8.8c0.2,0.1,0.3,0.3,0.3,0.5c0,0.2-0.1,0.4-0.3,0.5L4.7,20.5
		C4.6,20.6,4.5,20.6,4.4,20.6z"/>
</g>
<g id="XMLID_160_">
	<path id="XMLID_163_" class="st7" d="M11.4,18c-0.2,0-0.4-0.3-0.5-0.4l-9-12.9C1.7,4.4,1.7,3.9,2,3.7c0.3-0.2,0.7-0.2,0.9,0.1
		l8.5,12.1l8.2-12.1c0.2-0.3,0.6-0.4,0.9-0.2c0.3,0.2,0.4,0.6,0.2,0.9l-8.7,13C11.8,17.7,11.6,18,11.4,18C11.4,18,11.4,18,11.4,18z"
		/>
</g>
</svg>
