<?xml version="1.0" encoding="utf-8"?>
<!-- Generator: Adobe Illustrator 19.0.0, SVG Export Plug-In . SVG Version: 6.00 Build 0)  -->
<svg version="1.1" id="图层_1" xmlns="http://www.w3.org/2000/svg" xmlns:xlink="http://www.w3.org/1999/xlink" x="0px" y="0px"
	 viewBox="0 0 36 36" style="enable-background:new 0 0 36 36;" xml:space="preserve">
<style type="text/css">
	.st0{display:none;}
	.st1{display:inline;}
	.st2{fill:#272728;}
	.st3{fill:none;stroke:#272728;stroke-width:2;stroke-linecap:round;stroke-linejoin:round;stroke-miterlimit:10;}
	.st4{fill:#F1BE1C;}
	.st5{display:inline;fill:#F1BE1C;}
	.st6{fill:#FFFFFF;}
	.st7{fill:#282828;}
	.st8{display:inline;fill:#FB5B46;}
	.st9{display:inline;fill:#282828;}
	.st10{fill:#F5DEFF;}
	.st11{fill:#FFAEFF;}
	.st12{fill:#F9D4FC;}
	.st13{fill:#D2EFFF;}
	.st14{fill:#92D8FF;}
	.st15{fill:#31AEFA;}
	.st16{fill:#F7EDB2;}
	.st17{fill:#FCC505;}
	.st18{fill:#E1F2AA;}
	.st19{fill:#C0E005;}
</style>
<g id="XMLID_137_" class="st0">
	<g id="XMLID_149_" class="st1">
		<g id="XMLID_366_">
			<path id="XMLID_6_" class="st2" d="M12,39.4H1.6c-1.5,0-2.8-1.3-2.8-2.8V25.4c0-0.6,0.4-1,1-1s1,0.4,1,1v11.1
				c0,0.4,0.4,0.8,0.8,0.8H12c0.6,0,1,0.4,1,1S12.5,39.4,12,39.4z"/>
		</g>
		<g id="XMLID_150_">
			<path id="XMLID_5_" class="st2" d="M-0.2,14.4c-0.6,0-1-0.4-1-1V3c0-1.5,1.3-2.8,2.8-2.8h10.3c0.6,0,1,0.4,1,1s-0.4,1-1,1H1.6
				C1.2,2.2,0.8,2.5,0.8,3v10.5C0.8,14,0.4,14.4-0.2,14.4z"/>
		</g>
	</g>
	<g id="XMLID_143_" class="st1">
		<g id="XMLID_145_">
			<path id="XMLID_4_" class="st2" d="M35.2,39.4H24.8c-0.6,0-1-0.4-1-1s0.4-1,1-1h10.4c0.4,0,0.8-0.4,0.8-0.8V25.4c0-0.6,0.4-1,1-1
				s1,0.4,1,1v11.1C37.9,38.1,36.7,39.4,35.2,39.4z"/>
		</g>
		<g id="XMLID_144_">
			<path id="XMLID_3_" class="st2" d="M36.9,14.4c-0.6,0-1-0.4-1-1V3c0-0.4-0.4-0.8-0.8-0.8H24.8c-0.6,0-1-0.4-1-1s0.4-1,1-1h10.3
				c1.5,0,2.8,1.3,2.8,2.8v10.5C37.9,14,37.5,14.4,36.9,14.4z"/>
		</g>
	</g>
	<g id="XMLID_141_" class="st1">
		<path id="XMLID_2_" class="st2" d="M39,20H-1c-0.6,0-1-0.4-1-1s0.4-1,1-1h40c0.6,0,1,0.4,1,1S39.6,20,39,20z"/>
	</g>
</g>
<g id="XMLID_385_" class="st0">
	<g id="XMLID_407_" class="st1">
		<path id="XMLID_16_" class="st2" d="M4.7,37.1l2.6-4.3c-5.7-2.9-9.1-7.9-9.1-13.3c0-8.8,9.1-15.9,20.3-15.9
			c11.2,0,20.3,7.1,20.3,15.9s-9.1,15.9-20.3,15.9c-0.7,0-1.5,0-2.4-0.1L4.7,37.1z M18.5,5.6C8.4,5.6,0.2,11.8,0.2,19.5
			c0,4.9,3.4,9.4,9,11.9l1,0.5l-1.5,2.5l7.4-1.2l0.1,0c0.9,0.1,1.7,0.1,2.4,0.1c10.1,0,18.3-6.2,18.3-13.9
			C36.9,11.8,28.7,5.6,18.5,5.6z"/>
	</g>
	<g id="XMLID_395_" class="st1">
		<path id="XMLID_13_" class="st2" d="M7,22.2c-1.6,0-2.8-1.3-2.8-2.8s1.3-2.8,2.8-2.8s2.8,1.3,2.8,2.8S8.6,22.2,7,22.2z M7,18.6
			c-0.4,0-0.8,0.4-0.8,0.8c0,0.4,0.4,0.8,0.8,0.8s0.8-0.4,0.8-0.8C7.8,19,7.5,18.6,7,18.6z"/>
	</g>
	<g id="XMLID_394_" class="st1">
		<path id="XMLID_10_" class="st2" d="M19,22.2c-1.6,0-2.8-1.3-2.8-2.8s1.3-2.8,2.8-2.8c1.6,0,2.8,1.3,2.8,2.8S20.6,22.2,19,22.2z
			 M19,18.6c-0.4,0-0.8,0.4-0.8,0.8c0,0.4,0.4,0.8,0.8,0.8c0.4,0,0.8-0.4,0.8-0.8C19.8,19,19.5,18.6,19,18.6z"/>
	</g>
	<g id="XMLID_386_" class="st1">
		<path id="XMLID_7_" class="st2" d="M31,22.2c-1.6,0-2.8-1.3-2.8-2.8s1.3-2.8,2.8-2.8s2.8,1.3,2.8,2.8S32.6,22.2,31,22.2z M31,18.6
			c-0.4,0-0.8,0.4-0.8,0.8c0,0.4,0.4,0.8,0.8,0.8s0.8-0.4,0.8-0.8C31.8,19,31.5,18.6,31,18.6z"/>
	</g>
</g>
<g id="XMLID_455_" class="st0">
	<g id="XMLID_458_" class="st1">
		<path id="XMLID_49_" class="st2" d="M36.5,21.2c-0.3,0-0.5-0.1-0.7-0.3L19.4,4.3L2.9,20.9c-0.4,0.4-1,0.4-1.4,0
			c-0.4-0.4-0.4-1,0-1.4L18.7,2.2C18.9,2,19.2,2,19.4,2c0,0,0,0,0,0c0.3,0,0.5,0,0.7,0.2l17.1,17.2c0.4,0.4,0.4,1,0,1.4
			C37,21.1,36.7,21.2,36.5,21.2z"/>
	</g>
	<g id="XMLID_457_" class="st1">
		<path id="XMLID_48_" class="st2" d="M29,34.8H9.7c-1.7,0-3-1.3-3-3V19.2c0-0.6,0.4-1,1-1s1,0.4,1,1v12.7c0,0.6,0.4,1,1,1H29
			c0.6,0,1-0.4,1-1V19.2c0-0.6,0.4-1,1-1s1,0.4,1,1v12.7C32,33.5,30.7,34.8,29,34.8z"/>
	</g>
	<g id="XMLID_456_" class="st1">
		<path id="XMLID_45_" class="st2" d="M22,34.1h-5.4c-0.4,0-0.8-0.3-0.8-0.8v-6.5c0-0.4,0.3-0.8,0.8-0.8H22c0.4,0,0.8,0.3,0.8,0.8
			v6.5C22.8,33.7,22.4,34.1,22,34.1z M17.4,32.6h3.9v-5h-3.9V32.6z"/>
	</g>
</g>
<g id="XMLID_554_" class="st0">
	<g id="XMLID_467_" class="st1">
		<g id="XMLID_468_">
			<path id="XMLID_57_" class="st2" d="M22.8,34.4c-5.2,0-9.3-4.2-9.3-9.3s4.2-9.3,9.3-9.3s9.3,4.2,9.3,9.3S28,34.4,22.8,34.4z
				 M22.8,17.7c-4,0-7.3,3.3-7.3,7.3s3.3,7.3,7.3,7.3c4,0,7.3-3.3,7.3-7.3S26.9,17.7,22.8,17.7z"/>
		</g>
	</g>
	<g id="XMLID_465_" class="st1">
		<g id="XMLID_466_">
			<path id="XMLID_52_" class="st2" d="M15,36.3H5.9c-1.8,0-3.3-1.5-3.3-3.3V11.5c0-0.6,0.4-1,1-1h29.8c0.6,0,1,0.4,1,1v6.7
				c0,0.6-0.4,1-1,1s-1-0.4-1-1v-5.7H4.6V33c0,0.7,0.6,1.3,1.3,1.3H15c0.6,0,1,0.4,1,1S15.5,36.3,15,36.3z"/>
		</g>
	</g>
	<g id="XMLID_462_" class="st1">
		<g id="XMLID_463_">
			<path id="XMLID_53_" class="st2" d="M33.5,12.6H3.6c-0.4,0-0.8-0.2-0.9-0.6c-0.2-0.4-0.1-0.8,0.2-1.1l6.4-7.1
				C9.4,3.6,9.7,3.5,10,3.5h17.1c0.3,0,0.6,0.1,0.7,0.3l6.4,7.1c0.3,0.3,0.3,0.7,0.2,1.1C34.2,12.3,33.9,12.6,33.5,12.6z M5.9,10.6
				h25.4l-4.6-5.1H10.4L5.9,10.6z"/>
		</g>
	</g>
	<g id="XMLID_459_" class="st1">
		<g id="XMLID_460_">
			<path id="XMLID_51_" class="st2" d="M7,20.4c-0.1,0-0.3,0-0.4-0.1C6.2,20.1,6,19.8,6,19.4V12c0-0.6,0.4-1,1-1s1,0.4,1,1v5.2
				L9.4,16c0.4-0.3,0.9-0.3,1.3,0l1.3,1.1V12c0-0.6,0.4-1,1-1s1,0.4,1,1v7.3c0,0.4-0.2,0.7-0.6,0.9c-0.4,0.2-0.8,0.1-1.1-0.1l-2.3-2
				l-2.4,2C7.5,20.3,7.2,20.4,7,20.4z"/>
		</g>
	</g>
	<g id="XMLID_521_" class="st1">
		<g id="XMLID_524_">
			<path id="XMLID_185_" class="st3" d="M32.7,36"/>
		</g>
		<g id="XMLID_523_">
			<path id="XMLID_50_" class="st2" d="M32.7,36.2c-0.2,0-0.5-0.1-0.7-0.3l-3.8-3.5c-0.4-0.4-0.4-1-0.1-1.4c0.4-0.4,1-0.4,1.4-0.1
				l3.8,3.5c0.4,0.4,0.4,1,0.1,1.4C33.2,36.1,33,36.2,32.7,36.2z"/>
		</g>
		<g id="XMLID_522_">
			<path id="XMLID_181_" class="st3" d="M28.1,31.7"/>
		</g>
	</g>
</g>
<g id="XMLID_555_" class="st0">
	<g id="XMLID_518_" class="st1">
		<path id="XMLID_65_" class="st2" d="M30,20H9c-0.6,0-1-0.4-1-1s0.4-1,1-1h21c0.6,0,1,0.4,1,1S30.6,20,30,20z"/>
	</g>
	<g id="XMLID_517_" class="st1">
		<path id="XMLID_64_" class="st2" d="M30,26H9c-0.6,0-1-0.4-1-1s0.4-1,1-1h21c0.6,0,1,0.4,1,1S30.6,26,30,26z"/>
	</g>
	<g id="XMLID_516_" class="st1">
		<path id="XMLID_63_" class="st2" d="M30,32H9c-0.6,0-1-0.4-1-1s0.4-1,1-1h21c0.6,0,1,0.4,1,1S30.6,32,30,32z"/>
	</g>
	<g id="XMLID_515_" class="st1">
		<path id="XMLID_62_" class="st2" d="M33.8,12.6c-0.2,0-0.5-0.1-0.6-0.3L29.8,7c-0.2-0.3-0.1-0.8,0.2-1c0.4-0.2,0.8-0.1,1,0.2
			l3.3,5.3c0.2,0.3,0.1,0.8-0.2,1C34,12.6,33.9,12.6,33.8,12.6z"/>
	</g>
	<g id="XMLID_500_" class="st1">
		<path id="XMLID_56_" class="st2" d="M32.9,37H5.8C4.2,37,3,35.7,3,34V7c0-1.7,1.2-3,2.8-3H28c0.6,0,1,0.4,1,1v9h6c0.6,0,1,0.4,1,1
			v19C36,35.7,34.6,37,32.9,37z M5.8,6C5.1,6,5,6.7,5,7v27c0,0.3,0.1,1,0.8,1h27.2c0.6,0,1.1-0.4,1.1-1V16h-6c-0.6,0-1-0.4-1-1V6
			H5.8z"/>
	</g>
</g>
<g id="XMLID_501_" class="st0">
	<g id="XMLID_503_" class="st1">
		<g id="XMLID_513_">
			<path id="XMLID_71_" class="st2" d="M22.4,22.6c-5,0-9.1-4.1-9.1-9.2s4.1-9.2,9.1-9.2c5,0,9.1,4.1,9.1,9.2S27.4,22.6,22.4,22.6z
				 M22.4,6.2c-3.9,0-7.1,3.2-7.1,7.2s3.2,7.2,7.1,7.2c3.9,0,7.1-3.2,7.1-7.2S26.3,6.2,22.4,6.2z"/>
		</g>
		<g id="XMLID_512_">
			<path id="XMLID_69_" class="st2" d="M10,35.6c-0.6,0-1-0.4-1-1c0-7.7,6.2-14.1,13.9-14.1c0.6,0,1,0.4,1,1s-0.4,1-1,1
				C16.4,22.6,11,28,11,34.6C11,35.2,10.6,35.6,10,35.6z"/>
		</g>
		<g id="XMLID_511_">
			<path id="XMLID_68_" class="st2" d="M35.8,35.6c-0.6,0-1-0.4-1-1c0-4.2-2.3-8.1-5.9-10.2c-0.5-0.3-0.6-0.9-0.4-1.4
				c0.3-0.5,0.9-0.6,1.4-0.4c4.2,2.5,6.9,7.1,6.9,12C36.8,35.2,36.3,35.6,35.8,35.6z"/>
		</g>
		<g id="XMLID_505_">
			<g id="XMLID_507_">
				<path id="XMLID_67_" class="st2" d="M13.5,22.4c-0.1,0-0.1,0-0.2,0c-4.3-0.8-7.4-4.6-7.4-9c0-5.1,4.1-9.2,9.1-9.2
					c0.6,0,1,0.4,1,1s-0.4,1-1,1c-3.9,0-7.1,3.2-7.1,7.2c0,3.5,2.4,6.4,5.8,7.1c0.5,0.1,0.9,0.6,0.8,1.2
					C14.4,22.1,14,22.4,13.5,22.4z"/>
			</g>
			<g id="XMLID_506_">
				<path id="XMLID_66_" class="st2" d="M2.6,35.6c-0.6,0-1-0.4-1-1c0-6.9,5.1-13.1,11.6-14.2c0.5-0.1,1.1,0.3,1.1,0.8
					c0.1,0.5-0.3,1.1-0.8,1.1c-5.6,0.9-9.9,6.3-9.9,12.2C3.6,35.2,3.1,35.6,2.6,35.6z"/>
			</g>
		</g>
	</g>
	<g id="XMLID_502_" class="st1">
		<path id="XMLID_148_" class="st3" d="M13.5,21.9"/>
	</g>
</g>
<g id="XMLID_99_" class="st0">
	<g id="XMLID_960_" class="st1">
		<polygon id="XMLID_1015_" class="st4" points="18.4,5 33.4,20 35.5,20 18.4,2.7 1.2,20 3.5,20 		"/>
		<polygon id="XMLID_1016_" class="st4" points="32,20.2 18.4,6.6 4.9,20.2 		"/>
	</g>
	<path id="XMLID_98_" class="st5" d="M7,19v12.8C7,32.9,7.6,34,8.7,34H16v-7h5v7h7c1.1,0,2-1.1,2-2.2V19H7z"/>
</g>
<g id="XMLID_100_" class="st0">
	<g id="XMLID_982_" class="st1">
		<path id="XMLID_983_" class="st4" d="M15,34.3H5.9c-1.3,0-2.3-1-2.3-2.3V11.5h29.8v20.8c0,1.1-0.9,2-2,2H15z"/>
	</g>
	<g id="XMLID_979_" class="st1">
		<path id="XMLID_980_" class="st4" d="M33.5,10.6H3.6L10,3.5h17.1L33.5,10.6z"/>
	</g>
	<g id="XMLID_977_" class="st1">
		<polyline id="XMLID_978_" class="st6" points="13,11 13,18.3 10,15.8 7,18.4 7,11 		"/>
	</g>
	<g id="XMLID_988_" class="st1">
		<path id="XMLID_989_" class="st6" d="M22.8,32.4c-4.6,0-8.3-3.7-8.3-8.3s3.7-8.3,8.3-8.3s8.3,3.7,8.3,8.3S27.4,32.4,22.8,32.4z"/>
	</g>
	<g id="XMLID_984_" class="st1">
		<g id="XMLID_987_">
			<path id="XMLID_381_" class="st6" d="M32.5,34.1"/>
		</g>
		<g id="XMLID_986_">
			<path id="XMLID_374_" class="st6" d="M32.4,34.3c-0.2,0-0.5-0.1-0.7-0.3L28,30.5c-0.4-0.4-0.4-1-0.1-1.4c0.4-0.4,1-0.4,1.4-0.1
				l3.8,3.5c0.4,0.4,0.4,1,0.1,1.4C33,34.2,32.7,34.3,32.4,34.3z"/>
		</g>
		<g id="XMLID_985_">
			<path id="XMLID_377_" class="st6" d="M27.9,29.8"/>
		</g>
	</g>
</g>
<g id="XMLID_101_" class="st0">
	<path id="XMLID_954_" class="st5" d="M28,15V5H5.8C4.7,5,4,5.9,4,7v27c0,1.1,0.7,2,1.8,2h27.2c1.1,0,2.1-0.9,2.1-2V15H28z"/>
	<g id="XMLID_958_" class="st1">
		<path id="XMLID_382_" class="st6" d="M29.7,20h-21c-0.6,0-1-0.4-1-1s0.4-1,1-1h21c0.6,0,1,0.4,1,1S30.3,20,29.7,20z"/>
	</g>
	<g id="XMLID_957_" class="st1">
		<path id="XMLID_379_" class="st6" d="M29.7,26h-21c-0.6,0-1-0.4-1-1s0.4-1,1-1h21c0.6,0,1,0.4,1,1S30.3,26,29.7,26z"/>
	</g>
	<g id="XMLID_956_" class="st1">
		<path id="XMLID_378_" class="st6" d="M29.7,32h-21c-0.6,0-1-0.4-1-1s0.4-1,1-1h21c0.6,0,1,0.4,1,1S30.3,32,29.7,32z"/>
	</g>
	<g id="XMLID_955_" class="st1">
		<path id="XMLID_383_" class="st4" d="M33.8,12.6c-0.2,0-0.5-0.1-0.6-0.3L29.8,7c-0.2-0.3-0.1-0.8,0.2-1c0.3-0.2,0.8-0.1,1,0.2
			l3.3,5.3c0.2,0.3,0.1,0.8-0.2,1C34,12.6,33.9,12.6,33.8,12.6z"/>
	</g>
</g>
<g id="XMLID_482_" class="st0">
	<g id="XMLID_487_" class="st1">
		<path id="XMLID_488_" class="st7" d="M18.1,34.8l-0.9-0.5l0.8-1.5c0.9-1.5,0.9-1.7,2.2-3.1c3.5-4,8.2-8.6,8.3-8.7l3.5-3.7
			c1.5-1.9,1.8-4.1,1.8-6.2c0-4.3-4.4-7.5-8.4-7.5c-4,0-7.1,3.1-7.2,7.2l-0.5,0l-0.5,0C17,6.7,13.9,3.6,10,3.6c-4,0-8.4,3.2-8.4,7.5
			c0,2.1,0.2,4.2,1.8,6.2l3.5,3.7l0,0c0,0,0.8,0.8,2.1,2.1l-0.7,0.7c-1.2-1.3-2.1-2.1-2.1-2.1L2.6,18c-1.8-2.2-2-4.6-2-6.9
			c0-4.9,5-8.5,9.4-8.5c3.6,0,6.6,2.2,7.8,5.5c1.1-3.3,4.1-5.5,7.8-5.5c4.4,0,9.4,3.7,9.4,8.5c0,2.3-0.2,4.6-2,6.9l-3.5,3.8
			c-0.1,0.1-4.8,4.7-8.3,8.6c-1.2,1.3-1.2,1.4-2.1,2.9L18.1,34.8z"/>
	</g>
	<g id="XMLID_483_" class="st1">
		<g id="XMLID_484_">
			<path id="XMLID_485_" class="st7" d="M9.1,27.2h4.6v-4.6h1v4.6h4.6V28h-4.6v5.1h-1V28H9.1V27.2z"/>
		</g>
	</g>
</g>
<g id="XMLID_489_" class="st0">
	<path id="XMLID_490_" class="st8" d="M25.5,3.1c-4.3,0-7.6,3.4-7.7,7.6c0-0.4,0-0.7,0-1.1c0,0.4,0,0.7,0,1.1
		c-0.2-4.3-3.4-7.6-7.7-7.6c-4.4,0-8.9,3.6-8.9,8c0,2.1,0.2,4.4,1.9,6.5l3.5,3.7c0,0,4.7,4.5,8.3,8.5c1.5,1.7,1.2,1.2,3,4.2h0h0
		c1.7-3,1.5-2.5,3-4.2c3.5-4,8.3-8.5,8.3-8.5l3.5-3.7c1.7-2.1,1.9-4.4,1.9-6.5C34.3,6.7,29.9,3.1,25.5,3.1z"/>
</g>
<g id="XMLID_425_" class="st0">
	<path id="XMLID_70_" class="st9" d="M26.1,34.5c-0.2,0-0.4-0.1-0.5-0.2L9.4,18.1c-0.1-0.1-0.2-0.3-0.2-0.5c0-0.2,0.1-0.4,0.2-0.5
		L25.6,1c0.3-0.3,0.8-0.3,1.1,0c0.3,0.3,0.3,0.8,0,1.1L11,17.5l15.7,15.7c0.3,0.3,0.3,0.8,0,1.1C26.5,34.4,26.3,34.5,26.1,34.5z"/>
</g>
<g id="XMLID_44_" class="st0">
	<path id="XMLID_74_" class="st8" d="M25.5,3.1c-4.3,0-7.6,3.4-7.7,7.6c0-0.4,0-0.7,0-1.1c0,0.4,0,0.7,0,1.1
		c-0.2-4.3-3.4-7.6-7.7-7.6c-4.4,0-8.9,3.6-8.9,8c0,2.1,0.2,4.4,1.9,6.5l3.5,3.7c0,0,4.7,4.5,8.3,8.5c1.5,1.7,1.2,1.2,3,4.2h0h0
		c1.7-3,1.5-2.5,3-4.2c3.5-4,8.3-8.5,8.3-8.5l3.5-3.7c1.7-2.1,1.9-4.4,1.9-6.5C34.3,6.7,29.9,3.1,25.5,3.1z"/>
</g>
<g id="XMLID_433_" class="st0">
	<g id="XMLID_435_" class="st1">
		<path id="XMLID_77_" class="st7" d="M29.5,31c-0.1,0-0.3,0-0.4-0.1L5.8,7.5C5.6,7.4,5.6,7,5.8,6.8s0.5-0.2,0.7,0l23.3,23.3
			c0.2,0.2,0.2,0.5,0,0.7C29.8,31,29.7,31,29.5,31z"/>
	</g>
	<g id="XMLID_434_" class="st1">
		<path id="XMLID_76_" class="st7" d="M6.2,30.3c-0.1,0-0.3,0-0.4-0.1c-0.2-0.2-0.2-0.5,0-0.7L29.2,6.1c0.2-0.2,0.5-0.2,0.7,0
			s0.2,0.5,0,0.7L6.5,30.2C6.4,30.3,6.3,30.3,6.2,30.3z"/>
	</g>
</g>
<g id="XMLID_450_" class="st0">
	<g id="XMLID_452_" class="st1">
		<path id="XMLID_94_" class="st7" d="M17.8,26.9c-7.8,0-14.9-6.3-14.9-8.7c0-2.1,6.7-8.5,14.9-8.5c8.2,0,14.9,6.9,14.9,8.5
			C32.7,20.3,25.8,26.9,17.8,26.9z M17.8,11.2c-7.5,0-13.3,5.9-13.5,7.1c0,1.2,5.7,7.2,13.5,7.2c7.3,0,13.2-5.9,13.5-7.2
			C30.8,17.1,25,11.2,17.8,11.2z"/>
	</g>
	<g id="XMLID_451_" class="st1">
		<path id="XMLID_91_" class="st7" d="M18,23.7c-3,0-5.5-2.5-5.5-5.5c0-3,2.5-5.5,5.5-5.5s5.5,2.5,5.5,5.5
			C23.5,21.2,21,23.7,18,23.7z M18,14.1c-2.2,0-4.1,1.8-4.1,4.1s1.8,4.1,4.1,4.1c2.2,0,4.1-1.8,4.1-4.1S20.2,14.1,18,14.1z"/>
	</g>
</g>
<g id="XMLID_454_" class="st0">
	<g id="XMLID_428_" class="st1">
		<g id="XMLID_429_">
			<path class="st7" d="M25.4,26.7c-5.1,5.3-13.6,5.5-18.9,0.4S1,13.5,6.2,8.1s13.6-5.5,18.9-0.4S30.5,21.4,25.4,26.7z M7.6,9.5
				C3.2,14,3.4,21.3,7.9,25.6s11.7,4.2,16.1-0.3s4.2-11.7-0.3-16.1S12,5,7.6,9.5z"/>
		</g>
	</g>
	<g id="XMLID_423_" class="st1">
		<path id="XMLID_97_" class="st7" d="M32.9,32.9c-0.2,0-0.4-0.1-0.6-0.2l-7.4-6.1c-0.4-0.4-0.5-1-0.1-1.4c0.3-0.4,1-0.5,1.4-0.1
			l7.4,6.1c0.4,0.4,0.5,1,0.1,1.4C33.5,32.7,33.2,32.9,32.9,32.9z"/>
	</g>
</g>
<g id="XMLID_421_" class="st0">
	<path id="XMLID_115_" class="st9" d="M11.8,31.7c-0.2,0-0.3-0.1-0.4-0.2c-0.2-0.2-0.2-0.6,0-0.9l13.1-13.1L11.4,4.7
		c-0.2-0.2-0.2-0.6,0-0.9c0.2-0.2,0.6-0.2,0.9,0l13.5,13.3c0.1,0.1,0.2,0.3,0.2,0.4c0,0.2-0.1,0.3-0.2,0.4L12.2,31.5
		C12.1,31.7,12,31.7,11.8,31.7z"/>
</g>
<g id="XMLID_418_" class="st0">
	<path id="XMLID_129_" class="st9" d="M18.3,24c-0.1,0-0.3-0.3-0.4-0.4L6.7,12.3c-0.2-0.2-0.2-0.6,0-0.8s0.5-0.2,0.7,0l10.8,10.8
		L29,11.5c0.2-0.2,0.5-0.2,0.7,0c0.2,0.2,0.2,0.5,0,0.7l-11,11.4C18.5,23.7,18.4,24,18.3,24C18.3,24,18.3,24,18.3,24z"/>
</g>
<g id="XMLID_571_" class="st0">
	<g id="XMLID_564_" class="st1">
		<path id="XMLID_152_" class="st7" d="M28,19H9c-0.3,0-0.5-0.2-0.5-0.5S8.7,18,9,18h19c0.3,0,0.5,0.2,0.5,0.5S28.3,19,28,19z"/>
	</g>
	<g id="XMLID_572_" class="st1">
		<path id="XMLID_151_" class="st7" d="M18.5,28.5c-0.3,0-0.5-0.2-0.5-0.5V9c0-0.3,0.2-0.5,0.5-0.5S19,8.7,19,9v19
			C19,28.3,18.8,28.5,18.5,28.5z"/>
	</g>
</g>
<g id="XMLID_448_" class="st0">
	<g id="XMLID_147_" class="st1">
		<path id="XMLID_157_" class="st7" d="M17.7,24.3c-5.4,0-10.2-4.3-10.2-6c0-1.4,4.6-5.8,10.2-5.8c5.6,0,10.2,4.7,10.2,5.8
			C28,19.8,23.2,24.3,17.7,24.3z M17.7,13.5c-5.1,0-9.1,4-9.2,4.8c0,0.8,3.9,5,9.2,5c5,0,9-4.1,9.2-5C26.7,17.6,22.7,13.5,17.7,13.5
			z"/>
	</g>
	<g id="XMLID_447_" class="st1">
		<path id="XMLID_154_" class="st7" d="M17.9,22.1c-2.1,0-3.8-1.7-3.8-3.8s1.7-3.8,3.8-3.8c2.1,0,3.8,1.7,3.8,3.8S20,22.1,17.9,22.1
			z M17.9,15.5c-1.5,0-2.8,1.2-2.8,2.8c0,1.5,1.2,2.8,2.8,2.8s2.8-1.2,2.8-2.8C20.7,16.8,19.4,15.5,17.9,15.5z"/>
	</g>
</g>
<g id="XMLID_439_" class="st0">
	<path id="XMLID_173_" class="st9" d="M18.6,22c-0.1,0-0.3,0-0.4-0.1l-8-7.9c-0.2-0.2-0.2-0.5,0-0.7s0.5-0.2,0.7,0l7.6,7.6l7.5-7.6
		c0.2-0.2,0.5-0.2,0.7,0c0.2,0.2,0.2,0.5,0,0.7L19,21.9C18.9,22,18.8,22,18.6,22C18.6,22,18.6,22,18.6,22z"/>
</g>
<g id="XMLID_561_" class="st0">
	<g id="XMLID_408_" class="st1">
		<g id="XMLID_388_">
			<path id="XMLID_189_" class="st10" d="M18.6,54.7c-20.4,0-37-16.6-37-37s16.6-37,37-37s37,16.6,37,37S39,54.7,18.6,54.7z
				 M18.6-17.3c-19.3,0-35,15.7-35,35c0,19.3,15.7,35,35,35c19.3,0,35-15.7,35-35C53.6-1.6,37.9-17.3,18.6-17.3z"/>
		</g>
		<g id="XMLID_400_">
			<path class="st10" d="M-17.4,16.3c0,0,13,21.5,37.9,14.5s32.5-2.8,32.5-2.8s-9.1,29.9-40.5,25.3C-16.5,49-17.4,16.3-17.4,16.3z"
				/>
		</g>
	</g>
	<g id="XMLID_396_" class="st1">
		<g id="XMLID_399_">
			<path class="st11" d="M27.6-7.3c0,0-6.1,10.1-8.6,10.3c-3.1,0-8.2-10.6-8.2-10.6L7.2-6.6L14,8.2V11h5.4H23V8.2l7.7-14.9L27.6-7.3
				z"/>
		</g>
		<g id="XMLID_398_">
			<rect x="14.1" y="8.2" class="st12" width="9" height="2.8"/>
		</g>
		<g id="XMLID_397_">
			<path class="st11" d="M15,14C12.5,20,2,36.1-0.4,40.6c-0.4,0.7,7.1-0.4,8.5,0.1s8.3,4.8,12.3,3.6c5.9-1.8,13-4.1,19-4.9
				c1.7-0.2-12-14.4-16.7-25.4H15z"/>
		</g>
	</g>
</g>
<g id="XMLID_560_" class="st0">
	<g id="XMLID_401_" class="st1">
		<path id="XMLID_193_" class="st13" d="M17.5,55.2c-20.4,0-37-16.6-37-37c0-20.4,16.6-37,37-37c20.4,0,37,16.6,37,37
			C54.5,38.6,37.9,55.2,17.5,55.2z M17.5-16.8c-19.3,0-35,15.7-35,35s15.7,35,35,35s35-15.7,35-35S36.8-16.8,17.5-16.8z"/>
	</g>
	<g id="XMLID_188_" class="st1">
		<path class="st13" d="M52.7,25.9c-4,13.7-15.2,28.9-40.8,27.4C-4.3,51.1-14,37.1-17.6,25.9"/>
	</g>
	<g id="XMLID_404_" class="st1">
		<g id="XMLID_412_">
			<path class="st14" d="M31.6,44.3L28.6-9L17.8-5h-0.4L6.5-8.8L3.7,44.4c0,0,4.5,2.7,13.6,2.7C27.6,47.1,31.6,44.3,31.6,44.3z"/>
		</g>
		<g id="XMLID_403_">
			<polygon class="st15" points="18.7,4 17.2,4 17.1,4 15.7,4 9.9,34.8 17.2,42.6 24.5,34.9 			"/>
		</g>
		<g id="XMLID_402_">
			<path class="st15" d="M18.6-2h-1.3h-0.1h-1.3C13.4,2,14,0.7,14,0.7l2,2.3h1.3h1.3l2-2.3C20.4,0.7,21,2,18.6-2z"/>
		</g>
	</g>
</g>
<g id="XMLID_559_" class="st0">
	<g id="XMLID_409_" class="st1">
		<path id="XMLID_196_" class="st16" d="M18,55c-20.4,0-37-16.6-37-37c0-20.4,16.6-37,37-37S55-2.4,55,18C55,38.4,38.4,55,18,55z
			 M18-17C-1.3-17-17-1.3-17,18s15.7,35,35,35c19.3,0,35-15.7,35-35S37.3-17,18-17z"/>
	</g>
	<g id="XMLID_413_" class="st1">
		<path class="st16" d="M13.3-9.7c0,0,4.9,1.2,8.2,6.6c2.8,4.5,6.8,14-5.6,16.6s-2.3,15.8-2.3,15.8s6.4,1.4,8.8,4.8
			S5.1,40.1,5.1,40.1L1.2,28.7C1.2,28.7,2-8.8,13.3-9.7z"/>
	</g>
	<g id="XMLID_411_" class="st1">
		<path class="st16" d="M13.7,33c-8.3,7.4-30.3-7.3-30.3-7.3c2,15.8,20.5,28.1,34.6,28.1c11.6,0,21.8-5.8,28.3-13.8h0c0,0,0,0,0,0
			c1-1.3,3.6-3.6,4.1-6.1C51.8,26.4,32.6,16.3,13.7,33z"/>
	</g>
	<g id="XMLID_410_" class="st1">
		<path class="st17" d="M11.3-12c0,0-16.8,1.9-14.6,21s-0.5,32.2-4.9,34.2C-1,44.6,10.7,30.9,11.3-0.1C13.7-11.8,13.7-12,13.7-12
			H11.3z"/>
	</g>
</g>
<g id="XMLID_557_" class="st0">
	<g id="XMLID_414_" class="st1">
		<path id="XMLID_199_" class="st18" d="M17.7,54.7c-20.4,0-37-16.6-37-37s16.6-37,37-37s37,16.6,37,37S38.1,54.7,17.7,54.7z
			 M17.7-17.3c-19.3,0-35,15.7-35,35c0,19.3,15.7,35,35,35c19.3,0,35-15.7,35-35C52.7-1.6,37-17.3,17.7-17.3z"/>
	</g>
	<g id="XMLID_417_" class="st1">
		<path class="st18" d="M53.7,21.1c0,0-0.5,4.9-1.9,8.2c-6.2,14-16.1,23.2-30.9,24.3C1.1,55.1-14.4,40.7-17.5,25
			c-0.9-4.2,7.9,9.2,14.6,5.3c10.1-6,12.6,3.2,17.5-0.9c5.2-4.3,9.5-2.9,13.4,0.6c3.6,3.2,6.5-4.7,13.1-1.5
			C47.2,31.4,53.8,18.2,53.7,21.1z"/>
	</g>
	<g id="XMLID_416_" class="st1">
		<path class="st19" d="M36.3,3.3L30.9-4c0,0-4.7-2.4-6.9-2.2C23-6.2,22-1,19.3-1c-0.4,0-0.5,0-0.6,0c0,0,0,0,0,0c0,0,0,0,0,0
			c-0.1,0-0.2,0-0.6,0c-2.6,0-3.6-5.2-4.6-5.2c-2.3-0.1-6.9,2.3-6.9,2.3L1.1,3.4l5.1,3.8l1.4-2.1c0,0-0.8,13.9-0.4,14.5
			s11.5,3.1,11.5,3.1s11.1-2.5,11.5-3.1S29.8,5,29.8,5l1.4,2.1L36.3,3.3z"/>
	</g>
	<g id="XMLID_415_" class="st1">
		<polygon class="st6" points="19.1,2.3 20.7,5.5 24.2,6 21.7,8.5 22.3,12 19.1,10.4 16,12 16.6,8.5 14.1,6 17.6,5.5 		"/>
	</g>
	<g id="XMLID_419_" class="st1">
		<polygon class="st19" points="8,25 30,25 30,42 22.7,42 19.1,30.8 14.1,42 8,42 		"/>
	</g>
</g>
<g id="XMLID_218_">
	<g id="XMLID_215_">
		<polygon id="XMLID_217_" class="st17" points="17.4,3 32.4,18 34.5,18 17.4,0.7 0.2,18 2.5,18 		"/>
		<polygon id="XMLID_216_" class="st17" points="31,18.2 17.4,4.6 3.9,18.2 		"/>
	</g>
	<path id="XMLID_214_" class="st17" d="M6,17v12.8C6,30.9,6.6,32,7.7,32H15v-7h5v7h7c1.1,0,2-1.1,2-2.2V17H6z"/>
</g>
</svg>
