<?xml version="1.0" encoding="utf-8"?>
<!-- Generator: Adobe Illustrator 19.0.0, SVG Export Plug-In . SVG Version: 6.00 Build 0)  -->
<svg version="1.1" id="图层_1" xmlns="http://www.w3.org/2000/svg" xmlns:xlink="http://www.w3.org/1999/xlink" x="0px" y="0px"
	 viewBox="0 0 36 36" style="enable-background:new 0 0 36 36;" xml:space="preserve">
<style type="text/css">
	.st0{fill:#5FC2CE;}
</style>
<g id="XMLID_2063_">
	<g id="XMLID_2088_">
		<g id="XMLID_2104_">
			<path id="XMLID_2364_" class="st0" d="M18.3,9.9L18.3,9.9c-1.5,0.6-2.9,1.4-4,2.5c-1.9,1.9-2.6,4.3-2.2,7c0.1,0.4,0.1,0.7,0.2,1
				c0.5,1.6,1.2,3.2,2.2,4.6c1.6,2.3,3.3,4.5,5.3,6.5c0.7,0.8,1.5,1.4,2.4,2c1,0.7,2.1,1,3.2,1c0.5,0,1.1-0.1,1.7-0.2
				c1.3-0.4,2.2-1.1,2.8-2.4c0.4-0.9,0.5-1.9,0.4-3c-0.1-0.8-0.4-1.4-0.8-2.1c-0.3-0.5-0.8-1-1.3-1.4c-0.7-0.6-1.5-1.2-2-1.9
				c-0.8-1.1-1-2.4-0.7-3.7c0.2-0.6,0.7-1.3,0.9-1.9c0.7-2.1,0.7-4.2-0.6-6c-1-1.4-2.1-2.3-3.8-2.6c-0.4-0.1-0.7-0.1-1.1-0.1
				C20.1,9.3,19.2,9.5,18.3,9.9L18.3,9.9L18.3,9.9z M18.3,9.9"/>
		</g>
		<g id="XMLID_2101_">
			<path id="XMLID_2360_" class="st0" d="M27.1,9.3L27.1,9.3c1.5-1.2,1.8-3.6,0.7-5.1c-0.5-0.7-1.3-1.1-2.1-1.1
				c-0.6,0-1.3,0.3-1.8,0.8c-0.8,0.8-1.1,1.7-1.2,2.8c0,0.8,0.2,1.5,0.6,2.1c0.5,0.8,1.3,1.2,2.1,1.2C26,9.9,26.6,9.7,27.1,9.3
				L27.1,9.3L27.1,9.3z M27.1,9.3"/>
		</g>
		<g id="XMLID_2098_">
			<path id="XMLID_2356_" class="st0" d="M20.3,8.9L20.3,8.9c0.7,0,1.3-0.4,1.6-1C22.6,6.6,22,4.6,20.6,4c-0.3-0.2-0.6-0.2-1-0.2
				c-0.7,0-1.4,0.5-1.7,1.2c-0.2,0.6-0.2,1.1-0.1,1.8c0.2,0.8,0.7,1.5,1.5,2C19.7,8.9,20,8.9,20.3,8.9L20.3,8.9L20.3,8.9z M20.3,8.9
				"/>
		</g>
		<g id="XMLID_2095_">
			<path id="XMLID_2352_" class="st0" d="M16,10L16,10c0.6,0,1.1-0.4,1.4-1c0.5-1.2-0.1-2.8-1.3-3.3c-0.3-0.1-0.5-0.2-0.7-0.2
				c-0.7,0-1.2,0.4-1.5,1.2c-0.2,0.5-0.1,1,0,1.6c0.2,0.7,0.6,1.3,1.4,1.6C15.6,9.9,15.8,10,16,10L16,10L16,10z M16,10"/>
		</g>
		<g id="XMLID_2092_">
			<path id="XMLID_2340_" class="st0" d="M14,11.3L14,11.3c0.3-1.2-0.5-2.7-1.7-3c-0.2,0-0.3-0.1-0.5-0.1c-0.8,0-1.4,0.5-1.5,1.4
				c-0.1,0.5,0,1,0.2,1.5c0.3,0.6,0.8,1.1,1.6,1.4c0.2,0,0.3,0.1,0.5,0.1C13.3,12.4,13.8,12,14,11.3L14,11.3L14,11.3z M14,11.3"/>
		</g>
		<g id="XMLID_2089_">
			<path id="XMLID_2336_" class="st0" d="M8.3,13.5L8.3,13.5c0,0.5,0.1,0.9,0.4,1.4c0.3,0.5,0.9,1,1.6,1.1c0.1,0,0.2,0,0.3,0
				c0.7,0,1.3-0.5,1.4-1.3c0.2-1.2-0.8-2.4-1.9-2.6c-0.1,0-0.2,0-0.3,0C8.9,12.1,8.3,12.6,8.3,13.5L8.3,13.5L8.3,13.5z M8.3,13.5"/>
		</g>
	</g>
	<g id="XMLID_2064_">
		<g id="XMLID_2082_">
			<path id="XMLID_2080_" class="st0" d="M24.2,35c-1.2,0-2.4-0.4-3.5-1.1c-0.9-0.6-1.8-1.3-2.6-2.2c-1.4-1.4-2.8-3.1-4.1-4.8
				c-0.1-0.1-0.1-0.3,0.1-0.4c0.1-0.1,0.3-0.1,0.4,0.1c1.3,1.7,2.6,3.3,4,4.7c0.8,0.9,1.7,1.5,2.5,2.1c1,0.7,2.1,1,3.3,1
				c0.5,0,1.1-0.1,1.7-0.3c1.3-0.4,2.2-1.2,2.8-2.4c0.4-0.9,0.5-1.9,0.4-3c-0.1-0.8-0.4-1.4-0.8-2.1c-0.3-0.5-0.7-1-1.3-1.5
				c-0.2-0.1-0.4-0.3-0.5-0.5c-0.6-0.5-1.2-1-1.7-1.6c-0.9-1.3-1.1-2.7-0.7-4.1c0.1-0.4,0.3-0.8,0.5-1.2c0.2-0.3,0.3-0.6,0.4-0.9
				c0.3-1,0.5-1.9,0.5-2.8c0-0.1,0.1-0.3,0.3-0.3c0,0,0,0,0,0c0.1,0,0.3,0.1,0.3,0.3c0,0.9-0.2,1.9-0.5,2.9c-0.1,0.3-0.3,0.6-0.5,1
				c-0.2,0.4-0.4,0.7-0.5,1.1c-0.4,1.3-0.2,2.5,0.7,3.7c0.4,0.6,1,1,1.6,1.5c0.2,0.2,0.4,0.3,0.6,0.5c0.6,0.5,1.1,1.1,1.4,1.6
				c0.4,0.6,0.8,1.4,0.9,2.3c0.2,1.2,0,2.3-0.4,3.3c-0.6,1.4-1.7,2.3-3.1,2.7C25.6,34.9,24.9,35,24.2,35C24.3,35,24.3,35,24.2,35z
				 M13.6,26.1c-0.1,0-0.2,0-0.2-0.1c-0.3-0.4-0.6-0.8-0.9-1.2c-0.1-0.1-0.1-0.3,0.1-0.4c0.1-0.1,0.3-0.1,0.4,0.1
				c0.3,0.4,0.6,0.8,0.8,1.2c0.1,0.1,0.1,0.3-0.1,0.4C13.7,26.1,13.6,26.1,13.6,26.1z M12,23.7c-0.1,0-0.2,0-0.2-0.1
				c-0.7-1.2-1.3-2.5-1.6-3.8l-0.1-0.4c-0.1-0.3-0.1-0.5-0.2-0.8c-0.1-0.8-0.2-1.6-0.1-2.4c0-0.1,0.2-0.2,0.3-0.2
				c0.1,0,0.3,0.1,0.2,0.3c-0.1,0.7,0,1.5,0.1,2.2c0,0.3,0.1,0.5,0.2,0.7l0.1,0.4c0.4,1.2,0.9,2.4,1.6,3.6c0.1,0.1,0,0.3-0.1,0.4
				C12.1,23.7,12,23.7,12,23.7z M16.7,8.8c-0.1,0-0.3-0.1-0.3-0.3s0.1-0.3,0.3-0.3h0c0.1,0,0.3,0.1,0.3,0.3S16.9,8.8,16.7,8.8z"/>
		</g>
		<g id="XMLID_2079_">
			<path id="XMLID_2070_" class="st0" d="M26,8.2c-0.1,0-0.2,0-0.2-0.1c-0.1-0.1-0.1-0.3,0-0.4c1.5-1.1,1.8-3.6,0.7-5.1
				c-0.5-0.7-1.2-1.1-2-1.1c0,0,0,0,0,0c-0.6,0-1.2,0.3-1.7,0.7C22.1,3,21.7,4,21.7,5.1c0,0.1-0.1,0.3-0.3,0.3
				c-0.1,0-0.3-0.1-0.3-0.3c0-1.3,0.5-2.3,1.3-3.1C23,1.4,23.8,1,24.5,1c0,0,0,0,0,0c0.9,0,1.8,0.5,2.4,1.3c1.3,1.8,0.9,4.5-0.8,5.8
				C26.1,8.2,26.1,8.2,26,8.2z"/>
		</g>
		<g id="XMLID_2075_">
			<path id="XMLID_2072_" class="st0" d="M18.8,7.8c-0.1,0-0.3-0.1-0.3-0.3s0.1-0.3,0.3-0.3h0c0.1,0,0.3,0.1,0.3,0.3
				S19,7.8,18.8,7.8z M20.5,6.7c0,0-0.1,0-0.1,0c-0.1-0.1-0.2-0.2-0.1-0.4c0.7-1.3,0-3.2-1.2-3.8c-0.3-0.2-0.6-0.2-0.9-0.2
				c-0.7,0-1.3,0.4-1.5,1.1c-0.2,0.5-0.2,1.1-0.1,1.8c0,0.1-0.1,0.3-0.2,0.3c-0.2,0-0.3-0.1-0.3-0.2c-0.2-0.8-0.1-1.5,0.1-2.1
				c0.4-0.9,1.1-1.5,2-1.5c0.4,0,0.8,0.1,1.1,0.3c1.5,0.8,2.2,3,1.5,4.5C20.7,6.6,20.6,6.7,20.5,6.7z"/>
		</g>
		<g id="XMLID_2071_">
			<path id="XMLID_2326_" class="st0" d="M14.3,8.9C14.3,8.9,14.3,8.9,14.3,8.9c-0.2,0-0.3-0.1-0.3-0.3c0-0.1,0.1-0.3,0.3-0.3
				c0.5,0,1-0.3,1.3-0.9c0.5-1.1-0.1-2.7-1.2-3.2c-0.2-0.1-0.4-0.1-0.7-0.1c-0.6,0-1.1,0.4-1.3,1c-0.1,0.5-0.1,0.9,0,1.5
				c0,0.1,0,0.3-0.2,0.3c-0.1,0-0.3,0-0.3-0.2c-0.2-0.7-0.2-1.3,0-1.8c0.3-0.9,1-1.4,1.8-1.4c0.3,0,0.6,0.1,0.9,0.2
				c1.4,0.6,2.1,2.5,1.5,3.9C15.7,8.4,15,8.9,14.3,8.9C14.3,8.9,14.3,8.9,14.3,8.9z"/>
		</g>
		<g id="XMLID_2068_">
			<path id="XMLID_2346_" class="st0" d="M12.2,10.3C12.1,10.3,12.1,10.2,12.2,10.3c-0.2,0-0.3-0.2-0.3-0.3c0.3-1.1-0.5-2.6-1.6-2.9
				C10.1,7,10,7,9.8,7C9.1,7,8.6,7.5,8.5,8.2c-0.1,0.5,0,0.9,0.2,1.4c0.1,0.1,0,0.3-0.1,0.4C8.4,10,8.3,10,8.2,9.8
				C7.9,9.2,7.8,8.7,7.9,8.1c0.2-1,0.9-1.6,1.9-1.7c0.2,0,0.4,0,0.6,0.1c1.4,0.4,2.4,2.1,2,3.5C12.4,10.2,12.3,10.3,12.2,10.3z"/>
		</g>
		<g id="XMLID_2065_">
			<path id="XMLID_2348_" class="st0" d="M8.2,15.2C8.2,15.2,8.1,15.2,8.2,15.2c-0.8-0.1-1.5-0.5-1.9-1.3c-0.3-0.6-0.5-1.1-0.4-1.6
				c0.1-1,0.8-1.8,1.8-1.8c0.1,0,0.2,0,0.3,0c1.4,0.2,2.5,1.7,2.3,3.1c0,0.1-0.2,0.2-0.3,0.2c-0.1,0-0.2-0.2-0.2-0.3
				c0.2-1.1-0.7-2.3-1.8-2.5c-0.1,0-0.2,0-0.3,0c-0.7,0-1.2,0.5-1.3,1.3c0,0.4,0.1,0.8,0.4,1.3c0.4,0.6,0.9,0.9,1.5,1
				c0.1,0,0.3,0.2,0.2,0.3C8.4,15.1,8.3,15.2,8.2,15.2z"/>
		</g>
	</g>
</g>
</svg>
